%TF.GenerationSoftware,KiCad,Pcbnew,(5.1.6)-1*%
%TF.CreationDate,2021-08-15T13:32:02+02:00*%
%TF.ProjectId,sneak100_main_board,736e6561-6b31-4303-905f-6d61696e5f62,rev?*%
%TF.SameCoordinates,Original*%
%TF.FileFunction,Paste,Top*%
%TF.FilePolarity,Positive*%
%FSLAX46Y46*%
G04 Gerber Fmt 4.6, Leading zero omitted, Abs format (unit mm)*
G04 Created by KiCad (PCBNEW (5.1.6)-1) date 2021-08-15 13:32:02*
%MOMM*%
%LPD*%
G01*
G04 APERTURE LIST*
%ADD10R,0.250000X1.250000*%
%ADD11R,0.800000X0.950000*%
%ADD12R,1.500000X2.000000*%
%ADD13R,3.800000X2.000000*%
%ADD14R,1.300000X1.550000*%
%ADD15R,2.400000X2.000000*%
G04 APERTURE END LIST*
D10*
%TO.C,U4*%
X154250000Y-85375000D03*
X153750000Y-85375000D03*
X153275000Y-85375000D03*
X152775000Y-85375000D03*
X154750000Y-85375000D03*
X152250000Y-88025000D03*
X154750000Y-88025000D03*
X154250000Y-88025000D03*
D11*
X153000000Y-86700000D03*
D10*
X153750000Y-88025000D03*
D11*
X154000000Y-86700000D03*
D10*
X153250000Y-88025000D03*
X152250000Y-85375000D03*
X152750000Y-88025000D03*
%TD*%
%TO.C,U3*%
X131500000Y-85325000D03*
X131000000Y-85325000D03*
X130525000Y-85325000D03*
X130025000Y-85325000D03*
X132000000Y-85325000D03*
X129500000Y-87975000D03*
X132000000Y-87975000D03*
X131500000Y-87975000D03*
D11*
X130250000Y-86650000D03*
D10*
X131000000Y-87975000D03*
D11*
X131250000Y-86650000D03*
D10*
X130500000Y-87975000D03*
X129500000Y-85325000D03*
X130000000Y-87975000D03*
%TD*%
%TO.C,U2*%
X164000000Y-71925000D03*
X164500000Y-71925000D03*
X164975000Y-71925000D03*
X165475000Y-71925000D03*
X163500000Y-71925000D03*
X166000000Y-69275000D03*
X163500000Y-69275000D03*
X164000000Y-69275000D03*
D11*
X165250000Y-70600000D03*
D10*
X164500000Y-69275000D03*
D11*
X164250000Y-70600000D03*
D10*
X165000000Y-69275000D03*
X166000000Y-71925000D03*
X165500000Y-69275000D03*
%TD*%
%TO.C,U1*%
X141200000Y-71925000D03*
X141700000Y-71925000D03*
X142175000Y-71925000D03*
X142675000Y-71925000D03*
X140700000Y-71925000D03*
X143200000Y-69275000D03*
X140700000Y-69275000D03*
X141200000Y-69275000D03*
D11*
X142450000Y-70600000D03*
D10*
X141700000Y-69275000D03*
D11*
X141450000Y-70600000D03*
D10*
X142200000Y-69275000D03*
X143200000Y-71925000D03*
X142700000Y-69275000D03*
%TD*%
%TO.C,C21*%
G36*
G01*
X178150000Y-86675001D02*
X178150000Y-85824999D01*
G75*
G02*
X178399999Y-85575000I249999J0D01*
G01*
X179300001Y-85575000D01*
G75*
G02*
X179550000Y-85824999I0J-249999D01*
G01*
X179550000Y-86675001D01*
G75*
G02*
X179300001Y-86925000I-249999J0D01*
G01*
X178399999Y-86925000D01*
G75*
G02*
X178150000Y-86675001I0J249999D01*
G01*
G37*
G36*
G01*
X175450000Y-86675001D02*
X175450000Y-85824999D01*
G75*
G02*
X175699999Y-85575000I249999J0D01*
G01*
X176600001Y-85575000D01*
G75*
G02*
X176850000Y-85824999I0J-249999D01*
G01*
X176850000Y-86675001D01*
G75*
G02*
X176600001Y-86925000I-249999J0D01*
G01*
X175699999Y-86925000D01*
G75*
G02*
X175450000Y-86675001I0J249999D01*
G01*
G37*
%TD*%
%TO.C,C12*%
G36*
G01*
X160900000Y-84925001D02*
X160900000Y-84074999D01*
G75*
G02*
X161149999Y-83825000I249999J0D01*
G01*
X162050001Y-83825000D01*
G75*
G02*
X162300000Y-84074999I0J-249999D01*
G01*
X162300000Y-84925001D01*
G75*
G02*
X162050001Y-85175000I-249999J0D01*
G01*
X161149999Y-85175000D01*
G75*
G02*
X160900000Y-84925001I0J249999D01*
G01*
G37*
G36*
G01*
X158200000Y-84925001D02*
X158200000Y-84074999D01*
G75*
G02*
X158449999Y-83825000I249999J0D01*
G01*
X159350001Y-83825000D01*
G75*
G02*
X159600000Y-84074999I0J-249999D01*
G01*
X159600000Y-84925001D01*
G75*
G02*
X159350001Y-85175000I-249999J0D01*
G01*
X158449999Y-85175000D01*
G75*
G02*
X158200000Y-84925001I0J249999D01*
G01*
G37*
%TD*%
%TO.C,C9*%
G36*
G01*
X137900000Y-84925001D02*
X137900000Y-84074999D01*
G75*
G02*
X138149999Y-83825000I249999J0D01*
G01*
X139050001Y-83825000D01*
G75*
G02*
X139300000Y-84074999I0J-249999D01*
G01*
X139300000Y-84925001D01*
G75*
G02*
X139050001Y-85175000I-249999J0D01*
G01*
X138149999Y-85175000D01*
G75*
G02*
X137900000Y-84925001I0J249999D01*
G01*
G37*
G36*
G01*
X135200000Y-84925001D02*
X135200000Y-84074999D01*
G75*
G02*
X135449999Y-83825000I249999J0D01*
G01*
X136350001Y-83825000D01*
G75*
G02*
X136600000Y-84074999I0J-249999D01*
G01*
X136600000Y-84925001D01*
G75*
G02*
X136350001Y-85175000I-249999J0D01*
G01*
X135449999Y-85175000D01*
G75*
G02*
X135200000Y-84925001I0J249999D01*
G01*
G37*
%TD*%
%TO.C,C6*%
G36*
G01*
X156950000Y-72074999D02*
X156950000Y-72925001D01*
G75*
G02*
X156700001Y-73175000I-249999J0D01*
G01*
X155799999Y-73175000D01*
G75*
G02*
X155550000Y-72925001I0J249999D01*
G01*
X155550000Y-72074999D01*
G75*
G02*
X155799999Y-71825000I249999J0D01*
G01*
X156700001Y-71825000D01*
G75*
G02*
X156950000Y-72074999I0J-249999D01*
G01*
G37*
G36*
G01*
X159650000Y-72074999D02*
X159650000Y-72925001D01*
G75*
G02*
X159400001Y-73175000I-249999J0D01*
G01*
X158499999Y-73175000D01*
G75*
G02*
X158250000Y-72925001I0J249999D01*
G01*
X158250000Y-72074999D01*
G75*
G02*
X158499999Y-71825000I249999J0D01*
G01*
X159400001Y-71825000D01*
G75*
G02*
X159650000Y-72074999I0J-249999D01*
G01*
G37*
%TD*%
%TO.C,C3*%
G36*
G01*
X134450000Y-72424999D02*
X134450000Y-73275001D01*
G75*
G02*
X134200001Y-73525000I-249999J0D01*
G01*
X133299999Y-73525000D01*
G75*
G02*
X133050000Y-73275001I0J249999D01*
G01*
X133050000Y-72424999D01*
G75*
G02*
X133299999Y-72175000I249999J0D01*
G01*
X134200001Y-72175000D01*
G75*
G02*
X134450000Y-72424999I0J-249999D01*
G01*
G37*
G36*
G01*
X137150000Y-72424999D02*
X137150000Y-73275001D01*
G75*
G02*
X136900001Y-73525000I-249999J0D01*
G01*
X135999999Y-73525000D01*
G75*
G02*
X135750000Y-73275001I0J249999D01*
G01*
X135750000Y-72424999D01*
G75*
G02*
X135999999Y-72175000I249999J0D01*
G01*
X136900001Y-72175000D01*
G75*
G02*
X137150000Y-72424999I0J-249999D01*
G01*
G37*
%TD*%
%TO.C,C16*%
G36*
G01*
X125350000Y-93074999D02*
X125350000Y-93925001D01*
G75*
G02*
X125100001Y-94175000I-249999J0D01*
G01*
X124199999Y-94175000D01*
G75*
G02*
X123950000Y-93925001I0J249999D01*
G01*
X123950000Y-93074999D01*
G75*
G02*
X124199999Y-92825000I249999J0D01*
G01*
X125100001Y-92825000D01*
G75*
G02*
X125350000Y-93074999I0J-249999D01*
G01*
G37*
G36*
G01*
X128050000Y-93074999D02*
X128050000Y-93925001D01*
G75*
G02*
X127800001Y-94175000I-249999J0D01*
G01*
X126899999Y-94175000D01*
G75*
G02*
X126650000Y-93925001I0J249999D01*
G01*
X126650000Y-93074999D01*
G75*
G02*
X126899999Y-92825000I249999J0D01*
G01*
X127800001Y-92825000D01*
G75*
G02*
X128050000Y-93074999I0J-249999D01*
G01*
G37*
%TD*%
%TO.C,C15*%
G36*
G01*
X127824999Y-107900000D02*
X128675001Y-107900000D01*
G75*
G02*
X128925000Y-108149999I0J-249999D01*
G01*
X128925000Y-109050001D01*
G75*
G02*
X128675001Y-109300000I-249999J0D01*
G01*
X127824999Y-109300000D01*
G75*
G02*
X127575000Y-109050001I0J249999D01*
G01*
X127575000Y-108149999D01*
G75*
G02*
X127824999Y-107900000I249999J0D01*
G01*
G37*
G36*
G01*
X127824999Y-105200000D02*
X128675001Y-105200000D01*
G75*
G02*
X128925000Y-105449999I0J-249999D01*
G01*
X128925000Y-106350001D01*
G75*
G02*
X128675001Y-106600000I-249999J0D01*
G01*
X127824999Y-106600000D01*
G75*
G02*
X127575000Y-106350001I0J249999D01*
G01*
X127575000Y-105449999D01*
G75*
G02*
X127824999Y-105200000I249999J0D01*
G01*
G37*
%TD*%
%TO.C,C13*%
G36*
G01*
X162550000Y-105293750D02*
X162550000Y-106206250D01*
G75*
G02*
X162306250Y-106450000I-243750J0D01*
G01*
X161818750Y-106450000D01*
G75*
G02*
X161575000Y-106206250I0J243750D01*
G01*
X161575000Y-105293750D01*
G75*
G02*
X161818750Y-105050000I243750J0D01*
G01*
X162306250Y-105050000D01*
G75*
G02*
X162550000Y-105293750I0J-243750D01*
G01*
G37*
G36*
G01*
X164425000Y-105293750D02*
X164425000Y-106206250D01*
G75*
G02*
X164181250Y-106450000I-243750J0D01*
G01*
X163693750Y-106450000D01*
G75*
G02*
X163450000Y-106206250I0J243750D01*
G01*
X163450000Y-105293750D01*
G75*
G02*
X163693750Y-105050000I243750J0D01*
G01*
X164181250Y-105050000D01*
G75*
G02*
X164425000Y-105293750I0J-243750D01*
G01*
G37*
%TD*%
%TO.C,Q2*%
G36*
G01*
X150750000Y-97005000D02*
X150750000Y-97305000D01*
G75*
G02*
X150600000Y-97455000I-150000J0D01*
G01*
X148950000Y-97455000D01*
G75*
G02*
X148800000Y-97305000I0J150000D01*
G01*
X148800000Y-97005000D01*
G75*
G02*
X148950000Y-96855000I150000J0D01*
G01*
X150600000Y-96855000D01*
G75*
G02*
X150750000Y-97005000I0J-150000D01*
G01*
G37*
G36*
G01*
X150750000Y-95735000D02*
X150750000Y-96035000D01*
G75*
G02*
X150600000Y-96185000I-150000J0D01*
G01*
X148950000Y-96185000D01*
G75*
G02*
X148800000Y-96035000I0J150000D01*
G01*
X148800000Y-95735000D01*
G75*
G02*
X148950000Y-95585000I150000J0D01*
G01*
X150600000Y-95585000D01*
G75*
G02*
X150750000Y-95735000I0J-150000D01*
G01*
G37*
G36*
G01*
X150750000Y-94465000D02*
X150750000Y-94765000D01*
G75*
G02*
X150600000Y-94915000I-150000J0D01*
G01*
X148950000Y-94915000D01*
G75*
G02*
X148800000Y-94765000I0J150000D01*
G01*
X148800000Y-94465000D01*
G75*
G02*
X148950000Y-94315000I150000J0D01*
G01*
X150600000Y-94315000D01*
G75*
G02*
X150750000Y-94465000I0J-150000D01*
G01*
G37*
G36*
G01*
X150750000Y-93195000D02*
X150750000Y-93495000D01*
G75*
G02*
X150600000Y-93645000I-150000J0D01*
G01*
X148950000Y-93645000D01*
G75*
G02*
X148800000Y-93495000I0J150000D01*
G01*
X148800000Y-93195000D01*
G75*
G02*
X148950000Y-93045000I150000J0D01*
G01*
X150600000Y-93045000D01*
G75*
G02*
X150750000Y-93195000I0J-150000D01*
G01*
G37*
G36*
G01*
X155700000Y-93195000D02*
X155700000Y-93495000D01*
G75*
G02*
X155550000Y-93645000I-150000J0D01*
G01*
X153900000Y-93645000D01*
G75*
G02*
X153750000Y-93495000I0J150000D01*
G01*
X153750000Y-93195000D01*
G75*
G02*
X153900000Y-93045000I150000J0D01*
G01*
X155550000Y-93045000D01*
G75*
G02*
X155700000Y-93195000I0J-150000D01*
G01*
G37*
G36*
G01*
X155700000Y-94465000D02*
X155700000Y-94765000D01*
G75*
G02*
X155550000Y-94915000I-150000J0D01*
G01*
X153900000Y-94915000D01*
G75*
G02*
X153750000Y-94765000I0J150000D01*
G01*
X153750000Y-94465000D01*
G75*
G02*
X153900000Y-94315000I150000J0D01*
G01*
X155550000Y-94315000D01*
G75*
G02*
X155700000Y-94465000I0J-150000D01*
G01*
G37*
G36*
G01*
X155700000Y-95735000D02*
X155700000Y-96035000D01*
G75*
G02*
X155550000Y-96185000I-150000J0D01*
G01*
X153900000Y-96185000D01*
G75*
G02*
X153750000Y-96035000I0J150000D01*
G01*
X153750000Y-95735000D01*
G75*
G02*
X153900000Y-95585000I150000J0D01*
G01*
X155550000Y-95585000D01*
G75*
G02*
X155700000Y-95735000I0J-150000D01*
G01*
G37*
G36*
G01*
X155700000Y-97005000D02*
X155700000Y-97305000D01*
G75*
G02*
X155550000Y-97455000I-150000J0D01*
G01*
X153900000Y-97455000D01*
G75*
G02*
X153750000Y-97305000I0J150000D01*
G01*
X153750000Y-97005000D01*
G75*
G02*
X153900000Y-96855000I150000J0D01*
G01*
X155550000Y-96855000D01*
G75*
G02*
X155700000Y-97005000I0J-150000D01*
G01*
G37*
%TD*%
%TO.C,Q1*%
G36*
G01*
X144750000Y-93495000D02*
X144750000Y-93195000D01*
G75*
G02*
X144900000Y-93045000I150000J0D01*
G01*
X146550000Y-93045000D01*
G75*
G02*
X146700000Y-93195000I0J-150000D01*
G01*
X146700000Y-93495000D01*
G75*
G02*
X146550000Y-93645000I-150000J0D01*
G01*
X144900000Y-93645000D01*
G75*
G02*
X144750000Y-93495000I0J150000D01*
G01*
G37*
G36*
G01*
X144750000Y-94765000D02*
X144750000Y-94465000D01*
G75*
G02*
X144900000Y-94315000I150000J0D01*
G01*
X146550000Y-94315000D01*
G75*
G02*
X146700000Y-94465000I0J-150000D01*
G01*
X146700000Y-94765000D01*
G75*
G02*
X146550000Y-94915000I-150000J0D01*
G01*
X144900000Y-94915000D01*
G75*
G02*
X144750000Y-94765000I0J150000D01*
G01*
G37*
G36*
G01*
X144750000Y-96035000D02*
X144750000Y-95735000D01*
G75*
G02*
X144900000Y-95585000I150000J0D01*
G01*
X146550000Y-95585000D01*
G75*
G02*
X146700000Y-95735000I0J-150000D01*
G01*
X146700000Y-96035000D01*
G75*
G02*
X146550000Y-96185000I-150000J0D01*
G01*
X144900000Y-96185000D01*
G75*
G02*
X144750000Y-96035000I0J150000D01*
G01*
G37*
G36*
G01*
X144750000Y-97305000D02*
X144750000Y-97005000D01*
G75*
G02*
X144900000Y-96855000I150000J0D01*
G01*
X146550000Y-96855000D01*
G75*
G02*
X146700000Y-97005000I0J-150000D01*
G01*
X146700000Y-97305000D01*
G75*
G02*
X146550000Y-97455000I-150000J0D01*
G01*
X144900000Y-97455000D01*
G75*
G02*
X144750000Y-97305000I0J150000D01*
G01*
G37*
G36*
G01*
X139800000Y-97305000D02*
X139800000Y-97005000D01*
G75*
G02*
X139950000Y-96855000I150000J0D01*
G01*
X141600000Y-96855000D01*
G75*
G02*
X141750000Y-97005000I0J-150000D01*
G01*
X141750000Y-97305000D01*
G75*
G02*
X141600000Y-97455000I-150000J0D01*
G01*
X139950000Y-97455000D01*
G75*
G02*
X139800000Y-97305000I0J150000D01*
G01*
G37*
G36*
G01*
X139800000Y-96035000D02*
X139800000Y-95735000D01*
G75*
G02*
X139950000Y-95585000I150000J0D01*
G01*
X141600000Y-95585000D01*
G75*
G02*
X141750000Y-95735000I0J-150000D01*
G01*
X141750000Y-96035000D01*
G75*
G02*
X141600000Y-96185000I-150000J0D01*
G01*
X139950000Y-96185000D01*
G75*
G02*
X139800000Y-96035000I0J150000D01*
G01*
G37*
G36*
G01*
X139800000Y-94765000D02*
X139800000Y-94465000D01*
G75*
G02*
X139950000Y-94315000I150000J0D01*
G01*
X141600000Y-94315000D01*
G75*
G02*
X141750000Y-94465000I0J-150000D01*
G01*
X141750000Y-94765000D01*
G75*
G02*
X141600000Y-94915000I-150000J0D01*
G01*
X139950000Y-94915000D01*
G75*
G02*
X139800000Y-94765000I0J150000D01*
G01*
G37*
G36*
G01*
X139800000Y-93495000D02*
X139800000Y-93195000D01*
G75*
G02*
X139950000Y-93045000I150000J0D01*
G01*
X141600000Y-93045000D01*
G75*
G02*
X141750000Y-93195000I0J-150000D01*
G01*
X141750000Y-93495000D01*
G75*
G02*
X141600000Y-93645000I-150000J0D01*
G01*
X139950000Y-93645000D01*
G75*
G02*
X139800000Y-93495000I0J150000D01*
G01*
G37*
%TD*%
D12*
%TO.C,U5*%
X125950000Y-102900000D03*
X130550000Y-102900000D03*
X128250000Y-102900000D03*
D13*
X128250000Y-96600000D03*
%TD*%
%TO.C,U9*%
G36*
G01*
X154025572Y-60760140D02*
X155015522Y-61750090D01*
G75*
G02*
X155015522Y-61856156I-53033J-53033D01*
G01*
X154909456Y-61962222D01*
G75*
G02*
X154803390Y-61962222I-53033J53033D01*
G01*
X153813440Y-60972272D01*
G75*
G02*
X153813440Y-60866206I53033J53033D01*
G01*
X153919506Y-60760140D01*
G75*
G02*
X154025572Y-60760140I53033J-53033D01*
G01*
G37*
G36*
G01*
X153672019Y-61113693D02*
X154661969Y-62103643D01*
G75*
G02*
X154661969Y-62209709I-53033J-53033D01*
G01*
X154555903Y-62315775D01*
G75*
G02*
X154449837Y-62315775I-53033J53033D01*
G01*
X153459887Y-61325825D01*
G75*
G02*
X153459887Y-61219759I53033J53033D01*
G01*
X153565953Y-61113693D01*
G75*
G02*
X153672019Y-61113693I53033J-53033D01*
G01*
G37*
G36*
G01*
X153318466Y-61467246D02*
X154308416Y-62457196D01*
G75*
G02*
X154308416Y-62563262I-53033J-53033D01*
G01*
X154202350Y-62669328D01*
G75*
G02*
X154096284Y-62669328I-53033J53033D01*
G01*
X153106334Y-61679378D01*
G75*
G02*
X153106334Y-61573312I53033J53033D01*
G01*
X153212400Y-61467246D01*
G75*
G02*
X153318466Y-61467246I53033J-53033D01*
G01*
G37*
G36*
G01*
X152964912Y-61820800D02*
X153954862Y-62810750D01*
G75*
G02*
X153954862Y-62916816I-53033J-53033D01*
G01*
X153848796Y-63022882D01*
G75*
G02*
X153742730Y-63022882I-53033J53033D01*
G01*
X152752780Y-62032932D01*
G75*
G02*
X152752780Y-61926866I53033J53033D01*
G01*
X152858846Y-61820800D01*
G75*
G02*
X152964912Y-61820800I53033J-53033D01*
G01*
G37*
G36*
G01*
X152611359Y-62174353D02*
X153601309Y-63164303D01*
G75*
G02*
X153601309Y-63270369I-53033J-53033D01*
G01*
X153495243Y-63376435D01*
G75*
G02*
X153389177Y-63376435I-53033J53033D01*
G01*
X152399227Y-62386485D01*
G75*
G02*
X152399227Y-62280419I53033J53033D01*
G01*
X152505293Y-62174353D01*
G75*
G02*
X152611359Y-62174353I53033J-53033D01*
G01*
G37*
G36*
G01*
X152257805Y-62527907D02*
X153247755Y-63517857D01*
G75*
G02*
X153247755Y-63623923I-53033J-53033D01*
G01*
X153141689Y-63729989D01*
G75*
G02*
X153035623Y-63729989I-53033J53033D01*
G01*
X152045673Y-62740039D01*
G75*
G02*
X152045673Y-62633973I53033J53033D01*
G01*
X152151739Y-62527907D01*
G75*
G02*
X152257805Y-62527907I53033J-53033D01*
G01*
G37*
G36*
G01*
X151904252Y-62881460D02*
X152894202Y-63871410D01*
G75*
G02*
X152894202Y-63977476I-53033J-53033D01*
G01*
X152788136Y-64083542D01*
G75*
G02*
X152682070Y-64083542I-53033J53033D01*
G01*
X151692120Y-63093592D01*
G75*
G02*
X151692120Y-62987526I53033J53033D01*
G01*
X151798186Y-62881460D01*
G75*
G02*
X151904252Y-62881460I53033J-53033D01*
G01*
G37*
G36*
G01*
X151550699Y-63235013D02*
X152540649Y-64224963D01*
G75*
G02*
X152540649Y-64331029I-53033J-53033D01*
G01*
X152434583Y-64437095D01*
G75*
G02*
X152328517Y-64437095I-53033J53033D01*
G01*
X151338567Y-63447145D01*
G75*
G02*
X151338567Y-63341079I53033J53033D01*
G01*
X151444633Y-63235013D01*
G75*
G02*
X151550699Y-63235013I53033J-53033D01*
G01*
G37*
G36*
G01*
X151197145Y-63588567D02*
X152187095Y-64578517D01*
G75*
G02*
X152187095Y-64684583I-53033J-53033D01*
G01*
X152081029Y-64790649D01*
G75*
G02*
X151974963Y-64790649I-53033J53033D01*
G01*
X150985013Y-63800699D01*
G75*
G02*
X150985013Y-63694633I53033J53033D01*
G01*
X151091079Y-63588567D01*
G75*
G02*
X151197145Y-63588567I53033J-53033D01*
G01*
G37*
G36*
G01*
X150843592Y-63942120D02*
X151833542Y-64932070D01*
G75*
G02*
X151833542Y-65038136I-53033J-53033D01*
G01*
X151727476Y-65144202D01*
G75*
G02*
X151621410Y-65144202I-53033J53033D01*
G01*
X150631460Y-64154252D01*
G75*
G02*
X150631460Y-64048186I53033J53033D01*
G01*
X150737526Y-63942120D01*
G75*
G02*
X150843592Y-63942120I53033J-53033D01*
G01*
G37*
G36*
G01*
X150490039Y-64295673D02*
X151479989Y-65285623D01*
G75*
G02*
X151479989Y-65391689I-53033J-53033D01*
G01*
X151373923Y-65497755D01*
G75*
G02*
X151267857Y-65497755I-53033J53033D01*
G01*
X150277907Y-64507805D01*
G75*
G02*
X150277907Y-64401739I53033J53033D01*
G01*
X150383973Y-64295673D01*
G75*
G02*
X150490039Y-64295673I53033J-53033D01*
G01*
G37*
G36*
G01*
X150136485Y-64649227D02*
X151126435Y-65639177D01*
G75*
G02*
X151126435Y-65745243I-53033J-53033D01*
G01*
X151020369Y-65851309D01*
G75*
G02*
X150914303Y-65851309I-53033J53033D01*
G01*
X149924353Y-64861359D01*
G75*
G02*
X149924353Y-64755293I53033J53033D01*
G01*
X150030419Y-64649227D01*
G75*
G02*
X150136485Y-64649227I53033J-53033D01*
G01*
G37*
G36*
G01*
X149782932Y-65002780D02*
X150772882Y-65992730D01*
G75*
G02*
X150772882Y-66098796I-53033J-53033D01*
G01*
X150666816Y-66204862D01*
G75*
G02*
X150560750Y-66204862I-53033J53033D01*
G01*
X149570800Y-65214912D01*
G75*
G02*
X149570800Y-65108846I53033J53033D01*
G01*
X149676866Y-65002780D01*
G75*
G02*
X149782932Y-65002780I53033J-53033D01*
G01*
G37*
G36*
G01*
X149429378Y-65356334D02*
X150419328Y-66346284D01*
G75*
G02*
X150419328Y-66452350I-53033J-53033D01*
G01*
X150313262Y-66558416D01*
G75*
G02*
X150207196Y-66558416I-53033J53033D01*
G01*
X149217246Y-65568466D01*
G75*
G02*
X149217246Y-65462400I53033J53033D01*
G01*
X149323312Y-65356334D01*
G75*
G02*
X149429378Y-65356334I53033J-53033D01*
G01*
G37*
G36*
G01*
X149075825Y-65709887D02*
X150065775Y-66699837D01*
G75*
G02*
X150065775Y-66805903I-53033J-53033D01*
G01*
X149959709Y-66911969D01*
G75*
G02*
X149853643Y-66911969I-53033J53033D01*
G01*
X148863693Y-65922019D01*
G75*
G02*
X148863693Y-65815953I53033J53033D01*
G01*
X148969759Y-65709887D01*
G75*
G02*
X149075825Y-65709887I53033J-53033D01*
G01*
G37*
G36*
G01*
X148722272Y-66063440D02*
X149712222Y-67053390D01*
G75*
G02*
X149712222Y-67159456I-53033J-53033D01*
G01*
X149606156Y-67265522D01*
G75*
G02*
X149500090Y-67265522I-53033J53033D01*
G01*
X148510140Y-66275572D01*
G75*
G02*
X148510140Y-66169506I53033J53033D01*
G01*
X148616206Y-66063440D01*
G75*
G02*
X148722272Y-66063440I53033J-53033D01*
G01*
G37*
G36*
G01*
X146883794Y-66063440D02*
X146989860Y-66169506D01*
G75*
G02*
X146989860Y-66275572I-53033J-53033D01*
G01*
X145999910Y-67265522D01*
G75*
G02*
X145893844Y-67265522I-53033J53033D01*
G01*
X145787778Y-67159456D01*
G75*
G02*
X145787778Y-67053390I53033J53033D01*
G01*
X146777728Y-66063440D01*
G75*
G02*
X146883794Y-66063440I53033J-53033D01*
G01*
G37*
G36*
G01*
X146530241Y-65709887D02*
X146636307Y-65815953D01*
G75*
G02*
X146636307Y-65922019I-53033J-53033D01*
G01*
X145646357Y-66911969D01*
G75*
G02*
X145540291Y-66911969I-53033J53033D01*
G01*
X145434225Y-66805903D01*
G75*
G02*
X145434225Y-66699837I53033J53033D01*
G01*
X146424175Y-65709887D01*
G75*
G02*
X146530241Y-65709887I53033J-53033D01*
G01*
G37*
G36*
G01*
X146176688Y-65356334D02*
X146282754Y-65462400D01*
G75*
G02*
X146282754Y-65568466I-53033J-53033D01*
G01*
X145292804Y-66558416D01*
G75*
G02*
X145186738Y-66558416I-53033J53033D01*
G01*
X145080672Y-66452350D01*
G75*
G02*
X145080672Y-66346284I53033J53033D01*
G01*
X146070622Y-65356334D01*
G75*
G02*
X146176688Y-65356334I53033J-53033D01*
G01*
G37*
G36*
G01*
X145823134Y-65002780D02*
X145929200Y-65108846D01*
G75*
G02*
X145929200Y-65214912I-53033J-53033D01*
G01*
X144939250Y-66204862D01*
G75*
G02*
X144833184Y-66204862I-53033J53033D01*
G01*
X144727118Y-66098796D01*
G75*
G02*
X144727118Y-65992730I53033J53033D01*
G01*
X145717068Y-65002780D01*
G75*
G02*
X145823134Y-65002780I53033J-53033D01*
G01*
G37*
G36*
G01*
X145469581Y-64649227D02*
X145575647Y-64755293D01*
G75*
G02*
X145575647Y-64861359I-53033J-53033D01*
G01*
X144585697Y-65851309D01*
G75*
G02*
X144479631Y-65851309I-53033J53033D01*
G01*
X144373565Y-65745243D01*
G75*
G02*
X144373565Y-65639177I53033J53033D01*
G01*
X145363515Y-64649227D01*
G75*
G02*
X145469581Y-64649227I53033J-53033D01*
G01*
G37*
G36*
G01*
X145116027Y-64295673D02*
X145222093Y-64401739D01*
G75*
G02*
X145222093Y-64507805I-53033J-53033D01*
G01*
X144232143Y-65497755D01*
G75*
G02*
X144126077Y-65497755I-53033J53033D01*
G01*
X144020011Y-65391689D01*
G75*
G02*
X144020011Y-65285623I53033J53033D01*
G01*
X145009961Y-64295673D01*
G75*
G02*
X145116027Y-64295673I53033J-53033D01*
G01*
G37*
G36*
G01*
X144762474Y-63942120D02*
X144868540Y-64048186D01*
G75*
G02*
X144868540Y-64154252I-53033J-53033D01*
G01*
X143878590Y-65144202D01*
G75*
G02*
X143772524Y-65144202I-53033J53033D01*
G01*
X143666458Y-65038136D01*
G75*
G02*
X143666458Y-64932070I53033J53033D01*
G01*
X144656408Y-63942120D01*
G75*
G02*
X144762474Y-63942120I53033J-53033D01*
G01*
G37*
G36*
G01*
X144408921Y-63588567D02*
X144514987Y-63694633D01*
G75*
G02*
X144514987Y-63800699I-53033J-53033D01*
G01*
X143525037Y-64790649D01*
G75*
G02*
X143418971Y-64790649I-53033J53033D01*
G01*
X143312905Y-64684583D01*
G75*
G02*
X143312905Y-64578517I53033J53033D01*
G01*
X144302855Y-63588567D01*
G75*
G02*
X144408921Y-63588567I53033J-53033D01*
G01*
G37*
G36*
G01*
X144055367Y-63235013D02*
X144161433Y-63341079D01*
G75*
G02*
X144161433Y-63447145I-53033J-53033D01*
G01*
X143171483Y-64437095D01*
G75*
G02*
X143065417Y-64437095I-53033J53033D01*
G01*
X142959351Y-64331029D01*
G75*
G02*
X142959351Y-64224963I53033J53033D01*
G01*
X143949301Y-63235013D01*
G75*
G02*
X144055367Y-63235013I53033J-53033D01*
G01*
G37*
G36*
G01*
X143701814Y-62881460D02*
X143807880Y-62987526D01*
G75*
G02*
X143807880Y-63093592I-53033J-53033D01*
G01*
X142817930Y-64083542D01*
G75*
G02*
X142711864Y-64083542I-53033J53033D01*
G01*
X142605798Y-63977476D01*
G75*
G02*
X142605798Y-63871410I53033J53033D01*
G01*
X143595748Y-62881460D01*
G75*
G02*
X143701814Y-62881460I53033J-53033D01*
G01*
G37*
G36*
G01*
X143348261Y-62527907D02*
X143454327Y-62633973D01*
G75*
G02*
X143454327Y-62740039I-53033J-53033D01*
G01*
X142464377Y-63729989D01*
G75*
G02*
X142358311Y-63729989I-53033J53033D01*
G01*
X142252245Y-63623923D01*
G75*
G02*
X142252245Y-63517857I53033J53033D01*
G01*
X143242195Y-62527907D01*
G75*
G02*
X143348261Y-62527907I53033J-53033D01*
G01*
G37*
G36*
G01*
X142994707Y-62174353D02*
X143100773Y-62280419D01*
G75*
G02*
X143100773Y-62386485I-53033J-53033D01*
G01*
X142110823Y-63376435D01*
G75*
G02*
X142004757Y-63376435I-53033J53033D01*
G01*
X141898691Y-63270369D01*
G75*
G02*
X141898691Y-63164303I53033J53033D01*
G01*
X142888641Y-62174353D01*
G75*
G02*
X142994707Y-62174353I53033J-53033D01*
G01*
G37*
G36*
G01*
X142641154Y-61820800D02*
X142747220Y-61926866D01*
G75*
G02*
X142747220Y-62032932I-53033J-53033D01*
G01*
X141757270Y-63022882D01*
G75*
G02*
X141651204Y-63022882I-53033J53033D01*
G01*
X141545138Y-62916816D01*
G75*
G02*
X141545138Y-62810750I53033J53033D01*
G01*
X142535088Y-61820800D01*
G75*
G02*
X142641154Y-61820800I53033J-53033D01*
G01*
G37*
G36*
G01*
X142287600Y-61467246D02*
X142393666Y-61573312D01*
G75*
G02*
X142393666Y-61679378I-53033J-53033D01*
G01*
X141403716Y-62669328D01*
G75*
G02*
X141297650Y-62669328I-53033J53033D01*
G01*
X141191584Y-62563262D01*
G75*
G02*
X141191584Y-62457196I53033J53033D01*
G01*
X142181534Y-61467246D01*
G75*
G02*
X142287600Y-61467246I53033J-53033D01*
G01*
G37*
G36*
G01*
X141934047Y-61113693D02*
X142040113Y-61219759D01*
G75*
G02*
X142040113Y-61325825I-53033J-53033D01*
G01*
X141050163Y-62315775D01*
G75*
G02*
X140944097Y-62315775I-53033J53033D01*
G01*
X140838031Y-62209709D01*
G75*
G02*
X140838031Y-62103643I53033J53033D01*
G01*
X141827981Y-61113693D01*
G75*
G02*
X141934047Y-61113693I53033J-53033D01*
G01*
G37*
G36*
G01*
X141580494Y-60760140D02*
X141686560Y-60866206D01*
G75*
G02*
X141686560Y-60972272I-53033J-53033D01*
G01*
X140696610Y-61962222D01*
G75*
G02*
X140590544Y-61962222I-53033J53033D01*
G01*
X140484478Y-61856156D01*
G75*
G02*
X140484478Y-61750090I53033J53033D01*
G01*
X141474428Y-60760140D01*
G75*
G02*
X141580494Y-60760140I53033J-53033D01*
G01*
G37*
G36*
G01*
X140696610Y-58037778D02*
X141686560Y-59027728D01*
G75*
G02*
X141686560Y-59133794I-53033J-53033D01*
G01*
X141580494Y-59239860D01*
G75*
G02*
X141474428Y-59239860I-53033J53033D01*
G01*
X140484478Y-58249910D01*
G75*
G02*
X140484478Y-58143844I53033J53033D01*
G01*
X140590544Y-58037778D01*
G75*
G02*
X140696610Y-58037778I53033J-53033D01*
G01*
G37*
G36*
G01*
X141050163Y-57684225D02*
X142040113Y-58674175D01*
G75*
G02*
X142040113Y-58780241I-53033J-53033D01*
G01*
X141934047Y-58886307D01*
G75*
G02*
X141827981Y-58886307I-53033J53033D01*
G01*
X140838031Y-57896357D01*
G75*
G02*
X140838031Y-57790291I53033J53033D01*
G01*
X140944097Y-57684225D01*
G75*
G02*
X141050163Y-57684225I53033J-53033D01*
G01*
G37*
G36*
G01*
X141403716Y-57330672D02*
X142393666Y-58320622D01*
G75*
G02*
X142393666Y-58426688I-53033J-53033D01*
G01*
X142287600Y-58532754D01*
G75*
G02*
X142181534Y-58532754I-53033J53033D01*
G01*
X141191584Y-57542804D01*
G75*
G02*
X141191584Y-57436738I53033J53033D01*
G01*
X141297650Y-57330672D01*
G75*
G02*
X141403716Y-57330672I53033J-53033D01*
G01*
G37*
G36*
G01*
X141757270Y-56977118D02*
X142747220Y-57967068D01*
G75*
G02*
X142747220Y-58073134I-53033J-53033D01*
G01*
X142641154Y-58179200D01*
G75*
G02*
X142535088Y-58179200I-53033J53033D01*
G01*
X141545138Y-57189250D01*
G75*
G02*
X141545138Y-57083184I53033J53033D01*
G01*
X141651204Y-56977118D01*
G75*
G02*
X141757270Y-56977118I53033J-53033D01*
G01*
G37*
G36*
G01*
X142110823Y-56623565D02*
X143100773Y-57613515D01*
G75*
G02*
X143100773Y-57719581I-53033J-53033D01*
G01*
X142994707Y-57825647D01*
G75*
G02*
X142888641Y-57825647I-53033J53033D01*
G01*
X141898691Y-56835697D01*
G75*
G02*
X141898691Y-56729631I53033J53033D01*
G01*
X142004757Y-56623565D01*
G75*
G02*
X142110823Y-56623565I53033J-53033D01*
G01*
G37*
G36*
G01*
X142464377Y-56270011D02*
X143454327Y-57259961D01*
G75*
G02*
X143454327Y-57366027I-53033J-53033D01*
G01*
X143348261Y-57472093D01*
G75*
G02*
X143242195Y-57472093I-53033J53033D01*
G01*
X142252245Y-56482143D01*
G75*
G02*
X142252245Y-56376077I53033J53033D01*
G01*
X142358311Y-56270011D01*
G75*
G02*
X142464377Y-56270011I53033J-53033D01*
G01*
G37*
G36*
G01*
X142817930Y-55916458D02*
X143807880Y-56906408D01*
G75*
G02*
X143807880Y-57012474I-53033J-53033D01*
G01*
X143701814Y-57118540D01*
G75*
G02*
X143595748Y-57118540I-53033J53033D01*
G01*
X142605798Y-56128590D01*
G75*
G02*
X142605798Y-56022524I53033J53033D01*
G01*
X142711864Y-55916458D01*
G75*
G02*
X142817930Y-55916458I53033J-53033D01*
G01*
G37*
G36*
G01*
X143171483Y-55562905D02*
X144161433Y-56552855D01*
G75*
G02*
X144161433Y-56658921I-53033J-53033D01*
G01*
X144055367Y-56764987D01*
G75*
G02*
X143949301Y-56764987I-53033J53033D01*
G01*
X142959351Y-55775037D01*
G75*
G02*
X142959351Y-55668971I53033J53033D01*
G01*
X143065417Y-55562905D01*
G75*
G02*
X143171483Y-55562905I53033J-53033D01*
G01*
G37*
G36*
G01*
X143525037Y-55209351D02*
X144514987Y-56199301D01*
G75*
G02*
X144514987Y-56305367I-53033J-53033D01*
G01*
X144408921Y-56411433D01*
G75*
G02*
X144302855Y-56411433I-53033J53033D01*
G01*
X143312905Y-55421483D01*
G75*
G02*
X143312905Y-55315417I53033J53033D01*
G01*
X143418971Y-55209351D01*
G75*
G02*
X143525037Y-55209351I53033J-53033D01*
G01*
G37*
G36*
G01*
X143878590Y-54855798D02*
X144868540Y-55845748D01*
G75*
G02*
X144868540Y-55951814I-53033J-53033D01*
G01*
X144762474Y-56057880D01*
G75*
G02*
X144656408Y-56057880I-53033J53033D01*
G01*
X143666458Y-55067930D01*
G75*
G02*
X143666458Y-54961864I53033J53033D01*
G01*
X143772524Y-54855798D01*
G75*
G02*
X143878590Y-54855798I53033J-53033D01*
G01*
G37*
G36*
G01*
X144232143Y-54502245D02*
X145222093Y-55492195D01*
G75*
G02*
X145222093Y-55598261I-53033J-53033D01*
G01*
X145116027Y-55704327D01*
G75*
G02*
X145009961Y-55704327I-53033J53033D01*
G01*
X144020011Y-54714377D01*
G75*
G02*
X144020011Y-54608311I53033J53033D01*
G01*
X144126077Y-54502245D01*
G75*
G02*
X144232143Y-54502245I53033J-53033D01*
G01*
G37*
G36*
G01*
X144585697Y-54148691D02*
X145575647Y-55138641D01*
G75*
G02*
X145575647Y-55244707I-53033J-53033D01*
G01*
X145469581Y-55350773D01*
G75*
G02*
X145363515Y-55350773I-53033J53033D01*
G01*
X144373565Y-54360823D01*
G75*
G02*
X144373565Y-54254757I53033J53033D01*
G01*
X144479631Y-54148691D01*
G75*
G02*
X144585697Y-54148691I53033J-53033D01*
G01*
G37*
G36*
G01*
X144939250Y-53795138D02*
X145929200Y-54785088D01*
G75*
G02*
X145929200Y-54891154I-53033J-53033D01*
G01*
X145823134Y-54997220D01*
G75*
G02*
X145717068Y-54997220I-53033J53033D01*
G01*
X144727118Y-54007270D01*
G75*
G02*
X144727118Y-53901204I53033J53033D01*
G01*
X144833184Y-53795138D01*
G75*
G02*
X144939250Y-53795138I53033J-53033D01*
G01*
G37*
G36*
G01*
X145292804Y-53441584D02*
X146282754Y-54431534D01*
G75*
G02*
X146282754Y-54537600I-53033J-53033D01*
G01*
X146176688Y-54643666D01*
G75*
G02*
X146070622Y-54643666I-53033J53033D01*
G01*
X145080672Y-53653716D01*
G75*
G02*
X145080672Y-53547650I53033J53033D01*
G01*
X145186738Y-53441584D01*
G75*
G02*
X145292804Y-53441584I53033J-53033D01*
G01*
G37*
G36*
G01*
X145646357Y-53088031D02*
X146636307Y-54077981D01*
G75*
G02*
X146636307Y-54184047I-53033J-53033D01*
G01*
X146530241Y-54290113D01*
G75*
G02*
X146424175Y-54290113I-53033J53033D01*
G01*
X145434225Y-53300163D01*
G75*
G02*
X145434225Y-53194097I53033J53033D01*
G01*
X145540291Y-53088031D01*
G75*
G02*
X145646357Y-53088031I53033J-53033D01*
G01*
G37*
G36*
G01*
X145999910Y-52734478D02*
X146989860Y-53724428D01*
G75*
G02*
X146989860Y-53830494I-53033J-53033D01*
G01*
X146883794Y-53936560D01*
G75*
G02*
X146777728Y-53936560I-53033J53033D01*
G01*
X145787778Y-52946610D01*
G75*
G02*
X145787778Y-52840544I53033J53033D01*
G01*
X145893844Y-52734478D01*
G75*
G02*
X145999910Y-52734478I53033J-53033D01*
G01*
G37*
G36*
G01*
X149606156Y-52734478D02*
X149712222Y-52840544D01*
G75*
G02*
X149712222Y-52946610I-53033J-53033D01*
G01*
X148722272Y-53936560D01*
G75*
G02*
X148616206Y-53936560I-53033J53033D01*
G01*
X148510140Y-53830494D01*
G75*
G02*
X148510140Y-53724428I53033J53033D01*
G01*
X149500090Y-52734478D01*
G75*
G02*
X149606156Y-52734478I53033J-53033D01*
G01*
G37*
G36*
G01*
X149959709Y-53088031D02*
X150065775Y-53194097D01*
G75*
G02*
X150065775Y-53300163I-53033J-53033D01*
G01*
X149075825Y-54290113D01*
G75*
G02*
X148969759Y-54290113I-53033J53033D01*
G01*
X148863693Y-54184047D01*
G75*
G02*
X148863693Y-54077981I53033J53033D01*
G01*
X149853643Y-53088031D01*
G75*
G02*
X149959709Y-53088031I53033J-53033D01*
G01*
G37*
G36*
G01*
X150313262Y-53441584D02*
X150419328Y-53547650D01*
G75*
G02*
X150419328Y-53653716I-53033J-53033D01*
G01*
X149429378Y-54643666D01*
G75*
G02*
X149323312Y-54643666I-53033J53033D01*
G01*
X149217246Y-54537600D01*
G75*
G02*
X149217246Y-54431534I53033J53033D01*
G01*
X150207196Y-53441584D01*
G75*
G02*
X150313262Y-53441584I53033J-53033D01*
G01*
G37*
G36*
G01*
X150666816Y-53795138D02*
X150772882Y-53901204D01*
G75*
G02*
X150772882Y-54007270I-53033J-53033D01*
G01*
X149782932Y-54997220D01*
G75*
G02*
X149676866Y-54997220I-53033J53033D01*
G01*
X149570800Y-54891154D01*
G75*
G02*
X149570800Y-54785088I53033J53033D01*
G01*
X150560750Y-53795138D01*
G75*
G02*
X150666816Y-53795138I53033J-53033D01*
G01*
G37*
G36*
G01*
X151020369Y-54148691D02*
X151126435Y-54254757D01*
G75*
G02*
X151126435Y-54360823I-53033J-53033D01*
G01*
X150136485Y-55350773D01*
G75*
G02*
X150030419Y-55350773I-53033J53033D01*
G01*
X149924353Y-55244707D01*
G75*
G02*
X149924353Y-55138641I53033J53033D01*
G01*
X150914303Y-54148691D01*
G75*
G02*
X151020369Y-54148691I53033J-53033D01*
G01*
G37*
G36*
G01*
X151373923Y-54502245D02*
X151479989Y-54608311D01*
G75*
G02*
X151479989Y-54714377I-53033J-53033D01*
G01*
X150490039Y-55704327D01*
G75*
G02*
X150383973Y-55704327I-53033J53033D01*
G01*
X150277907Y-55598261D01*
G75*
G02*
X150277907Y-55492195I53033J53033D01*
G01*
X151267857Y-54502245D01*
G75*
G02*
X151373923Y-54502245I53033J-53033D01*
G01*
G37*
G36*
G01*
X151727476Y-54855798D02*
X151833542Y-54961864D01*
G75*
G02*
X151833542Y-55067930I-53033J-53033D01*
G01*
X150843592Y-56057880D01*
G75*
G02*
X150737526Y-56057880I-53033J53033D01*
G01*
X150631460Y-55951814D01*
G75*
G02*
X150631460Y-55845748I53033J53033D01*
G01*
X151621410Y-54855798D01*
G75*
G02*
X151727476Y-54855798I53033J-53033D01*
G01*
G37*
G36*
G01*
X152081029Y-55209351D02*
X152187095Y-55315417D01*
G75*
G02*
X152187095Y-55421483I-53033J-53033D01*
G01*
X151197145Y-56411433D01*
G75*
G02*
X151091079Y-56411433I-53033J53033D01*
G01*
X150985013Y-56305367D01*
G75*
G02*
X150985013Y-56199301I53033J53033D01*
G01*
X151974963Y-55209351D01*
G75*
G02*
X152081029Y-55209351I53033J-53033D01*
G01*
G37*
G36*
G01*
X152434583Y-55562905D02*
X152540649Y-55668971D01*
G75*
G02*
X152540649Y-55775037I-53033J-53033D01*
G01*
X151550699Y-56764987D01*
G75*
G02*
X151444633Y-56764987I-53033J53033D01*
G01*
X151338567Y-56658921D01*
G75*
G02*
X151338567Y-56552855I53033J53033D01*
G01*
X152328517Y-55562905D01*
G75*
G02*
X152434583Y-55562905I53033J-53033D01*
G01*
G37*
G36*
G01*
X152788136Y-55916458D02*
X152894202Y-56022524D01*
G75*
G02*
X152894202Y-56128590I-53033J-53033D01*
G01*
X151904252Y-57118540D01*
G75*
G02*
X151798186Y-57118540I-53033J53033D01*
G01*
X151692120Y-57012474D01*
G75*
G02*
X151692120Y-56906408I53033J53033D01*
G01*
X152682070Y-55916458D01*
G75*
G02*
X152788136Y-55916458I53033J-53033D01*
G01*
G37*
G36*
G01*
X153141689Y-56270011D02*
X153247755Y-56376077D01*
G75*
G02*
X153247755Y-56482143I-53033J-53033D01*
G01*
X152257805Y-57472093D01*
G75*
G02*
X152151739Y-57472093I-53033J53033D01*
G01*
X152045673Y-57366027D01*
G75*
G02*
X152045673Y-57259961I53033J53033D01*
G01*
X153035623Y-56270011D01*
G75*
G02*
X153141689Y-56270011I53033J-53033D01*
G01*
G37*
G36*
G01*
X153495243Y-56623565D02*
X153601309Y-56729631D01*
G75*
G02*
X153601309Y-56835697I-53033J-53033D01*
G01*
X152611359Y-57825647D01*
G75*
G02*
X152505293Y-57825647I-53033J53033D01*
G01*
X152399227Y-57719581D01*
G75*
G02*
X152399227Y-57613515I53033J53033D01*
G01*
X153389177Y-56623565D01*
G75*
G02*
X153495243Y-56623565I53033J-53033D01*
G01*
G37*
G36*
G01*
X153848796Y-56977118D02*
X153954862Y-57083184D01*
G75*
G02*
X153954862Y-57189250I-53033J-53033D01*
G01*
X152964912Y-58179200D01*
G75*
G02*
X152858846Y-58179200I-53033J53033D01*
G01*
X152752780Y-58073134D01*
G75*
G02*
X152752780Y-57967068I53033J53033D01*
G01*
X153742730Y-56977118D01*
G75*
G02*
X153848796Y-56977118I53033J-53033D01*
G01*
G37*
G36*
G01*
X154202350Y-57330672D02*
X154308416Y-57436738D01*
G75*
G02*
X154308416Y-57542804I-53033J-53033D01*
G01*
X153318466Y-58532754D01*
G75*
G02*
X153212400Y-58532754I-53033J53033D01*
G01*
X153106334Y-58426688D01*
G75*
G02*
X153106334Y-58320622I53033J53033D01*
G01*
X154096284Y-57330672D01*
G75*
G02*
X154202350Y-57330672I53033J-53033D01*
G01*
G37*
G36*
G01*
X154555903Y-57684225D02*
X154661969Y-57790291D01*
G75*
G02*
X154661969Y-57896357I-53033J-53033D01*
G01*
X153672019Y-58886307D01*
G75*
G02*
X153565953Y-58886307I-53033J53033D01*
G01*
X153459887Y-58780241D01*
G75*
G02*
X153459887Y-58674175I53033J53033D01*
G01*
X154449837Y-57684225D01*
G75*
G02*
X154555903Y-57684225I53033J-53033D01*
G01*
G37*
G36*
G01*
X154909456Y-58037778D02*
X155015522Y-58143844D01*
G75*
G02*
X155015522Y-58249910I-53033J-53033D01*
G01*
X154025572Y-59239860D01*
G75*
G02*
X153919506Y-59239860I-53033J53033D01*
G01*
X153813440Y-59133794D01*
G75*
G02*
X153813440Y-59027728I53033J53033D01*
G01*
X154803390Y-58037778D01*
G75*
G02*
X154909456Y-58037778I53033J-53033D01*
G01*
G37*
%TD*%
D14*
%TO.C,SW4*%
X152500000Y-113475000D03*
X157000000Y-113475000D03*
X157000000Y-105525000D03*
X152500000Y-105525000D03*
%TD*%
%TO.C,SW3*%
X145500000Y-113475000D03*
X150000000Y-113475000D03*
X150000000Y-105525000D03*
X145500000Y-105525000D03*
%TD*%
%TO.C,SW2*%
X138500000Y-113475000D03*
X143000000Y-113475000D03*
X143000000Y-105525000D03*
X138500000Y-105525000D03*
%TD*%
%TO.C,R11*%
G36*
G01*
X178743750Y-79600000D02*
X179256250Y-79600000D01*
G75*
G02*
X179475000Y-79818750I0J-218750D01*
G01*
X179475000Y-80256250D01*
G75*
G02*
X179256250Y-80475000I-218750J0D01*
G01*
X178743750Y-80475000D01*
G75*
G02*
X178525000Y-80256250I0J218750D01*
G01*
X178525000Y-79818750D01*
G75*
G02*
X178743750Y-79600000I218750J0D01*
G01*
G37*
G36*
G01*
X178743750Y-78025000D02*
X179256250Y-78025000D01*
G75*
G02*
X179475000Y-78243750I0J-218750D01*
G01*
X179475000Y-78681250D01*
G75*
G02*
X179256250Y-78900000I-218750J0D01*
G01*
X178743750Y-78900000D01*
G75*
G02*
X178525000Y-78681250I0J218750D01*
G01*
X178525000Y-78243750D01*
G75*
G02*
X178743750Y-78025000I218750J0D01*
G01*
G37*
%TD*%
%TO.C,D3*%
G36*
G01*
X178743750Y-76100000D02*
X179256250Y-76100000D01*
G75*
G02*
X179475000Y-76318750I0J-218750D01*
G01*
X179475000Y-76756250D01*
G75*
G02*
X179256250Y-76975000I-218750J0D01*
G01*
X178743750Y-76975000D01*
G75*
G02*
X178525000Y-76756250I0J218750D01*
G01*
X178525000Y-76318750D01*
G75*
G02*
X178743750Y-76100000I218750J0D01*
G01*
G37*
G36*
G01*
X178743750Y-74525000D02*
X179256250Y-74525000D01*
G75*
G02*
X179475000Y-74743750I0J-218750D01*
G01*
X179475000Y-75181250D01*
G75*
G02*
X179256250Y-75400000I-218750J0D01*
G01*
X178743750Y-75400000D01*
G75*
G02*
X178525000Y-75181250I0J218750D01*
G01*
X178525000Y-74743750D01*
G75*
G02*
X178743750Y-74525000I218750J0D01*
G01*
G37*
%TD*%
%TO.C,R10*%
G36*
G01*
X135506250Y-112650000D02*
X134993750Y-112650000D01*
G75*
G02*
X134775000Y-112431250I0J218750D01*
G01*
X134775000Y-111993750D01*
G75*
G02*
X134993750Y-111775000I218750J0D01*
G01*
X135506250Y-111775000D01*
G75*
G02*
X135725000Y-111993750I0J-218750D01*
G01*
X135725000Y-112431250D01*
G75*
G02*
X135506250Y-112650000I-218750J0D01*
G01*
G37*
G36*
G01*
X135506250Y-114225000D02*
X134993750Y-114225000D01*
G75*
G02*
X134775000Y-114006250I0J218750D01*
G01*
X134775000Y-113568750D01*
G75*
G02*
X134993750Y-113350000I218750J0D01*
G01*
X135506250Y-113350000D01*
G75*
G02*
X135725000Y-113568750I0J-218750D01*
G01*
X135725000Y-114006250D01*
G75*
G02*
X135506250Y-114225000I-218750J0D01*
G01*
G37*
%TD*%
%TO.C,R9*%
G36*
G01*
X134993750Y-109850000D02*
X135506250Y-109850000D01*
G75*
G02*
X135725000Y-110068750I0J-218750D01*
G01*
X135725000Y-110506250D01*
G75*
G02*
X135506250Y-110725000I-218750J0D01*
G01*
X134993750Y-110725000D01*
G75*
G02*
X134775000Y-110506250I0J218750D01*
G01*
X134775000Y-110068750D01*
G75*
G02*
X134993750Y-109850000I218750J0D01*
G01*
G37*
G36*
G01*
X134993750Y-108275000D02*
X135506250Y-108275000D01*
G75*
G02*
X135725000Y-108493750I0J-218750D01*
G01*
X135725000Y-108931250D01*
G75*
G02*
X135506250Y-109150000I-218750J0D01*
G01*
X134993750Y-109150000D01*
G75*
G02*
X134775000Y-108931250I0J218750D01*
G01*
X134775000Y-108493750D01*
G75*
G02*
X134993750Y-108275000I218750J0D01*
G01*
G37*
%TD*%
%TO.C,C20*%
G36*
G01*
X132993750Y-113350000D02*
X133506250Y-113350000D01*
G75*
G02*
X133725000Y-113568750I0J-218750D01*
G01*
X133725000Y-114006250D01*
G75*
G02*
X133506250Y-114225000I-218750J0D01*
G01*
X132993750Y-114225000D01*
G75*
G02*
X132775000Y-114006250I0J218750D01*
G01*
X132775000Y-113568750D01*
G75*
G02*
X132993750Y-113350000I218750J0D01*
G01*
G37*
G36*
G01*
X132993750Y-111775000D02*
X133506250Y-111775000D01*
G75*
G02*
X133725000Y-111993750I0J-218750D01*
G01*
X133725000Y-112431250D01*
G75*
G02*
X133506250Y-112650000I-218750J0D01*
G01*
X132993750Y-112650000D01*
G75*
G02*
X132775000Y-112431250I0J218750D01*
G01*
X132775000Y-111993750D01*
G75*
G02*
X132993750Y-111775000I218750J0D01*
G01*
G37*
%TD*%
%TO.C,C19*%
G36*
G01*
X133506250Y-109150000D02*
X132993750Y-109150000D01*
G75*
G02*
X132775000Y-108931250I0J218750D01*
G01*
X132775000Y-108493750D01*
G75*
G02*
X132993750Y-108275000I218750J0D01*
G01*
X133506250Y-108275000D01*
G75*
G02*
X133725000Y-108493750I0J-218750D01*
G01*
X133725000Y-108931250D01*
G75*
G02*
X133506250Y-109150000I-218750J0D01*
G01*
G37*
G36*
G01*
X133506250Y-110725000D02*
X132993750Y-110725000D01*
G75*
G02*
X132775000Y-110506250I0J218750D01*
G01*
X132775000Y-110068750D01*
G75*
G02*
X132993750Y-109850000I218750J0D01*
G01*
X133506250Y-109850000D01*
G75*
G02*
X133725000Y-110068750I0J-218750D01*
G01*
X133725000Y-110506250D01*
G75*
G02*
X133506250Y-110725000I-218750J0D01*
G01*
G37*
%TD*%
%TO.C,R12*%
G36*
G01*
X176650000Y-83743750D02*
X176650000Y-84256250D01*
G75*
G02*
X176431250Y-84475000I-218750J0D01*
G01*
X175993750Y-84475000D01*
G75*
G02*
X175775000Y-84256250I0J218750D01*
G01*
X175775000Y-83743750D01*
G75*
G02*
X175993750Y-83525000I218750J0D01*
G01*
X176431250Y-83525000D01*
G75*
G02*
X176650000Y-83743750I0J-218750D01*
G01*
G37*
G36*
G01*
X178225000Y-83743750D02*
X178225000Y-84256250D01*
G75*
G02*
X178006250Y-84475000I-218750J0D01*
G01*
X177568750Y-84475000D01*
G75*
G02*
X177350000Y-84256250I0J218750D01*
G01*
X177350000Y-83743750D01*
G75*
G02*
X177568750Y-83525000I218750J0D01*
G01*
X178006250Y-83525000D01*
G75*
G02*
X178225000Y-83743750I0J-218750D01*
G01*
G37*
%TD*%
%TO.C,R8*%
G36*
G01*
X135506250Y-105650000D02*
X134993750Y-105650000D01*
G75*
G02*
X134775000Y-105431250I0J218750D01*
G01*
X134775000Y-104993750D01*
G75*
G02*
X134993750Y-104775000I218750J0D01*
G01*
X135506250Y-104775000D01*
G75*
G02*
X135725000Y-104993750I0J-218750D01*
G01*
X135725000Y-105431250D01*
G75*
G02*
X135506250Y-105650000I-218750J0D01*
G01*
G37*
G36*
G01*
X135506250Y-107225000D02*
X134993750Y-107225000D01*
G75*
G02*
X134775000Y-107006250I0J218750D01*
G01*
X134775000Y-106568750D01*
G75*
G02*
X134993750Y-106350000I218750J0D01*
G01*
X135506250Y-106350000D01*
G75*
G02*
X135725000Y-106568750I0J-218750D01*
G01*
X135725000Y-107006250D01*
G75*
G02*
X135506250Y-107225000I-218750J0D01*
G01*
G37*
%TD*%
%TO.C,R7*%
G36*
G01*
X176743750Y-79600000D02*
X177256250Y-79600000D01*
G75*
G02*
X177475000Y-79818750I0J-218750D01*
G01*
X177475000Y-80256250D01*
G75*
G02*
X177256250Y-80475000I-218750J0D01*
G01*
X176743750Y-80475000D01*
G75*
G02*
X176525000Y-80256250I0J218750D01*
G01*
X176525000Y-79818750D01*
G75*
G02*
X176743750Y-79600000I218750J0D01*
G01*
G37*
G36*
G01*
X176743750Y-78025000D02*
X177256250Y-78025000D01*
G75*
G02*
X177475000Y-78243750I0J-218750D01*
G01*
X177475000Y-78681250D01*
G75*
G02*
X177256250Y-78900000I-218750J0D01*
G01*
X176743750Y-78900000D01*
G75*
G02*
X176525000Y-78681250I0J218750D01*
G01*
X176525000Y-78243750D01*
G75*
G02*
X176743750Y-78025000I218750J0D01*
G01*
G37*
%TD*%
%TO.C,R13*%
G36*
G01*
X133350000Y-59506250D02*
X133350000Y-58993750D01*
G75*
G02*
X133568750Y-58775000I218750J0D01*
G01*
X134006250Y-58775000D01*
G75*
G02*
X134225000Y-58993750I0J-218750D01*
G01*
X134225000Y-59506250D01*
G75*
G02*
X134006250Y-59725000I-218750J0D01*
G01*
X133568750Y-59725000D01*
G75*
G02*
X133350000Y-59506250I0J218750D01*
G01*
G37*
G36*
G01*
X131775000Y-59506250D02*
X131775000Y-58993750D01*
G75*
G02*
X131993750Y-58775000I218750J0D01*
G01*
X132431250Y-58775000D01*
G75*
G02*
X132650000Y-58993750I0J-218750D01*
G01*
X132650000Y-59506250D01*
G75*
G02*
X132431250Y-59725000I-218750J0D01*
G01*
X131993750Y-59725000D01*
G75*
G02*
X131775000Y-59506250I0J218750D01*
G01*
G37*
%TD*%
%TO.C,R6*%
G36*
G01*
X130100000Y-62256250D02*
X130100000Y-61743750D01*
G75*
G02*
X130318750Y-61525000I218750J0D01*
G01*
X130756250Y-61525000D01*
G75*
G02*
X130975000Y-61743750I0J-218750D01*
G01*
X130975000Y-62256250D01*
G75*
G02*
X130756250Y-62475000I-218750J0D01*
G01*
X130318750Y-62475000D01*
G75*
G02*
X130100000Y-62256250I0J218750D01*
G01*
G37*
G36*
G01*
X128525000Y-62256250D02*
X128525000Y-61743750D01*
G75*
G02*
X128743750Y-61525000I218750J0D01*
G01*
X129181250Y-61525000D01*
G75*
G02*
X129400000Y-61743750I0J-218750D01*
G01*
X129400000Y-62256250D01*
G75*
G02*
X129181250Y-62475000I-218750J0D01*
G01*
X128743750Y-62475000D01*
G75*
G02*
X128525000Y-62256250I0J218750D01*
G01*
G37*
%TD*%
%TO.C,R5*%
G36*
G01*
X175256250Y-78900000D02*
X174743750Y-78900000D01*
G75*
G02*
X174525000Y-78681250I0J218750D01*
G01*
X174525000Y-78243750D01*
G75*
G02*
X174743750Y-78025000I218750J0D01*
G01*
X175256250Y-78025000D01*
G75*
G02*
X175475000Y-78243750I0J-218750D01*
G01*
X175475000Y-78681250D01*
G75*
G02*
X175256250Y-78900000I-218750J0D01*
G01*
G37*
G36*
G01*
X175256250Y-80475000D02*
X174743750Y-80475000D01*
G75*
G02*
X174525000Y-80256250I0J218750D01*
G01*
X174525000Y-79818750D01*
G75*
G02*
X174743750Y-79600000I218750J0D01*
G01*
X175256250Y-79600000D01*
G75*
G02*
X175475000Y-79818750I0J-218750D01*
G01*
X175475000Y-80256250D01*
G75*
G02*
X175256250Y-80475000I-218750J0D01*
G01*
G37*
%TD*%
%TO.C,R4*%
G36*
G01*
X130100000Y-64256250D02*
X130100000Y-63743750D01*
G75*
G02*
X130318750Y-63525000I218750J0D01*
G01*
X130756250Y-63525000D01*
G75*
G02*
X130975000Y-63743750I0J-218750D01*
G01*
X130975000Y-64256250D01*
G75*
G02*
X130756250Y-64475000I-218750J0D01*
G01*
X130318750Y-64475000D01*
G75*
G02*
X130100000Y-64256250I0J218750D01*
G01*
G37*
G36*
G01*
X128525000Y-64256250D02*
X128525000Y-63743750D01*
G75*
G02*
X128743750Y-63525000I218750J0D01*
G01*
X129181250Y-63525000D01*
G75*
G02*
X129400000Y-63743750I0J-218750D01*
G01*
X129400000Y-64256250D01*
G75*
G02*
X129181250Y-64475000I-218750J0D01*
G01*
X128743750Y-64475000D01*
G75*
G02*
X128525000Y-64256250I0J218750D01*
G01*
G37*
%TD*%
%TO.C,R3*%
G36*
G01*
X151150000Y-102243750D02*
X151150000Y-102756250D01*
G75*
G02*
X150931250Y-102975000I-218750J0D01*
G01*
X150493750Y-102975000D01*
G75*
G02*
X150275000Y-102756250I0J218750D01*
G01*
X150275000Y-102243750D01*
G75*
G02*
X150493750Y-102025000I218750J0D01*
G01*
X150931250Y-102025000D01*
G75*
G02*
X151150000Y-102243750I0J-218750D01*
G01*
G37*
G36*
G01*
X152725000Y-102243750D02*
X152725000Y-102756250D01*
G75*
G02*
X152506250Y-102975000I-218750J0D01*
G01*
X152068750Y-102975000D01*
G75*
G02*
X151850000Y-102756250I0J218750D01*
G01*
X151850000Y-102243750D01*
G75*
G02*
X152068750Y-102025000I218750J0D01*
G01*
X152506250Y-102025000D01*
G75*
G02*
X152725000Y-102243750I0J-218750D01*
G01*
G37*
%TD*%
%TO.C,R2*%
G36*
G01*
X136937500Y-96743750D02*
X136937500Y-97256250D01*
G75*
G02*
X136718750Y-97475000I-218750J0D01*
G01*
X136281250Y-97475000D01*
G75*
G02*
X136062500Y-97256250I0J218750D01*
G01*
X136062500Y-96743750D01*
G75*
G02*
X136281250Y-96525000I218750J0D01*
G01*
X136718750Y-96525000D01*
G75*
G02*
X136937500Y-96743750I0J-218750D01*
G01*
G37*
G36*
G01*
X138512500Y-96743750D02*
X138512500Y-97256250D01*
G75*
G02*
X138293750Y-97475000I-218750J0D01*
G01*
X137856250Y-97475000D01*
G75*
G02*
X137637500Y-97256250I0J218750D01*
G01*
X137637500Y-96743750D01*
G75*
G02*
X137856250Y-96525000I218750J0D01*
G01*
X138293750Y-96525000D01*
G75*
G02*
X138512500Y-96743750I0J-218750D01*
G01*
G37*
%TD*%
%TO.C,R1*%
G36*
G01*
X151850000Y-100756250D02*
X151850000Y-100243750D01*
G75*
G02*
X152068750Y-100025000I218750J0D01*
G01*
X152506250Y-100025000D01*
G75*
G02*
X152725000Y-100243750I0J-218750D01*
G01*
X152725000Y-100756250D01*
G75*
G02*
X152506250Y-100975000I-218750J0D01*
G01*
X152068750Y-100975000D01*
G75*
G02*
X151850000Y-100756250I0J218750D01*
G01*
G37*
G36*
G01*
X150275000Y-100756250D02*
X150275000Y-100243750D01*
G75*
G02*
X150493750Y-100025000I218750J0D01*
G01*
X150931250Y-100025000D01*
G75*
G02*
X151150000Y-100243750I0J-218750D01*
G01*
X151150000Y-100756250D01*
G75*
G02*
X150931250Y-100975000I-218750J0D01*
G01*
X150493750Y-100975000D01*
G75*
G02*
X150275000Y-100756250I0J218750D01*
G01*
G37*
%TD*%
%TO.C,D1*%
G36*
G01*
X174743750Y-76100000D02*
X175256250Y-76100000D01*
G75*
G02*
X175475000Y-76318750I0J-218750D01*
G01*
X175475000Y-76756250D01*
G75*
G02*
X175256250Y-76975000I-218750J0D01*
G01*
X174743750Y-76975000D01*
G75*
G02*
X174525000Y-76756250I0J218750D01*
G01*
X174525000Y-76318750D01*
G75*
G02*
X174743750Y-76100000I218750J0D01*
G01*
G37*
G36*
G01*
X174743750Y-74525000D02*
X175256250Y-74525000D01*
G75*
G02*
X175475000Y-74743750I0J-218750D01*
G01*
X175475000Y-75181250D01*
G75*
G02*
X175256250Y-75400000I-218750J0D01*
G01*
X174743750Y-75400000D01*
G75*
G02*
X174525000Y-75181250I0J218750D01*
G01*
X174525000Y-74743750D01*
G75*
G02*
X174743750Y-74525000I218750J0D01*
G01*
G37*
%TD*%
%TO.C,D2*%
G36*
G01*
X176743750Y-76100000D02*
X177256250Y-76100000D01*
G75*
G02*
X177475000Y-76318750I0J-218750D01*
G01*
X177475000Y-76756250D01*
G75*
G02*
X177256250Y-76975000I-218750J0D01*
G01*
X176743750Y-76975000D01*
G75*
G02*
X176525000Y-76756250I0J218750D01*
G01*
X176525000Y-76318750D01*
G75*
G02*
X176743750Y-76100000I218750J0D01*
G01*
G37*
G36*
G01*
X176743750Y-74525000D02*
X177256250Y-74525000D01*
G75*
G02*
X177475000Y-74743750I0J-218750D01*
G01*
X177475000Y-75181250D01*
G75*
G02*
X177256250Y-75400000I-218750J0D01*
G01*
X176743750Y-75400000D01*
G75*
G02*
X176525000Y-75181250I0J218750D01*
G01*
X176525000Y-74743750D01*
G75*
G02*
X176743750Y-74525000I218750J0D01*
G01*
G37*
%TD*%
%TO.C,C31*%
G36*
G01*
X160100000Y-62756250D02*
X160100000Y-62243750D01*
G75*
G02*
X160318750Y-62025000I218750J0D01*
G01*
X160756250Y-62025000D01*
G75*
G02*
X160975000Y-62243750I0J-218750D01*
G01*
X160975000Y-62756250D01*
G75*
G02*
X160756250Y-62975000I-218750J0D01*
G01*
X160318750Y-62975000D01*
G75*
G02*
X160100000Y-62756250I0J218750D01*
G01*
G37*
G36*
G01*
X158525000Y-62756250D02*
X158525000Y-62243750D01*
G75*
G02*
X158743750Y-62025000I218750J0D01*
G01*
X159181250Y-62025000D01*
G75*
G02*
X159400000Y-62243750I0J-218750D01*
G01*
X159400000Y-62756250D01*
G75*
G02*
X159181250Y-62975000I-218750J0D01*
G01*
X158743750Y-62975000D01*
G75*
G02*
X158525000Y-62756250I0J218750D01*
G01*
G37*
%TD*%
%TO.C,C30*%
G36*
G01*
X148100000Y-69256250D02*
X148100000Y-68743750D01*
G75*
G02*
X148318750Y-68525000I218750J0D01*
G01*
X148756250Y-68525000D01*
G75*
G02*
X148975000Y-68743750I0J-218750D01*
G01*
X148975000Y-69256250D01*
G75*
G02*
X148756250Y-69475000I-218750J0D01*
G01*
X148318750Y-69475000D01*
G75*
G02*
X148100000Y-69256250I0J218750D01*
G01*
G37*
G36*
G01*
X146525000Y-69256250D02*
X146525000Y-68743750D01*
G75*
G02*
X146743750Y-68525000I218750J0D01*
G01*
X147181250Y-68525000D01*
G75*
G02*
X147400000Y-68743750I0J-218750D01*
G01*
X147400000Y-69256250D01*
G75*
G02*
X147181250Y-69475000I-218750J0D01*
G01*
X146743750Y-69475000D01*
G75*
G02*
X146525000Y-69256250I0J218750D01*
G01*
G37*
%TD*%
%TO.C,C29*%
G36*
G01*
X137150000Y-58993750D02*
X137150000Y-59506250D01*
G75*
G02*
X136931250Y-59725000I-218750J0D01*
G01*
X136493750Y-59725000D01*
G75*
G02*
X136275000Y-59506250I0J218750D01*
G01*
X136275000Y-58993750D01*
G75*
G02*
X136493750Y-58775000I218750J0D01*
G01*
X136931250Y-58775000D01*
G75*
G02*
X137150000Y-58993750I0J-218750D01*
G01*
G37*
G36*
G01*
X138725000Y-58993750D02*
X138725000Y-59506250D01*
G75*
G02*
X138506250Y-59725000I-218750J0D01*
G01*
X138068750Y-59725000D01*
G75*
G02*
X137850000Y-59506250I0J218750D01*
G01*
X137850000Y-58993750D01*
G75*
G02*
X138068750Y-58775000I218750J0D01*
G01*
X138506250Y-58775000D01*
G75*
G02*
X138725000Y-58993750I0J-218750D01*
G01*
G37*
%TD*%
%TO.C,C28*%
G36*
G01*
X137900000Y-50493750D02*
X137900000Y-51006250D01*
G75*
G02*
X137681250Y-51225000I-218750J0D01*
G01*
X137243750Y-51225000D01*
G75*
G02*
X137025000Y-51006250I0J218750D01*
G01*
X137025000Y-50493750D01*
G75*
G02*
X137243750Y-50275000I218750J0D01*
G01*
X137681250Y-50275000D01*
G75*
G02*
X137900000Y-50493750I0J-218750D01*
G01*
G37*
G36*
G01*
X139475000Y-50493750D02*
X139475000Y-51006250D01*
G75*
G02*
X139256250Y-51225000I-218750J0D01*
G01*
X138818750Y-51225000D01*
G75*
G02*
X138600000Y-51006250I0J218750D01*
G01*
X138600000Y-50493750D01*
G75*
G02*
X138818750Y-50275000I218750J0D01*
G01*
X139256250Y-50275000D01*
G75*
G02*
X139475000Y-50493750I0J-218750D01*
G01*
G37*
%TD*%
%TO.C,C25*%
G36*
G01*
X165243750Y-52850000D02*
X165756250Y-52850000D01*
G75*
G02*
X165975000Y-53068750I0J-218750D01*
G01*
X165975000Y-53506250D01*
G75*
G02*
X165756250Y-53725000I-218750J0D01*
G01*
X165243750Y-53725000D01*
G75*
G02*
X165025000Y-53506250I0J218750D01*
G01*
X165025000Y-53068750D01*
G75*
G02*
X165243750Y-52850000I218750J0D01*
G01*
G37*
G36*
G01*
X165243750Y-51275000D02*
X165756250Y-51275000D01*
G75*
G02*
X165975000Y-51493750I0J-218750D01*
G01*
X165975000Y-51931250D01*
G75*
G02*
X165756250Y-52150000I-218750J0D01*
G01*
X165243750Y-52150000D01*
G75*
G02*
X165025000Y-51931250I0J218750D01*
G01*
X165025000Y-51493750D01*
G75*
G02*
X165243750Y-51275000I218750J0D01*
G01*
G37*
%TD*%
%TO.C,C24*%
G36*
G01*
X165756250Y-55650000D02*
X165243750Y-55650000D01*
G75*
G02*
X165025000Y-55431250I0J218750D01*
G01*
X165025000Y-54993750D01*
G75*
G02*
X165243750Y-54775000I218750J0D01*
G01*
X165756250Y-54775000D01*
G75*
G02*
X165975000Y-54993750I0J-218750D01*
G01*
X165975000Y-55431250D01*
G75*
G02*
X165756250Y-55650000I-218750J0D01*
G01*
G37*
G36*
G01*
X165756250Y-57225000D02*
X165243750Y-57225000D01*
G75*
G02*
X165025000Y-57006250I0J218750D01*
G01*
X165025000Y-56568750D01*
G75*
G02*
X165243750Y-56350000I218750J0D01*
G01*
X165756250Y-56350000D01*
G75*
G02*
X165975000Y-56568750I0J-218750D01*
G01*
X165975000Y-57006250D01*
G75*
G02*
X165756250Y-57225000I-218750J0D01*
G01*
G37*
%TD*%
%TO.C,C27*%
G36*
G01*
X158350000Y-52256250D02*
X158350000Y-51743750D01*
G75*
G02*
X158568750Y-51525000I218750J0D01*
G01*
X159006250Y-51525000D01*
G75*
G02*
X159225000Y-51743750I0J-218750D01*
G01*
X159225000Y-52256250D01*
G75*
G02*
X159006250Y-52475000I-218750J0D01*
G01*
X158568750Y-52475000D01*
G75*
G02*
X158350000Y-52256250I0J218750D01*
G01*
G37*
G36*
G01*
X156775000Y-52256250D02*
X156775000Y-51743750D01*
G75*
G02*
X156993750Y-51525000I218750J0D01*
G01*
X157431250Y-51525000D01*
G75*
G02*
X157650000Y-51743750I0J-218750D01*
G01*
X157650000Y-52256250D01*
G75*
G02*
X157431250Y-52475000I-218750J0D01*
G01*
X156993750Y-52475000D01*
G75*
G02*
X156775000Y-52256250I0J218750D01*
G01*
G37*
%TD*%
%TO.C,C26*%
G36*
G01*
X158350000Y-54256250D02*
X158350000Y-53743750D01*
G75*
G02*
X158568750Y-53525000I218750J0D01*
G01*
X159006250Y-53525000D01*
G75*
G02*
X159225000Y-53743750I0J-218750D01*
G01*
X159225000Y-54256250D01*
G75*
G02*
X159006250Y-54475000I-218750J0D01*
G01*
X158568750Y-54475000D01*
G75*
G02*
X158350000Y-54256250I0J218750D01*
G01*
G37*
G36*
G01*
X156775000Y-54256250D02*
X156775000Y-53743750D01*
G75*
G02*
X156993750Y-53525000I218750J0D01*
G01*
X157431250Y-53525000D01*
G75*
G02*
X157650000Y-53743750I0J-218750D01*
G01*
X157650000Y-54256250D01*
G75*
G02*
X157431250Y-54475000I-218750J0D01*
G01*
X156993750Y-54475000D01*
G75*
G02*
X156775000Y-54256250I0J218750D01*
G01*
G37*
%TD*%
%TO.C,C23*%
G36*
G01*
X148100000Y-72506250D02*
X148100000Y-71993750D01*
G75*
G02*
X148318750Y-71775000I218750J0D01*
G01*
X148756250Y-71775000D01*
G75*
G02*
X148975000Y-71993750I0J-218750D01*
G01*
X148975000Y-72506250D01*
G75*
G02*
X148756250Y-72725000I-218750J0D01*
G01*
X148318750Y-72725000D01*
G75*
G02*
X148100000Y-72506250I0J218750D01*
G01*
G37*
G36*
G01*
X146525000Y-72506250D02*
X146525000Y-71993750D01*
G75*
G02*
X146743750Y-71775000I218750J0D01*
G01*
X147181250Y-71775000D01*
G75*
G02*
X147400000Y-71993750I0J-218750D01*
G01*
X147400000Y-72506250D01*
G75*
G02*
X147181250Y-72725000I-218750J0D01*
G01*
X146743750Y-72725000D01*
G75*
G02*
X146525000Y-72506250I0J218750D01*
G01*
G37*
%TD*%
%TO.C,C22*%
G36*
G01*
X137150000Y-56993750D02*
X137150000Y-57506250D01*
G75*
G02*
X136931250Y-57725000I-218750J0D01*
G01*
X136493750Y-57725000D01*
G75*
G02*
X136275000Y-57506250I0J218750D01*
G01*
X136275000Y-56993750D01*
G75*
G02*
X136493750Y-56775000I218750J0D01*
G01*
X136931250Y-56775000D01*
G75*
G02*
X137150000Y-56993750I0J-218750D01*
G01*
G37*
G36*
G01*
X138725000Y-56993750D02*
X138725000Y-57506250D01*
G75*
G02*
X138506250Y-57725000I-218750J0D01*
G01*
X138068750Y-57725000D01*
G75*
G02*
X137850000Y-57506250I0J218750D01*
G01*
X137850000Y-56993750D01*
G75*
G02*
X138068750Y-56775000I218750J0D01*
G01*
X138506250Y-56775000D01*
G75*
G02*
X138725000Y-56993750I0J-218750D01*
G01*
G37*
%TD*%
%TO.C,C17*%
G36*
G01*
X125150000Y-90993750D02*
X125150000Y-91506250D01*
G75*
G02*
X124931250Y-91725000I-218750J0D01*
G01*
X124493750Y-91725000D01*
G75*
G02*
X124275000Y-91506250I0J218750D01*
G01*
X124275000Y-90993750D01*
G75*
G02*
X124493750Y-90775000I218750J0D01*
G01*
X124931250Y-90775000D01*
G75*
G02*
X125150000Y-90993750I0J-218750D01*
G01*
G37*
G36*
G01*
X126725000Y-90993750D02*
X126725000Y-91506250D01*
G75*
G02*
X126506250Y-91725000I-218750J0D01*
G01*
X126068750Y-91725000D01*
G75*
G02*
X125850000Y-91506250I0J218750D01*
G01*
X125850000Y-90993750D01*
G75*
G02*
X126068750Y-90775000I218750J0D01*
G01*
X126506250Y-90775000D01*
G75*
G02*
X126725000Y-90993750I0J-218750D01*
G01*
G37*
%TD*%
%TO.C,C14*%
G36*
G01*
X130243750Y-107600000D02*
X130756250Y-107600000D01*
G75*
G02*
X130975000Y-107818750I0J-218750D01*
G01*
X130975000Y-108256250D01*
G75*
G02*
X130756250Y-108475000I-218750J0D01*
G01*
X130243750Y-108475000D01*
G75*
G02*
X130025000Y-108256250I0J218750D01*
G01*
X130025000Y-107818750D01*
G75*
G02*
X130243750Y-107600000I218750J0D01*
G01*
G37*
G36*
G01*
X130243750Y-106025000D02*
X130756250Y-106025000D01*
G75*
G02*
X130975000Y-106243750I0J-218750D01*
G01*
X130975000Y-106681250D01*
G75*
G02*
X130756250Y-106900000I-218750J0D01*
G01*
X130243750Y-106900000D01*
G75*
G02*
X130025000Y-106681250I0J218750D01*
G01*
X130025000Y-106243750D01*
G75*
G02*
X130243750Y-106025000I218750J0D01*
G01*
G37*
%TD*%
%TO.C,C11*%
G36*
G01*
X160350000Y-87256250D02*
X160350000Y-86743750D01*
G75*
G02*
X160568750Y-86525000I218750J0D01*
G01*
X161006250Y-86525000D01*
G75*
G02*
X161225000Y-86743750I0J-218750D01*
G01*
X161225000Y-87256250D01*
G75*
G02*
X161006250Y-87475000I-218750J0D01*
G01*
X160568750Y-87475000D01*
G75*
G02*
X160350000Y-87256250I0J218750D01*
G01*
G37*
G36*
G01*
X158775000Y-87256250D02*
X158775000Y-86743750D01*
G75*
G02*
X158993750Y-86525000I218750J0D01*
G01*
X159431250Y-86525000D01*
G75*
G02*
X159650000Y-86743750I0J-218750D01*
G01*
X159650000Y-87256250D01*
G75*
G02*
X159431250Y-87475000I-218750J0D01*
G01*
X158993750Y-87475000D01*
G75*
G02*
X158775000Y-87256250I0J218750D01*
G01*
G37*
%TD*%
%TO.C,C10*%
G36*
G01*
X160350000Y-89256250D02*
X160350000Y-88743750D01*
G75*
G02*
X160568750Y-88525000I218750J0D01*
G01*
X161006250Y-88525000D01*
G75*
G02*
X161225000Y-88743750I0J-218750D01*
G01*
X161225000Y-89256250D01*
G75*
G02*
X161006250Y-89475000I-218750J0D01*
G01*
X160568750Y-89475000D01*
G75*
G02*
X160350000Y-89256250I0J218750D01*
G01*
G37*
G36*
G01*
X158775000Y-89256250D02*
X158775000Y-88743750D01*
G75*
G02*
X158993750Y-88525000I218750J0D01*
G01*
X159431250Y-88525000D01*
G75*
G02*
X159650000Y-88743750I0J-218750D01*
G01*
X159650000Y-89256250D01*
G75*
G02*
X159431250Y-89475000I-218750J0D01*
G01*
X158993750Y-89475000D01*
G75*
G02*
X158775000Y-89256250I0J218750D01*
G01*
G37*
%TD*%
%TO.C,C8*%
G36*
G01*
X137350000Y-87256250D02*
X137350000Y-86743750D01*
G75*
G02*
X137568750Y-86525000I218750J0D01*
G01*
X138006250Y-86525000D01*
G75*
G02*
X138225000Y-86743750I0J-218750D01*
G01*
X138225000Y-87256250D01*
G75*
G02*
X138006250Y-87475000I-218750J0D01*
G01*
X137568750Y-87475000D01*
G75*
G02*
X137350000Y-87256250I0J218750D01*
G01*
G37*
G36*
G01*
X135775000Y-87256250D02*
X135775000Y-86743750D01*
G75*
G02*
X135993750Y-86525000I218750J0D01*
G01*
X136431250Y-86525000D01*
G75*
G02*
X136650000Y-86743750I0J-218750D01*
G01*
X136650000Y-87256250D01*
G75*
G02*
X136431250Y-87475000I-218750J0D01*
G01*
X135993750Y-87475000D01*
G75*
G02*
X135775000Y-87256250I0J218750D01*
G01*
G37*
%TD*%
%TO.C,C7*%
G36*
G01*
X133100000Y-91506250D02*
X133100000Y-90993750D01*
G75*
G02*
X133318750Y-90775000I218750J0D01*
G01*
X133756250Y-90775000D01*
G75*
G02*
X133975000Y-90993750I0J-218750D01*
G01*
X133975000Y-91506250D01*
G75*
G02*
X133756250Y-91725000I-218750J0D01*
G01*
X133318750Y-91725000D01*
G75*
G02*
X133100000Y-91506250I0J218750D01*
G01*
G37*
G36*
G01*
X131525000Y-91506250D02*
X131525000Y-90993750D01*
G75*
G02*
X131743750Y-90775000I218750J0D01*
G01*
X132181250Y-90775000D01*
G75*
G02*
X132400000Y-90993750I0J-218750D01*
G01*
X132400000Y-91506250D01*
G75*
G02*
X132181250Y-91725000I-218750J0D01*
G01*
X131743750Y-91725000D01*
G75*
G02*
X131525000Y-91506250I0J218750D01*
G01*
G37*
%TD*%
%TO.C,C5*%
G36*
G01*
X157937500Y-70043750D02*
X157937500Y-70556250D01*
G75*
G02*
X157718750Y-70775000I-218750J0D01*
G01*
X157281250Y-70775000D01*
G75*
G02*
X157062500Y-70556250I0J218750D01*
G01*
X157062500Y-70043750D01*
G75*
G02*
X157281250Y-69825000I218750J0D01*
G01*
X157718750Y-69825000D01*
G75*
G02*
X157937500Y-70043750I0J-218750D01*
G01*
G37*
G36*
G01*
X159512500Y-70043750D02*
X159512500Y-70556250D01*
G75*
G02*
X159293750Y-70775000I-218750J0D01*
G01*
X158856250Y-70775000D01*
G75*
G02*
X158637500Y-70556250I0J218750D01*
G01*
X158637500Y-70043750D01*
G75*
G02*
X158856250Y-69825000I218750J0D01*
G01*
X159293750Y-69825000D01*
G75*
G02*
X159512500Y-70043750I0J-218750D01*
G01*
G37*
%TD*%
%TO.C,C4*%
G36*
G01*
X157937500Y-68043750D02*
X157937500Y-68556250D01*
G75*
G02*
X157718750Y-68775000I-218750J0D01*
G01*
X157281250Y-68775000D01*
G75*
G02*
X157062500Y-68556250I0J218750D01*
G01*
X157062500Y-68043750D01*
G75*
G02*
X157281250Y-67825000I218750J0D01*
G01*
X157718750Y-67825000D01*
G75*
G02*
X157937500Y-68043750I0J-218750D01*
G01*
G37*
G36*
G01*
X159512500Y-68043750D02*
X159512500Y-68556250D01*
G75*
G02*
X159293750Y-68775000I-218750J0D01*
G01*
X158856250Y-68775000D01*
G75*
G02*
X158637500Y-68556250I0J218750D01*
G01*
X158637500Y-68043750D01*
G75*
G02*
X158856250Y-67825000I218750J0D01*
G01*
X159293750Y-67825000D01*
G75*
G02*
X159512500Y-68043750I0J-218750D01*
G01*
G37*
%TD*%
%TO.C,C2*%
G36*
G01*
X135562500Y-70193750D02*
X135562500Y-70706250D01*
G75*
G02*
X135343750Y-70925000I-218750J0D01*
G01*
X134906250Y-70925000D01*
G75*
G02*
X134687500Y-70706250I0J218750D01*
G01*
X134687500Y-70193750D01*
G75*
G02*
X134906250Y-69975000I218750J0D01*
G01*
X135343750Y-69975000D01*
G75*
G02*
X135562500Y-70193750I0J-218750D01*
G01*
G37*
G36*
G01*
X137137500Y-70193750D02*
X137137500Y-70706250D01*
G75*
G02*
X136918750Y-70925000I-218750J0D01*
G01*
X136481250Y-70925000D01*
G75*
G02*
X136262500Y-70706250I0J218750D01*
G01*
X136262500Y-70193750D01*
G75*
G02*
X136481250Y-69975000I218750J0D01*
G01*
X136918750Y-69975000D01*
G75*
G02*
X137137500Y-70193750I0J-218750D01*
G01*
G37*
%TD*%
%TO.C,C1*%
G36*
G01*
X135562500Y-68193750D02*
X135562500Y-68706250D01*
G75*
G02*
X135343750Y-68925000I-218750J0D01*
G01*
X134906250Y-68925000D01*
G75*
G02*
X134687500Y-68706250I0J218750D01*
G01*
X134687500Y-68193750D01*
G75*
G02*
X134906250Y-67975000I218750J0D01*
G01*
X135343750Y-67975000D01*
G75*
G02*
X135562500Y-68193750I0J-218750D01*
G01*
G37*
G36*
G01*
X137137500Y-68193750D02*
X137137500Y-68706250D01*
G75*
G02*
X136918750Y-68925000I-218750J0D01*
G01*
X136481250Y-68925000D01*
G75*
G02*
X136262500Y-68706250I0J218750D01*
G01*
X136262500Y-68193750D01*
G75*
G02*
X136481250Y-67975000I218750J0D01*
G01*
X136918750Y-67975000D01*
G75*
G02*
X137137500Y-68193750I0J-218750D01*
G01*
G37*
%TD*%
%TO.C,C18*%
G36*
G01*
X132993750Y-106350000D02*
X133506250Y-106350000D01*
G75*
G02*
X133725000Y-106568750I0J-218750D01*
G01*
X133725000Y-107006250D01*
G75*
G02*
X133506250Y-107225000I-218750J0D01*
G01*
X132993750Y-107225000D01*
G75*
G02*
X132775000Y-107006250I0J218750D01*
G01*
X132775000Y-106568750D01*
G75*
G02*
X132993750Y-106350000I218750J0D01*
G01*
G37*
G36*
G01*
X132993750Y-104775000D02*
X133506250Y-104775000D01*
G75*
G02*
X133725000Y-104993750I0J-218750D01*
G01*
X133725000Y-105431250D01*
G75*
G02*
X133506250Y-105650000I-218750J0D01*
G01*
X132993750Y-105650000D01*
G75*
G02*
X132775000Y-105431250I0J218750D01*
G01*
X132775000Y-104993750D01*
G75*
G02*
X132993750Y-104775000I218750J0D01*
G01*
G37*
%TD*%
%TO.C,C32*%
G36*
G01*
X160450000Y-60706250D02*
X160450000Y-59793750D01*
G75*
G02*
X160693750Y-59550000I243750J0D01*
G01*
X161181250Y-59550000D01*
G75*
G02*
X161425000Y-59793750I0J-243750D01*
G01*
X161425000Y-60706250D01*
G75*
G02*
X161181250Y-60950000I-243750J0D01*
G01*
X160693750Y-60950000D01*
G75*
G02*
X160450000Y-60706250I0J243750D01*
G01*
G37*
G36*
G01*
X158575000Y-60706250D02*
X158575000Y-59793750D01*
G75*
G02*
X158818750Y-59550000I243750J0D01*
G01*
X159306250Y-59550000D01*
G75*
G02*
X159550000Y-59793750I0J-243750D01*
G01*
X159550000Y-60706250D01*
G75*
G02*
X159306250Y-60950000I-243750J0D01*
G01*
X158818750Y-60950000D01*
G75*
G02*
X158575000Y-60706250I0J243750D01*
G01*
G37*
%TD*%
D15*
%TO.C,Y1*%
X162250000Y-52400000D03*
X162250000Y-56100000D03*
%TD*%
%TO.C,L1*%
G36*
G01*
X158450000Y-50206250D02*
X158450000Y-49293750D01*
G75*
G02*
X158693750Y-49050000I243750J0D01*
G01*
X159181250Y-49050000D01*
G75*
G02*
X159425000Y-49293750I0J-243750D01*
G01*
X159425000Y-50206250D01*
G75*
G02*
X159181250Y-50450000I-243750J0D01*
G01*
X158693750Y-50450000D01*
G75*
G02*
X158450000Y-50206250I0J243750D01*
G01*
G37*
G36*
G01*
X156575000Y-50206250D02*
X156575000Y-49293750D01*
G75*
G02*
X156818750Y-49050000I243750J0D01*
G01*
X157306250Y-49050000D01*
G75*
G02*
X157550000Y-49293750I0J-243750D01*
G01*
X157550000Y-50206250D01*
G75*
G02*
X157306250Y-50450000I-243750J0D01*
G01*
X156818750Y-50450000D01*
G75*
G02*
X156575000Y-50206250I0J243750D01*
G01*
G37*
%TD*%
M02*
