%TF.GenerationSoftware,KiCad,Pcbnew,(5.1.6)-1*%
%TF.CreationDate,2021-08-14T20:00:11+02:00*%
%TF.ProjectId,sneak100_main_board,736e6561-6b31-4303-905f-6d61696e5f62,rev?*%
%TF.SameCoordinates,Original*%
%TF.FileFunction,Soldermask,Bot*%
%TF.FilePolarity,Negative*%
%FSLAX46Y46*%
G04 Gerber Fmt 4.6, Leading zero omitted, Abs format (unit mm)*
G04 Created by KiCad (PCBNEW (5.1.6)-1) date 2021-08-14 20:00:11*
%MOMM*%
%LPD*%
G01*
G04 APERTURE LIST*
%ADD10C,1.800000*%
%ADD11O,1.800000X1.800000*%
%ADD12R,1.800000X1.800000*%
%ADD13C,1.624000*%
%ADD14R,1.624000X1.624000*%
G04 APERTURE END LIST*
D10*
%TO.C,J13*%
X117210000Y-85090000D03*
X117210000Y-87630000D03*
X117210000Y-90170000D03*
X117210000Y-92710000D03*
X117210000Y-95250000D03*
X119750000Y-85090000D03*
X119750000Y-87630000D03*
X119750000Y-90170000D03*
X119750000Y-92710000D03*
G36*
G01*
X120650000Y-94614706D02*
X120650000Y-95885294D01*
G75*
G02*
X120385294Y-96150000I-264706J0D01*
G01*
X119114706Y-96150000D01*
G75*
G02*
X118850000Y-95885294I0J264706D01*
G01*
X118850000Y-94614706D01*
G75*
G02*
X119114706Y-94350000I264706J0D01*
G01*
X120385294Y-94350000D01*
G75*
G02*
X120650000Y-94614706I0J-264706D01*
G01*
G37*
%TD*%
D11*
%TO.C,J12*%
X171670000Y-68460000D03*
X171670000Y-71000000D03*
X174210000Y-68460000D03*
X174210000Y-71000000D03*
X176750000Y-68460000D03*
D12*
X176750000Y-71000000D03*
%TD*%
D11*
%TO.C,J11*%
X118670000Y-68460000D03*
X118670000Y-71000000D03*
X121210000Y-68460000D03*
X121210000Y-71000000D03*
X123750000Y-68460000D03*
D12*
X123750000Y-71000000D03*
%TD*%
D11*
%TO.C,J9*%
X153500000Y-48330000D03*
X153500000Y-45790000D03*
D12*
X153500000Y-43250000D03*
%TD*%
D11*
%TO.C,J8*%
X149750000Y-48330000D03*
X149750000Y-45790000D03*
D12*
X149750000Y-43250000D03*
%TD*%
D11*
%TO.C,J7*%
X145750000Y-48330000D03*
X145750000Y-45790000D03*
D12*
X145750000Y-43250000D03*
%TD*%
D11*
%TO.C,J6*%
X142000000Y-48330000D03*
X142000000Y-45790000D03*
D12*
X142000000Y-43250000D03*
%TD*%
D11*
%TO.C,JP1*%
X119790000Y-102750000D03*
D12*
X117250000Y-102750000D03*
%TD*%
D11*
%TO.C,J5*%
X149040000Y-81250000D03*
D12*
X146500000Y-81250000D03*
%TD*%
D11*
%TO.C,J4*%
X152800000Y-81250000D03*
X155340000Y-81250000D03*
X157880000Y-81250000D03*
X160420000Y-81250000D03*
X162960000Y-81250000D03*
D12*
X165500000Y-81250000D03*
%TD*%
D11*
%TO.C,J3*%
X130000000Y-81250000D03*
X132540000Y-81250000D03*
X135080000Y-81250000D03*
X137620000Y-81250000D03*
X140160000Y-81250000D03*
D12*
X142700000Y-81250000D03*
%TD*%
D11*
%TO.C,J2*%
X165500000Y-75750000D03*
X162960000Y-75750000D03*
X160420000Y-75750000D03*
X157880000Y-75750000D03*
X155340000Y-75750000D03*
D12*
X152800000Y-75750000D03*
%TD*%
D11*
%TO.C,J1*%
X142700000Y-75750000D03*
X140160000Y-75750000D03*
X137620000Y-75750000D03*
X135080000Y-75750000D03*
X132540000Y-75750000D03*
D12*
X130000000Y-75750000D03*
%TD*%
D13*
%TO.C,SW1*%
X169290000Y-110300000D03*
X166750000Y-110300000D03*
X164210000Y-110300000D03*
%TD*%
%TO.C,U7*%
X151560000Y-78440000D03*
X149020000Y-78440000D03*
X146480000Y-78440000D03*
X143940000Y-78440000D03*
%TD*%
%TO.C,U6*%
X171540000Y-105750000D03*
D14*
X169000000Y-105750000D03*
D13*
X166460000Y-105750000D03*
%TD*%
D11*
%TO.C,U8*%
X172650000Y-86630000D03*
X172650000Y-84090000D03*
D12*
X172650000Y-81550000D03*
%TD*%
D11*
%TO.C,J10*%
X175400000Y-89450000D03*
X175400000Y-91990000D03*
X175400000Y-94530000D03*
X175400000Y-97070000D03*
X175400000Y-99610000D03*
D12*
X175400000Y-102150000D03*
%TD*%
M02*
