%TF.GenerationSoftware,KiCad,Pcbnew,(5.1.6)-1*%
%TF.CreationDate,2021-11-17T22:19:31+01:00*%
%TF.ProjectId,sneak100_main_board,736e6561-6b31-4303-905f-6d61696e5f62,rev?*%
%TF.SameCoordinates,Original*%
%TF.FileFunction,Soldermask,Top*%
%TF.FilePolarity,Negative*%
%FSLAX46Y46*%
G04 Gerber Fmt 4.6, Leading zero omitted, Abs format (unit mm)*
G04 Created by KiCad (PCBNEW (5.1.6)-1) date 2021-11-17 22:19:31*
%MOMM*%
%LPD*%
G01*
G04 APERTURE LIST*
%ADD10C,3.600000*%
%ADD11C,1.624000*%
%ADD12O,1.800000X1.800000*%
%ADD13R,1.800000X1.800000*%
%ADD14R,1.650000X1.400000*%
%ADD15R,1.000000X0.900000*%
%ADD16R,0.350000X1.350000*%
%ADD17R,2.750000X1.100000*%
%ADD18C,1.800000*%
%ADD19R,1.624000X1.624000*%
%ADD20R,1.600000X2.100000*%
%ADD21R,3.900000X2.100000*%
%ADD22R,1.400000X1.650000*%
%ADD23R,2.500000X2.100000*%
%ADD24C,0.254000*%
G04 APERTURE END LIST*
D10*
%TO.C,U7*%
X136000000Y-102250000D03*
X159500000Y-102250000D03*
D11*
X143940000Y-78440000D03*
X149020000Y-78440000D03*
X146480000Y-78440000D03*
X151560000Y-78440000D03*
%TD*%
%TO.C,C32*%
G36*
G01*
X160050000Y-60531250D02*
X160050000Y-59968750D01*
G75*
G02*
X160293750Y-59725000I243750J0D01*
G01*
X160781250Y-59725000D01*
G75*
G02*
X161025000Y-59968750I0J-243750D01*
G01*
X161025000Y-60531250D01*
G75*
G02*
X160781250Y-60775000I-243750J0D01*
G01*
X160293750Y-60775000D01*
G75*
G02*
X160050000Y-60531250I0J243750D01*
G01*
G37*
G36*
G01*
X158475000Y-60531250D02*
X158475000Y-59968750D01*
G75*
G02*
X158718750Y-59725000I243750J0D01*
G01*
X159206250Y-59725000D01*
G75*
G02*
X159450000Y-59968750I0J-243750D01*
G01*
X159450000Y-60531250D01*
G75*
G02*
X159206250Y-60775000I-243750J0D01*
G01*
X158718750Y-60775000D01*
G75*
G02*
X158475000Y-60531250I0J243750D01*
G01*
G37*
%TD*%
%TO.C,SW1*%
X169290000Y-110750000D03*
X166750000Y-110750000D03*
X164210000Y-110750000D03*
%TD*%
D12*
%TO.C,J14*%
X115250000Y-55670000D03*
X115250000Y-58210000D03*
D13*
X115250000Y-60750000D03*
%TD*%
D14*
%TO.C,SW5*%
X123725000Y-78250000D03*
X123725000Y-73750000D03*
X115775000Y-73750000D03*
X115775000Y-78250000D03*
%TD*%
%TO.C,R15*%
G36*
G01*
X177200000Y-104968750D02*
X177200000Y-105531250D01*
G75*
G02*
X176956250Y-105775000I-243750J0D01*
G01*
X176468750Y-105775000D01*
G75*
G02*
X176225000Y-105531250I0J243750D01*
G01*
X176225000Y-104968750D01*
G75*
G02*
X176468750Y-104725000I243750J0D01*
G01*
X176956250Y-104725000D01*
G75*
G02*
X177200000Y-104968750I0J-243750D01*
G01*
G37*
G36*
G01*
X178775000Y-104968750D02*
X178775000Y-105531250D01*
G75*
G02*
X178531250Y-105775000I-243750J0D01*
G01*
X178043750Y-105775000D01*
G75*
G02*
X177800000Y-105531250I0J243750D01*
G01*
X177800000Y-104968750D01*
G75*
G02*
X178043750Y-104725000I243750J0D01*
G01*
X178531250Y-104725000D01*
G75*
G02*
X178775000Y-104968750I0J-243750D01*
G01*
G37*
%TD*%
%TO.C,R14*%
G36*
G01*
X177200000Y-106968750D02*
X177200000Y-107531250D01*
G75*
G02*
X176956250Y-107775000I-243750J0D01*
G01*
X176468750Y-107775000D01*
G75*
G02*
X176225000Y-107531250I0J243750D01*
G01*
X176225000Y-106968750D01*
G75*
G02*
X176468750Y-106725000I243750J0D01*
G01*
X176956250Y-106725000D01*
G75*
G02*
X177200000Y-106968750I0J-243750D01*
G01*
G37*
G36*
G01*
X178775000Y-106968750D02*
X178775000Y-107531250D01*
G75*
G02*
X178531250Y-107775000I-243750J0D01*
G01*
X178043750Y-107775000D01*
G75*
G02*
X177800000Y-107531250I0J243750D01*
G01*
X177800000Y-106968750D01*
G75*
G02*
X178043750Y-106725000I243750J0D01*
G01*
X178531250Y-106725000D01*
G75*
G02*
X178775000Y-106968750I0J-243750D01*
G01*
G37*
%TD*%
D15*
%TO.C,Q3*%
X174750000Y-106250000D03*
X172750000Y-107200000D03*
X172750000Y-105300000D03*
%TD*%
D12*
%TO.C,JP1*%
X121080000Y-102750000D03*
X118540000Y-102750000D03*
D13*
X116000000Y-102750000D03*
%TD*%
%TO.C,C33*%
G36*
G01*
X132700000Y-57468750D02*
X132700000Y-58031250D01*
G75*
G02*
X132456250Y-58275000I-243750J0D01*
G01*
X131968750Y-58275000D01*
G75*
G02*
X131725000Y-58031250I0J243750D01*
G01*
X131725000Y-57468750D01*
G75*
G02*
X131968750Y-57225000I243750J0D01*
G01*
X132456250Y-57225000D01*
G75*
G02*
X132700000Y-57468750I0J-243750D01*
G01*
G37*
G36*
G01*
X134275000Y-57468750D02*
X134275000Y-58031250D01*
G75*
G02*
X134031250Y-58275000I-243750J0D01*
G01*
X133543750Y-58275000D01*
G75*
G02*
X133300000Y-58031250I0J243750D01*
G01*
X133300000Y-57468750D01*
G75*
G02*
X133543750Y-57225000I243750J0D01*
G01*
X134031250Y-57225000D01*
G75*
G02*
X134275000Y-57468750I0J-243750D01*
G01*
G37*
%TD*%
%TO.C,C13*%
G36*
G01*
X166525000Y-95562952D02*
X166525000Y-93437048D01*
G75*
G02*
X166787048Y-93175000I262048J0D01*
G01*
X168437952Y-93175000D01*
G75*
G02*
X168700000Y-93437048I0J-262048D01*
G01*
X168700000Y-95562952D01*
G75*
G02*
X168437952Y-95825000I-262048J0D01*
G01*
X166787048Y-95825000D01*
G75*
G02*
X166525000Y-95562952I0J262048D01*
G01*
G37*
G36*
G01*
X160300000Y-95564000D02*
X160300000Y-93436000D01*
G75*
G02*
X160561000Y-93175000I261000J0D01*
G01*
X162214000Y-93175000D01*
G75*
G02*
X162475000Y-93436000I0J-261000D01*
G01*
X162475000Y-95564000D01*
G75*
G02*
X162214000Y-95825000I-261000J0D01*
G01*
X160561000Y-95825000D01*
G75*
G02*
X160300000Y-95564000I0J261000D01*
G01*
G37*
%TD*%
%TO.C,C12*%
G36*
G01*
X164525000Y-85814000D02*
X164525000Y-83686000D01*
G75*
G02*
X164786000Y-83425000I261000J0D01*
G01*
X166439000Y-83425000D01*
G75*
G02*
X166700000Y-83686000I0J-261000D01*
G01*
X166700000Y-85814000D01*
G75*
G02*
X166439000Y-86075000I-261000J0D01*
G01*
X164786000Y-86075000D01*
G75*
G02*
X164525000Y-85814000I0J261000D01*
G01*
G37*
G36*
G01*
X158300000Y-85812952D02*
X158300000Y-83687048D01*
G75*
G02*
X158562048Y-83425000I262048J0D01*
G01*
X160212952Y-83425000D01*
G75*
G02*
X160475000Y-83687048I0J-262048D01*
G01*
X160475000Y-85812952D01*
G75*
G02*
X160212952Y-86075000I-262048J0D01*
G01*
X158562048Y-86075000D01*
G75*
G02*
X158300000Y-85812952I0J262048D01*
G01*
G37*
%TD*%
%TO.C,C9*%
G36*
G01*
X141275000Y-85814000D02*
X141275000Y-83686000D01*
G75*
G02*
X141536000Y-83425000I261000J0D01*
G01*
X143189000Y-83425000D01*
G75*
G02*
X143450000Y-83686000I0J-261000D01*
G01*
X143450000Y-85814000D01*
G75*
G02*
X143189000Y-86075000I-261000J0D01*
G01*
X141536000Y-86075000D01*
G75*
G02*
X141275000Y-85814000I0J261000D01*
G01*
G37*
G36*
G01*
X135050000Y-85812952D02*
X135050000Y-83687048D01*
G75*
G02*
X135312048Y-83425000I262048J0D01*
G01*
X136962952Y-83425000D01*
G75*
G02*
X137225000Y-83687048I0J-262048D01*
G01*
X137225000Y-85812952D01*
G75*
G02*
X136962952Y-86075000I-262048J0D01*
G01*
X135312048Y-86075000D01*
G75*
G02*
X135050000Y-85812952I0J262048D01*
G01*
G37*
%TD*%
%TO.C,C6*%
G36*
G01*
X153475000Y-71186000D02*
X153475000Y-73314000D01*
G75*
G02*
X153214000Y-73575000I-261000J0D01*
G01*
X151561000Y-73575000D01*
G75*
G02*
X151300000Y-73314000I0J261000D01*
G01*
X151300000Y-71186000D01*
G75*
G02*
X151561000Y-70925000I261000J0D01*
G01*
X153214000Y-70925000D01*
G75*
G02*
X153475000Y-71186000I0J-261000D01*
G01*
G37*
G36*
G01*
X159700000Y-71187048D02*
X159700000Y-73312952D01*
G75*
G02*
X159437952Y-73575000I-262048J0D01*
G01*
X157787048Y-73575000D01*
G75*
G02*
X157525000Y-73312952I0J262048D01*
G01*
X157525000Y-71187048D01*
G75*
G02*
X157787048Y-70925000I262048J0D01*
G01*
X159437952Y-70925000D01*
G75*
G02*
X159700000Y-71187048I0J-262048D01*
G01*
G37*
%TD*%
%TO.C,C3*%
G36*
G01*
X130975000Y-71186000D02*
X130975000Y-73314000D01*
G75*
G02*
X130714000Y-73575000I-261000J0D01*
G01*
X129061000Y-73575000D01*
G75*
G02*
X128800000Y-73314000I0J261000D01*
G01*
X128800000Y-71186000D01*
G75*
G02*
X129061000Y-70925000I261000J0D01*
G01*
X130714000Y-70925000D01*
G75*
G02*
X130975000Y-71186000I0J-261000D01*
G01*
G37*
G36*
G01*
X137200000Y-71187048D02*
X137200000Y-73312952D01*
G75*
G02*
X136937952Y-73575000I-262048J0D01*
G01*
X135287048Y-73575000D01*
G75*
G02*
X135025000Y-73312952I0J262048D01*
G01*
X135025000Y-71187048D01*
G75*
G02*
X135287048Y-70925000I262048J0D01*
G01*
X136937952Y-70925000D01*
G75*
G02*
X137200000Y-71187048I0J-262048D01*
G01*
G37*
%TD*%
D16*
%TO.C,U4*%
X154250000Y-85375000D03*
X153750000Y-85375000D03*
X153275000Y-85375000D03*
X152775000Y-85375000D03*
X154750000Y-85375000D03*
X152250000Y-88025000D03*
X154750000Y-88025000D03*
D17*
X153500000Y-86700000D03*
D16*
X154250000Y-88025000D03*
X153750000Y-88025000D03*
X153250000Y-88025000D03*
X152250000Y-85375000D03*
X152750000Y-88025000D03*
%TD*%
%TO.C,U3*%
X131500000Y-85325000D03*
X131000000Y-85325000D03*
X130525000Y-85325000D03*
X130025000Y-85325000D03*
X132000000Y-85325000D03*
X129500000Y-87975000D03*
X132000000Y-87975000D03*
D17*
X130750000Y-86650000D03*
D16*
X131500000Y-87975000D03*
X131000000Y-87975000D03*
X130500000Y-87975000D03*
X129500000Y-85325000D03*
X130000000Y-87975000D03*
%TD*%
%TO.C,U2*%
X164000000Y-71925000D03*
X164500000Y-71925000D03*
X164975000Y-71925000D03*
X165475000Y-71925000D03*
X163500000Y-71925000D03*
X166000000Y-69275000D03*
X163500000Y-69275000D03*
D17*
X164750000Y-70600000D03*
D16*
X164000000Y-69275000D03*
X164500000Y-69275000D03*
X165000000Y-69275000D03*
X166000000Y-71925000D03*
X165500000Y-69275000D03*
%TD*%
%TO.C,U1*%
X141200000Y-71925000D03*
X141700000Y-71925000D03*
X142175000Y-71925000D03*
X142675000Y-71925000D03*
X140700000Y-71925000D03*
X143200000Y-69275000D03*
X140700000Y-69275000D03*
D17*
X141950000Y-70600000D03*
D16*
X141200000Y-69275000D03*
X141700000Y-69275000D03*
X142200000Y-69275000D03*
X143200000Y-71925000D03*
X142700000Y-69275000D03*
%TD*%
D18*
%TO.C,J13*%
X117210000Y-85090000D03*
X117210000Y-87630000D03*
X117210000Y-90170000D03*
X117210000Y-92710000D03*
X117210000Y-95250000D03*
X119750000Y-85090000D03*
X119750000Y-87630000D03*
X119750000Y-90170000D03*
X119750000Y-92710000D03*
G36*
G01*
X120650000Y-94614706D02*
X120650000Y-95885294D01*
G75*
G02*
X120385294Y-96150000I-264706J0D01*
G01*
X119114706Y-96150000D01*
G75*
G02*
X118850000Y-95885294I0J264706D01*
G01*
X118850000Y-94614706D01*
G75*
G02*
X119114706Y-94350000I264706J0D01*
G01*
X120385294Y-94350000D01*
G75*
G02*
X120650000Y-94614706I0J-264706D01*
G01*
G37*
%TD*%
D12*
%TO.C,J12*%
X171670000Y-68460000D03*
X171670000Y-71000000D03*
X174210000Y-68460000D03*
X174210000Y-71000000D03*
X176750000Y-68460000D03*
D13*
X176750000Y-71000000D03*
%TD*%
D12*
%TO.C,J11*%
X118670000Y-68460000D03*
X118670000Y-71000000D03*
X121210000Y-68460000D03*
X121210000Y-71000000D03*
X123750000Y-68460000D03*
D13*
X123750000Y-71000000D03*
%TD*%
D12*
%TO.C,J9*%
X153500000Y-48330000D03*
X153500000Y-45790000D03*
D13*
X153500000Y-43250000D03*
%TD*%
D12*
%TO.C,J8*%
X149750000Y-48330000D03*
X149750000Y-45790000D03*
D13*
X149750000Y-43250000D03*
%TD*%
D12*
%TO.C,J7*%
X145750000Y-48330000D03*
X145750000Y-45790000D03*
D13*
X145750000Y-43250000D03*
%TD*%
D12*
%TO.C,J6*%
X142000000Y-48330000D03*
X142000000Y-45790000D03*
D13*
X142000000Y-43250000D03*
%TD*%
%TO.C,C21*%
G36*
G01*
X178100000Y-86706482D02*
X178100000Y-85793518D01*
G75*
G02*
X178368518Y-85525000I268518J0D01*
G01*
X179331482Y-85525000D01*
G75*
G02*
X179600000Y-85793518I0J-268518D01*
G01*
X179600000Y-86706482D01*
G75*
G02*
X179331482Y-86975000I-268518J0D01*
G01*
X178368518Y-86975000D01*
G75*
G02*
X178100000Y-86706482I0J268518D01*
G01*
G37*
G36*
G01*
X175400000Y-86706482D02*
X175400000Y-85793518D01*
G75*
G02*
X175668518Y-85525000I268518J0D01*
G01*
X176631482Y-85525000D01*
G75*
G02*
X176900000Y-85793518I0J-268518D01*
G01*
X176900000Y-86706482D01*
G75*
G02*
X176631482Y-86975000I-268518J0D01*
G01*
X175668518Y-86975000D01*
G75*
G02*
X175400000Y-86706482I0J268518D01*
G01*
G37*
%TD*%
%TO.C,C16*%
G36*
G01*
X125400000Y-93043518D02*
X125400000Y-93956482D01*
G75*
G02*
X125131482Y-94225000I-268518J0D01*
G01*
X124168518Y-94225000D01*
G75*
G02*
X123900000Y-93956482I0J268518D01*
G01*
X123900000Y-93043518D01*
G75*
G02*
X124168518Y-92775000I268518J0D01*
G01*
X125131482Y-92775000D01*
G75*
G02*
X125400000Y-93043518I0J-268518D01*
G01*
G37*
G36*
G01*
X128100000Y-93043518D02*
X128100000Y-93956482D01*
G75*
G02*
X127831482Y-94225000I-268518J0D01*
G01*
X126868518Y-94225000D01*
G75*
G02*
X126600000Y-93956482I0J268518D01*
G01*
X126600000Y-93043518D01*
G75*
G02*
X126868518Y-92775000I268518J0D01*
G01*
X127831482Y-92775000D01*
G75*
G02*
X128100000Y-93043518I0J-268518D01*
G01*
G37*
%TD*%
%TO.C,C15*%
G36*
G01*
X127793518Y-107850000D02*
X128706482Y-107850000D01*
G75*
G02*
X128975000Y-108118518I0J-268518D01*
G01*
X128975000Y-109081482D01*
G75*
G02*
X128706482Y-109350000I-268518J0D01*
G01*
X127793518Y-109350000D01*
G75*
G02*
X127525000Y-109081482I0J268518D01*
G01*
X127525000Y-108118518D01*
G75*
G02*
X127793518Y-107850000I268518J0D01*
G01*
G37*
G36*
G01*
X127793518Y-105150000D02*
X128706482Y-105150000D01*
G75*
G02*
X128975000Y-105418518I0J-268518D01*
G01*
X128975000Y-106381482D01*
G75*
G02*
X128706482Y-106650000I-268518J0D01*
G01*
X127793518Y-106650000D01*
G75*
G02*
X127525000Y-106381482I0J268518D01*
G01*
X127525000Y-105418518D01*
G75*
G02*
X127793518Y-105150000I268518J0D01*
G01*
G37*
%TD*%
%TO.C,Q2*%
G36*
G01*
X153700000Y-93520000D02*
X153700000Y-93170000D01*
G75*
G02*
X153875000Y-92995000I175000J0D01*
G01*
X155575000Y-92995000D01*
G75*
G02*
X155750000Y-93170000I0J-175000D01*
G01*
X155750000Y-93520000D01*
G75*
G02*
X155575000Y-93695000I-175000J0D01*
G01*
X153875000Y-93695000D01*
G75*
G02*
X153700000Y-93520000I0J175000D01*
G01*
G37*
G36*
G01*
X153700000Y-94790000D02*
X153700000Y-94440000D01*
G75*
G02*
X153875000Y-94265000I175000J0D01*
G01*
X155575000Y-94265000D01*
G75*
G02*
X155750000Y-94440000I0J-175000D01*
G01*
X155750000Y-94790000D01*
G75*
G02*
X155575000Y-94965000I-175000J0D01*
G01*
X153875000Y-94965000D01*
G75*
G02*
X153700000Y-94790000I0J175000D01*
G01*
G37*
G36*
G01*
X153700000Y-96060000D02*
X153700000Y-95710000D01*
G75*
G02*
X153875000Y-95535000I175000J0D01*
G01*
X155575000Y-95535000D01*
G75*
G02*
X155750000Y-95710000I0J-175000D01*
G01*
X155750000Y-96060000D01*
G75*
G02*
X155575000Y-96235000I-175000J0D01*
G01*
X153875000Y-96235000D01*
G75*
G02*
X153700000Y-96060000I0J175000D01*
G01*
G37*
G36*
G01*
X153700000Y-97330000D02*
X153700000Y-96980000D01*
G75*
G02*
X153875000Y-96805000I175000J0D01*
G01*
X155575000Y-96805000D01*
G75*
G02*
X155750000Y-96980000I0J-175000D01*
G01*
X155750000Y-97330000D01*
G75*
G02*
X155575000Y-97505000I-175000J0D01*
G01*
X153875000Y-97505000D01*
G75*
G02*
X153700000Y-97330000I0J175000D01*
G01*
G37*
G36*
G01*
X148750000Y-97330000D02*
X148750000Y-96980000D01*
G75*
G02*
X148925000Y-96805000I175000J0D01*
G01*
X150625000Y-96805000D01*
G75*
G02*
X150800000Y-96980000I0J-175000D01*
G01*
X150800000Y-97330000D01*
G75*
G02*
X150625000Y-97505000I-175000J0D01*
G01*
X148925000Y-97505000D01*
G75*
G02*
X148750000Y-97330000I0J175000D01*
G01*
G37*
G36*
G01*
X148750000Y-96060000D02*
X148750000Y-95710000D01*
G75*
G02*
X148925000Y-95535000I175000J0D01*
G01*
X150625000Y-95535000D01*
G75*
G02*
X150800000Y-95710000I0J-175000D01*
G01*
X150800000Y-96060000D01*
G75*
G02*
X150625000Y-96235000I-175000J0D01*
G01*
X148925000Y-96235000D01*
G75*
G02*
X148750000Y-96060000I0J175000D01*
G01*
G37*
G36*
G01*
X148750000Y-94790000D02*
X148750000Y-94440000D01*
G75*
G02*
X148925000Y-94265000I175000J0D01*
G01*
X150625000Y-94265000D01*
G75*
G02*
X150800000Y-94440000I0J-175000D01*
G01*
X150800000Y-94790000D01*
G75*
G02*
X150625000Y-94965000I-175000J0D01*
G01*
X148925000Y-94965000D01*
G75*
G02*
X148750000Y-94790000I0J175000D01*
G01*
G37*
G36*
G01*
X148750000Y-93520000D02*
X148750000Y-93170000D01*
G75*
G02*
X148925000Y-92995000I175000J0D01*
G01*
X150625000Y-92995000D01*
G75*
G02*
X150800000Y-93170000I0J-175000D01*
G01*
X150800000Y-93520000D01*
G75*
G02*
X150625000Y-93695000I-175000J0D01*
G01*
X148925000Y-93695000D01*
G75*
G02*
X148750000Y-93520000I0J175000D01*
G01*
G37*
%TD*%
%TO.C,Q1*%
G36*
G01*
X141800000Y-96980000D02*
X141800000Y-97330000D01*
G75*
G02*
X141625000Y-97505000I-175000J0D01*
G01*
X139925000Y-97505000D01*
G75*
G02*
X139750000Y-97330000I0J175000D01*
G01*
X139750000Y-96980000D01*
G75*
G02*
X139925000Y-96805000I175000J0D01*
G01*
X141625000Y-96805000D01*
G75*
G02*
X141800000Y-96980000I0J-175000D01*
G01*
G37*
G36*
G01*
X141800000Y-95710000D02*
X141800000Y-96060000D01*
G75*
G02*
X141625000Y-96235000I-175000J0D01*
G01*
X139925000Y-96235000D01*
G75*
G02*
X139750000Y-96060000I0J175000D01*
G01*
X139750000Y-95710000D01*
G75*
G02*
X139925000Y-95535000I175000J0D01*
G01*
X141625000Y-95535000D01*
G75*
G02*
X141800000Y-95710000I0J-175000D01*
G01*
G37*
G36*
G01*
X141800000Y-94440000D02*
X141800000Y-94790000D01*
G75*
G02*
X141625000Y-94965000I-175000J0D01*
G01*
X139925000Y-94965000D01*
G75*
G02*
X139750000Y-94790000I0J175000D01*
G01*
X139750000Y-94440000D01*
G75*
G02*
X139925000Y-94265000I175000J0D01*
G01*
X141625000Y-94265000D01*
G75*
G02*
X141800000Y-94440000I0J-175000D01*
G01*
G37*
G36*
G01*
X141800000Y-93170000D02*
X141800000Y-93520000D01*
G75*
G02*
X141625000Y-93695000I-175000J0D01*
G01*
X139925000Y-93695000D01*
G75*
G02*
X139750000Y-93520000I0J175000D01*
G01*
X139750000Y-93170000D01*
G75*
G02*
X139925000Y-92995000I175000J0D01*
G01*
X141625000Y-92995000D01*
G75*
G02*
X141800000Y-93170000I0J-175000D01*
G01*
G37*
G36*
G01*
X146750000Y-93170000D02*
X146750000Y-93520000D01*
G75*
G02*
X146575000Y-93695000I-175000J0D01*
G01*
X144875000Y-93695000D01*
G75*
G02*
X144700000Y-93520000I0J175000D01*
G01*
X144700000Y-93170000D01*
G75*
G02*
X144875000Y-92995000I175000J0D01*
G01*
X146575000Y-92995000D01*
G75*
G02*
X146750000Y-93170000I0J-175000D01*
G01*
G37*
G36*
G01*
X146750000Y-94440000D02*
X146750000Y-94790000D01*
G75*
G02*
X146575000Y-94965000I-175000J0D01*
G01*
X144875000Y-94965000D01*
G75*
G02*
X144700000Y-94790000I0J175000D01*
G01*
X144700000Y-94440000D01*
G75*
G02*
X144875000Y-94265000I175000J0D01*
G01*
X146575000Y-94265000D01*
G75*
G02*
X146750000Y-94440000I0J-175000D01*
G01*
G37*
G36*
G01*
X146750000Y-95710000D02*
X146750000Y-96060000D01*
G75*
G02*
X146575000Y-96235000I-175000J0D01*
G01*
X144875000Y-96235000D01*
G75*
G02*
X144700000Y-96060000I0J175000D01*
G01*
X144700000Y-95710000D01*
G75*
G02*
X144875000Y-95535000I175000J0D01*
G01*
X146575000Y-95535000D01*
G75*
G02*
X146750000Y-95710000I0J-175000D01*
G01*
G37*
G36*
G01*
X146750000Y-96980000D02*
X146750000Y-97330000D01*
G75*
G02*
X146575000Y-97505000I-175000J0D01*
G01*
X144875000Y-97505000D01*
G75*
G02*
X144700000Y-97330000I0J175000D01*
G01*
X144700000Y-96980000D01*
G75*
G02*
X144875000Y-96805000I175000J0D01*
G01*
X146575000Y-96805000D01*
G75*
G02*
X146750000Y-96980000I0J-175000D01*
G01*
G37*
%TD*%
D12*
%TO.C,J5*%
X149040000Y-81250000D03*
D13*
X146500000Y-81250000D03*
%TD*%
D12*
%TO.C,J4*%
X152800000Y-81250000D03*
X155340000Y-81250000D03*
X157880000Y-81250000D03*
X160420000Y-81250000D03*
X162960000Y-81250000D03*
D13*
X165500000Y-81250000D03*
%TD*%
D12*
%TO.C,J3*%
X130000000Y-81250000D03*
X132540000Y-81250000D03*
X135080000Y-81250000D03*
X137620000Y-81250000D03*
X140160000Y-81250000D03*
D13*
X142700000Y-81250000D03*
%TD*%
D12*
%TO.C,J2*%
X165500000Y-75750000D03*
X162960000Y-75750000D03*
X160420000Y-75750000D03*
X157880000Y-75750000D03*
X155340000Y-75750000D03*
D13*
X152800000Y-75750000D03*
%TD*%
D12*
%TO.C,J1*%
X142700000Y-75750000D03*
X140160000Y-75750000D03*
X137620000Y-75750000D03*
X135080000Y-75750000D03*
X132540000Y-75750000D03*
D13*
X130000000Y-75750000D03*
%TD*%
D11*
%TO.C,U6*%
X170040000Y-107750000D03*
D19*
X167500000Y-107750000D03*
D11*
X164960000Y-107750000D03*
%TD*%
D20*
%TO.C,U5*%
X125950000Y-102900000D03*
X130550000Y-102900000D03*
X128250000Y-102900000D03*
D21*
X128250000Y-96600000D03*
%TD*%
D12*
%TO.C,U8*%
X172650000Y-86630000D03*
X172650000Y-84090000D03*
D13*
X172650000Y-81550000D03*
%TD*%
%TO.C,U9*%
G36*
G01*
X154043250Y-60707107D02*
X155068555Y-61732412D01*
G75*
G02*
X155068555Y-61873834I-70711J-70711D01*
G01*
X154927134Y-62015255D01*
G75*
G02*
X154785712Y-62015255I-70711J70711D01*
G01*
X153760407Y-60989950D01*
G75*
G02*
X153760407Y-60848528I70711J70711D01*
G01*
X153901828Y-60707107D01*
G75*
G02*
X154043250Y-60707107I70711J-70711D01*
G01*
G37*
G36*
G01*
X153689697Y-61060660D02*
X154715002Y-62085965D01*
G75*
G02*
X154715002Y-62227387I-70711J-70711D01*
G01*
X154573581Y-62368808D01*
G75*
G02*
X154432159Y-62368808I-70711J70711D01*
G01*
X153406854Y-61343503D01*
G75*
G02*
X153406854Y-61202081I70711J70711D01*
G01*
X153548275Y-61060660D01*
G75*
G02*
X153689697Y-61060660I70711J-70711D01*
G01*
G37*
G36*
G01*
X153336144Y-61414213D02*
X154361449Y-62439518D01*
G75*
G02*
X154361449Y-62580940I-70711J-70711D01*
G01*
X154220028Y-62722361D01*
G75*
G02*
X154078606Y-62722361I-70711J70711D01*
G01*
X153053301Y-61697056D01*
G75*
G02*
X153053301Y-61555634I70711J70711D01*
G01*
X153194722Y-61414213D01*
G75*
G02*
X153336144Y-61414213I70711J-70711D01*
G01*
G37*
G36*
G01*
X152982590Y-61767767D02*
X154007895Y-62793072D01*
G75*
G02*
X154007895Y-62934494I-70711J-70711D01*
G01*
X153866474Y-63075915D01*
G75*
G02*
X153725052Y-63075915I-70711J70711D01*
G01*
X152699747Y-62050610D01*
G75*
G02*
X152699747Y-61909188I70711J70711D01*
G01*
X152841168Y-61767767D01*
G75*
G02*
X152982590Y-61767767I70711J-70711D01*
G01*
G37*
G36*
G01*
X152629037Y-62121320D02*
X153654342Y-63146625D01*
G75*
G02*
X153654342Y-63288047I-70711J-70711D01*
G01*
X153512921Y-63429468D01*
G75*
G02*
X153371499Y-63429468I-70711J70711D01*
G01*
X152346194Y-62404163D01*
G75*
G02*
X152346194Y-62262741I70711J70711D01*
G01*
X152487615Y-62121320D01*
G75*
G02*
X152629037Y-62121320I70711J-70711D01*
G01*
G37*
G36*
G01*
X152275483Y-62474874D02*
X153300788Y-63500179D01*
G75*
G02*
X153300788Y-63641601I-70711J-70711D01*
G01*
X153159367Y-63783022D01*
G75*
G02*
X153017945Y-63783022I-70711J70711D01*
G01*
X151992640Y-62757717D01*
G75*
G02*
X151992640Y-62616295I70711J70711D01*
G01*
X152134061Y-62474874D01*
G75*
G02*
X152275483Y-62474874I70711J-70711D01*
G01*
G37*
G36*
G01*
X151921930Y-62828427D02*
X152947235Y-63853732D01*
G75*
G02*
X152947235Y-63995154I-70711J-70711D01*
G01*
X152805814Y-64136575D01*
G75*
G02*
X152664392Y-64136575I-70711J70711D01*
G01*
X151639087Y-63111270D01*
G75*
G02*
X151639087Y-62969848I70711J70711D01*
G01*
X151780508Y-62828427D01*
G75*
G02*
X151921930Y-62828427I70711J-70711D01*
G01*
G37*
G36*
G01*
X151568377Y-63181980D02*
X152593682Y-64207285D01*
G75*
G02*
X152593682Y-64348707I-70711J-70711D01*
G01*
X152452261Y-64490128D01*
G75*
G02*
X152310839Y-64490128I-70711J70711D01*
G01*
X151285534Y-63464823D01*
G75*
G02*
X151285534Y-63323401I70711J70711D01*
G01*
X151426955Y-63181980D01*
G75*
G02*
X151568377Y-63181980I70711J-70711D01*
G01*
G37*
G36*
G01*
X151214823Y-63535534D02*
X152240128Y-64560839D01*
G75*
G02*
X152240128Y-64702261I-70711J-70711D01*
G01*
X152098707Y-64843682D01*
G75*
G02*
X151957285Y-64843682I-70711J70711D01*
G01*
X150931980Y-63818377D01*
G75*
G02*
X150931980Y-63676955I70711J70711D01*
G01*
X151073401Y-63535534D01*
G75*
G02*
X151214823Y-63535534I70711J-70711D01*
G01*
G37*
G36*
G01*
X150861270Y-63889087D02*
X151886575Y-64914392D01*
G75*
G02*
X151886575Y-65055814I-70711J-70711D01*
G01*
X151745154Y-65197235D01*
G75*
G02*
X151603732Y-65197235I-70711J70711D01*
G01*
X150578427Y-64171930D01*
G75*
G02*
X150578427Y-64030508I70711J70711D01*
G01*
X150719848Y-63889087D01*
G75*
G02*
X150861270Y-63889087I70711J-70711D01*
G01*
G37*
G36*
G01*
X150507717Y-64242640D02*
X151533022Y-65267945D01*
G75*
G02*
X151533022Y-65409367I-70711J-70711D01*
G01*
X151391601Y-65550788D01*
G75*
G02*
X151250179Y-65550788I-70711J70711D01*
G01*
X150224874Y-64525483D01*
G75*
G02*
X150224874Y-64384061I70711J70711D01*
G01*
X150366295Y-64242640D01*
G75*
G02*
X150507717Y-64242640I70711J-70711D01*
G01*
G37*
G36*
G01*
X150154163Y-64596194D02*
X151179468Y-65621499D01*
G75*
G02*
X151179468Y-65762921I-70711J-70711D01*
G01*
X151038047Y-65904342D01*
G75*
G02*
X150896625Y-65904342I-70711J70711D01*
G01*
X149871320Y-64879037D01*
G75*
G02*
X149871320Y-64737615I70711J70711D01*
G01*
X150012741Y-64596194D01*
G75*
G02*
X150154163Y-64596194I70711J-70711D01*
G01*
G37*
G36*
G01*
X149800610Y-64949747D02*
X150825915Y-65975052D01*
G75*
G02*
X150825915Y-66116474I-70711J-70711D01*
G01*
X150684494Y-66257895D01*
G75*
G02*
X150543072Y-66257895I-70711J70711D01*
G01*
X149517767Y-65232590D01*
G75*
G02*
X149517767Y-65091168I70711J70711D01*
G01*
X149659188Y-64949747D01*
G75*
G02*
X149800610Y-64949747I70711J-70711D01*
G01*
G37*
G36*
G01*
X149447056Y-65303301D02*
X150472361Y-66328606D01*
G75*
G02*
X150472361Y-66470028I-70711J-70711D01*
G01*
X150330940Y-66611449D01*
G75*
G02*
X150189518Y-66611449I-70711J70711D01*
G01*
X149164213Y-65586144D01*
G75*
G02*
X149164213Y-65444722I70711J70711D01*
G01*
X149305634Y-65303301D01*
G75*
G02*
X149447056Y-65303301I70711J-70711D01*
G01*
G37*
G36*
G01*
X149093503Y-65656854D02*
X150118808Y-66682159D01*
G75*
G02*
X150118808Y-66823581I-70711J-70711D01*
G01*
X149977387Y-66965002D01*
G75*
G02*
X149835965Y-66965002I-70711J70711D01*
G01*
X148810660Y-65939697D01*
G75*
G02*
X148810660Y-65798275I70711J70711D01*
G01*
X148952081Y-65656854D01*
G75*
G02*
X149093503Y-65656854I70711J-70711D01*
G01*
G37*
G36*
G01*
X148739950Y-66010407D02*
X149765255Y-67035712D01*
G75*
G02*
X149765255Y-67177134I-70711J-70711D01*
G01*
X149623834Y-67318555D01*
G75*
G02*
X149482412Y-67318555I-70711J70711D01*
G01*
X148457107Y-66293250D01*
G75*
G02*
X148457107Y-66151828I70711J70711D01*
G01*
X148598528Y-66010407D01*
G75*
G02*
X148739950Y-66010407I70711J-70711D01*
G01*
G37*
G36*
G01*
X146901471Y-66010407D02*
X147042893Y-66151828D01*
G75*
G02*
X147042893Y-66293250I-70711J-70711D01*
G01*
X146017588Y-67318555D01*
G75*
G02*
X145876166Y-67318555I-70711J70711D01*
G01*
X145734745Y-67177134D01*
G75*
G02*
X145734745Y-67035712I70711J70711D01*
G01*
X146760050Y-66010407D01*
G75*
G02*
X146901472Y-66010407I70711J-70711D01*
G01*
G37*
G36*
G01*
X146547918Y-65656854D02*
X146689340Y-65798275D01*
G75*
G02*
X146689340Y-65939697I-70711J-70711D01*
G01*
X145664035Y-66965002D01*
G75*
G02*
X145522613Y-66965002I-70711J70711D01*
G01*
X145381192Y-66823581D01*
G75*
G02*
X145381192Y-66682159I70711J70711D01*
G01*
X146406497Y-65656854D01*
G75*
G02*
X146547919Y-65656854I70711J-70711D01*
G01*
G37*
G36*
G01*
X146194365Y-65303301D02*
X146335787Y-65444722D01*
G75*
G02*
X146335787Y-65586144I-70711J-70711D01*
G01*
X145310482Y-66611449D01*
G75*
G02*
X145169060Y-66611449I-70711J70711D01*
G01*
X145027639Y-66470028D01*
G75*
G02*
X145027639Y-66328606I70711J70711D01*
G01*
X146052944Y-65303301D01*
G75*
G02*
X146194366Y-65303301I70711J-70711D01*
G01*
G37*
G36*
G01*
X145840811Y-64949747D02*
X145982233Y-65091168D01*
G75*
G02*
X145982233Y-65232590I-70711J-70711D01*
G01*
X144956928Y-66257895D01*
G75*
G02*
X144815506Y-66257895I-70711J70711D01*
G01*
X144674085Y-66116474D01*
G75*
G02*
X144674085Y-65975052I70711J70711D01*
G01*
X145699390Y-64949747D01*
G75*
G02*
X145840812Y-64949747I70711J-70711D01*
G01*
G37*
G36*
G01*
X145487258Y-64596194D02*
X145628680Y-64737615D01*
G75*
G02*
X145628680Y-64879037I-70711J-70711D01*
G01*
X144603375Y-65904342D01*
G75*
G02*
X144461953Y-65904342I-70711J70711D01*
G01*
X144320532Y-65762921D01*
G75*
G02*
X144320532Y-65621499I70711J70711D01*
G01*
X145345837Y-64596194D01*
G75*
G02*
X145487259Y-64596194I70711J-70711D01*
G01*
G37*
G36*
G01*
X145133704Y-64242640D02*
X145275126Y-64384061D01*
G75*
G02*
X145275126Y-64525483I-70711J-70711D01*
G01*
X144249821Y-65550788D01*
G75*
G02*
X144108399Y-65550788I-70711J70711D01*
G01*
X143966978Y-65409367D01*
G75*
G02*
X143966978Y-65267945I70711J70711D01*
G01*
X144992283Y-64242640D01*
G75*
G02*
X145133705Y-64242640I70711J-70711D01*
G01*
G37*
G36*
G01*
X144780151Y-63889087D02*
X144921573Y-64030508D01*
G75*
G02*
X144921573Y-64171930I-70711J-70711D01*
G01*
X143896268Y-65197235D01*
G75*
G02*
X143754846Y-65197235I-70711J70711D01*
G01*
X143613425Y-65055814D01*
G75*
G02*
X143613425Y-64914392I70711J70711D01*
G01*
X144638730Y-63889087D01*
G75*
G02*
X144780152Y-63889087I70711J-70711D01*
G01*
G37*
G36*
G01*
X144426598Y-63535534D02*
X144568020Y-63676955D01*
G75*
G02*
X144568020Y-63818377I-70711J-70711D01*
G01*
X143542715Y-64843682D01*
G75*
G02*
X143401293Y-64843682I-70711J70711D01*
G01*
X143259872Y-64702261D01*
G75*
G02*
X143259872Y-64560839I70711J70711D01*
G01*
X144285177Y-63535534D01*
G75*
G02*
X144426599Y-63535534I70711J-70711D01*
G01*
G37*
G36*
G01*
X144073044Y-63181980D02*
X144214466Y-63323401D01*
G75*
G02*
X144214466Y-63464823I-70711J-70711D01*
G01*
X143189161Y-64490128D01*
G75*
G02*
X143047739Y-64490128I-70711J70711D01*
G01*
X142906318Y-64348707D01*
G75*
G02*
X142906318Y-64207285I70711J70711D01*
G01*
X143931623Y-63181980D01*
G75*
G02*
X144073045Y-63181980I70711J-70711D01*
G01*
G37*
G36*
G01*
X143719491Y-62828427D02*
X143860913Y-62969848D01*
G75*
G02*
X143860913Y-63111270I-70711J-70711D01*
G01*
X142835608Y-64136575D01*
G75*
G02*
X142694186Y-64136575I-70711J70711D01*
G01*
X142552765Y-63995154D01*
G75*
G02*
X142552765Y-63853732I70711J70711D01*
G01*
X143578070Y-62828427D01*
G75*
G02*
X143719492Y-62828427I70711J-70711D01*
G01*
G37*
G36*
G01*
X143365938Y-62474874D02*
X143507360Y-62616295D01*
G75*
G02*
X143507360Y-62757717I-70711J-70711D01*
G01*
X142482055Y-63783022D01*
G75*
G02*
X142340633Y-63783022I-70711J70711D01*
G01*
X142199212Y-63641601D01*
G75*
G02*
X142199212Y-63500179I70711J70711D01*
G01*
X143224517Y-62474874D01*
G75*
G02*
X143365939Y-62474874I70711J-70711D01*
G01*
G37*
G36*
G01*
X143012384Y-62121320D02*
X143153806Y-62262741D01*
G75*
G02*
X143153806Y-62404163I-70711J-70711D01*
G01*
X142128501Y-63429468D01*
G75*
G02*
X141987079Y-63429468I-70711J70711D01*
G01*
X141845658Y-63288047D01*
G75*
G02*
X141845658Y-63146625I70711J70711D01*
G01*
X142870963Y-62121320D01*
G75*
G02*
X143012385Y-62121320I70711J-70711D01*
G01*
G37*
G36*
G01*
X142658831Y-61767767D02*
X142800253Y-61909188D01*
G75*
G02*
X142800253Y-62050610I-70711J-70711D01*
G01*
X141774948Y-63075915D01*
G75*
G02*
X141633526Y-63075915I-70711J70711D01*
G01*
X141492105Y-62934494D01*
G75*
G02*
X141492105Y-62793072I70711J70711D01*
G01*
X142517410Y-61767767D01*
G75*
G02*
X142658832Y-61767767I70711J-70711D01*
G01*
G37*
G36*
G01*
X142305277Y-61414213D02*
X142446699Y-61555634D01*
G75*
G02*
X142446699Y-61697056I-70711J-70711D01*
G01*
X141421394Y-62722361D01*
G75*
G02*
X141279972Y-62722361I-70711J70711D01*
G01*
X141138551Y-62580940D01*
G75*
G02*
X141138551Y-62439518I70711J70711D01*
G01*
X142163856Y-61414213D01*
G75*
G02*
X142305278Y-61414213I70711J-70711D01*
G01*
G37*
G36*
G01*
X141951724Y-61060660D02*
X142093146Y-61202081D01*
G75*
G02*
X142093146Y-61343503I-70711J-70711D01*
G01*
X141067841Y-62368808D01*
G75*
G02*
X140926419Y-62368808I-70711J70711D01*
G01*
X140784998Y-62227387D01*
G75*
G02*
X140784998Y-62085965I70711J70711D01*
G01*
X141810303Y-61060660D01*
G75*
G02*
X141951725Y-61060660I70711J-70711D01*
G01*
G37*
G36*
G01*
X141598171Y-60707107D02*
X141739593Y-60848528D01*
G75*
G02*
X141739593Y-60989950I-70711J-70711D01*
G01*
X140714288Y-62015255D01*
G75*
G02*
X140572866Y-62015255I-70711J70711D01*
G01*
X140431445Y-61873834D01*
G75*
G02*
X140431445Y-61732412I70711J70711D01*
G01*
X141456750Y-60707107D01*
G75*
G02*
X141598172Y-60707107I70711J-70711D01*
G01*
G37*
G36*
G01*
X140714288Y-57984745D02*
X141739593Y-59010050D01*
G75*
G02*
X141739593Y-59151472I-70711J-70711D01*
G01*
X141598172Y-59292893D01*
G75*
G02*
X141456750Y-59292893I-70711J70711D01*
G01*
X140431445Y-58267588D01*
G75*
G02*
X140431445Y-58126166I70711J70711D01*
G01*
X140572866Y-57984745D01*
G75*
G02*
X140714288Y-57984745I70711J-70711D01*
G01*
G37*
G36*
G01*
X141067841Y-57631192D02*
X142093146Y-58656497D01*
G75*
G02*
X142093146Y-58797919I-70711J-70711D01*
G01*
X141951725Y-58939340D01*
G75*
G02*
X141810303Y-58939340I-70711J70711D01*
G01*
X140784998Y-57914035D01*
G75*
G02*
X140784998Y-57772613I70711J70711D01*
G01*
X140926419Y-57631192D01*
G75*
G02*
X141067841Y-57631192I70711J-70711D01*
G01*
G37*
G36*
G01*
X141421394Y-57277639D02*
X142446699Y-58302944D01*
G75*
G02*
X142446699Y-58444366I-70711J-70711D01*
G01*
X142305278Y-58585787D01*
G75*
G02*
X142163856Y-58585787I-70711J70711D01*
G01*
X141138551Y-57560482D01*
G75*
G02*
X141138551Y-57419060I70711J70711D01*
G01*
X141279972Y-57277639D01*
G75*
G02*
X141421394Y-57277639I70711J-70711D01*
G01*
G37*
G36*
G01*
X141774948Y-56924085D02*
X142800253Y-57949390D01*
G75*
G02*
X142800253Y-58090812I-70711J-70711D01*
G01*
X142658832Y-58232233D01*
G75*
G02*
X142517410Y-58232233I-70711J70711D01*
G01*
X141492105Y-57206928D01*
G75*
G02*
X141492105Y-57065506I70711J70711D01*
G01*
X141633526Y-56924085D01*
G75*
G02*
X141774948Y-56924085I70711J-70711D01*
G01*
G37*
G36*
G01*
X142128501Y-56570532D02*
X143153806Y-57595837D01*
G75*
G02*
X143153806Y-57737259I-70711J-70711D01*
G01*
X143012385Y-57878680D01*
G75*
G02*
X142870963Y-57878680I-70711J70711D01*
G01*
X141845658Y-56853375D01*
G75*
G02*
X141845658Y-56711953I70711J70711D01*
G01*
X141987079Y-56570532D01*
G75*
G02*
X142128501Y-56570532I70711J-70711D01*
G01*
G37*
G36*
G01*
X142482055Y-56216978D02*
X143507360Y-57242283D01*
G75*
G02*
X143507360Y-57383705I-70711J-70711D01*
G01*
X143365939Y-57525126D01*
G75*
G02*
X143224517Y-57525126I-70711J70711D01*
G01*
X142199212Y-56499821D01*
G75*
G02*
X142199212Y-56358399I70711J70711D01*
G01*
X142340633Y-56216978D01*
G75*
G02*
X142482055Y-56216978I70711J-70711D01*
G01*
G37*
G36*
G01*
X142835608Y-55863425D02*
X143860913Y-56888730D01*
G75*
G02*
X143860913Y-57030152I-70711J-70711D01*
G01*
X143719492Y-57171573D01*
G75*
G02*
X143578070Y-57171573I-70711J70711D01*
G01*
X142552765Y-56146268D01*
G75*
G02*
X142552765Y-56004846I70711J70711D01*
G01*
X142694186Y-55863425D01*
G75*
G02*
X142835608Y-55863425I70711J-70711D01*
G01*
G37*
G36*
G01*
X143189161Y-55509872D02*
X144214466Y-56535177D01*
G75*
G02*
X144214466Y-56676599I-70711J-70711D01*
G01*
X144073045Y-56818020D01*
G75*
G02*
X143931623Y-56818020I-70711J70711D01*
G01*
X142906318Y-55792715D01*
G75*
G02*
X142906318Y-55651293I70711J70711D01*
G01*
X143047739Y-55509872D01*
G75*
G02*
X143189161Y-55509872I70711J-70711D01*
G01*
G37*
G36*
G01*
X143542715Y-55156318D02*
X144568020Y-56181623D01*
G75*
G02*
X144568020Y-56323045I-70711J-70711D01*
G01*
X144426599Y-56464466D01*
G75*
G02*
X144285177Y-56464466I-70711J70711D01*
G01*
X143259872Y-55439161D01*
G75*
G02*
X143259872Y-55297739I70711J70711D01*
G01*
X143401293Y-55156318D01*
G75*
G02*
X143542715Y-55156318I70711J-70711D01*
G01*
G37*
G36*
G01*
X143896268Y-54802765D02*
X144921573Y-55828070D01*
G75*
G02*
X144921573Y-55969492I-70711J-70711D01*
G01*
X144780152Y-56110913D01*
G75*
G02*
X144638730Y-56110913I-70711J70711D01*
G01*
X143613425Y-55085608D01*
G75*
G02*
X143613425Y-54944186I70711J70711D01*
G01*
X143754846Y-54802765D01*
G75*
G02*
X143896268Y-54802765I70711J-70711D01*
G01*
G37*
G36*
G01*
X144249821Y-54449212D02*
X145275126Y-55474517D01*
G75*
G02*
X145275126Y-55615939I-70711J-70711D01*
G01*
X145133705Y-55757360D01*
G75*
G02*
X144992283Y-55757360I-70711J70711D01*
G01*
X143966978Y-54732055D01*
G75*
G02*
X143966978Y-54590633I70711J70711D01*
G01*
X144108399Y-54449212D01*
G75*
G02*
X144249821Y-54449212I70711J-70711D01*
G01*
G37*
G36*
G01*
X144603375Y-54095658D02*
X145628680Y-55120963D01*
G75*
G02*
X145628680Y-55262385I-70711J-70711D01*
G01*
X145487259Y-55403806D01*
G75*
G02*
X145345837Y-55403806I-70711J70711D01*
G01*
X144320532Y-54378501D01*
G75*
G02*
X144320532Y-54237079I70711J70711D01*
G01*
X144461953Y-54095658D01*
G75*
G02*
X144603375Y-54095658I70711J-70711D01*
G01*
G37*
G36*
G01*
X144956928Y-53742105D02*
X145982233Y-54767410D01*
G75*
G02*
X145982233Y-54908832I-70711J-70711D01*
G01*
X145840812Y-55050253D01*
G75*
G02*
X145699390Y-55050253I-70711J70711D01*
G01*
X144674085Y-54024948D01*
G75*
G02*
X144674085Y-53883526I70711J70711D01*
G01*
X144815506Y-53742105D01*
G75*
G02*
X144956928Y-53742105I70711J-70711D01*
G01*
G37*
G36*
G01*
X145310482Y-53388551D02*
X146335787Y-54413856D01*
G75*
G02*
X146335787Y-54555278I-70711J-70711D01*
G01*
X146194366Y-54696699D01*
G75*
G02*
X146052944Y-54696699I-70711J70711D01*
G01*
X145027639Y-53671394D01*
G75*
G02*
X145027639Y-53529972I70711J70711D01*
G01*
X145169060Y-53388551D01*
G75*
G02*
X145310482Y-53388551I70711J-70711D01*
G01*
G37*
G36*
G01*
X145664035Y-53034998D02*
X146689340Y-54060303D01*
G75*
G02*
X146689340Y-54201725I-70711J-70711D01*
G01*
X146547919Y-54343146D01*
G75*
G02*
X146406497Y-54343146I-70711J70711D01*
G01*
X145381192Y-53317841D01*
G75*
G02*
X145381192Y-53176419I70711J70711D01*
G01*
X145522613Y-53034998D01*
G75*
G02*
X145664035Y-53034998I70711J-70711D01*
G01*
G37*
G36*
G01*
X146017588Y-52681445D02*
X147042893Y-53706750D01*
G75*
G02*
X147042893Y-53848172I-70711J-70711D01*
G01*
X146901472Y-53989593D01*
G75*
G02*
X146760050Y-53989593I-70711J70711D01*
G01*
X145734745Y-52964288D01*
G75*
G02*
X145734745Y-52822866I70711J70711D01*
G01*
X145876166Y-52681445D01*
G75*
G02*
X146017588Y-52681445I70711J-70711D01*
G01*
G37*
G36*
G01*
X149623833Y-52681445D02*
X149765255Y-52822866D01*
G75*
G02*
X149765255Y-52964288I-70711J-70711D01*
G01*
X148739950Y-53989593D01*
G75*
G02*
X148598528Y-53989593I-70711J70711D01*
G01*
X148457107Y-53848172D01*
G75*
G02*
X148457107Y-53706750I70711J70711D01*
G01*
X149482412Y-52681445D01*
G75*
G02*
X149623834Y-52681445I70711J-70711D01*
G01*
G37*
G36*
G01*
X149977386Y-53034998D02*
X150118808Y-53176419D01*
G75*
G02*
X150118808Y-53317841I-70711J-70711D01*
G01*
X149093503Y-54343146D01*
G75*
G02*
X148952081Y-54343146I-70711J70711D01*
G01*
X148810660Y-54201725D01*
G75*
G02*
X148810660Y-54060303I70711J70711D01*
G01*
X149835965Y-53034998D01*
G75*
G02*
X149977387Y-53034998I70711J-70711D01*
G01*
G37*
G36*
G01*
X150330939Y-53388551D02*
X150472361Y-53529972D01*
G75*
G02*
X150472361Y-53671394I-70711J-70711D01*
G01*
X149447056Y-54696699D01*
G75*
G02*
X149305634Y-54696699I-70711J70711D01*
G01*
X149164213Y-54555278D01*
G75*
G02*
X149164213Y-54413856I70711J70711D01*
G01*
X150189518Y-53388551D01*
G75*
G02*
X150330940Y-53388551I70711J-70711D01*
G01*
G37*
G36*
G01*
X150684493Y-53742105D02*
X150825915Y-53883526D01*
G75*
G02*
X150825915Y-54024948I-70711J-70711D01*
G01*
X149800610Y-55050253D01*
G75*
G02*
X149659188Y-55050253I-70711J70711D01*
G01*
X149517767Y-54908832D01*
G75*
G02*
X149517767Y-54767410I70711J70711D01*
G01*
X150543072Y-53742105D01*
G75*
G02*
X150684494Y-53742105I70711J-70711D01*
G01*
G37*
G36*
G01*
X151038046Y-54095658D02*
X151179468Y-54237079D01*
G75*
G02*
X151179468Y-54378501I-70711J-70711D01*
G01*
X150154163Y-55403806D01*
G75*
G02*
X150012741Y-55403806I-70711J70711D01*
G01*
X149871320Y-55262385D01*
G75*
G02*
X149871320Y-55120963I70711J70711D01*
G01*
X150896625Y-54095658D01*
G75*
G02*
X151038047Y-54095658I70711J-70711D01*
G01*
G37*
G36*
G01*
X151391600Y-54449212D02*
X151533022Y-54590633D01*
G75*
G02*
X151533022Y-54732055I-70711J-70711D01*
G01*
X150507717Y-55757360D01*
G75*
G02*
X150366295Y-55757360I-70711J70711D01*
G01*
X150224874Y-55615939D01*
G75*
G02*
X150224874Y-55474517I70711J70711D01*
G01*
X151250179Y-54449212D01*
G75*
G02*
X151391601Y-54449212I70711J-70711D01*
G01*
G37*
G36*
G01*
X151745153Y-54802765D02*
X151886575Y-54944186D01*
G75*
G02*
X151886575Y-55085608I-70711J-70711D01*
G01*
X150861270Y-56110913D01*
G75*
G02*
X150719848Y-56110913I-70711J70711D01*
G01*
X150578427Y-55969492D01*
G75*
G02*
X150578427Y-55828070I70711J70711D01*
G01*
X151603732Y-54802765D01*
G75*
G02*
X151745154Y-54802765I70711J-70711D01*
G01*
G37*
G36*
G01*
X152098706Y-55156318D02*
X152240128Y-55297739D01*
G75*
G02*
X152240128Y-55439161I-70711J-70711D01*
G01*
X151214823Y-56464466D01*
G75*
G02*
X151073401Y-56464466I-70711J70711D01*
G01*
X150931980Y-56323045D01*
G75*
G02*
X150931980Y-56181623I70711J70711D01*
G01*
X151957285Y-55156318D01*
G75*
G02*
X152098707Y-55156318I70711J-70711D01*
G01*
G37*
G36*
G01*
X152452260Y-55509872D02*
X152593682Y-55651293D01*
G75*
G02*
X152593682Y-55792715I-70711J-70711D01*
G01*
X151568377Y-56818020D01*
G75*
G02*
X151426955Y-56818020I-70711J70711D01*
G01*
X151285534Y-56676599D01*
G75*
G02*
X151285534Y-56535177I70711J70711D01*
G01*
X152310839Y-55509872D01*
G75*
G02*
X152452261Y-55509872I70711J-70711D01*
G01*
G37*
G36*
G01*
X152805813Y-55863425D02*
X152947235Y-56004846D01*
G75*
G02*
X152947235Y-56146268I-70711J-70711D01*
G01*
X151921930Y-57171573D01*
G75*
G02*
X151780508Y-57171573I-70711J70711D01*
G01*
X151639087Y-57030152D01*
G75*
G02*
X151639087Y-56888730I70711J70711D01*
G01*
X152664392Y-55863425D01*
G75*
G02*
X152805814Y-55863425I70711J-70711D01*
G01*
G37*
G36*
G01*
X153159366Y-56216978D02*
X153300788Y-56358399D01*
G75*
G02*
X153300788Y-56499821I-70711J-70711D01*
G01*
X152275483Y-57525126D01*
G75*
G02*
X152134061Y-57525126I-70711J70711D01*
G01*
X151992640Y-57383705D01*
G75*
G02*
X151992640Y-57242283I70711J70711D01*
G01*
X153017945Y-56216978D01*
G75*
G02*
X153159367Y-56216978I70711J-70711D01*
G01*
G37*
G36*
G01*
X153512920Y-56570532D02*
X153654342Y-56711953D01*
G75*
G02*
X153654342Y-56853375I-70711J-70711D01*
G01*
X152629037Y-57878680D01*
G75*
G02*
X152487615Y-57878680I-70711J70711D01*
G01*
X152346194Y-57737259D01*
G75*
G02*
X152346194Y-57595837I70711J70711D01*
G01*
X153371499Y-56570532D01*
G75*
G02*
X153512921Y-56570532I70711J-70711D01*
G01*
G37*
G36*
G01*
X153866473Y-56924085D02*
X154007895Y-57065506D01*
G75*
G02*
X154007895Y-57206928I-70711J-70711D01*
G01*
X152982590Y-58232233D01*
G75*
G02*
X152841168Y-58232233I-70711J70711D01*
G01*
X152699747Y-58090812D01*
G75*
G02*
X152699747Y-57949390I70711J70711D01*
G01*
X153725052Y-56924085D01*
G75*
G02*
X153866474Y-56924085I70711J-70711D01*
G01*
G37*
G36*
G01*
X154220027Y-57277639D02*
X154361449Y-57419060D01*
G75*
G02*
X154361449Y-57560482I-70711J-70711D01*
G01*
X153336144Y-58585787D01*
G75*
G02*
X153194722Y-58585787I-70711J70711D01*
G01*
X153053301Y-58444366D01*
G75*
G02*
X153053301Y-58302944I70711J70711D01*
G01*
X154078606Y-57277639D01*
G75*
G02*
X154220028Y-57277639I70711J-70711D01*
G01*
G37*
G36*
G01*
X154573580Y-57631192D02*
X154715002Y-57772613D01*
G75*
G02*
X154715002Y-57914035I-70711J-70711D01*
G01*
X153689697Y-58939340D01*
G75*
G02*
X153548275Y-58939340I-70711J70711D01*
G01*
X153406854Y-58797919D01*
G75*
G02*
X153406854Y-58656497I70711J70711D01*
G01*
X154432159Y-57631192D01*
G75*
G02*
X154573581Y-57631192I70711J-70711D01*
G01*
G37*
G36*
G01*
X154927133Y-57984745D02*
X155068555Y-58126166D01*
G75*
G02*
X155068555Y-58267588I-70711J-70711D01*
G01*
X154043250Y-59292893D01*
G75*
G02*
X153901828Y-59292893I-70711J70711D01*
G01*
X153760407Y-59151472D01*
G75*
G02*
X153760407Y-59010050I70711J70711D01*
G01*
X154785712Y-57984745D01*
G75*
G02*
X154927134Y-57984745I70711J-70711D01*
G01*
G37*
%TD*%
D22*
%TO.C,SW4*%
X152500000Y-113475000D03*
X157000000Y-113475000D03*
X157000000Y-105525000D03*
X152500000Y-105525000D03*
%TD*%
%TO.C,SW3*%
X145500000Y-113475000D03*
X150000000Y-113475000D03*
X150000000Y-105525000D03*
X145500000Y-105525000D03*
%TD*%
%TO.C,SW2*%
X138500000Y-113475000D03*
X143000000Y-113475000D03*
X143000000Y-105525000D03*
X138500000Y-105525000D03*
%TD*%
%TO.C,R11*%
G36*
G01*
X177550000Y-78281250D02*
X177550000Y-77718750D01*
G75*
G02*
X177793750Y-77475000I243750J0D01*
G01*
X178281250Y-77475000D01*
G75*
G02*
X178525000Y-77718750I0J-243750D01*
G01*
X178525000Y-78281250D01*
G75*
G02*
X178281250Y-78525000I-243750J0D01*
G01*
X177793750Y-78525000D01*
G75*
G02*
X177550000Y-78281250I0J243750D01*
G01*
G37*
G36*
G01*
X175975000Y-78281250D02*
X175975000Y-77718750D01*
G75*
G02*
X176218750Y-77475000I243750J0D01*
G01*
X176706250Y-77475000D01*
G75*
G02*
X176950000Y-77718750I0J-243750D01*
G01*
X176950000Y-78281250D01*
G75*
G02*
X176706250Y-78525000I-243750J0D01*
G01*
X176218750Y-78525000D01*
G75*
G02*
X175975000Y-78281250I0J243750D01*
G01*
G37*
%TD*%
%TO.C,D3*%
G36*
G01*
X176950000Y-79718750D02*
X176950000Y-80281250D01*
G75*
G02*
X176706250Y-80525000I-243750J0D01*
G01*
X176218750Y-80525000D01*
G75*
G02*
X175975000Y-80281250I0J243750D01*
G01*
X175975000Y-79718750D01*
G75*
G02*
X176218750Y-79475000I243750J0D01*
G01*
X176706250Y-79475000D01*
G75*
G02*
X176950000Y-79718750I0J-243750D01*
G01*
G37*
G36*
G01*
X178525000Y-79718750D02*
X178525000Y-80281250D01*
G75*
G02*
X178281250Y-80525000I-243750J0D01*
G01*
X177793750Y-80525000D01*
G75*
G02*
X177550000Y-80281250I0J243750D01*
G01*
X177550000Y-79718750D01*
G75*
G02*
X177793750Y-79475000I243750J0D01*
G01*
X178281250Y-79475000D01*
G75*
G02*
X178525000Y-79718750I0J-243750D01*
G01*
G37*
%TD*%
%TO.C,R10*%
G36*
G01*
X127468750Y-113050000D02*
X128031250Y-113050000D01*
G75*
G02*
X128275000Y-113293750I0J-243750D01*
G01*
X128275000Y-113781250D01*
G75*
G02*
X128031250Y-114025000I-243750J0D01*
G01*
X127468750Y-114025000D01*
G75*
G02*
X127225000Y-113781250I0J243750D01*
G01*
X127225000Y-113293750D01*
G75*
G02*
X127468750Y-113050000I243750J0D01*
G01*
G37*
G36*
G01*
X127468750Y-111475000D02*
X128031250Y-111475000D01*
G75*
G02*
X128275000Y-111718750I0J-243750D01*
G01*
X128275000Y-112206250D01*
G75*
G02*
X128031250Y-112450000I-243750J0D01*
G01*
X127468750Y-112450000D01*
G75*
G02*
X127225000Y-112206250I0J243750D01*
G01*
X127225000Y-111718750D01*
G75*
G02*
X127468750Y-111475000I243750J0D01*
G01*
G37*
%TD*%
%TO.C,R9*%
G36*
G01*
X135218750Y-112050000D02*
X135781250Y-112050000D01*
G75*
G02*
X136025000Y-112293750I0J-243750D01*
G01*
X136025000Y-112781250D01*
G75*
G02*
X135781250Y-113025000I-243750J0D01*
G01*
X135218750Y-113025000D01*
G75*
G02*
X134975000Y-112781250I0J243750D01*
G01*
X134975000Y-112293750D01*
G75*
G02*
X135218750Y-112050000I243750J0D01*
G01*
G37*
G36*
G01*
X135218750Y-110475000D02*
X135781250Y-110475000D01*
G75*
G02*
X136025000Y-110718750I0J-243750D01*
G01*
X136025000Y-111206250D01*
G75*
G02*
X135781250Y-111450000I-243750J0D01*
G01*
X135218750Y-111450000D01*
G75*
G02*
X134975000Y-111206250I0J243750D01*
G01*
X134975000Y-110718750D01*
G75*
G02*
X135218750Y-110475000I243750J0D01*
G01*
G37*
%TD*%
%TO.C,C20*%
G36*
G01*
X126031250Y-112450000D02*
X125468750Y-112450000D01*
G75*
G02*
X125225000Y-112206250I0J243750D01*
G01*
X125225000Y-111718750D01*
G75*
G02*
X125468750Y-111475000I243750J0D01*
G01*
X126031250Y-111475000D01*
G75*
G02*
X126275000Y-111718750I0J-243750D01*
G01*
X126275000Y-112206250D01*
G75*
G02*
X126031250Y-112450000I-243750J0D01*
G01*
G37*
G36*
G01*
X126031250Y-114025000D02*
X125468750Y-114025000D01*
G75*
G02*
X125225000Y-113781250I0J243750D01*
G01*
X125225000Y-113293750D01*
G75*
G02*
X125468750Y-113050000I243750J0D01*
G01*
X126031250Y-113050000D01*
G75*
G02*
X126275000Y-113293750I0J-243750D01*
G01*
X126275000Y-113781250D01*
G75*
G02*
X126031250Y-114025000I-243750J0D01*
G01*
G37*
%TD*%
%TO.C,C19*%
G36*
G01*
X133781250Y-111450000D02*
X133218750Y-111450000D01*
G75*
G02*
X132975000Y-111206250I0J243750D01*
G01*
X132975000Y-110718750D01*
G75*
G02*
X133218750Y-110475000I243750J0D01*
G01*
X133781250Y-110475000D01*
G75*
G02*
X134025000Y-110718750I0J-243750D01*
G01*
X134025000Y-111206250D01*
G75*
G02*
X133781250Y-111450000I-243750J0D01*
G01*
G37*
G36*
G01*
X133781250Y-113025000D02*
X133218750Y-113025000D01*
G75*
G02*
X132975000Y-112781250I0J243750D01*
G01*
X132975000Y-112293750D01*
G75*
G02*
X133218750Y-112050000I243750J0D01*
G01*
X133781250Y-112050000D01*
G75*
G02*
X134025000Y-112293750I0J-243750D01*
G01*
X134025000Y-112781250D01*
G75*
G02*
X133781250Y-113025000I-243750J0D01*
G01*
G37*
%TD*%
%TO.C,R12*%
G36*
G01*
X176700000Y-83718750D02*
X176700000Y-84281250D01*
G75*
G02*
X176456250Y-84525000I-243750J0D01*
G01*
X175968750Y-84525000D01*
G75*
G02*
X175725000Y-84281250I0J243750D01*
G01*
X175725000Y-83718750D01*
G75*
G02*
X175968750Y-83475000I243750J0D01*
G01*
X176456250Y-83475000D01*
G75*
G02*
X176700000Y-83718750I0J-243750D01*
G01*
G37*
G36*
G01*
X178275000Y-83718750D02*
X178275000Y-84281250D01*
G75*
G02*
X178031250Y-84525000I-243750J0D01*
G01*
X177543750Y-84525000D01*
G75*
G02*
X177300000Y-84281250I0J243750D01*
G01*
X177300000Y-83718750D01*
G75*
G02*
X177543750Y-83475000I243750J0D01*
G01*
X178031250Y-83475000D01*
G75*
G02*
X178275000Y-83718750I0J-243750D01*
G01*
G37*
%TD*%
%TO.C,R8*%
G36*
G01*
X135781250Y-107950000D02*
X135218750Y-107950000D01*
G75*
G02*
X134975000Y-107706250I0J243750D01*
G01*
X134975000Y-107218750D01*
G75*
G02*
X135218750Y-106975000I243750J0D01*
G01*
X135781250Y-106975000D01*
G75*
G02*
X136025000Y-107218750I0J-243750D01*
G01*
X136025000Y-107706250D01*
G75*
G02*
X135781250Y-107950000I-243750J0D01*
G01*
G37*
G36*
G01*
X135781250Y-109525000D02*
X135218750Y-109525000D01*
G75*
G02*
X134975000Y-109281250I0J243750D01*
G01*
X134975000Y-108793750D01*
G75*
G02*
X135218750Y-108550000I243750J0D01*
G01*
X135781250Y-108550000D01*
G75*
G02*
X136025000Y-108793750I0J-243750D01*
G01*
X136025000Y-109281250D01*
G75*
G02*
X135781250Y-109525000I-243750J0D01*
G01*
G37*
%TD*%
%TO.C,R7*%
G36*
G01*
X177550000Y-76281250D02*
X177550000Y-75718750D01*
G75*
G02*
X177793750Y-75475000I243750J0D01*
G01*
X178281250Y-75475000D01*
G75*
G02*
X178525000Y-75718750I0J-243750D01*
G01*
X178525000Y-76281250D01*
G75*
G02*
X178281250Y-76525000I-243750J0D01*
G01*
X177793750Y-76525000D01*
G75*
G02*
X177550000Y-76281250I0J243750D01*
G01*
G37*
G36*
G01*
X175975000Y-76281250D02*
X175975000Y-75718750D01*
G75*
G02*
X176218750Y-75475000I243750J0D01*
G01*
X176706250Y-75475000D01*
G75*
G02*
X176950000Y-75718750I0J-243750D01*
G01*
X176950000Y-76281250D01*
G75*
G02*
X176706250Y-76525000I-243750J0D01*
G01*
X176218750Y-76525000D01*
G75*
G02*
X175975000Y-76281250I0J243750D01*
G01*
G37*
%TD*%
%TO.C,R13*%
G36*
G01*
X133300000Y-60031250D02*
X133300000Y-59468750D01*
G75*
G02*
X133543750Y-59225000I243750J0D01*
G01*
X134031250Y-59225000D01*
G75*
G02*
X134275000Y-59468750I0J-243750D01*
G01*
X134275000Y-60031250D01*
G75*
G02*
X134031250Y-60275000I-243750J0D01*
G01*
X133543750Y-60275000D01*
G75*
G02*
X133300000Y-60031250I0J243750D01*
G01*
G37*
G36*
G01*
X131725000Y-60031250D02*
X131725000Y-59468750D01*
G75*
G02*
X131968750Y-59225000I243750J0D01*
G01*
X132456250Y-59225000D01*
G75*
G02*
X132700000Y-59468750I0J-243750D01*
G01*
X132700000Y-60031250D01*
G75*
G02*
X132456250Y-60275000I-243750J0D01*
G01*
X131968750Y-60275000D01*
G75*
G02*
X131725000Y-60031250I0J243750D01*
G01*
G37*
%TD*%
%TO.C,R6*%
G36*
G01*
X128200000Y-55968750D02*
X128200000Y-56531250D01*
G75*
G02*
X127956250Y-56775000I-243750J0D01*
G01*
X127468750Y-56775000D01*
G75*
G02*
X127225000Y-56531250I0J243750D01*
G01*
X127225000Y-55968750D01*
G75*
G02*
X127468750Y-55725000I243750J0D01*
G01*
X127956250Y-55725000D01*
G75*
G02*
X128200000Y-55968750I0J-243750D01*
G01*
G37*
G36*
G01*
X129775000Y-55968750D02*
X129775000Y-56531250D01*
G75*
G02*
X129531250Y-56775000I-243750J0D01*
G01*
X129043750Y-56775000D01*
G75*
G02*
X128800000Y-56531250I0J243750D01*
G01*
X128800000Y-55968750D01*
G75*
G02*
X129043750Y-55725000I243750J0D01*
G01*
X129531250Y-55725000D01*
G75*
G02*
X129775000Y-55968750I0J-243750D01*
G01*
G37*
%TD*%
%TO.C,R5*%
G36*
G01*
X133968750Y-96800000D02*
X134531250Y-96800000D01*
G75*
G02*
X134775000Y-97043750I0J-243750D01*
G01*
X134775000Y-97531250D01*
G75*
G02*
X134531250Y-97775000I-243750J0D01*
G01*
X133968750Y-97775000D01*
G75*
G02*
X133725000Y-97531250I0J243750D01*
G01*
X133725000Y-97043750D01*
G75*
G02*
X133968750Y-96800000I243750J0D01*
G01*
G37*
G36*
G01*
X133968750Y-95225000D02*
X134531250Y-95225000D01*
G75*
G02*
X134775000Y-95468750I0J-243750D01*
G01*
X134775000Y-95956250D01*
G75*
G02*
X134531250Y-96200000I-243750J0D01*
G01*
X133968750Y-96200000D01*
G75*
G02*
X133725000Y-95956250I0J243750D01*
G01*
X133725000Y-95468750D01*
G75*
G02*
X133968750Y-95225000I243750J0D01*
G01*
G37*
%TD*%
%TO.C,R4*%
G36*
G01*
X128800000Y-58531250D02*
X128800000Y-57968750D01*
G75*
G02*
X129043750Y-57725000I243750J0D01*
G01*
X129531250Y-57725000D01*
G75*
G02*
X129775000Y-57968750I0J-243750D01*
G01*
X129775000Y-58531250D01*
G75*
G02*
X129531250Y-58775000I-243750J0D01*
G01*
X129043750Y-58775000D01*
G75*
G02*
X128800000Y-58531250I0J243750D01*
G01*
G37*
G36*
G01*
X127225000Y-58531250D02*
X127225000Y-57968750D01*
G75*
G02*
X127468750Y-57725000I243750J0D01*
G01*
X127956250Y-57725000D01*
G75*
G02*
X128200000Y-57968750I0J-243750D01*
G01*
X128200000Y-58531250D01*
G75*
G02*
X127956250Y-58775000I-243750J0D01*
G01*
X127468750Y-58775000D01*
G75*
G02*
X127225000Y-58531250I0J243750D01*
G01*
G37*
%TD*%
%TO.C,R3*%
G36*
G01*
X151200000Y-102218750D02*
X151200000Y-102781250D01*
G75*
G02*
X150956250Y-103025000I-243750J0D01*
G01*
X150468750Y-103025000D01*
G75*
G02*
X150225000Y-102781250I0J243750D01*
G01*
X150225000Y-102218750D01*
G75*
G02*
X150468750Y-101975000I243750J0D01*
G01*
X150956250Y-101975000D01*
G75*
G02*
X151200000Y-102218750I0J-243750D01*
G01*
G37*
G36*
G01*
X152775000Y-102218750D02*
X152775000Y-102781250D01*
G75*
G02*
X152531250Y-103025000I-243750J0D01*
G01*
X152043750Y-103025000D01*
G75*
G02*
X151800000Y-102781250I0J243750D01*
G01*
X151800000Y-102218750D01*
G75*
G02*
X152043750Y-101975000I243750J0D01*
G01*
X152531250Y-101975000D01*
G75*
G02*
X152775000Y-102218750I0J-243750D01*
G01*
G37*
%TD*%
%TO.C,R2*%
G36*
G01*
X148050000Y-91281250D02*
X148050000Y-90718750D01*
G75*
G02*
X148293750Y-90475000I243750J0D01*
G01*
X148781250Y-90475000D01*
G75*
G02*
X149025000Y-90718750I0J-243750D01*
G01*
X149025000Y-91281250D01*
G75*
G02*
X148781250Y-91525000I-243750J0D01*
G01*
X148293750Y-91525000D01*
G75*
G02*
X148050000Y-91281250I0J243750D01*
G01*
G37*
G36*
G01*
X146475000Y-91281250D02*
X146475000Y-90718750D01*
G75*
G02*
X146718750Y-90475000I243750J0D01*
G01*
X147206250Y-90475000D01*
G75*
G02*
X147450000Y-90718750I0J-243750D01*
G01*
X147450000Y-91281250D01*
G75*
G02*
X147206250Y-91525000I-243750J0D01*
G01*
X146718750Y-91525000D01*
G75*
G02*
X146475000Y-91281250I0J243750D01*
G01*
G37*
%TD*%
%TO.C,R1*%
G36*
G01*
X151800000Y-100781250D02*
X151800000Y-100218750D01*
G75*
G02*
X152043750Y-99975000I243750J0D01*
G01*
X152531250Y-99975000D01*
G75*
G02*
X152775000Y-100218750I0J-243750D01*
G01*
X152775000Y-100781250D01*
G75*
G02*
X152531250Y-101025000I-243750J0D01*
G01*
X152043750Y-101025000D01*
G75*
G02*
X151800000Y-100781250I0J243750D01*
G01*
G37*
G36*
G01*
X150225000Y-100781250D02*
X150225000Y-100218750D01*
G75*
G02*
X150468750Y-99975000I243750J0D01*
G01*
X150956250Y-99975000D01*
G75*
G02*
X151200000Y-100218750I0J-243750D01*
G01*
X151200000Y-100781250D01*
G75*
G02*
X150956250Y-101025000I-243750J0D01*
G01*
X150468750Y-101025000D01*
G75*
G02*
X150225000Y-100781250I0J243750D01*
G01*
G37*
%TD*%
%TO.C,D1*%
G36*
G01*
X136218750Y-96800000D02*
X136781250Y-96800000D01*
G75*
G02*
X137025000Y-97043750I0J-243750D01*
G01*
X137025000Y-97531250D01*
G75*
G02*
X136781250Y-97775000I-243750J0D01*
G01*
X136218750Y-97775000D01*
G75*
G02*
X135975000Y-97531250I0J243750D01*
G01*
X135975000Y-97043750D01*
G75*
G02*
X136218750Y-96800000I243750J0D01*
G01*
G37*
G36*
G01*
X136218750Y-95225000D02*
X136781250Y-95225000D01*
G75*
G02*
X137025000Y-95468750I0J-243750D01*
G01*
X137025000Y-95956250D01*
G75*
G02*
X136781250Y-96200000I-243750J0D01*
G01*
X136218750Y-96200000D01*
G75*
G02*
X135975000Y-95956250I0J243750D01*
G01*
X135975000Y-95468750D01*
G75*
G02*
X136218750Y-95225000I243750J0D01*
G01*
G37*
%TD*%
%TO.C,D2*%
G36*
G01*
X176950000Y-73718750D02*
X176950000Y-74281250D01*
G75*
G02*
X176706250Y-74525000I-243750J0D01*
G01*
X176218750Y-74525000D01*
G75*
G02*
X175975000Y-74281250I0J243750D01*
G01*
X175975000Y-73718750D01*
G75*
G02*
X176218750Y-73475000I243750J0D01*
G01*
X176706250Y-73475000D01*
G75*
G02*
X176950000Y-73718750I0J-243750D01*
G01*
G37*
G36*
G01*
X178525000Y-73718750D02*
X178525000Y-74281250D01*
G75*
G02*
X178281250Y-74525000I-243750J0D01*
G01*
X177793750Y-74525000D01*
G75*
G02*
X177550000Y-74281250I0J243750D01*
G01*
X177550000Y-73718750D01*
G75*
G02*
X177793750Y-73475000I243750J0D01*
G01*
X178281250Y-73475000D01*
G75*
G02*
X178525000Y-73718750I0J-243750D01*
G01*
G37*
%TD*%
%TO.C,C31*%
G36*
G01*
X160050000Y-62781250D02*
X160050000Y-62218750D01*
G75*
G02*
X160293750Y-61975000I243750J0D01*
G01*
X160781250Y-61975000D01*
G75*
G02*
X161025000Y-62218750I0J-243750D01*
G01*
X161025000Y-62781250D01*
G75*
G02*
X160781250Y-63025000I-243750J0D01*
G01*
X160293750Y-63025000D01*
G75*
G02*
X160050000Y-62781250I0J243750D01*
G01*
G37*
G36*
G01*
X158475000Y-62781250D02*
X158475000Y-62218750D01*
G75*
G02*
X158718750Y-61975000I243750J0D01*
G01*
X159206250Y-61975000D01*
G75*
G02*
X159450000Y-62218750I0J-243750D01*
G01*
X159450000Y-62781250D01*
G75*
G02*
X159206250Y-63025000I-243750J0D01*
G01*
X158718750Y-63025000D01*
G75*
G02*
X158475000Y-62781250I0J243750D01*
G01*
G37*
%TD*%
%TO.C,C30*%
G36*
G01*
X148050000Y-69281250D02*
X148050000Y-68718750D01*
G75*
G02*
X148293750Y-68475000I243750J0D01*
G01*
X148781250Y-68475000D01*
G75*
G02*
X149025000Y-68718750I0J-243750D01*
G01*
X149025000Y-69281250D01*
G75*
G02*
X148781250Y-69525000I-243750J0D01*
G01*
X148293750Y-69525000D01*
G75*
G02*
X148050000Y-69281250I0J243750D01*
G01*
G37*
G36*
G01*
X146475000Y-69281250D02*
X146475000Y-68718750D01*
G75*
G02*
X146718750Y-68475000I243750J0D01*
G01*
X147206250Y-68475000D01*
G75*
G02*
X147450000Y-68718750I0J-243750D01*
G01*
X147450000Y-69281250D01*
G75*
G02*
X147206250Y-69525000I-243750J0D01*
G01*
X146718750Y-69525000D01*
G75*
G02*
X146475000Y-69281250I0J243750D01*
G01*
G37*
%TD*%
%TO.C,C29*%
G36*
G01*
X137200000Y-59468750D02*
X137200000Y-60031250D01*
G75*
G02*
X136956250Y-60275000I-243750J0D01*
G01*
X136468750Y-60275000D01*
G75*
G02*
X136225000Y-60031250I0J243750D01*
G01*
X136225000Y-59468750D01*
G75*
G02*
X136468750Y-59225000I243750J0D01*
G01*
X136956250Y-59225000D01*
G75*
G02*
X137200000Y-59468750I0J-243750D01*
G01*
G37*
G36*
G01*
X138775000Y-59468750D02*
X138775000Y-60031250D01*
G75*
G02*
X138531250Y-60275000I-243750J0D01*
G01*
X138043750Y-60275000D01*
G75*
G02*
X137800000Y-60031250I0J243750D01*
G01*
X137800000Y-59468750D01*
G75*
G02*
X138043750Y-59225000I243750J0D01*
G01*
X138531250Y-59225000D01*
G75*
G02*
X138775000Y-59468750I0J-243750D01*
G01*
G37*
%TD*%
%TO.C,C28*%
G36*
G01*
X141950000Y-51218750D02*
X141950000Y-51781250D01*
G75*
G02*
X141706250Y-52025000I-243750J0D01*
G01*
X141218750Y-52025000D01*
G75*
G02*
X140975000Y-51781250I0J243750D01*
G01*
X140975000Y-51218750D01*
G75*
G02*
X141218750Y-50975000I243750J0D01*
G01*
X141706250Y-50975000D01*
G75*
G02*
X141950000Y-51218750I0J-243750D01*
G01*
G37*
G36*
G01*
X143525000Y-51218750D02*
X143525000Y-51781250D01*
G75*
G02*
X143281250Y-52025000I-243750J0D01*
G01*
X142793750Y-52025000D01*
G75*
G02*
X142550000Y-51781250I0J243750D01*
G01*
X142550000Y-51218750D01*
G75*
G02*
X142793750Y-50975000I243750J0D01*
G01*
X143281250Y-50975000D01*
G75*
G02*
X143525000Y-51218750I0J-243750D01*
G01*
G37*
%TD*%
%TO.C,C25*%
G36*
G01*
X165218750Y-52800000D02*
X165781250Y-52800000D01*
G75*
G02*
X166025000Y-53043750I0J-243750D01*
G01*
X166025000Y-53531250D01*
G75*
G02*
X165781250Y-53775000I-243750J0D01*
G01*
X165218750Y-53775000D01*
G75*
G02*
X164975000Y-53531250I0J243750D01*
G01*
X164975000Y-53043750D01*
G75*
G02*
X165218750Y-52800000I243750J0D01*
G01*
G37*
G36*
G01*
X165218750Y-51225000D02*
X165781250Y-51225000D01*
G75*
G02*
X166025000Y-51468750I0J-243750D01*
G01*
X166025000Y-51956250D01*
G75*
G02*
X165781250Y-52200000I-243750J0D01*
G01*
X165218750Y-52200000D01*
G75*
G02*
X164975000Y-51956250I0J243750D01*
G01*
X164975000Y-51468750D01*
G75*
G02*
X165218750Y-51225000I243750J0D01*
G01*
G37*
%TD*%
%TO.C,C24*%
G36*
G01*
X165781250Y-55700000D02*
X165218750Y-55700000D01*
G75*
G02*
X164975000Y-55456250I0J243750D01*
G01*
X164975000Y-54968750D01*
G75*
G02*
X165218750Y-54725000I243750J0D01*
G01*
X165781250Y-54725000D01*
G75*
G02*
X166025000Y-54968750I0J-243750D01*
G01*
X166025000Y-55456250D01*
G75*
G02*
X165781250Y-55700000I-243750J0D01*
G01*
G37*
G36*
G01*
X165781250Y-57275000D02*
X165218750Y-57275000D01*
G75*
G02*
X164975000Y-57031250I0J243750D01*
G01*
X164975000Y-56543750D01*
G75*
G02*
X165218750Y-56300000I243750J0D01*
G01*
X165781250Y-56300000D01*
G75*
G02*
X166025000Y-56543750I0J-243750D01*
G01*
X166025000Y-57031250D01*
G75*
G02*
X165781250Y-57275000I-243750J0D01*
G01*
G37*
%TD*%
%TO.C,C27*%
G36*
G01*
X158300000Y-52281250D02*
X158300000Y-51718750D01*
G75*
G02*
X158543750Y-51475000I243750J0D01*
G01*
X159031250Y-51475000D01*
G75*
G02*
X159275000Y-51718750I0J-243750D01*
G01*
X159275000Y-52281250D01*
G75*
G02*
X159031250Y-52525000I-243750J0D01*
G01*
X158543750Y-52525000D01*
G75*
G02*
X158300000Y-52281250I0J243750D01*
G01*
G37*
G36*
G01*
X156725000Y-52281250D02*
X156725000Y-51718750D01*
G75*
G02*
X156968750Y-51475000I243750J0D01*
G01*
X157456250Y-51475000D01*
G75*
G02*
X157700000Y-51718750I0J-243750D01*
G01*
X157700000Y-52281250D01*
G75*
G02*
X157456250Y-52525000I-243750J0D01*
G01*
X156968750Y-52525000D01*
G75*
G02*
X156725000Y-52281250I0J243750D01*
G01*
G37*
%TD*%
%TO.C,C26*%
G36*
G01*
X158300000Y-54281250D02*
X158300000Y-53718750D01*
G75*
G02*
X158543750Y-53475000I243750J0D01*
G01*
X159031250Y-53475000D01*
G75*
G02*
X159275000Y-53718750I0J-243750D01*
G01*
X159275000Y-54281250D01*
G75*
G02*
X159031250Y-54525000I-243750J0D01*
G01*
X158543750Y-54525000D01*
G75*
G02*
X158300000Y-54281250I0J243750D01*
G01*
G37*
G36*
G01*
X156725000Y-54281250D02*
X156725000Y-53718750D01*
G75*
G02*
X156968750Y-53475000I243750J0D01*
G01*
X157456250Y-53475000D01*
G75*
G02*
X157700000Y-53718750I0J-243750D01*
G01*
X157700000Y-54281250D01*
G75*
G02*
X157456250Y-54525000I-243750J0D01*
G01*
X156968750Y-54525000D01*
G75*
G02*
X156725000Y-54281250I0J243750D01*
G01*
G37*
%TD*%
%TO.C,C23*%
G36*
G01*
X146300000Y-71968750D02*
X146300000Y-72531250D01*
G75*
G02*
X146056250Y-72775000I-243750J0D01*
G01*
X145568750Y-72775000D01*
G75*
G02*
X145325000Y-72531250I0J243750D01*
G01*
X145325000Y-71968750D01*
G75*
G02*
X145568750Y-71725000I243750J0D01*
G01*
X146056250Y-71725000D01*
G75*
G02*
X146300000Y-71968750I0J-243750D01*
G01*
G37*
G36*
G01*
X147875000Y-71968750D02*
X147875000Y-72531250D01*
G75*
G02*
X147631250Y-72775000I-243750J0D01*
G01*
X147143750Y-72775000D01*
G75*
G02*
X146900000Y-72531250I0J243750D01*
G01*
X146900000Y-71968750D01*
G75*
G02*
X147143750Y-71725000I243750J0D01*
G01*
X147631250Y-71725000D01*
G75*
G02*
X147875000Y-71968750I0J-243750D01*
G01*
G37*
%TD*%
%TO.C,C22*%
G36*
G01*
X137200000Y-57468750D02*
X137200000Y-58031250D01*
G75*
G02*
X136956250Y-58275000I-243750J0D01*
G01*
X136468750Y-58275000D01*
G75*
G02*
X136225000Y-58031250I0J243750D01*
G01*
X136225000Y-57468750D01*
G75*
G02*
X136468750Y-57225000I243750J0D01*
G01*
X136956250Y-57225000D01*
G75*
G02*
X137200000Y-57468750I0J-243750D01*
G01*
G37*
G36*
G01*
X138775000Y-57468750D02*
X138775000Y-58031250D01*
G75*
G02*
X138531250Y-58275000I-243750J0D01*
G01*
X138043750Y-58275000D01*
G75*
G02*
X137800000Y-58031250I0J243750D01*
G01*
X137800000Y-57468750D01*
G75*
G02*
X138043750Y-57225000I243750J0D01*
G01*
X138531250Y-57225000D01*
G75*
G02*
X138775000Y-57468750I0J-243750D01*
G01*
G37*
%TD*%
%TO.C,C17*%
G36*
G01*
X125200000Y-90968750D02*
X125200000Y-91531250D01*
G75*
G02*
X124956250Y-91775000I-243750J0D01*
G01*
X124468750Y-91775000D01*
G75*
G02*
X124225000Y-91531250I0J243750D01*
G01*
X124225000Y-90968750D01*
G75*
G02*
X124468750Y-90725000I243750J0D01*
G01*
X124956250Y-90725000D01*
G75*
G02*
X125200000Y-90968750I0J-243750D01*
G01*
G37*
G36*
G01*
X126775000Y-90968750D02*
X126775000Y-91531250D01*
G75*
G02*
X126531250Y-91775000I-243750J0D01*
G01*
X126043750Y-91775000D01*
G75*
G02*
X125800000Y-91531250I0J243750D01*
G01*
X125800000Y-90968750D01*
G75*
G02*
X126043750Y-90725000I243750J0D01*
G01*
X126531250Y-90725000D01*
G75*
G02*
X126775000Y-90968750I0J-243750D01*
G01*
G37*
%TD*%
%TO.C,C14*%
G36*
G01*
X130218750Y-107550000D02*
X130781250Y-107550000D01*
G75*
G02*
X131025000Y-107793750I0J-243750D01*
G01*
X131025000Y-108281250D01*
G75*
G02*
X130781250Y-108525000I-243750J0D01*
G01*
X130218750Y-108525000D01*
G75*
G02*
X129975000Y-108281250I0J243750D01*
G01*
X129975000Y-107793750D01*
G75*
G02*
X130218750Y-107550000I243750J0D01*
G01*
G37*
G36*
G01*
X130218750Y-105975000D02*
X130781250Y-105975000D01*
G75*
G02*
X131025000Y-106218750I0J-243750D01*
G01*
X131025000Y-106706250D01*
G75*
G02*
X130781250Y-106950000I-243750J0D01*
G01*
X130218750Y-106950000D01*
G75*
G02*
X129975000Y-106706250I0J243750D01*
G01*
X129975000Y-106218750D01*
G75*
G02*
X130218750Y-105975000I243750J0D01*
G01*
G37*
%TD*%
%TO.C,C11*%
G36*
G01*
X160337500Y-88781250D02*
X160337500Y-88218750D01*
G75*
G02*
X160581250Y-87975000I243750J0D01*
G01*
X161068750Y-87975000D01*
G75*
G02*
X161312500Y-88218750I0J-243750D01*
G01*
X161312500Y-88781250D01*
G75*
G02*
X161068750Y-89025000I-243750J0D01*
G01*
X160581250Y-89025000D01*
G75*
G02*
X160337500Y-88781250I0J243750D01*
G01*
G37*
G36*
G01*
X158762500Y-88781250D02*
X158762500Y-88218750D01*
G75*
G02*
X159006250Y-87975000I243750J0D01*
G01*
X159493750Y-87975000D01*
G75*
G02*
X159737500Y-88218750I0J-243750D01*
G01*
X159737500Y-88781250D01*
G75*
G02*
X159493750Y-89025000I-243750J0D01*
G01*
X159006250Y-89025000D01*
G75*
G02*
X158762500Y-88781250I0J243750D01*
G01*
G37*
%TD*%
%TO.C,C10*%
G36*
G01*
X164050000Y-88781250D02*
X164050000Y-88218750D01*
G75*
G02*
X164293750Y-87975000I243750J0D01*
G01*
X164781250Y-87975000D01*
G75*
G02*
X165025000Y-88218750I0J-243750D01*
G01*
X165025000Y-88781250D01*
G75*
G02*
X164781250Y-89025000I-243750J0D01*
G01*
X164293750Y-89025000D01*
G75*
G02*
X164050000Y-88781250I0J243750D01*
G01*
G37*
G36*
G01*
X162475000Y-88781250D02*
X162475000Y-88218750D01*
G75*
G02*
X162718750Y-87975000I243750J0D01*
G01*
X163206250Y-87975000D01*
G75*
G02*
X163450000Y-88218750I0J-243750D01*
G01*
X163450000Y-88781250D01*
G75*
G02*
X163206250Y-89025000I-243750J0D01*
G01*
X162718750Y-89025000D01*
G75*
G02*
X162475000Y-88781250I0J243750D01*
G01*
G37*
%TD*%
%TO.C,C8*%
G36*
G01*
X137300000Y-88781250D02*
X137300000Y-88218750D01*
G75*
G02*
X137543750Y-87975000I243750J0D01*
G01*
X138031250Y-87975000D01*
G75*
G02*
X138275000Y-88218750I0J-243750D01*
G01*
X138275000Y-88781250D01*
G75*
G02*
X138031250Y-89025000I-243750J0D01*
G01*
X137543750Y-89025000D01*
G75*
G02*
X137300000Y-88781250I0J243750D01*
G01*
G37*
G36*
G01*
X135725000Y-88781250D02*
X135725000Y-88218750D01*
G75*
G02*
X135968750Y-87975000I243750J0D01*
G01*
X136456250Y-87975000D01*
G75*
G02*
X136700000Y-88218750I0J-243750D01*
G01*
X136700000Y-88781250D01*
G75*
G02*
X136456250Y-89025000I-243750J0D01*
G01*
X135968750Y-89025000D01*
G75*
G02*
X135725000Y-88781250I0J243750D01*
G01*
G37*
%TD*%
%TO.C,C7*%
G36*
G01*
X133050000Y-91531250D02*
X133050000Y-90968750D01*
G75*
G02*
X133293750Y-90725000I243750J0D01*
G01*
X133781250Y-90725000D01*
G75*
G02*
X134025000Y-90968750I0J-243750D01*
G01*
X134025000Y-91531250D01*
G75*
G02*
X133781250Y-91775000I-243750J0D01*
G01*
X133293750Y-91775000D01*
G75*
G02*
X133050000Y-91531250I0J243750D01*
G01*
G37*
G36*
G01*
X131475000Y-91531250D02*
X131475000Y-90968750D01*
G75*
G02*
X131718750Y-90725000I243750J0D01*
G01*
X132206250Y-90725000D01*
G75*
G02*
X132450000Y-90968750I0J-243750D01*
G01*
X132450000Y-91531250D01*
G75*
G02*
X132206250Y-91775000I-243750J0D01*
G01*
X131718750Y-91775000D01*
G75*
G02*
X131475000Y-91531250I0J243750D01*
G01*
G37*
%TD*%
%TO.C,C5*%
G36*
G01*
X158531250Y-67700000D02*
X157968750Y-67700000D01*
G75*
G02*
X157725000Y-67456250I0J243750D01*
G01*
X157725000Y-66968750D01*
G75*
G02*
X157968750Y-66725000I243750J0D01*
G01*
X158531250Y-66725000D01*
G75*
G02*
X158775000Y-66968750I0J-243750D01*
G01*
X158775000Y-67456250D01*
G75*
G02*
X158531250Y-67700000I-243750J0D01*
G01*
G37*
G36*
G01*
X158531250Y-69275000D02*
X157968750Y-69275000D01*
G75*
G02*
X157725000Y-69031250I0J243750D01*
G01*
X157725000Y-68543750D01*
G75*
G02*
X157968750Y-68300000I243750J0D01*
G01*
X158531250Y-68300000D01*
G75*
G02*
X158775000Y-68543750I0J-243750D01*
G01*
X158775000Y-69031250D01*
G75*
G02*
X158531250Y-69275000I-243750J0D01*
G01*
G37*
%TD*%
%TO.C,C4*%
G36*
G01*
X160781250Y-67700000D02*
X160218750Y-67700000D01*
G75*
G02*
X159975000Y-67456250I0J243750D01*
G01*
X159975000Y-66968750D01*
G75*
G02*
X160218750Y-66725000I243750J0D01*
G01*
X160781250Y-66725000D01*
G75*
G02*
X161025000Y-66968750I0J-243750D01*
G01*
X161025000Y-67456250D01*
G75*
G02*
X160781250Y-67700000I-243750J0D01*
G01*
G37*
G36*
G01*
X160781250Y-69275000D02*
X160218750Y-69275000D01*
G75*
G02*
X159975000Y-69031250I0J243750D01*
G01*
X159975000Y-68543750D01*
G75*
G02*
X160218750Y-68300000I243750J0D01*
G01*
X160781250Y-68300000D01*
G75*
G02*
X161025000Y-68543750I0J-243750D01*
G01*
X161025000Y-69031250D01*
G75*
G02*
X160781250Y-69275000I-243750J0D01*
G01*
G37*
%TD*%
%TO.C,C2*%
G36*
G01*
X136531250Y-67700000D02*
X135968750Y-67700000D01*
G75*
G02*
X135725000Y-67456250I0J243750D01*
G01*
X135725000Y-66968750D01*
G75*
G02*
X135968750Y-66725000I243750J0D01*
G01*
X136531250Y-66725000D01*
G75*
G02*
X136775000Y-66968750I0J-243750D01*
G01*
X136775000Y-67456250D01*
G75*
G02*
X136531250Y-67700000I-243750J0D01*
G01*
G37*
G36*
G01*
X136531250Y-69275000D02*
X135968750Y-69275000D01*
G75*
G02*
X135725000Y-69031250I0J243750D01*
G01*
X135725000Y-68543750D01*
G75*
G02*
X135968750Y-68300000I243750J0D01*
G01*
X136531250Y-68300000D01*
G75*
G02*
X136775000Y-68543750I0J-243750D01*
G01*
X136775000Y-69031250D01*
G75*
G02*
X136531250Y-69275000I-243750J0D01*
G01*
G37*
%TD*%
%TO.C,C1*%
G36*
G01*
X138531250Y-67700000D02*
X137968750Y-67700000D01*
G75*
G02*
X137725000Y-67456250I0J243750D01*
G01*
X137725000Y-66968750D01*
G75*
G02*
X137968750Y-66725000I243750J0D01*
G01*
X138531250Y-66725000D01*
G75*
G02*
X138775000Y-66968750I0J-243750D01*
G01*
X138775000Y-67456250D01*
G75*
G02*
X138531250Y-67700000I-243750J0D01*
G01*
G37*
G36*
G01*
X138531250Y-69275000D02*
X137968750Y-69275000D01*
G75*
G02*
X137725000Y-69031250I0J243750D01*
G01*
X137725000Y-68543750D01*
G75*
G02*
X137968750Y-68300000I243750J0D01*
G01*
X138531250Y-68300000D01*
G75*
G02*
X138775000Y-68543750I0J-243750D01*
G01*
X138775000Y-69031250D01*
G75*
G02*
X138531250Y-69275000I-243750J0D01*
G01*
G37*
%TD*%
%TO.C,C18*%
G36*
G01*
X133218750Y-108550000D02*
X133781250Y-108550000D01*
G75*
G02*
X134025000Y-108793750I0J-243750D01*
G01*
X134025000Y-109281250D01*
G75*
G02*
X133781250Y-109525000I-243750J0D01*
G01*
X133218750Y-109525000D01*
G75*
G02*
X132975000Y-109281250I0J243750D01*
G01*
X132975000Y-108793750D01*
G75*
G02*
X133218750Y-108550000I243750J0D01*
G01*
G37*
G36*
G01*
X133218750Y-106975000D02*
X133781250Y-106975000D01*
G75*
G02*
X134025000Y-107218750I0J-243750D01*
G01*
X134025000Y-107706250D01*
G75*
G02*
X133781250Y-107950000I-243750J0D01*
G01*
X133218750Y-107950000D01*
G75*
G02*
X132975000Y-107706250I0J243750D01*
G01*
X132975000Y-107218750D01*
G75*
G02*
X133218750Y-106975000I243750J0D01*
G01*
G37*
%TD*%
D12*
%TO.C,J10*%
X175400000Y-89450000D03*
X175400000Y-91990000D03*
X175400000Y-94530000D03*
X175400000Y-97070000D03*
X175400000Y-99610000D03*
D13*
X175400000Y-102150000D03*
%TD*%
D23*
%TO.C,Y1*%
X162250000Y-52400000D03*
X162250000Y-56100000D03*
%TD*%
%TO.C,L1*%
G36*
G01*
X158400000Y-50231250D02*
X158400000Y-49268750D01*
G75*
G02*
X158668750Y-49000000I268750J0D01*
G01*
X159206250Y-49000000D01*
G75*
G02*
X159475000Y-49268750I0J-268750D01*
G01*
X159475000Y-50231250D01*
G75*
G02*
X159206250Y-50500000I-268750J0D01*
G01*
X158668750Y-50500000D01*
G75*
G02*
X158400000Y-50231250I0J268750D01*
G01*
G37*
G36*
G01*
X156525000Y-50231250D02*
X156525000Y-49268750D01*
G75*
G02*
X156793750Y-49000000I268750J0D01*
G01*
X157331250Y-49000000D01*
G75*
G02*
X157600000Y-49268750I0J-268750D01*
G01*
X157600000Y-50231250D01*
G75*
G02*
X157331250Y-50500000I-268750J0D01*
G01*
X156793750Y-50500000D01*
G75*
G02*
X156525000Y-50231250I0J268750D01*
G01*
G37*
%TD*%
D24*
G36*
X174123000Y-51873000D02*
G01*
X167627000Y-51873000D01*
X167627000Y-49127000D01*
X174123000Y-49127000D01*
X174123000Y-51873000D01*
G37*
X174123000Y-51873000D02*
X167627000Y-51873000D01*
X167627000Y-49127000D01*
X174123000Y-49127000D01*
X174123000Y-51873000D01*
M02*
