M48
; DRILL file {KiCad (5.1.6)-1} date 08/14/21 20:00:09
; FORMAT={3:3/ absolute / metric / suppress leading zeros}
; #@! TF.CreationDate,2021-08-14T20:00:09+02:00
; #@! TF.GenerationSoftware,Kicad,Pcbnew,(5.1.6)-1
FMAT,2
METRIC,TZ
T1C0.300
T2C0.400
T3C0.762
T4C1.000
%
G90
G05
T1
X163750Y-70600
X164750Y-70600
X165750Y-70600
X140950Y-70600
X141950Y-70600
X142950Y-70600
X129750Y-86650
X130750Y-86650
X131750Y-86650
X152500Y-86700
X153500Y-86700
X154500Y-86700
T2
X115000Y-56000
X115000Y-58000
X115000Y-60000
X115000Y-62000
X117000Y-56000
X117000Y-58000
X117000Y-60000
X117000Y-81000
X117000Y-83000
X118500Y-73000
X118500Y-75000
X118500Y-77000
X119000Y-56000
X119000Y-58000
X119000Y-83000
X119250Y-60000
X120710Y-58040
X120710Y-59040
X121000Y-56000
X121210Y-65290
X121710Y-58040
X121710Y-59040
X122500Y-75000
X122500Y-77000
X123000Y-56000
X124000Y-112250
X124000Y-115000
X124750Y-105500
X124750Y-106500
X125000Y-56750
X125500Y-54750
X125750Y-105500
X125750Y-106500
X126750Y-105500
X126750Y-106500
X127000Y-54750
X127000Y-115000
X127500Y-55750
X128000Y-52000
X128250Y-100750
X128500Y-82750
X128500Y-84000
X129000Y-70250
X129750Y-77750
X130000Y-50000
X130000Y-52000
X130000Y-65750
X130000Y-66750
X130000Y-67750
X130000Y-68750
X130250Y-111500
X130250Y-112750
X130250Y-114000
X130500Y-57750
X131000Y-59500
X131000Y-66250
X131500Y-77750
X131750Y-83200
X132000Y-50000
X132000Y-52000
X132000Y-57000
X132000Y-96500
X132000Y-99500
X132250Y-93000
X132250Y-94000
X133250Y-65000
X133250Y-77750
X133250Y-93000
X133250Y-94000
X133250Y-107750
X133500Y-54750
X133500Y-56250
X133500Y-67750
X133500Y-68750
X133500Y-86500
X133500Y-87500
X133500Y-88500
X133500Y-89500
X133750Y-60500
X134000Y-50000
X134000Y-52000
X134250Y-93000
X134250Y-94000
X134500Y-65500
X134500Y-86500
X134500Y-87500
X134500Y-88500
X134500Y-89500
X135000Y-77750
X135000Y-96500
X135250Y-57000
X135250Y-107750
X136000Y-50000
X136000Y-52000
X136750Y-113750
X137000Y-66000
X138250Y-70250
X138250Y-71250
X138250Y-72250
X138250Y-73250
X138500Y-66500
X138500Y-67750
X138500Y-107000
X139000Y-52000
X139250Y-70250
X139250Y-71250
X139250Y-72250
X139250Y-73250
X139750Y-113500
X140000Y-68000
X140000Y-86500
X140500Y-56500
X140500Y-79000
X140750Y-50000
X141000Y-65500
X141000Y-67250
X141000Y-73750
X141000Y-105500
X141500Y-83500
X141500Y-85000
X141500Y-86500
X142000Y-60000
X142000Y-64750
X142000Y-66400
X142000Y-79000
X142000Y-99500
X142000Y-101000
X142250Y-51250
X142500Y-108500
X142500Y-111500
X143000Y-83500
X143000Y-85000
X143000Y-86500
X143250Y-61000
X143500Y-66750
X143500Y-68250
X143500Y-99500
X143500Y-101000
X144500Y-51250
X144500Y-61500
X144500Y-81250
X144500Y-83500
X144500Y-85000
X144750Y-57500
X145000Y-68250
X145000Y-99500
X145000Y-101000
X145500Y-109000
X146000Y-57500
X146000Y-83500
X146500Y-99500
X146500Y-101000
X146750Y-55250
X146750Y-113500
X147000Y-59250
X147000Y-108500
X147000Y-111500
X147750Y-52750
X147750Y-54250
X147750Y-57250
X148000Y-62000
X148000Y-63250
X148250Y-59250
X148500Y-64500
X148500Y-75500
X148500Y-105500
X148750Y-56000
X149000Y-61250
X149500Y-86500
X149750Y-75500
X150000Y-69000
X150000Y-74000
X150000Y-108500
X150000Y-111500
X150250Y-57000
X150250Y-61250
X151000Y-52750
X151000Y-69000
X151000Y-70000
X151000Y-75500
X151000Y-82000
X151000Y-83500
X151000Y-85000
X151000Y-86500
X151250Y-67500
X151500Y-61250
X151500Y-111500
X152000Y-69000
X152000Y-70000
X152250Y-66750
X152500Y-109000
X153000Y-70000
X153500Y-77500
X153500Y-79000
X153750Y-66250
X153750Y-113500
X154450Y-83200
X154500Y-107000
X154500Y-108500
X154500Y-111500
X154750Y-54000
X155000Y-77500
X155000Y-79000
X155250Y-57000
X155750Y-66250
X156000Y-70250
X156250Y-85750
X156250Y-86750
X156250Y-87750
X156250Y-88750
X156500Y-77500
X156500Y-79000
X156750Y-63500
X156900Y-93400
X156900Y-94500
X156900Y-95600
X156900Y-96700
X157000Y-56750
X157250Y-85750
X157250Y-86750
X157250Y-87750
X157250Y-88750
X157500Y-65000
X157500Y-66750
X157500Y-108500
X157500Y-111500
X158000Y-93400
X158000Y-94500
X158000Y-95600
X158000Y-96700
X158500Y-56750
X158500Y-65750
X159000Y-105500
X159100Y-93400
X159100Y-94500
X159100Y-95600
X159100Y-96700
X160000Y-71250
X160000Y-72250
X160500Y-105500
X160500Y-108500
X160500Y-111500
X160500Y-114500
X161000Y-67250
X161000Y-71250
X161000Y-72250
X161000Y-73250
X162000Y-71250
X162000Y-72250
X162000Y-73250
X162250Y-62500
X162500Y-77500
X162500Y-79000
X162500Y-89500
X163000Y-67250
X163500Y-114500
X163750Y-61750
X163950Y-73750
X164000Y-65000
X164000Y-66500
X164000Y-77500
X164000Y-79000
X164000Y-92250
X164750Y-83750
X165000Y-67250
X165250Y-90500
X165250Y-91750
X165250Y-93250
X165500Y-60750
X165500Y-77500
X165500Y-79000
X165750Y-62000
X166000Y-65000
X166000Y-66500
X166250Y-83750
X166500Y-108500
X166500Y-114500
X166750Y-61250
X167000Y-77500
X167000Y-92000
X167000Y-95000
X167000Y-98000
X167000Y-101000
X167250Y-70500
X167250Y-72000
X167250Y-73500
X167750Y-86250
X168000Y-53000
X168000Y-55000
X168500Y-85500
X168500Y-87000
X169250Y-84750
X169250Y-86250
X169500Y-108500
X169500Y-114500
X170000Y-53000
X170000Y-55000
X170000Y-57000
X170000Y-85500
X170000Y-92000
X170000Y-95000
X170000Y-98000
X170000Y-101000
X171000Y-59750
X172000Y-53000
X172000Y-55000
X172000Y-57000
X172000Y-63000
X172000Y-65000
X172000Y-78000
X173000Y-89000
X173000Y-92000
X173000Y-95000
X173000Y-98000
X173500Y-76500
X173500Y-78000
X174000Y-53000
X174000Y-57000
X174000Y-59000
X174000Y-63000
X174000Y-65000
X176000Y-57000
X176000Y-59000
X176000Y-63000
X176000Y-65000
X178000Y-57000
X178000Y-63000
X178000Y-65000
X178500Y-59750
T3
X164210Y-110300
X166750Y-110300
X169290Y-110300
X166460Y-105750
X169000Y-105750
X171540Y-105750
X143940Y-78440
X146480Y-78440
X149020Y-78440
X151560Y-78440
T4
X145750Y-43250
X145750Y-45790
X145750Y-48330
X172650Y-81550
X172650Y-84090
X172650Y-86630
X153500Y-43250
X153500Y-45790
X153500Y-48330
X146500Y-81250
X149040Y-81250
X171670Y-68460
X171670Y-71000
X174210Y-68460
X174210Y-71000
X176750Y-68460
X176750Y-71000
X175400Y-89450
X175400Y-91990
X175400Y-94530
X175400Y-97070
X175400Y-99610
X175400Y-102150
X152800Y-75750
X155340Y-75750
X157880Y-75750
X160420Y-75750
X162960Y-75750
X165500Y-75750
X152800Y-81250
X155340Y-81250
X157880Y-81250
X160420Y-81250
X162960Y-81250
X165500Y-81250
X117210Y-85090
X117210Y-87630
X117210Y-90170
X117210Y-92710
X117210Y-95250
X119750Y-85090
X119750Y-87630
X119750Y-90170
X119750Y-92710
X119750Y-95250
X142000Y-43250
X142000Y-45790
X142000Y-48330
X149750Y-43250
X149750Y-45790
X149750Y-48330
X130000Y-75750
X132540Y-75750
X135080Y-75750
X137620Y-75750
X140160Y-75750
X142700Y-75750
X118670Y-68460
X118670Y-71000
X121210Y-68460
X121210Y-71000
X123750Y-68460
X123750Y-71000
X117250Y-102750
X119790Y-102750
X130000Y-81250
X132540Y-81250
X135080Y-81250
X137620Y-81250
X140160Y-81250
X142700Y-81250
T0
M30
