%TF.GenerationSoftware,KiCad,Pcbnew,(5.1.6)-1*%
%TF.CreationDate,2021-08-15T13:32:02+02:00*%
%TF.ProjectId,sneak100_main_board,736e6561-6b31-4303-905f-6d61696e5f62,rev?*%
%TF.SameCoordinates,Original*%
%TF.FileFunction,Copper,L2,Bot*%
%TF.FilePolarity,Positive*%
%FSLAX46Y46*%
G04 Gerber Fmt 4.6, Leading zero omitted, Abs format (unit mm)*
G04 Created by KiCad (PCBNEW (5.1.6)-1) date 2021-08-15 13:32:02*
%MOMM*%
%LPD*%
G01*
G04 APERTURE LIST*
%TA.AperFunction,Conductor*%
%ADD10R,2.650000X1.000000*%
%TD*%
%TA.AperFunction,ViaPad*%
%ADD11C,0.600000*%
%TD*%
%TA.AperFunction,ComponentPad*%
%ADD12C,1.700000*%
%TD*%
%TA.AperFunction,ComponentPad*%
%ADD13O,1.700000X1.700000*%
%TD*%
%TA.AperFunction,ComponentPad*%
%ADD14R,1.700000X1.700000*%
%TD*%
%TA.AperFunction,ComponentPad*%
%ADD15C,1.524000*%
%TD*%
%TA.AperFunction,ComponentPad*%
%ADD16R,1.524000X1.524000*%
%TD*%
%TA.AperFunction,ViaPad*%
%ADD17C,0.800000*%
%TD*%
%TA.AperFunction,Conductor*%
%ADD18C,2.000000*%
%TD*%
%TA.AperFunction,Conductor*%
%ADD19C,0.500000*%
%TD*%
%TA.AperFunction,Conductor*%
%ADD20C,1.000000*%
%TD*%
%TA.AperFunction,Conductor*%
%ADD21C,0.250000*%
%TD*%
%TA.AperFunction,Conductor*%
%ADD22C,0.700000*%
%TD*%
%TA.AperFunction,Conductor*%
%ADD23C,0.254000*%
%TD*%
G04 APERTURE END LIST*
D10*
%TO.N,GND*%
%TO.C,U4*%
X153500000Y-86700000D03*
D11*
X153500000Y-86700000D03*
X152500000Y-86700000D03*
X154500000Y-86700000D03*
%TD*%
D10*
%TO.N,GND*%
%TO.C,U3*%
X130750000Y-86650000D03*
D11*
X130750000Y-86650000D03*
X129750000Y-86650000D03*
X131750000Y-86650000D03*
%TD*%
D10*
%TO.N,GND*%
%TO.C,U2*%
X164750000Y-70600000D03*
D11*
X164750000Y-70600000D03*
X165750000Y-70600000D03*
X163750000Y-70600000D03*
%TD*%
D10*
%TO.N,GND*%
%TO.C,U1*%
X141950000Y-70600000D03*
D11*
X141950000Y-70600000D03*
X142950000Y-70600000D03*
X140950000Y-70600000D03*
%TD*%
D12*
%TO.P,J13,10*%
%TO.N,ST-LINK_5V*%
X117210000Y-85090000D03*
%TO.P,J13,8*%
%TO.N,N/C*%
X117210000Y-87630000D03*
%TO.P,J13,6*%
%TO.N,GND*%
X117210000Y-90170000D03*
%TO.P,J13,4*%
%TO.N,/controller/SWDIO*%
X117210000Y-92710000D03*
%TO.P,J13,2*%
%TO.N,/controller/SWCLK*%
X117210000Y-95250000D03*
%TO.P,J13,9*%
%TO.N,ST-LINK_5V*%
X119750000Y-85090000D03*
%TO.P,J13,7*%
%TO.N,N/C*%
X119750000Y-87630000D03*
%TO.P,J13,5*%
%TO.N,GND*%
X119750000Y-90170000D03*
%TO.P,J13,3*%
%TO.N,N/C*%
X119750000Y-92710000D03*
%TO.P,J13,1*%
%TO.N,/controller/RST*%
%TA.AperFunction,ComponentPad*%
G36*
G01*
X120600000Y-94650000D02*
X120600000Y-95850000D01*
G75*
G02*
X120350000Y-96100000I-250000J0D01*
G01*
X119150000Y-96100000D01*
G75*
G02*
X118900000Y-95850000I0J250000D01*
G01*
X118900000Y-94650000D01*
G75*
G02*
X119150000Y-94400000I250000J0D01*
G01*
X120350000Y-94400000D01*
G75*
G02*
X120600000Y-94650000I0J-250000D01*
G01*
G37*
%TD.AperFunction*%
%TD*%
D13*
%TO.P,J12,6*%
%TO.N,/controller/PROXIMITY_RR*%
X171670000Y-68460000D03*
%TO.P,J12,5*%
%TO.N,/controller/PROXIMITY_FR*%
X171670000Y-71000000D03*
%TO.P,J12,4*%
%TO.N,+3V3*%
X174210000Y-68460000D03*
%TO.P,J12,3*%
X174210000Y-71000000D03*
%TO.P,J12,2*%
%TO.N,GND*%
X176750000Y-68460000D03*
D14*
%TO.P,J12,1*%
X176750000Y-71000000D03*
%TD*%
D13*
%TO.P,J11,6*%
%TO.N,/controller/PROXIMITY_FL*%
X118670000Y-68460000D03*
%TO.P,J11,5*%
%TO.N,/controller/PROXIMITY_LL*%
X118670000Y-71000000D03*
%TO.P,J11,4*%
%TO.N,+3V3*%
X121210000Y-68460000D03*
%TO.P,J11,3*%
X121210000Y-71000000D03*
%TO.P,J11,2*%
%TO.N,GND*%
X123750000Y-68460000D03*
D14*
%TO.P,J11,1*%
X123750000Y-71000000D03*
%TD*%
D13*
%TO.P,J9,3*%
%TO.N,/controller/LINE_RR*%
X153500000Y-48330000D03*
%TO.P,J9,2*%
%TO.N,+3V3*%
X153500000Y-45790000D03*
D14*
%TO.P,J9,1*%
%TO.N,GND*%
X153500000Y-43250000D03*
%TD*%
D13*
%TO.P,J8,3*%
%TO.N,/controller/LINE_RM*%
X149750000Y-48330000D03*
%TO.P,J8,2*%
%TO.N,+3V3*%
X149750000Y-45790000D03*
D14*
%TO.P,J8,1*%
%TO.N,GND*%
X149750000Y-43250000D03*
%TD*%
D13*
%TO.P,J7,3*%
%TO.N,/controller/LINE_LM*%
X145750000Y-48330000D03*
%TO.P,J7,2*%
%TO.N,+3V3*%
X145750000Y-45790000D03*
D14*
%TO.P,J7,1*%
%TO.N,GND*%
X145750000Y-43250000D03*
%TD*%
D13*
%TO.P,J6,3*%
%TO.N,/controller/LINE_LL*%
X142000000Y-48330000D03*
%TO.P,J6,2*%
%TO.N,+3V3*%
X142000000Y-45790000D03*
D14*
%TO.P,J6,1*%
%TO.N,GND*%
X142000000Y-43250000D03*
%TD*%
D13*
%TO.P,JP1,2*%
%TO.N,+5V*%
X119790000Y-102750000D03*
D14*
%TO.P,JP1,1*%
%TO.N,ST-LINK_5V*%
X117250000Y-102750000D03*
%TD*%
D13*
%TO.P,J5,2*%
%TO.N,Net-(J5-Pad2)*%
X149040000Y-81250000D03*
D14*
%TO.P,J5,1*%
%TO.N,GND*%
X146500000Y-81250000D03*
%TD*%
D13*
%TO.P,J4,6*%
%TO.N,/motors/RB_OUT2*%
X152800000Y-81250000D03*
%TO.P,J4,5*%
%TO.N,/motors/RB_OUT1*%
X155340000Y-81250000D03*
%TO.P,J4,4*%
%TO.N,+3V3*%
X157880000Y-81250000D03*
%TO.P,J4,3*%
%TO.N,/controller/RB_A*%
X160420000Y-81250000D03*
%TO.P,J4,2*%
%TO.N,/controller/RB_B*%
X162960000Y-81250000D03*
D14*
%TO.P,J4,1*%
%TO.N,GND*%
X165500000Y-81250000D03*
%TD*%
D13*
%TO.P,J3,6*%
%TO.N,/motors/LB_OUT2*%
X130000000Y-81250000D03*
%TO.P,J3,5*%
%TO.N,/motors/LB_OUT1*%
X132540000Y-81250000D03*
%TO.P,J3,4*%
%TO.N,+3V3*%
X135080000Y-81250000D03*
%TO.P,J3,3*%
%TO.N,/controller/LB_A*%
X137620000Y-81250000D03*
%TO.P,J3,2*%
%TO.N,/controller/LB_B*%
X140160000Y-81250000D03*
D14*
%TO.P,J3,1*%
%TO.N,GND*%
X142700000Y-81250000D03*
%TD*%
D13*
%TO.P,J2,6*%
%TO.N,/motors/RF_OUT2*%
X165500000Y-75750000D03*
%TO.P,J2,5*%
%TO.N,/motors/RF_OUT1*%
X162960000Y-75750000D03*
%TO.P,J2,4*%
%TO.N,+3V3*%
X160420000Y-75750000D03*
%TO.P,J2,3*%
%TO.N,/controller/RF_A*%
X157880000Y-75750000D03*
%TO.P,J2,2*%
%TO.N,/controller/RF_B*%
X155340000Y-75750000D03*
D14*
%TO.P,J2,1*%
%TO.N,GND*%
X152800000Y-75750000D03*
%TD*%
D13*
%TO.P,J1,6*%
%TO.N,/motors/LF_OUT2*%
X142700000Y-75750000D03*
%TO.P,J1,5*%
%TO.N,/motors/LF_OUT1*%
X140160000Y-75750000D03*
%TO.P,J1,4*%
%TO.N,+3V3*%
X137620000Y-75750000D03*
%TO.P,J1,3*%
%TO.N,/controller/LF_A*%
X135080000Y-75750000D03*
%TO.P,J1,2*%
%TO.N,/controller/LF_B*%
X132540000Y-75750000D03*
D14*
%TO.P,J1,1*%
%TO.N,GND*%
X130000000Y-75750000D03*
%TD*%
D15*
%TO.P,SW1,3*%
%TO.N,GND*%
X169290000Y-110300000D03*
%TO.P,SW1,2*%
%TO.N,Net-(R3-Pad2)*%
X166750000Y-110300000D03*
%TO.P,SW1,1*%
X164210000Y-110300000D03*
%TD*%
%TO.P,U7,4*%
%TO.N,/controller/I2C3_SDA*%
X151560000Y-78440000D03*
%TO.P,U7,3*%
%TO.N,/controller/I2C3_SCL*%
X149020000Y-78440000D03*
%TO.P,U7,2*%
%TO.N,GND*%
X146480000Y-78440000D03*
%TO.P,U7,1*%
%TO.N,+3V3*%
X143940000Y-78440000D03*
%TD*%
%TO.P,U6,3*%
%TO.N,+5V*%
X171540000Y-105750000D03*
D16*
%TO.P,U6,2*%
%TO.N,GND*%
X169000000Y-105750000D03*
D15*
%TO.P,U6,1*%
%TO.N,SUPPLY*%
X166460000Y-105750000D03*
%TD*%
D13*
%TO.P,U8,3*%
%TO.N,Net-(C21-Pad1)*%
X172650000Y-86630000D03*
%TO.P,U8,2*%
%TO.N,GND*%
X172650000Y-84090000D03*
D14*
%TO.P,U8,1*%
%TO.N,/controller/RECEIVER_OUT*%
X172650000Y-81550000D03*
%TD*%
D13*
%TO.P,J10,6*%
%TO.N,/controller/BLUETOOTH_STATUS*%
X175400000Y-89450000D03*
%TO.P,J10,5*%
%TO.N,/interface/BLUETOOTH_RX*%
X175400000Y-91990000D03*
%TO.P,J10,4*%
%TO.N,/interface/BLUETOOTH_TX*%
X175400000Y-94530000D03*
%TO.P,J10,3*%
%TO.N,GND*%
X175400000Y-97070000D03*
%TO.P,J10,2*%
%TO.N,+5V*%
X175400000Y-99610000D03*
D14*
%TO.P,J10,1*%
%TO.N,/controller/BLUETOOTH_EN*%
X175400000Y-102150000D03*
%TD*%
D17*
%TO.N,GND*%
X150250000Y-57000000D03*
X133250000Y-107750000D03*
X124000000Y-112250000D03*
X142500000Y-111500000D03*
X142500000Y-108500000D03*
X141000000Y-105500000D03*
X147000000Y-111500000D03*
X150000000Y-111500000D03*
X151500000Y-111500000D03*
X150000000Y-108500000D03*
X147000000Y-108500000D03*
X148500000Y-105500000D03*
X154500000Y-111500000D03*
X157500000Y-111500000D03*
X160500000Y-111500000D03*
X154500000Y-108500000D03*
X157500000Y-108500000D03*
X160500000Y-108500000D03*
X154500000Y-107000000D03*
X160500000Y-105500000D03*
X159000000Y-105500000D03*
X160500000Y-114500000D03*
X163500000Y-114500000D03*
X166500000Y-114500000D03*
X169500000Y-114500000D03*
X166500000Y-108500000D03*
X169500000Y-108500000D03*
X124000000Y-115000000D03*
X127000000Y-115000000D03*
X167000000Y-101000000D03*
X170000000Y-101000000D03*
X167000000Y-98000000D03*
X170000000Y-98000000D03*
X167000000Y-95000000D03*
X170000000Y-95000000D03*
X173000000Y-95000000D03*
X173000000Y-98000000D03*
X170000000Y-92000000D03*
X173000000Y-92000000D03*
X167000000Y-92000000D03*
X173000000Y-89000000D03*
X167000000Y-77500000D03*
X165500000Y-77500000D03*
X165500000Y-79000000D03*
X164000000Y-77500000D03*
X164000000Y-79000000D03*
X162500000Y-77500000D03*
X162500000Y-79000000D03*
X156500000Y-77500000D03*
X156500000Y-79000000D03*
X155000000Y-77500000D03*
X155000000Y-79000000D03*
X153500000Y-77500000D03*
X153500000Y-79000000D03*
X140500000Y-79000000D03*
X142000000Y-79000000D03*
X132000000Y-96500000D03*
X135000000Y-96500000D03*
X132000000Y-99500000D03*
X142000000Y-99500000D03*
X142000000Y-101000000D03*
X143500000Y-101000000D03*
X143500000Y-99500000D03*
X145000000Y-99500000D03*
X145000000Y-101000000D03*
X146500000Y-101000000D03*
X146500000Y-99500000D03*
X167250000Y-73500000D03*
X167250000Y-72000000D03*
X167250000Y-70500000D03*
X150000000Y-69000000D03*
X156000000Y-70250000D03*
X161000000Y-67250000D03*
X157500000Y-66750000D03*
X144500000Y-81250000D03*
X146000000Y-83500000D03*
X144500000Y-83500000D03*
X143000000Y-83500000D03*
X141500000Y-83500000D03*
X141500000Y-85000000D03*
X143000000Y-85000000D03*
X144500000Y-85000000D03*
X143000000Y-86500000D03*
X141500000Y-86500000D03*
X140000000Y-86500000D03*
X149500000Y-86500000D03*
X151000000Y-86500000D03*
X151000000Y-85000000D03*
X151000000Y-83500000D03*
X151000000Y-82000000D03*
X128500000Y-84000000D03*
X128500000Y-82750000D03*
X148500000Y-75500000D03*
X149750000Y-75500000D03*
X151000000Y-75500000D03*
X172000000Y-63000000D03*
X174000000Y-63000000D03*
X176000000Y-63000000D03*
X176000000Y-65000000D03*
X174000000Y-65000000D03*
X172000000Y-65000000D03*
X178000000Y-63000000D03*
X178000000Y-65000000D03*
X136000000Y-50000000D03*
X134000000Y-50000000D03*
X132000000Y-50000000D03*
X132000000Y-52000000D03*
X134000000Y-52000000D03*
X136000000Y-52000000D03*
X130000000Y-52000000D03*
X128000000Y-52000000D03*
X130000000Y-50000000D03*
X123000000Y-56000000D03*
X121000000Y-56000000D03*
X119000000Y-56000000D03*
X117000000Y-56000000D03*
X115000000Y-56000000D03*
X115000000Y-58000000D03*
X117000000Y-58000000D03*
X119000000Y-58000000D03*
X117000000Y-60000000D03*
X115000000Y-60000000D03*
X115000000Y-62000000D03*
X130000000Y-67750000D03*
X130000000Y-66750000D03*
X130000000Y-65750000D03*
X144500000Y-51250000D03*
X140500000Y-56500000D03*
X157000000Y-56750000D03*
X158500000Y-56750000D03*
X178000000Y-57000000D03*
X176000000Y-57000000D03*
X174000000Y-57000000D03*
X172000000Y-57000000D03*
X170000000Y-57000000D03*
X170000000Y-55000000D03*
X172000000Y-55000000D03*
X172000000Y-53000000D03*
X170000000Y-53000000D03*
X174000000Y-53000000D03*
X176000000Y-59000000D03*
X174000000Y-59000000D03*
X168000000Y-55000000D03*
X168000000Y-53000000D03*
X138500000Y-67750000D03*
X117000000Y-83000000D03*
X119000000Y-83000000D03*
X117000000Y-81000000D03*
X118500000Y-77000000D03*
X122500000Y-77000000D03*
X122500000Y-75000000D03*
X118500000Y-75000000D03*
X118500000Y-73000000D03*
X140750000Y-50000000D03*
X142250000Y-51250000D03*
X138500000Y-66500000D03*
X172000000Y-78000000D03*
X173500000Y-76500000D03*
X162250000Y-62500000D03*
X166000000Y-65000000D03*
X164000000Y-65000000D03*
X156750000Y-63500000D03*
X135250000Y-57000000D03*
X130500000Y-57750000D03*
X132000000Y-57000000D03*
X129750000Y-77750000D03*
X131500000Y-77750000D03*
X133250000Y-77750000D03*
X135000000Y-77750000D03*
X153000000Y-70000000D03*
X151000000Y-70000000D03*
X151000000Y-69000000D03*
X152000000Y-70000000D03*
X152000000Y-69000000D03*
X173500000Y-78000000D03*
X133500000Y-67750000D03*
X133500000Y-68750000D03*
X130000000Y-68750000D03*
X131000000Y-66250000D03*
%TO.N,+3V3*%
X169250000Y-86250000D03*
X170000000Y-85500000D03*
X168500000Y-87000000D03*
X121710000Y-58040000D03*
X121710000Y-59040000D03*
X120710000Y-58040000D03*
X120710000Y-59040000D03*
X139000000Y-52000000D03*
X121210000Y-65290000D03*
X137000000Y-66000000D03*
X135250000Y-107750000D03*
X136750000Y-113750000D03*
X134250000Y-93000000D03*
X134250000Y-94000000D03*
X133250000Y-94000000D03*
X133250000Y-93000000D03*
X132250000Y-93000000D03*
X132250000Y-94000000D03*
X162500000Y-89500000D03*
X128250000Y-100750000D03*
X169250000Y-84750000D03*
X168500000Y-85500000D03*
X167750000Y-86250000D03*
X131000000Y-59500000D03*
X150000000Y-74000000D03*
%TO.N,/motors/LF_OUT2*%
X141000000Y-73750000D03*
%TO.N,/motors/RF_OUT2*%
X163950000Y-73750000D03*
%TO.N,/motors/LB_OUT2*%
X131750000Y-83200000D03*
%TO.N,/motors/RB_OUT2*%
X154450000Y-83200000D03*
%TO.N,+3.3VADC*%
X151000000Y-52750000D03*
X154750000Y-54000000D03*
%TO.N,/controller/SWCLK*%
X143250000Y-61000000D03*
%TO.N,/controller/SWDIO*%
X144500000Y-61500000D03*
%TO.N,/controller/LF_A*%
X141000000Y-65500000D03*
X134500000Y-65500000D03*
%TO.N,/controller/LF_B*%
X142000000Y-64750000D03*
X133250000Y-65000000D03*
%TO.N,/controller/RF_B*%
X155750000Y-66250000D03*
X153750000Y-66250000D03*
%TO.N,/controller/RB_A*%
X148750000Y-56000000D03*
%TO.N,/controller/RB_B*%
X147750000Y-57250000D03*
%TO.N,/controller/I2C3_SDA*%
X143500000Y-66750000D03*
X145000000Y-68250000D03*
%TO.N,/controller/LF_IN1*%
X140000000Y-68000000D03*
X142000000Y-66400000D03*
%TO.N,/controller/LF_IN2*%
X141000000Y-67250000D03*
X143500000Y-68250000D03*
%TO.N,/controller/RF_IN1*%
X165000000Y-67250000D03*
X163000000Y-67250000D03*
X158500000Y-65750000D03*
%TO.N,/controller/RF_IN2*%
X166000000Y-66500000D03*
X164000000Y-66500000D03*
X157500000Y-65000000D03*
%TO.N,/controller/LB_IN1*%
X127000000Y-54750000D03*
X125000000Y-56750000D03*
X133500000Y-54750000D03*
%TO.N,/controller/LB_IN2*%
X127500000Y-55750000D03*
X125500000Y-54750000D03*
X133500000Y-56250000D03*
%TO.N,/controller/RB_IN1*%
X148250000Y-59250000D03*
X164750000Y-83750000D03*
X164000000Y-92250000D03*
X165250000Y-90500000D03*
%TO.N,/controller/RB_IN2*%
X147000000Y-59250000D03*
X166250000Y-83750000D03*
X165250000Y-93250000D03*
X165250000Y-91750000D03*
%TO.N,/interface/BLUETOOTH_RX*%
X147750000Y-54250000D03*
%TO.N,/interface/BLUETOOTH_TX*%
X147750000Y-52750000D03*
%TO.N,/controller/RECEIVER_OUT*%
X178500000Y-59750000D03*
X171000000Y-59750000D03*
X155250000Y-57000000D03*
%TO.N,SUPPLY*%
X159100000Y-93400000D03*
X158000000Y-93400000D03*
X159100000Y-94500000D03*
X158000000Y-94500000D03*
X159100000Y-95600000D03*
X158000000Y-95600000D03*
X159100000Y-96700000D03*
X158000000Y-96700000D03*
X156900000Y-93400000D03*
X156900000Y-94500000D03*
X156900000Y-95600000D03*
X156900000Y-96700000D03*
X162000000Y-73250000D03*
X161000000Y-73250000D03*
X161000000Y-72250000D03*
X162000000Y-72250000D03*
X162000000Y-71250000D03*
X161000000Y-71250000D03*
X160000000Y-72250000D03*
X160000000Y-71250000D03*
X139250000Y-73250000D03*
X138250000Y-73250000D03*
X139250000Y-72250000D03*
X138250000Y-72250000D03*
X139250000Y-71250000D03*
X138250000Y-71250000D03*
X139250000Y-70250000D03*
X138250000Y-70250000D03*
X134500000Y-86500000D03*
X133500000Y-86500000D03*
X133500000Y-87500000D03*
X134500000Y-87500000D03*
X134500000Y-88500000D03*
X133500000Y-88500000D03*
X133500000Y-89500000D03*
X134500000Y-89500000D03*
X157250000Y-85750000D03*
X156250000Y-85750000D03*
X157250000Y-86750000D03*
X156250000Y-86750000D03*
X157250000Y-87750000D03*
X156250000Y-87750000D03*
X157250000Y-88750000D03*
X156250000Y-88750000D03*
X129000000Y-70250000D03*
%TO.N,+5V*%
X126750000Y-105500000D03*
X125750000Y-105500000D03*
X126750000Y-106500000D03*
X125750000Y-106500000D03*
X124750000Y-105500000D03*
X124750000Y-106500000D03*
%TO.N,/controller/RST*%
X142000000Y-60000000D03*
X133750000Y-60500000D03*
%TO.N,/interface/BUTTON_L*%
X148500000Y-64500000D03*
X130250000Y-111500000D03*
X138500000Y-107000000D03*
X139750000Y-113500000D03*
%TO.N,/interface/BUTTON_C*%
X148000000Y-63250000D03*
X130250000Y-112750000D03*
X145500000Y-109000000D03*
X146750000Y-113500000D03*
%TO.N,/interface/BUTTON_R*%
X148000000Y-62000000D03*
X130250000Y-114000000D03*
X152500000Y-109000000D03*
X153750000Y-113500000D03*
%TO.N,/interface/LED_RUN*%
X165500000Y-60750000D03*
X151250000Y-67500000D03*
%TO.N,/interface/LED_ERROR*%
X152250000Y-66750000D03*
X166750000Y-61250000D03*
%TO.N,/controller/BLUETOOTH_STATUS*%
X146000000Y-57500000D03*
%TO.N,/controller/BLUETOOTH_EN*%
X146750000Y-55250000D03*
%TO.N,/controller/PROXIMITY_LL*%
X149000000Y-61250000D03*
%TO.N,/controller/PROXIMITY_FL*%
X119250000Y-60000000D03*
X144750000Y-57500000D03*
%TO.N,/controller/PROXIMITY_FR*%
X151500000Y-61250000D03*
X163750000Y-61750000D03*
%TO.N,/controller/PROXIMITY_RR*%
X150250000Y-61250000D03*
X165750000Y-62000000D03*
%TD*%
D18*
%TO.N,GND*%
X123750000Y-68460000D02*
X123750000Y-71000000D01*
X176750000Y-68460000D02*
X176750000Y-71000000D01*
D19*
X142000000Y-43250000D02*
X142500000Y-43250000D01*
D18*
%TO.N,+3V3*%
X174210000Y-68460000D02*
X174210000Y-71000000D01*
X121210000Y-68460000D02*
X121210000Y-71000000D01*
D20*
X120710000Y-59040000D02*
X121710000Y-59040000D01*
X121710000Y-59040000D02*
X121710000Y-58040000D01*
X121710000Y-58040000D02*
X120710000Y-58040000D01*
X120710000Y-58040000D02*
X120710000Y-59040000D01*
X132750000Y-58500000D02*
X134750000Y-58500000D01*
X134750000Y-58500000D02*
X135750000Y-59500000D01*
X121710000Y-59040000D02*
X122170000Y-59500000D01*
X148460000Y-45790000D02*
X149750000Y-45790000D01*
X131750000Y-59500000D02*
X132750000Y-58500000D01*
X135750000Y-59500000D02*
X139500000Y-59500000D01*
X139500000Y-59500000D02*
X145750000Y-53250000D01*
X147750000Y-50000000D02*
X147750000Y-46500000D01*
X145750000Y-53250000D02*
X145750000Y-52000000D01*
X145750000Y-52000000D02*
X147750000Y-50000000D01*
X147750000Y-46500000D02*
X148460000Y-45790000D01*
D19*
X140250000Y-53250000D02*
X139000000Y-52000000D01*
X145750000Y-53250000D02*
X140250000Y-53250000D01*
D21*
X135750000Y-66000000D02*
X137000000Y-66000000D01*
X122000000Y-64500000D02*
X131500000Y-64500000D01*
X133500000Y-66500000D02*
X135250000Y-66500000D01*
X131500000Y-64500000D02*
X133500000Y-66500000D01*
X121210000Y-65290000D02*
X122000000Y-64500000D01*
X135250000Y-66500000D02*
X135750000Y-66000000D01*
X136750000Y-113750000D02*
X138000000Y-112500000D01*
X138000000Y-110500000D02*
X135250000Y-107750000D01*
X138000000Y-112500000D02*
X138000000Y-110500000D01*
X162500000Y-89500000D02*
X161250000Y-89500000D01*
X128250000Y-100750000D02*
X128750000Y-101250000D01*
X128750000Y-101250000D02*
X128750000Y-103250000D01*
X128750000Y-103250000D02*
X127750000Y-104250000D01*
X127750000Y-104250000D02*
X123750000Y-104250000D01*
X123750000Y-104250000D02*
X122950010Y-105049990D01*
X122950010Y-105049990D02*
X122950010Y-106450010D01*
X122950010Y-106450010D02*
X127000000Y-110500000D01*
X127000000Y-110500000D02*
X130750000Y-110500000D01*
X130750000Y-110500000D02*
X131250000Y-111000000D01*
X131250000Y-111000000D02*
X131250000Y-112750000D01*
X132250000Y-113750000D02*
X136750000Y-113750000D01*
X131250000Y-112750000D02*
X132250000Y-113750000D01*
D18*
X164500000Y-86750000D02*
X168000000Y-86750000D01*
X161250000Y-90000000D02*
X164500000Y-86750000D01*
X132250000Y-93500000D02*
X149750000Y-93500000D01*
X161250000Y-97750000D02*
X161250000Y-90000000D01*
X149750000Y-93500000D02*
X155000000Y-98750000D01*
X155000000Y-98750000D02*
X160250000Y-98750000D01*
X160250000Y-98750000D02*
X161250000Y-97750000D01*
X168000000Y-86750000D02*
X169500000Y-85250000D01*
D20*
X122170000Y-59500000D02*
X130500000Y-59500000D01*
X130500000Y-59500000D02*
X131750000Y-59500000D01*
D19*
X137620000Y-75750000D02*
X139620000Y-77750000D01*
X143250000Y-77750000D02*
X143940000Y-78440000D01*
X139620000Y-77750000D02*
X143250000Y-77750000D01*
X135080000Y-81250000D02*
X135080000Y-79670000D01*
X137000000Y-77750000D02*
X139620000Y-77750000D01*
X135080000Y-79670000D02*
X137000000Y-77750000D01*
D20*
X157880000Y-81250000D02*
X157880000Y-82630000D01*
X161250000Y-86000000D02*
X161250000Y-90000000D01*
X157880000Y-82630000D02*
X161250000Y-86000000D01*
X160420000Y-75750000D02*
X160420000Y-75170000D01*
X160420000Y-75170000D02*
X159250000Y-74000000D01*
X159250000Y-74000000D02*
X150000000Y-74000000D01*
X146000000Y-74000000D02*
X144750000Y-75250000D01*
X144750000Y-77630000D02*
X143940000Y-78440000D01*
X144750000Y-75250000D02*
X144750000Y-77630000D01*
X150000000Y-74000000D02*
X146000000Y-74000000D01*
D22*
%TO.N,/motors/LF_OUT2*%
X142700000Y-75450000D02*
X141000000Y-73750000D01*
X142700000Y-75750000D02*
X142700000Y-75450000D01*
%TO.N,/motors/RF_OUT2*%
X165500000Y-75300000D02*
X163950000Y-73750000D01*
X165500000Y-75750000D02*
X165500000Y-75300000D01*
%TO.N,/motors/LB_OUT2*%
X130000000Y-81250000D02*
X130000000Y-81500000D01*
X130000000Y-81450000D02*
X131750000Y-83200000D01*
X130000000Y-81250000D02*
X130000000Y-81450000D01*
%TO.N,/motors/RB_OUT2*%
X152800000Y-81250000D02*
X152800000Y-81550000D01*
X152800000Y-81550000D02*
X154450000Y-83200000D01*
D21*
%TO.N,+3.3VADC*%
X152250000Y-54000000D02*
X151000000Y-52750000D01*
X154750000Y-54000000D02*
X152250000Y-54000000D01*
%TO.N,/controller/SWCLK*%
X114750000Y-65500000D02*
X118750000Y-61500000D01*
X117210000Y-95250000D02*
X114750000Y-92790000D01*
X114750000Y-92790000D02*
X114750000Y-65500000D01*
X118750000Y-61500000D02*
X120500000Y-61500000D01*
X120500000Y-61500000D02*
X126500000Y-61500000D01*
X126500000Y-61500000D02*
X132250000Y-61500000D01*
X132250000Y-61500000D02*
X142750000Y-61500000D01*
X142750000Y-61500000D02*
X143250000Y-61000000D01*
X143250000Y-61000000D02*
X143250000Y-61000000D01*
%TO.N,/controller/SWDIO*%
X119000000Y-62000000D02*
X144000000Y-62000000D01*
X144000000Y-62000000D02*
X144500000Y-61500000D01*
X115250000Y-65750000D02*
X119000000Y-62000000D01*
X117210000Y-92710000D02*
X115250000Y-90750000D01*
X115250000Y-90750000D02*
X115250000Y-65750000D01*
%TO.N,/controller/LF_A*%
X140500000Y-65000000D02*
X141000000Y-65500000D01*
X134500000Y-65500000D02*
X135000000Y-65000000D01*
X135000000Y-65000000D02*
X140500000Y-65000000D01*
%TO.N,/controller/LF_B*%
X133250000Y-65000000D02*
X133750000Y-64500000D01*
X141750000Y-64500000D02*
X142000000Y-64750000D01*
X133750000Y-64500000D02*
X141750000Y-64500000D01*
%TO.N,/controller/RF_B*%
X153750000Y-66250000D02*
X155750000Y-66250000D01*
%TO.N,/controller/RB_A*%
X167000000Y-85250000D02*
X164000000Y-85250000D01*
X148750000Y-57113590D02*
X149886410Y-58250000D01*
X160420000Y-81670000D02*
X160420000Y-81250000D01*
X148750000Y-56000000D02*
X148750000Y-57113590D01*
X170000000Y-60000000D02*
X170000000Y-82250000D01*
X170000000Y-82250000D02*
X167000000Y-85250000D01*
X149886410Y-58250000D02*
X168250000Y-58250000D01*
X164000000Y-85250000D02*
X160420000Y-81670000D01*
X168250000Y-58250000D02*
X170000000Y-60000000D01*
%TO.N,/controller/RB_B*%
X168000000Y-58750000D02*
X149750000Y-58750000D01*
X169500000Y-60250000D02*
X168000000Y-58750000D01*
X169500000Y-82000000D02*
X169500000Y-60250000D01*
X147750000Y-57250000D02*
X148250000Y-57250000D01*
X148250000Y-57250000D02*
X149750000Y-58750000D01*
X169500000Y-82000000D02*
X166750000Y-84750000D01*
X166750000Y-84750000D02*
X164250000Y-84750000D01*
X162960000Y-83460000D02*
X162960000Y-81250000D01*
X164250000Y-84750000D02*
X162960000Y-83460000D01*
%TO.N,/controller/I2C3_SDA*%
X145000000Y-68250000D02*
X143500000Y-66750000D01*
%TO.N,/controller/LF_IN1*%
X140000000Y-68000000D02*
X140000000Y-67000000D01*
X140600000Y-66400000D02*
X142000000Y-66400000D01*
X140000000Y-67000000D02*
X140600000Y-66400000D01*
%TO.N,/controller/LF_IN2*%
X142000000Y-68250000D02*
X141000000Y-67250000D01*
X143500000Y-68250000D02*
X142000000Y-68250000D01*
%TO.N,/controller/RF_IN1*%
X165000000Y-67250000D02*
X163000000Y-67250000D01*
X161750000Y-66000000D02*
X163000000Y-67250000D01*
X161500000Y-65750000D02*
X161750000Y-66000000D01*
X158500000Y-65750000D02*
X161500000Y-65750000D01*
%TO.N,/controller/RF_IN2*%
X164000000Y-66500000D02*
X166000000Y-66500000D01*
X163000000Y-66500000D02*
X164000000Y-66500000D01*
X157500000Y-65000000D02*
X161500000Y-65000000D01*
X161500000Y-65000000D02*
X163000000Y-66500000D01*
%TO.N,/controller/LB_IN1*%
X125250000Y-53750000D02*
X126000000Y-53750000D01*
X124500000Y-54500000D02*
X125250000Y-53750000D01*
X125000000Y-56750000D02*
X124500000Y-56250000D01*
X126000000Y-53750000D02*
X127000000Y-54750000D01*
X124500000Y-56250000D02*
X124500000Y-54500000D01*
X127000000Y-54750000D02*
X128000000Y-54750000D01*
X128000000Y-54750000D02*
X128500000Y-55250000D01*
X128500000Y-55250000D02*
X133000000Y-55250000D01*
X133000000Y-55250000D02*
X133500000Y-54750000D01*
%TO.N,/controller/LB_IN2*%
X126500000Y-55750000D02*
X127500000Y-55750000D01*
X125500000Y-54750000D02*
X126500000Y-55750000D01*
X127500000Y-55750000D02*
X133000000Y-55750000D01*
X133000000Y-55750000D02*
X133500000Y-56250000D01*
%TO.N,/controller/RB_IN1*%
X164000000Y-91750000D02*
X164000000Y-92250000D01*
X165250000Y-90500000D02*
X164000000Y-91750000D01*
X165750000Y-82750000D02*
X164750000Y-83750000D01*
X167250000Y-82750000D02*
X165750000Y-82750000D01*
X148750000Y-59750000D02*
X167500000Y-59750000D01*
X148250000Y-59250000D02*
X148750000Y-59750000D01*
X168500000Y-60750000D02*
X168500000Y-81500000D01*
X167500000Y-59750000D02*
X168500000Y-60750000D01*
X168500000Y-81500000D02*
X167250000Y-82750000D01*
%TO.N,/controller/RB_IN2*%
X165250000Y-91750000D02*
X165250000Y-93250000D01*
X169000000Y-60500000D02*
X169000000Y-81636410D01*
X147000000Y-59250000D02*
X147931795Y-58318205D01*
X149613590Y-59250000D02*
X167750000Y-59250000D01*
X166886410Y-83750000D02*
X166250000Y-83750000D01*
X167750000Y-59250000D02*
X169000000Y-60500000D01*
X147931795Y-58318205D02*
X148681795Y-58318205D01*
X169000000Y-81636410D02*
X166886410Y-83750000D01*
X148681795Y-58318205D02*
X149613590Y-59250000D01*
%TO.N,/interface/BLUETOOTH_RX*%
X147750000Y-54000000D02*
X147750000Y-54250000D01*
X178260000Y-91990000D02*
X180000000Y-90250000D01*
X175400000Y-91990000D02*
X178260000Y-91990000D01*
X150500000Y-51250000D02*
X147750000Y-54000000D01*
X180000000Y-90250000D02*
X180000000Y-54750000D01*
X180000000Y-54750000D02*
X176500000Y-51250000D01*
X176500000Y-51250000D02*
X150500000Y-51250000D01*
%TO.N,/interface/BLUETOOTH_TX*%
X180500000Y-54500000D02*
X176750000Y-50750000D01*
X175400000Y-94530000D02*
X177430000Y-92500000D01*
X177430000Y-92500000D02*
X178500000Y-92500000D01*
X178500000Y-92500000D02*
X178750000Y-92250000D01*
X178750000Y-92250000D02*
X180500000Y-90500000D01*
X180500000Y-90500000D02*
X180500000Y-54500000D01*
X147750000Y-52750000D02*
X148250000Y-52750000D01*
X148250000Y-52750000D02*
X150000000Y-51000000D01*
X176750000Y-50750000D02*
X150250000Y-50750000D01*
X150000000Y-51000000D02*
X150250000Y-50750000D01*
%TO.N,/controller/RECEIVER_OUT*%
X170500000Y-59750000D02*
X171000000Y-59750000D01*
X168549990Y-57799990D02*
X170500000Y-59750000D01*
X155250000Y-57000000D02*
X156049990Y-57799990D01*
X156049990Y-57799990D02*
X168549990Y-57799990D01*
X173850000Y-82750000D02*
X172650000Y-81550000D01*
X179000000Y-81500000D02*
X177750000Y-82750000D01*
X178500000Y-59750000D02*
X179000000Y-60250000D01*
X177750000Y-82750000D02*
X173850000Y-82750000D01*
X179000000Y-60250000D02*
X179000000Y-81500000D01*
D20*
%TO.N,+5V*%
X171540000Y-102267919D02*
X171540000Y-105750000D01*
X175400000Y-99610000D02*
X174197919Y-99610000D01*
X174197919Y-99610000D02*
X171540000Y-102267919D01*
D21*
%TO.N,/controller/RST*%
X118000000Y-97000000D02*
X119750000Y-95250000D01*
X118500000Y-61000000D02*
X114250000Y-65250000D01*
X114250000Y-65250000D02*
X114250000Y-95250000D01*
X114250000Y-95250000D02*
X116000000Y-97000000D01*
X116000000Y-97000000D02*
X118000000Y-97000000D01*
X141000000Y-61000000D02*
X142000000Y-60000000D01*
X134500000Y-61000000D02*
X134250000Y-61000000D01*
X134500000Y-61000000D02*
X141000000Y-61000000D01*
X118500000Y-61000000D02*
X134500000Y-61000000D01*
X133750000Y-60500000D02*
X134250000Y-61000000D01*
%TO.N,/interface/BUTTON_L*%
X147750000Y-64500000D02*
X148500000Y-64500000D01*
X119750000Y-63500000D02*
X146750000Y-63500000D01*
X146750000Y-63500000D02*
X147750000Y-64500000D01*
X116750000Y-66500000D02*
X119750000Y-63500000D01*
X129500000Y-112250000D02*
X128000000Y-112250000D01*
X116750000Y-77000000D02*
X116750000Y-66500000D01*
X130250000Y-111500000D02*
X129500000Y-112250000D01*
X128000000Y-112250000D02*
X122500000Y-106750000D01*
X122500000Y-106750000D02*
X122500000Y-82750000D01*
X122500000Y-82750000D02*
X116750000Y-77000000D01*
X138500000Y-107000000D02*
X138500000Y-112250000D01*
X138500000Y-112250000D02*
X139750000Y-113500000D01*
%TO.N,/interface/BUTTON_C*%
X147750000Y-63000000D02*
X148000000Y-63250000D01*
X119500000Y-63000000D02*
X147750000Y-63000000D01*
X122000000Y-107000000D02*
X122000000Y-83000000D01*
X116250000Y-66250000D02*
X119500000Y-63000000D01*
X122000000Y-83000000D02*
X116250000Y-77250000D01*
X130250000Y-112750000D02*
X127750000Y-112750000D01*
X116250000Y-77250000D02*
X116250000Y-66250000D01*
X145500000Y-109000000D02*
X145500000Y-112250000D01*
X145500000Y-112250000D02*
X146750000Y-113500000D01*
X127750000Y-112750000D02*
X122000000Y-107000000D01*
%TO.N,/interface/BUTTON_R*%
X147549990Y-62450010D02*
X148000000Y-62000000D01*
X142799990Y-62450010D02*
X147549990Y-62450010D01*
X142750000Y-62500000D02*
X142799990Y-62450010D01*
X119250000Y-62500000D02*
X142750000Y-62500000D01*
X115750000Y-66000000D02*
X119250000Y-62500000D01*
X115750000Y-77500000D02*
X115750000Y-66000000D01*
X130250000Y-114000000D02*
X129500000Y-113250000D01*
X121500000Y-107250000D02*
X121500000Y-83250000D01*
X129500000Y-113250000D02*
X127500000Y-113250000D01*
X121500000Y-83250000D02*
X115750000Y-77500000D01*
X152500000Y-109000000D02*
X152500000Y-112250000D01*
X152500000Y-112250000D02*
X153750000Y-113500000D01*
X127500000Y-113250000D02*
X121500000Y-107250000D01*
%TO.N,/interface/LED_RUN*%
X166000000Y-60250000D02*
X165500000Y-60750000D01*
X168000000Y-67636410D02*
X168000000Y-61000000D01*
X168000000Y-61000000D02*
X167250000Y-60250000D01*
X166636410Y-69000000D02*
X168000000Y-67636410D01*
X167250000Y-60250000D02*
X166000000Y-60250000D01*
X151250000Y-67500000D02*
X152250000Y-67500000D01*
X152250000Y-67500000D02*
X153750000Y-69000000D01*
X153750000Y-69000000D02*
X166636410Y-69000000D01*
%TO.N,/interface/LED_ERROR*%
X167500000Y-62000000D02*
X166750000Y-61250000D01*
X166500000Y-68500000D02*
X167500000Y-67500000D01*
X167500000Y-67500000D02*
X167500000Y-62000000D01*
X154000000Y-68500000D02*
X166500000Y-68500000D01*
X154000000Y-68500000D02*
X152250000Y-66750000D01*
%TO.N,/controller/BLUETOOTH_STATUS*%
X179500000Y-88000000D02*
X179500000Y-78000000D01*
X179500000Y-78000000D02*
X179500000Y-58926998D01*
X179500000Y-58926998D02*
X179500000Y-57500000D01*
X179500000Y-57500000D02*
X179500000Y-55000000D01*
X179500000Y-55000000D02*
X176250000Y-51750000D01*
X176250000Y-51750000D02*
X154250000Y-51750000D01*
X154250000Y-51750000D02*
X153250000Y-51750000D01*
X175400000Y-89450000D02*
X177450000Y-91500000D01*
X177450000Y-91500000D02*
X178000000Y-91500000D01*
X179500000Y-90000000D02*
X178000000Y-91500000D01*
X179500000Y-88000000D02*
X179500000Y-90000000D01*
X146000000Y-57500000D02*
X149750000Y-53750000D01*
X149750000Y-52750000D02*
X150750000Y-51750000D01*
X149750000Y-53750000D02*
X149750000Y-52750000D01*
X153250000Y-51750000D02*
X150750000Y-51750000D01*
%TO.N,/controller/BLUETOOTH_EN*%
X178100000Y-102150000D02*
X181000000Y-99250000D01*
X181000000Y-54250000D02*
X177000000Y-50250000D01*
X175400000Y-102150000D02*
X178100000Y-102150000D01*
X181000000Y-99250000D02*
X181000000Y-54250000D01*
X146750000Y-55250000D02*
X146750000Y-53500000D01*
X148500000Y-51750000D02*
X150000000Y-50250000D01*
X177000000Y-50250000D02*
X150000000Y-50250000D01*
X146750000Y-53500000D02*
X146750000Y-52500000D01*
X146750000Y-52500000D02*
X147500000Y-51750000D01*
X147500000Y-51750000D02*
X148500000Y-51750000D01*
%TO.N,/controller/PROXIMITY_LL*%
X118670000Y-71000000D02*
X117250000Y-69580000D01*
X117250000Y-69580000D02*
X117250000Y-66750000D01*
X117250000Y-66750000D02*
X120000000Y-64000000D01*
X120000000Y-64000000D02*
X130500000Y-64000000D01*
X130500000Y-64000000D02*
X146500000Y-64000000D01*
X146500000Y-64000000D02*
X148000000Y-65500000D01*
X148000000Y-65500000D02*
X149000000Y-65500000D01*
X149000000Y-65500000D02*
X149500000Y-65000000D01*
X149500000Y-65000000D02*
X149500000Y-61750000D01*
X149500000Y-61750000D02*
X149000000Y-61250000D01*
%TO.N,/controller/PROXIMITY_FL*%
X140000000Y-60500000D02*
X143000000Y-57500000D01*
X135250000Y-60500000D02*
X140000000Y-60500000D01*
X119750000Y-60500000D02*
X132250000Y-60500000D01*
X119250000Y-60000000D02*
X119750000Y-60500000D01*
X134250000Y-59500000D02*
X135250000Y-60500000D01*
X132250000Y-60500000D02*
X133250000Y-59500000D01*
X133250000Y-59500000D02*
X134250000Y-59500000D01*
X143000000Y-57500000D02*
X144750000Y-57500000D01*
%TO.N,/controller/PROXIMITY_FR*%
X151500000Y-61250000D02*
X152000000Y-60750000D01*
X162750000Y-60750000D02*
X162500000Y-60750000D01*
X163750000Y-61750000D02*
X162750000Y-60750000D01*
X152000000Y-60750000D02*
X162500000Y-60750000D01*
%TO.N,/controller/PROXIMITY_RR*%
X150250000Y-61250000D02*
X151250000Y-60250000D01*
X151250000Y-60250000D02*
X162000000Y-60250000D01*
X165750000Y-62000000D02*
X165250000Y-62000000D01*
X165250000Y-62000000D02*
X163500000Y-60250000D01*
X162000000Y-60250000D02*
X163500000Y-60250000D01*
%TD*%
D23*
%TO.N,SUPPLY*%
G36*
X139623000Y-71400000D02*
G01*
X139625440Y-71424776D01*
X139632667Y-71448601D01*
X139644403Y-71470557D01*
X139660197Y-71489803D01*
X139679443Y-71505597D01*
X139701399Y-71517333D01*
X139725224Y-71524560D01*
X139750000Y-71527000D01*
X140153967Y-71527000D01*
X140173815Y-71551185D01*
X140270506Y-71630537D01*
X140380820Y-71689502D01*
X140500518Y-71725812D01*
X140625000Y-71738072D01*
X143275000Y-71738072D01*
X143399482Y-71725812D01*
X143519180Y-71689502D01*
X143629494Y-71630537D01*
X143726185Y-71551185D01*
X143746033Y-71527000D01*
X159500000Y-71527000D01*
X159524776Y-71524560D01*
X159548601Y-71517333D01*
X159570557Y-71505597D01*
X159589803Y-71489803D01*
X159605597Y-71470557D01*
X159617333Y-71448601D01*
X159624560Y-71424776D01*
X159627000Y-71400000D01*
X159627000Y-70877000D01*
X162373000Y-70877000D01*
X162373000Y-73623000D01*
X160478132Y-73623000D01*
X160377000Y-73521868D01*
X160377000Y-73000000D01*
X160374560Y-72975224D01*
X160367333Y-72951399D01*
X160355597Y-72929443D01*
X160339803Y-72910197D01*
X160320557Y-72894403D01*
X160298601Y-72882667D01*
X160274776Y-72875440D01*
X160250000Y-72873000D01*
X159386978Y-72873000D01*
X159305752Y-72865000D01*
X159305751Y-72865000D01*
X159250000Y-72859509D01*
X159194249Y-72865000D01*
X146055751Y-72865000D01*
X146000000Y-72859509D01*
X145944248Y-72865000D01*
X145863022Y-72873000D01*
X141550427Y-72873000D01*
X141490256Y-72832795D01*
X141301898Y-72754774D01*
X141101939Y-72715000D01*
X140898061Y-72715000D01*
X140698102Y-72754774D01*
X140509744Y-72832795D01*
X140449573Y-72873000D01*
X139750000Y-72873000D01*
X139725224Y-72875440D01*
X139701399Y-72882667D01*
X139679443Y-72894403D01*
X139660197Y-72910197D01*
X139644403Y-72929443D01*
X139632667Y-72951399D01*
X139625440Y-72975224D01*
X139623000Y-73000000D01*
X139623000Y-73623000D01*
X127500000Y-73623000D01*
X127475224Y-73625440D01*
X127451399Y-73632667D01*
X127429443Y-73644403D01*
X127410197Y-73660197D01*
X127394403Y-73679443D01*
X127382667Y-73701399D01*
X127375440Y-73725224D01*
X127373000Y-73750000D01*
X127373000Y-87750000D01*
X127375440Y-87774776D01*
X127382667Y-87798601D01*
X127394403Y-87820557D01*
X127410197Y-87839803D01*
X127429443Y-87855597D01*
X127451399Y-87867333D01*
X127475224Y-87874560D01*
X127500000Y-87877000D01*
X133000000Y-87877000D01*
X133024776Y-87874560D01*
X133048601Y-87867333D01*
X133070557Y-87855597D01*
X133089803Y-87839803D01*
X133105597Y-87820557D01*
X133117333Y-87798601D01*
X133124560Y-87774776D01*
X133127000Y-87750000D01*
X133127000Y-86127000D01*
X134873000Y-86127000D01*
X134873000Y-87750000D01*
X134875440Y-87774776D01*
X134882667Y-87798601D01*
X134894403Y-87820557D01*
X134910197Y-87839803D01*
X134929443Y-87855597D01*
X134951399Y-87867333D01*
X134975224Y-87874560D01*
X135000000Y-87877000D01*
X155750000Y-87877000D01*
X155774776Y-87874560D01*
X155798601Y-87867333D01*
X155820557Y-87855597D01*
X155839803Y-87839803D01*
X155855597Y-87820557D01*
X155867333Y-87798601D01*
X155874560Y-87774776D01*
X155877000Y-87750000D01*
X155877000Y-85377000D01*
X157623000Y-85377000D01*
X157623000Y-87750000D01*
X157625440Y-87774776D01*
X157632667Y-87798601D01*
X157644403Y-87820557D01*
X157660197Y-87839803D01*
X157679443Y-87855597D01*
X157701399Y-87867333D01*
X157725224Y-87874560D01*
X157750000Y-87877000D01*
X159522330Y-87877000D01*
X159473709Y-97115000D01*
X156527000Y-97115000D01*
X156527000Y-91950000D01*
X156524560Y-91925224D01*
X156517333Y-91901399D01*
X156505597Y-91879443D01*
X156489803Y-91860197D01*
X156470557Y-91844403D01*
X156448601Y-91832667D01*
X156424776Y-91825440D01*
X156400097Y-91823000D01*
X123802143Y-91798097D01*
X123823747Y-72635648D01*
X124070516Y-72611343D01*
X124378715Y-72517852D01*
X124434429Y-72488072D01*
X124600000Y-72488072D01*
X124724482Y-72475812D01*
X124844180Y-72439502D01*
X124954494Y-72380537D01*
X125051185Y-72301185D01*
X125130537Y-72204494D01*
X125189502Y-72094180D01*
X125225812Y-71974482D01*
X125238072Y-71850000D01*
X125238072Y-71684429D01*
X125267852Y-71628715D01*
X125361343Y-71320516D01*
X125385000Y-71080322D01*
X125385000Y-69877000D01*
X139623000Y-69877000D01*
X139623000Y-71400000D01*
G37*
X139623000Y-71400000D02*
X139625440Y-71424776D01*
X139632667Y-71448601D01*
X139644403Y-71470557D01*
X139660197Y-71489803D01*
X139679443Y-71505597D01*
X139701399Y-71517333D01*
X139725224Y-71524560D01*
X139750000Y-71527000D01*
X140153967Y-71527000D01*
X140173815Y-71551185D01*
X140270506Y-71630537D01*
X140380820Y-71689502D01*
X140500518Y-71725812D01*
X140625000Y-71738072D01*
X143275000Y-71738072D01*
X143399482Y-71725812D01*
X143519180Y-71689502D01*
X143629494Y-71630537D01*
X143726185Y-71551185D01*
X143746033Y-71527000D01*
X159500000Y-71527000D01*
X159524776Y-71524560D01*
X159548601Y-71517333D01*
X159570557Y-71505597D01*
X159589803Y-71489803D01*
X159605597Y-71470557D01*
X159617333Y-71448601D01*
X159624560Y-71424776D01*
X159627000Y-71400000D01*
X159627000Y-70877000D01*
X162373000Y-70877000D01*
X162373000Y-73623000D01*
X160478132Y-73623000D01*
X160377000Y-73521868D01*
X160377000Y-73000000D01*
X160374560Y-72975224D01*
X160367333Y-72951399D01*
X160355597Y-72929443D01*
X160339803Y-72910197D01*
X160320557Y-72894403D01*
X160298601Y-72882667D01*
X160274776Y-72875440D01*
X160250000Y-72873000D01*
X159386978Y-72873000D01*
X159305752Y-72865000D01*
X159305751Y-72865000D01*
X159250000Y-72859509D01*
X159194249Y-72865000D01*
X146055751Y-72865000D01*
X146000000Y-72859509D01*
X145944248Y-72865000D01*
X145863022Y-72873000D01*
X141550427Y-72873000D01*
X141490256Y-72832795D01*
X141301898Y-72754774D01*
X141101939Y-72715000D01*
X140898061Y-72715000D01*
X140698102Y-72754774D01*
X140509744Y-72832795D01*
X140449573Y-72873000D01*
X139750000Y-72873000D01*
X139725224Y-72875440D01*
X139701399Y-72882667D01*
X139679443Y-72894403D01*
X139660197Y-72910197D01*
X139644403Y-72929443D01*
X139632667Y-72951399D01*
X139625440Y-72975224D01*
X139623000Y-73000000D01*
X139623000Y-73623000D01*
X127500000Y-73623000D01*
X127475224Y-73625440D01*
X127451399Y-73632667D01*
X127429443Y-73644403D01*
X127410197Y-73660197D01*
X127394403Y-73679443D01*
X127382667Y-73701399D01*
X127375440Y-73725224D01*
X127373000Y-73750000D01*
X127373000Y-87750000D01*
X127375440Y-87774776D01*
X127382667Y-87798601D01*
X127394403Y-87820557D01*
X127410197Y-87839803D01*
X127429443Y-87855597D01*
X127451399Y-87867333D01*
X127475224Y-87874560D01*
X127500000Y-87877000D01*
X133000000Y-87877000D01*
X133024776Y-87874560D01*
X133048601Y-87867333D01*
X133070557Y-87855597D01*
X133089803Y-87839803D01*
X133105597Y-87820557D01*
X133117333Y-87798601D01*
X133124560Y-87774776D01*
X133127000Y-87750000D01*
X133127000Y-86127000D01*
X134873000Y-86127000D01*
X134873000Y-87750000D01*
X134875440Y-87774776D01*
X134882667Y-87798601D01*
X134894403Y-87820557D01*
X134910197Y-87839803D01*
X134929443Y-87855597D01*
X134951399Y-87867333D01*
X134975224Y-87874560D01*
X135000000Y-87877000D01*
X155750000Y-87877000D01*
X155774776Y-87874560D01*
X155798601Y-87867333D01*
X155820557Y-87855597D01*
X155839803Y-87839803D01*
X155855597Y-87820557D01*
X155867333Y-87798601D01*
X155874560Y-87774776D01*
X155877000Y-87750000D01*
X155877000Y-85377000D01*
X157623000Y-85377000D01*
X157623000Y-87750000D01*
X157625440Y-87774776D01*
X157632667Y-87798601D01*
X157644403Y-87820557D01*
X157660197Y-87839803D01*
X157679443Y-87855597D01*
X157701399Y-87867333D01*
X157725224Y-87874560D01*
X157750000Y-87877000D01*
X159522330Y-87877000D01*
X159473709Y-97115000D01*
X156527000Y-97115000D01*
X156527000Y-91950000D01*
X156524560Y-91925224D01*
X156517333Y-91901399D01*
X156505597Y-91879443D01*
X156489803Y-91860197D01*
X156470557Y-91844403D01*
X156448601Y-91832667D01*
X156424776Y-91825440D01*
X156400097Y-91823000D01*
X123802143Y-91798097D01*
X123823747Y-72635648D01*
X124070516Y-72611343D01*
X124378715Y-72517852D01*
X124434429Y-72488072D01*
X124600000Y-72488072D01*
X124724482Y-72475812D01*
X124844180Y-72439502D01*
X124954494Y-72380537D01*
X125051185Y-72301185D01*
X125130537Y-72204494D01*
X125189502Y-72094180D01*
X125225812Y-71974482D01*
X125238072Y-71850000D01*
X125238072Y-71684429D01*
X125267852Y-71628715D01*
X125361343Y-71320516D01*
X125385000Y-71080322D01*
X125385000Y-69877000D01*
X139623000Y-69877000D01*
X139623000Y-71400000D01*
%TO.N,+5V*%
G36*
X172373000Y-106623000D02*
G01*
X170627000Y-106623000D01*
X170627000Y-104100000D01*
X170624560Y-104075224D01*
X170617333Y-104051399D01*
X170605597Y-104029443D01*
X170589803Y-104010197D01*
X170570557Y-103994403D01*
X170548601Y-103982667D01*
X170524776Y-103975440D01*
X170500326Y-103973000D01*
X131500326Y-103873000D01*
X131475543Y-103875377D01*
X131451700Y-103882543D01*
X131429714Y-103894223D01*
X131410428Y-103909967D01*
X131394585Y-103929172D01*
X131382792Y-103951099D01*
X131375504Y-103974904D01*
X131373000Y-104000000D01*
X131373000Y-106873000D01*
X124447801Y-106873000D01*
X124377000Y-106802199D01*
X124377000Y-105127000D01*
X129500000Y-105127000D01*
X129524776Y-105124560D01*
X129548601Y-105117333D01*
X129570557Y-105105597D01*
X129589803Y-105089803D01*
X129605597Y-105070557D01*
X129617333Y-105048601D01*
X129624560Y-105024776D01*
X129627000Y-105000000D01*
X129627000Y-102377000D01*
X172373000Y-102377000D01*
X172373000Y-106623000D01*
G37*
X172373000Y-106623000D02*
X170627000Y-106623000D01*
X170627000Y-104100000D01*
X170624560Y-104075224D01*
X170617333Y-104051399D01*
X170605597Y-104029443D01*
X170589803Y-104010197D01*
X170570557Y-103994403D01*
X170548601Y-103982667D01*
X170524776Y-103975440D01*
X170500326Y-103973000D01*
X131500326Y-103873000D01*
X131475543Y-103875377D01*
X131451700Y-103882543D01*
X131429714Y-103894223D01*
X131410428Y-103909967D01*
X131394585Y-103929172D01*
X131382792Y-103951099D01*
X131375504Y-103974904D01*
X131373000Y-104000000D01*
X131373000Y-106873000D01*
X124447801Y-106873000D01*
X124377000Y-106802199D01*
X124377000Y-105127000D01*
X129500000Y-105127000D01*
X129524776Y-105124560D01*
X129548601Y-105117333D01*
X129570557Y-105105597D01*
X129589803Y-105089803D01*
X129605597Y-105070557D01*
X129617333Y-105048601D01*
X129624560Y-105024776D01*
X129627000Y-105000000D01*
X129627000Y-102377000D01*
X172373000Y-102377000D01*
X172373000Y-106623000D01*
%TO.N,GND*%
G36*
X181090000Y-107467721D02*
G01*
X181080420Y-107565424D01*
X181061420Y-107628357D01*
X181030554Y-107686406D01*
X180989011Y-107737343D01*
X180938356Y-107779248D01*
X180880529Y-107810515D01*
X180817728Y-107829956D01*
X180722165Y-107840000D01*
X173717581Y-107840000D01*
X173689326Y-107842783D01*
X173683199Y-107842740D01*
X173674028Y-107843640D01*
X173479931Y-107864041D01*
X173421348Y-107876066D01*
X173362577Y-107887277D01*
X173353755Y-107889941D01*
X173167317Y-107947653D01*
X173112162Y-107970838D01*
X173056709Y-107993242D01*
X173048573Y-107997568D01*
X172876896Y-108090393D01*
X172827278Y-108123861D01*
X172777247Y-108156600D01*
X172770106Y-108162424D01*
X172619728Y-108286828D01*
X172577589Y-108329263D01*
X172534839Y-108371126D01*
X172528966Y-108378227D01*
X172405616Y-108529469D01*
X172372534Y-108579262D01*
X172338716Y-108628651D01*
X172334333Y-108636757D01*
X172242708Y-108809079D01*
X172219909Y-108864394D01*
X172196348Y-108919366D01*
X172193623Y-108928169D01*
X172137214Y-109115005D01*
X172125594Y-109173693D01*
X172113158Y-109232196D01*
X172112195Y-109241361D01*
X172093150Y-109435595D01*
X172093150Y-109435608D01*
X172090001Y-109467581D01*
X172090000Y-115467721D01*
X172080420Y-115565424D01*
X172061420Y-115628357D01*
X172030554Y-115686406D01*
X171989011Y-115737343D01*
X171938356Y-115779248D01*
X171880529Y-115810515D01*
X171817728Y-115829956D01*
X171722165Y-115840000D01*
X123782279Y-115840000D01*
X123684576Y-115830420D01*
X123621643Y-115811420D01*
X123563594Y-115780554D01*
X123512657Y-115739011D01*
X123470752Y-115688356D01*
X123439485Y-115630529D01*
X123420044Y-115567728D01*
X123410000Y-115472165D01*
X123410000Y-110234802D01*
X126936205Y-113761008D01*
X126959999Y-113790001D01*
X126988992Y-113813795D01*
X126988996Y-113813799D01*
X127059685Y-113871811D01*
X127075724Y-113884974D01*
X127207753Y-113955546D01*
X127351014Y-113999003D01*
X127462667Y-114010000D01*
X127462676Y-114010000D01*
X127499999Y-114013676D01*
X127537322Y-114010000D01*
X129185199Y-114010000D01*
X129215000Y-114039801D01*
X129215000Y-114101939D01*
X129254774Y-114301898D01*
X129332795Y-114490256D01*
X129446063Y-114659774D01*
X129590226Y-114803937D01*
X129759744Y-114917205D01*
X129948102Y-114995226D01*
X130148061Y-115035000D01*
X130351939Y-115035000D01*
X130551898Y-114995226D01*
X130740256Y-114917205D01*
X130909774Y-114803937D01*
X131053937Y-114659774D01*
X131167205Y-114490256D01*
X131245226Y-114301898D01*
X131285000Y-114101939D01*
X131285000Y-113898061D01*
X131275500Y-113850302D01*
X131686201Y-114261003D01*
X131709999Y-114290001D01*
X131738997Y-114313799D01*
X131825724Y-114384974D01*
X131957753Y-114455546D01*
X132101014Y-114499003D01*
X132250000Y-114513677D01*
X132287333Y-114510000D01*
X136046289Y-114510000D01*
X136090226Y-114553937D01*
X136259744Y-114667205D01*
X136448102Y-114745226D01*
X136648061Y-114785000D01*
X136851939Y-114785000D01*
X137051898Y-114745226D01*
X137240256Y-114667205D01*
X137409774Y-114553937D01*
X137553937Y-114409774D01*
X137667205Y-114240256D01*
X137745226Y-114051898D01*
X137785000Y-113851939D01*
X137785000Y-113789801D01*
X138375000Y-113199802D01*
X138715000Y-113539802D01*
X138715000Y-113601939D01*
X138754774Y-113801898D01*
X138832795Y-113990256D01*
X138946063Y-114159774D01*
X139090226Y-114303937D01*
X139259744Y-114417205D01*
X139448102Y-114495226D01*
X139648061Y-114535000D01*
X139851939Y-114535000D01*
X140051898Y-114495226D01*
X140240256Y-114417205D01*
X140409774Y-114303937D01*
X140553937Y-114159774D01*
X140667205Y-113990256D01*
X140745226Y-113801898D01*
X140785000Y-113601939D01*
X140785000Y-113398061D01*
X140745226Y-113198102D01*
X140667205Y-113009744D01*
X140553937Y-112840226D01*
X140409774Y-112696063D01*
X140240256Y-112582795D01*
X140051898Y-112504774D01*
X139851939Y-112465000D01*
X139789802Y-112465000D01*
X139260000Y-111935199D01*
X139260000Y-108898061D01*
X144465000Y-108898061D01*
X144465000Y-109101939D01*
X144504774Y-109301898D01*
X144582795Y-109490256D01*
X144696063Y-109659774D01*
X144740000Y-109703711D01*
X144740001Y-112212668D01*
X144736324Y-112250000D01*
X144750998Y-112398985D01*
X144794454Y-112542246D01*
X144865026Y-112674276D01*
X144898448Y-112715000D01*
X144960000Y-112790001D01*
X144988998Y-112813799D01*
X145715000Y-113539802D01*
X145715000Y-113601939D01*
X145754774Y-113801898D01*
X145832795Y-113990256D01*
X145946063Y-114159774D01*
X146090226Y-114303937D01*
X146259744Y-114417205D01*
X146448102Y-114495226D01*
X146648061Y-114535000D01*
X146851939Y-114535000D01*
X147051898Y-114495226D01*
X147240256Y-114417205D01*
X147409774Y-114303937D01*
X147553937Y-114159774D01*
X147667205Y-113990256D01*
X147745226Y-113801898D01*
X147785000Y-113601939D01*
X147785000Y-113398061D01*
X147745226Y-113198102D01*
X147667205Y-113009744D01*
X147553937Y-112840226D01*
X147409774Y-112696063D01*
X147240256Y-112582795D01*
X147051898Y-112504774D01*
X146851939Y-112465000D01*
X146789802Y-112465000D01*
X146260000Y-111935199D01*
X146260000Y-109703711D01*
X146303937Y-109659774D01*
X146417205Y-109490256D01*
X146495226Y-109301898D01*
X146535000Y-109101939D01*
X146535000Y-108898061D01*
X151465000Y-108898061D01*
X151465000Y-109101939D01*
X151504774Y-109301898D01*
X151582795Y-109490256D01*
X151696063Y-109659774D01*
X151740000Y-109703711D01*
X151740001Y-112212668D01*
X151736324Y-112250000D01*
X151750998Y-112398985D01*
X151794454Y-112542246D01*
X151865026Y-112674276D01*
X151898448Y-112715000D01*
X151960000Y-112790001D01*
X151988998Y-112813799D01*
X152715000Y-113539802D01*
X152715000Y-113601939D01*
X152754774Y-113801898D01*
X152832795Y-113990256D01*
X152946063Y-114159774D01*
X153090226Y-114303937D01*
X153259744Y-114417205D01*
X153448102Y-114495226D01*
X153648061Y-114535000D01*
X153851939Y-114535000D01*
X154051898Y-114495226D01*
X154240256Y-114417205D01*
X154409774Y-114303937D01*
X154553937Y-114159774D01*
X154667205Y-113990256D01*
X154745226Y-113801898D01*
X154785000Y-113601939D01*
X154785000Y-113398061D01*
X154745226Y-113198102D01*
X154667205Y-113009744D01*
X154553937Y-112840226D01*
X154409774Y-112696063D01*
X154240256Y-112582795D01*
X154051898Y-112504774D01*
X153851939Y-112465000D01*
X153789802Y-112465000D01*
X153260000Y-111935199D01*
X153260000Y-110162408D01*
X162813000Y-110162408D01*
X162813000Y-110437592D01*
X162866686Y-110707490D01*
X162971995Y-110961727D01*
X163124880Y-111190535D01*
X163319465Y-111385120D01*
X163548273Y-111538005D01*
X163802510Y-111643314D01*
X164072408Y-111697000D01*
X164347592Y-111697000D01*
X164617490Y-111643314D01*
X164871727Y-111538005D01*
X165100535Y-111385120D01*
X165295120Y-111190535D01*
X165448005Y-110961727D01*
X165480000Y-110884485D01*
X165511995Y-110961727D01*
X165664880Y-111190535D01*
X165859465Y-111385120D01*
X166088273Y-111538005D01*
X166342510Y-111643314D01*
X166612408Y-111697000D01*
X166887592Y-111697000D01*
X167157490Y-111643314D01*
X167411727Y-111538005D01*
X167640535Y-111385120D01*
X167760090Y-111265565D01*
X168504040Y-111265565D01*
X168571020Y-111505656D01*
X168820048Y-111622756D01*
X169087135Y-111689023D01*
X169362017Y-111701910D01*
X169634133Y-111660922D01*
X169893023Y-111567636D01*
X170008980Y-111505656D01*
X170075960Y-111265565D01*
X169290000Y-110479605D01*
X168504040Y-111265565D01*
X167760090Y-111265565D01*
X167835120Y-111190535D01*
X167988005Y-110961727D01*
X168017692Y-110890057D01*
X168022364Y-110903023D01*
X168084344Y-111018980D01*
X168324435Y-111085960D01*
X169110395Y-110300000D01*
X169469605Y-110300000D01*
X170255565Y-111085960D01*
X170495656Y-111018980D01*
X170612756Y-110769952D01*
X170679023Y-110502865D01*
X170691910Y-110227983D01*
X170650922Y-109955867D01*
X170557636Y-109696977D01*
X170495656Y-109581020D01*
X170255565Y-109514040D01*
X169469605Y-110300000D01*
X169110395Y-110300000D01*
X168324435Y-109514040D01*
X168084344Y-109581020D01*
X168020515Y-109716760D01*
X167988005Y-109638273D01*
X167835120Y-109409465D01*
X167760090Y-109334435D01*
X168504040Y-109334435D01*
X169290000Y-110120395D01*
X170075960Y-109334435D01*
X170008980Y-109094344D01*
X169759952Y-108977244D01*
X169492865Y-108910977D01*
X169217983Y-108898090D01*
X168945867Y-108939078D01*
X168686977Y-109032364D01*
X168571020Y-109094344D01*
X168504040Y-109334435D01*
X167760090Y-109334435D01*
X167640535Y-109214880D01*
X167411727Y-109061995D01*
X167157490Y-108956686D01*
X166887592Y-108903000D01*
X166612408Y-108903000D01*
X166342510Y-108956686D01*
X166088273Y-109061995D01*
X165859465Y-109214880D01*
X165664880Y-109409465D01*
X165511995Y-109638273D01*
X165480000Y-109715515D01*
X165448005Y-109638273D01*
X165295120Y-109409465D01*
X165100535Y-109214880D01*
X164871727Y-109061995D01*
X164617490Y-108956686D01*
X164347592Y-108903000D01*
X164072408Y-108903000D01*
X163802510Y-108956686D01*
X163548273Y-109061995D01*
X163319465Y-109214880D01*
X163124880Y-109409465D01*
X162971995Y-109638273D01*
X162866686Y-109892510D01*
X162813000Y-110162408D01*
X153260000Y-110162408D01*
X153260000Y-109703711D01*
X153303937Y-109659774D01*
X153417205Y-109490256D01*
X153495226Y-109301898D01*
X153535000Y-109101939D01*
X153535000Y-108898061D01*
X153495226Y-108698102D01*
X153417205Y-108509744D01*
X153303937Y-108340226D01*
X153159774Y-108196063D01*
X152990256Y-108082795D01*
X152801898Y-108004774D01*
X152601939Y-107965000D01*
X152398061Y-107965000D01*
X152198102Y-108004774D01*
X152009744Y-108082795D01*
X151840226Y-108196063D01*
X151696063Y-108340226D01*
X151582795Y-108509744D01*
X151504774Y-108698102D01*
X151465000Y-108898061D01*
X146535000Y-108898061D01*
X146495226Y-108698102D01*
X146417205Y-108509744D01*
X146303937Y-108340226D01*
X146159774Y-108196063D01*
X145990256Y-108082795D01*
X145801898Y-108004774D01*
X145601939Y-107965000D01*
X145398061Y-107965000D01*
X145198102Y-108004774D01*
X145009744Y-108082795D01*
X144840226Y-108196063D01*
X144696063Y-108340226D01*
X144582795Y-108509744D01*
X144504774Y-108698102D01*
X144465000Y-108898061D01*
X139260000Y-108898061D01*
X139260000Y-107703711D01*
X139303937Y-107659774D01*
X139417205Y-107490256D01*
X139495226Y-107301898D01*
X139535000Y-107101939D01*
X139535000Y-106898061D01*
X139495226Y-106698102D01*
X139417205Y-106509744D01*
X139303937Y-106340226D01*
X139159774Y-106196063D01*
X138990256Y-106082795D01*
X138801898Y-106004774D01*
X138601939Y-105965000D01*
X138398061Y-105965000D01*
X138198102Y-106004774D01*
X138009744Y-106082795D01*
X137840226Y-106196063D01*
X137696063Y-106340226D01*
X137582795Y-106509744D01*
X137504774Y-106698102D01*
X137465000Y-106898061D01*
X137465000Y-107101939D01*
X137504774Y-107301898D01*
X137582795Y-107490256D01*
X137696063Y-107659774D01*
X137740000Y-107703711D01*
X137740000Y-109165199D01*
X136285000Y-107710199D01*
X136285000Y-107648061D01*
X136245226Y-107448102D01*
X136167205Y-107259744D01*
X136053937Y-107090226D01*
X135909774Y-106946063D01*
X135740256Y-106832795D01*
X135551898Y-106754774D01*
X135351939Y-106715000D01*
X135148061Y-106715000D01*
X134948102Y-106754774D01*
X134759744Y-106832795D01*
X134590226Y-106946063D01*
X134446063Y-107090226D01*
X134332795Y-107259744D01*
X134254774Y-107448102D01*
X134215000Y-107648061D01*
X134215000Y-107851939D01*
X134254774Y-108051898D01*
X134332795Y-108240256D01*
X134446063Y-108409774D01*
X134590226Y-108553937D01*
X134759744Y-108667205D01*
X134948102Y-108745226D01*
X135148061Y-108785000D01*
X135210199Y-108785000D01*
X137240001Y-110814803D01*
X137240000Y-112185198D01*
X136710199Y-112715000D01*
X136648061Y-112715000D01*
X136448102Y-112754774D01*
X136259744Y-112832795D01*
X136090226Y-112946063D01*
X136046289Y-112990000D01*
X132564802Y-112990000D01*
X132010000Y-112435199D01*
X132010000Y-111037325D01*
X132013676Y-111000000D01*
X132010000Y-110962675D01*
X132010000Y-110962667D01*
X131999003Y-110851014D01*
X131955546Y-110707753D01*
X131884974Y-110575724D01*
X131790001Y-110459999D01*
X131760998Y-110436197D01*
X131313804Y-109989003D01*
X131290001Y-109959999D01*
X131174276Y-109865026D01*
X131042247Y-109794454D01*
X130898986Y-109750997D01*
X130787333Y-109740000D01*
X130787322Y-109740000D01*
X130750000Y-109736324D01*
X130712678Y-109740000D01*
X127314802Y-109740000D01*
X125451801Y-107877000D01*
X132250000Y-107877000D01*
X132274776Y-107874560D01*
X132298601Y-107867333D01*
X132320557Y-107855597D01*
X132339803Y-107839803D01*
X132355597Y-107820557D01*
X132367333Y-107798601D01*
X132374560Y-107774776D01*
X132377000Y-107750000D01*
X132377000Y-104877000D01*
X165363163Y-104877000D01*
X165221995Y-105088273D01*
X165116686Y-105342510D01*
X165063000Y-105612408D01*
X165063000Y-105887592D01*
X165116686Y-106157490D01*
X165221995Y-106411727D01*
X165374880Y-106640535D01*
X165569465Y-106835120D01*
X165798273Y-106988005D01*
X166052510Y-107093314D01*
X166322408Y-107147000D01*
X166597592Y-107147000D01*
X166867490Y-107093314D01*
X167121727Y-106988005D01*
X167350535Y-106835120D01*
X167545120Y-106640535D01*
X167698005Y-106411727D01*
X167803314Y-106157490D01*
X167857000Y-105887592D01*
X167857000Y-105612408D01*
X167803314Y-105342510D01*
X167698005Y-105088273D01*
X167556837Y-104877000D01*
X169873000Y-104877000D01*
X169873000Y-107250000D01*
X169875440Y-107274776D01*
X169882667Y-107298601D01*
X169894403Y-107320557D01*
X169910197Y-107339803D01*
X169929443Y-107355597D01*
X169951399Y-107367333D01*
X169975224Y-107374560D01*
X170000000Y-107377000D01*
X173000000Y-107377000D01*
X173024776Y-107374560D01*
X173048601Y-107367333D01*
X173070557Y-107355597D01*
X173089803Y-107339803D01*
X173105597Y-107320557D01*
X173117333Y-107298601D01*
X173124560Y-107274776D01*
X173127000Y-107250000D01*
X173127000Y-102286050D01*
X173911928Y-101501123D01*
X173911928Y-103000000D01*
X173924188Y-103124482D01*
X173960498Y-103244180D01*
X174019463Y-103354494D01*
X174098815Y-103451185D01*
X174195506Y-103530537D01*
X174305820Y-103589502D01*
X174425518Y-103625812D01*
X174550000Y-103638072D01*
X176250000Y-103638072D01*
X176374482Y-103625812D01*
X176494180Y-103589502D01*
X176604494Y-103530537D01*
X176701185Y-103451185D01*
X176780537Y-103354494D01*
X176839502Y-103244180D01*
X176875812Y-103124482D01*
X176888072Y-103000000D01*
X176888072Y-102910000D01*
X178062678Y-102910000D01*
X178100000Y-102913676D01*
X178137322Y-102910000D01*
X178137333Y-102910000D01*
X178248986Y-102899003D01*
X178392247Y-102855546D01*
X178524276Y-102784974D01*
X178640001Y-102690001D01*
X178663804Y-102660997D01*
X181090000Y-100234802D01*
X181090000Y-107467721D01*
G37*
X181090000Y-107467721D02*
X181080420Y-107565424D01*
X181061420Y-107628357D01*
X181030554Y-107686406D01*
X180989011Y-107737343D01*
X180938356Y-107779248D01*
X180880529Y-107810515D01*
X180817728Y-107829956D01*
X180722165Y-107840000D01*
X173717581Y-107840000D01*
X173689326Y-107842783D01*
X173683199Y-107842740D01*
X173674028Y-107843640D01*
X173479931Y-107864041D01*
X173421348Y-107876066D01*
X173362577Y-107887277D01*
X173353755Y-107889941D01*
X173167317Y-107947653D01*
X173112162Y-107970838D01*
X173056709Y-107993242D01*
X173048573Y-107997568D01*
X172876896Y-108090393D01*
X172827278Y-108123861D01*
X172777247Y-108156600D01*
X172770106Y-108162424D01*
X172619728Y-108286828D01*
X172577589Y-108329263D01*
X172534839Y-108371126D01*
X172528966Y-108378227D01*
X172405616Y-108529469D01*
X172372534Y-108579262D01*
X172338716Y-108628651D01*
X172334333Y-108636757D01*
X172242708Y-108809079D01*
X172219909Y-108864394D01*
X172196348Y-108919366D01*
X172193623Y-108928169D01*
X172137214Y-109115005D01*
X172125594Y-109173693D01*
X172113158Y-109232196D01*
X172112195Y-109241361D01*
X172093150Y-109435595D01*
X172093150Y-109435608D01*
X172090001Y-109467581D01*
X172090000Y-115467721D01*
X172080420Y-115565424D01*
X172061420Y-115628357D01*
X172030554Y-115686406D01*
X171989011Y-115737343D01*
X171938356Y-115779248D01*
X171880529Y-115810515D01*
X171817728Y-115829956D01*
X171722165Y-115840000D01*
X123782279Y-115840000D01*
X123684576Y-115830420D01*
X123621643Y-115811420D01*
X123563594Y-115780554D01*
X123512657Y-115739011D01*
X123470752Y-115688356D01*
X123439485Y-115630529D01*
X123420044Y-115567728D01*
X123410000Y-115472165D01*
X123410000Y-110234802D01*
X126936205Y-113761008D01*
X126959999Y-113790001D01*
X126988992Y-113813795D01*
X126988996Y-113813799D01*
X127059685Y-113871811D01*
X127075724Y-113884974D01*
X127207753Y-113955546D01*
X127351014Y-113999003D01*
X127462667Y-114010000D01*
X127462676Y-114010000D01*
X127499999Y-114013676D01*
X127537322Y-114010000D01*
X129185199Y-114010000D01*
X129215000Y-114039801D01*
X129215000Y-114101939D01*
X129254774Y-114301898D01*
X129332795Y-114490256D01*
X129446063Y-114659774D01*
X129590226Y-114803937D01*
X129759744Y-114917205D01*
X129948102Y-114995226D01*
X130148061Y-115035000D01*
X130351939Y-115035000D01*
X130551898Y-114995226D01*
X130740256Y-114917205D01*
X130909774Y-114803937D01*
X131053937Y-114659774D01*
X131167205Y-114490256D01*
X131245226Y-114301898D01*
X131285000Y-114101939D01*
X131285000Y-113898061D01*
X131275500Y-113850302D01*
X131686201Y-114261003D01*
X131709999Y-114290001D01*
X131738997Y-114313799D01*
X131825724Y-114384974D01*
X131957753Y-114455546D01*
X132101014Y-114499003D01*
X132250000Y-114513677D01*
X132287333Y-114510000D01*
X136046289Y-114510000D01*
X136090226Y-114553937D01*
X136259744Y-114667205D01*
X136448102Y-114745226D01*
X136648061Y-114785000D01*
X136851939Y-114785000D01*
X137051898Y-114745226D01*
X137240256Y-114667205D01*
X137409774Y-114553937D01*
X137553937Y-114409774D01*
X137667205Y-114240256D01*
X137745226Y-114051898D01*
X137785000Y-113851939D01*
X137785000Y-113789801D01*
X138375000Y-113199802D01*
X138715000Y-113539802D01*
X138715000Y-113601939D01*
X138754774Y-113801898D01*
X138832795Y-113990256D01*
X138946063Y-114159774D01*
X139090226Y-114303937D01*
X139259744Y-114417205D01*
X139448102Y-114495226D01*
X139648061Y-114535000D01*
X139851939Y-114535000D01*
X140051898Y-114495226D01*
X140240256Y-114417205D01*
X140409774Y-114303937D01*
X140553937Y-114159774D01*
X140667205Y-113990256D01*
X140745226Y-113801898D01*
X140785000Y-113601939D01*
X140785000Y-113398061D01*
X140745226Y-113198102D01*
X140667205Y-113009744D01*
X140553937Y-112840226D01*
X140409774Y-112696063D01*
X140240256Y-112582795D01*
X140051898Y-112504774D01*
X139851939Y-112465000D01*
X139789802Y-112465000D01*
X139260000Y-111935199D01*
X139260000Y-108898061D01*
X144465000Y-108898061D01*
X144465000Y-109101939D01*
X144504774Y-109301898D01*
X144582795Y-109490256D01*
X144696063Y-109659774D01*
X144740000Y-109703711D01*
X144740001Y-112212668D01*
X144736324Y-112250000D01*
X144750998Y-112398985D01*
X144794454Y-112542246D01*
X144865026Y-112674276D01*
X144898448Y-112715000D01*
X144960000Y-112790001D01*
X144988998Y-112813799D01*
X145715000Y-113539802D01*
X145715000Y-113601939D01*
X145754774Y-113801898D01*
X145832795Y-113990256D01*
X145946063Y-114159774D01*
X146090226Y-114303937D01*
X146259744Y-114417205D01*
X146448102Y-114495226D01*
X146648061Y-114535000D01*
X146851939Y-114535000D01*
X147051898Y-114495226D01*
X147240256Y-114417205D01*
X147409774Y-114303937D01*
X147553937Y-114159774D01*
X147667205Y-113990256D01*
X147745226Y-113801898D01*
X147785000Y-113601939D01*
X147785000Y-113398061D01*
X147745226Y-113198102D01*
X147667205Y-113009744D01*
X147553937Y-112840226D01*
X147409774Y-112696063D01*
X147240256Y-112582795D01*
X147051898Y-112504774D01*
X146851939Y-112465000D01*
X146789802Y-112465000D01*
X146260000Y-111935199D01*
X146260000Y-109703711D01*
X146303937Y-109659774D01*
X146417205Y-109490256D01*
X146495226Y-109301898D01*
X146535000Y-109101939D01*
X146535000Y-108898061D01*
X151465000Y-108898061D01*
X151465000Y-109101939D01*
X151504774Y-109301898D01*
X151582795Y-109490256D01*
X151696063Y-109659774D01*
X151740000Y-109703711D01*
X151740001Y-112212668D01*
X151736324Y-112250000D01*
X151750998Y-112398985D01*
X151794454Y-112542246D01*
X151865026Y-112674276D01*
X151898448Y-112715000D01*
X151960000Y-112790001D01*
X151988998Y-112813799D01*
X152715000Y-113539802D01*
X152715000Y-113601939D01*
X152754774Y-113801898D01*
X152832795Y-113990256D01*
X152946063Y-114159774D01*
X153090226Y-114303937D01*
X153259744Y-114417205D01*
X153448102Y-114495226D01*
X153648061Y-114535000D01*
X153851939Y-114535000D01*
X154051898Y-114495226D01*
X154240256Y-114417205D01*
X154409774Y-114303937D01*
X154553937Y-114159774D01*
X154667205Y-113990256D01*
X154745226Y-113801898D01*
X154785000Y-113601939D01*
X154785000Y-113398061D01*
X154745226Y-113198102D01*
X154667205Y-113009744D01*
X154553937Y-112840226D01*
X154409774Y-112696063D01*
X154240256Y-112582795D01*
X154051898Y-112504774D01*
X153851939Y-112465000D01*
X153789802Y-112465000D01*
X153260000Y-111935199D01*
X153260000Y-110162408D01*
X162813000Y-110162408D01*
X162813000Y-110437592D01*
X162866686Y-110707490D01*
X162971995Y-110961727D01*
X163124880Y-111190535D01*
X163319465Y-111385120D01*
X163548273Y-111538005D01*
X163802510Y-111643314D01*
X164072408Y-111697000D01*
X164347592Y-111697000D01*
X164617490Y-111643314D01*
X164871727Y-111538005D01*
X165100535Y-111385120D01*
X165295120Y-111190535D01*
X165448005Y-110961727D01*
X165480000Y-110884485D01*
X165511995Y-110961727D01*
X165664880Y-111190535D01*
X165859465Y-111385120D01*
X166088273Y-111538005D01*
X166342510Y-111643314D01*
X166612408Y-111697000D01*
X166887592Y-111697000D01*
X167157490Y-111643314D01*
X167411727Y-111538005D01*
X167640535Y-111385120D01*
X167760090Y-111265565D01*
X168504040Y-111265565D01*
X168571020Y-111505656D01*
X168820048Y-111622756D01*
X169087135Y-111689023D01*
X169362017Y-111701910D01*
X169634133Y-111660922D01*
X169893023Y-111567636D01*
X170008980Y-111505656D01*
X170075960Y-111265565D01*
X169290000Y-110479605D01*
X168504040Y-111265565D01*
X167760090Y-111265565D01*
X167835120Y-111190535D01*
X167988005Y-110961727D01*
X168017692Y-110890057D01*
X168022364Y-110903023D01*
X168084344Y-111018980D01*
X168324435Y-111085960D01*
X169110395Y-110300000D01*
X169469605Y-110300000D01*
X170255565Y-111085960D01*
X170495656Y-111018980D01*
X170612756Y-110769952D01*
X170679023Y-110502865D01*
X170691910Y-110227983D01*
X170650922Y-109955867D01*
X170557636Y-109696977D01*
X170495656Y-109581020D01*
X170255565Y-109514040D01*
X169469605Y-110300000D01*
X169110395Y-110300000D01*
X168324435Y-109514040D01*
X168084344Y-109581020D01*
X168020515Y-109716760D01*
X167988005Y-109638273D01*
X167835120Y-109409465D01*
X167760090Y-109334435D01*
X168504040Y-109334435D01*
X169290000Y-110120395D01*
X170075960Y-109334435D01*
X170008980Y-109094344D01*
X169759952Y-108977244D01*
X169492865Y-108910977D01*
X169217983Y-108898090D01*
X168945867Y-108939078D01*
X168686977Y-109032364D01*
X168571020Y-109094344D01*
X168504040Y-109334435D01*
X167760090Y-109334435D01*
X167640535Y-109214880D01*
X167411727Y-109061995D01*
X167157490Y-108956686D01*
X166887592Y-108903000D01*
X166612408Y-108903000D01*
X166342510Y-108956686D01*
X166088273Y-109061995D01*
X165859465Y-109214880D01*
X165664880Y-109409465D01*
X165511995Y-109638273D01*
X165480000Y-109715515D01*
X165448005Y-109638273D01*
X165295120Y-109409465D01*
X165100535Y-109214880D01*
X164871727Y-109061995D01*
X164617490Y-108956686D01*
X164347592Y-108903000D01*
X164072408Y-108903000D01*
X163802510Y-108956686D01*
X163548273Y-109061995D01*
X163319465Y-109214880D01*
X163124880Y-109409465D01*
X162971995Y-109638273D01*
X162866686Y-109892510D01*
X162813000Y-110162408D01*
X153260000Y-110162408D01*
X153260000Y-109703711D01*
X153303937Y-109659774D01*
X153417205Y-109490256D01*
X153495226Y-109301898D01*
X153535000Y-109101939D01*
X153535000Y-108898061D01*
X153495226Y-108698102D01*
X153417205Y-108509744D01*
X153303937Y-108340226D01*
X153159774Y-108196063D01*
X152990256Y-108082795D01*
X152801898Y-108004774D01*
X152601939Y-107965000D01*
X152398061Y-107965000D01*
X152198102Y-108004774D01*
X152009744Y-108082795D01*
X151840226Y-108196063D01*
X151696063Y-108340226D01*
X151582795Y-108509744D01*
X151504774Y-108698102D01*
X151465000Y-108898061D01*
X146535000Y-108898061D01*
X146495226Y-108698102D01*
X146417205Y-108509744D01*
X146303937Y-108340226D01*
X146159774Y-108196063D01*
X145990256Y-108082795D01*
X145801898Y-108004774D01*
X145601939Y-107965000D01*
X145398061Y-107965000D01*
X145198102Y-108004774D01*
X145009744Y-108082795D01*
X144840226Y-108196063D01*
X144696063Y-108340226D01*
X144582795Y-108509744D01*
X144504774Y-108698102D01*
X144465000Y-108898061D01*
X139260000Y-108898061D01*
X139260000Y-107703711D01*
X139303937Y-107659774D01*
X139417205Y-107490256D01*
X139495226Y-107301898D01*
X139535000Y-107101939D01*
X139535000Y-106898061D01*
X139495226Y-106698102D01*
X139417205Y-106509744D01*
X139303937Y-106340226D01*
X139159774Y-106196063D01*
X138990256Y-106082795D01*
X138801898Y-106004774D01*
X138601939Y-105965000D01*
X138398061Y-105965000D01*
X138198102Y-106004774D01*
X138009744Y-106082795D01*
X137840226Y-106196063D01*
X137696063Y-106340226D01*
X137582795Y-106509744D01*
X137504774Y-106698102D01*
X137465000Y-106898061D01*
X137465000Y-107101939D01*
X137504774Y-107301898D01*
X137582795Y-107490256D01*
X137696063Y-107659774D01*
X137740000Y-107703711D01*
X137740000Y-109165199D01*
X136285000Y-107710199D01*
X136285000Y-107648061D01*
X136245226Y-107448102D01*
X136167205Y-107259744D01*
X136053937Y-107090226D01*
X135909774Y-106946063D01*
X135740256Y-106832795D01*
X135551898Y-106754774D01*
X135351939Y-106715000D01*
X135148061Y-106715000D01*
X134948102Y-106754774D01*
X134759744Y-106832795D01*
X134590226Y-106946063D01*
X134446063Y-107090226D01*
X134332795Y-107259744D01*
X134254774Y-107448102D01*
X134215000Y-107648061D01*
X134215000Y-107851939D01*
X134254774Y-108051898D01*
X134332795Y-108240256D01*
X134446063Y-108409774D01*
X134590226Y-108553937D01*
X134759744Y-108667205D01*
X134948102Y-108745226D01*
X135148061Y-108785000D01*
X135210199Y-108785000D01*
X137240001Y-110814803D01*
X137240000Y-112185198D01*
X136710199Y-112715000D01*
X136648061Y-112715000D01*
X136448102Y-112754774D01*
X136259744Y-112832795D01*
X136090226Y-112946063D01*
X136046289Y-112990000D01*
X132564802Y-112990000D01*
X132010000Y-112435199D01*
X132010000Y-111037325D01*
X132013676Y-111000000D01*
X132010000Y-110962675D01*
X132010000Y-110962667D01*
X131999003Y-110851014D01*
X131955546Y-110707753D01*
X131884974Y-110575724D01*
X131790001Y-110459999D01*
X131760998Y-110436197D01*
X131313804Y-109989003D01*
X131290001Y-109959999D01*
X131174276Y-109865026D01*
X131042247Y-109794454D01*
X130898986Y-109750997D01*
X130787333Y-109740000D01*
X130787322Y-109740000D01*
X130750000Y-109736324D01*
X130712678Y-109740000D01*
X127314802Y-109740000D01*
X125451801Y-107877000D01*
X132250000Y-107877000D01*
X132274776Y-107874560D01*
X132298601Y-107867333D01*
X132320557Y-107855597D01*
X132339803Y-107839803D01*
X132355597Y-107820557D01*
X132367333Y-107798601D01*
X132374560Y-107774776D01*
X132377000Y-107750000D01*
X132377000Y-104877000D01*
X165363163Y-104877000D01*
X165221995Y-105088273D01*
X165116686Y-105342510D01*
X165063000Y-105612408D01*
X165063000Y-105887592D01*
X165116686Y-106157490D01*
X165221995Y-106411727D01*
X165374880Y-106640535D01*
X165569465Y-106835120D01*
X165798273Y-106988005D01*
X166052510Y-107093314D01*
X166322408Y-107147000D01*
X166597592Y-107147000D01*
X166867490Y-107093314D01*
X167121727Y-106988005D01*
X167350535Y-106835120D01*
X167545120Y-106640535D01*
X167698005Y-106411727D01*
X167803314Y-106157490D01*
X167857000Y-105887592D01*
X167857000Y-105612408D01*
X167803314Y-105342510D01*
X167698005Y-105088273D01*
X167556837Y-104877000D01*
X169873000Y-104877000D01*
X169873000Y-107250000D01*
X169875440Y-107274776D01*
X169882667Y-107298601D01*
X169894403Y-107320557D01*
X169910197Y-107339803D01*
X169929443Y-107355597D01*
X169951399Y-107367333D01*
X169975224Y-107374560D01*
X170000000Y-107377000D01*
X173000000Y-107377000D01*
X173024776Y-107374560D01*
X173048601Y-107367333D01*
X173070557Y-107355597D01*
X173089803Y-107339803D01*
X173105597Y-107320557D01*
X173117333Y-107298601D01*
X173124560Y-107274776D01*
X173127000Y-107250000D01*
X173127000Y-102286050D01*
X173911928Y-101501123D01*
X173911928Y-103000000D01*
X173924188Y-103124482D01*
X173960498Y-103244180D01*
X174019463Y-103354494D01*
X174098815Y-103451185D01*
X174195506Y-103530537D01*
X174305820Y-103589502D01*
X174425518Y-103625812D01*
X174550000Y-103638072D01*
X176250000Y-103638072D01*
X176374482Y-103625812D01*
X176494180Y-103589502D01*
X176604494Y-103530537D01*
X176701185Y-103451185D01*
X176780537Y-103354494D01*
X176839502Y-103244180D01*
X176875812Y-103124482D01*
X176888072Y-103000000D01*
X176888072Y-102910000D01*
X178062678Y-102910000D01*
X178100000Y-102913676D01*
X178137322Y-102910000D01*
X178137333Y-102910000D01*
X178248986Y-102899003D01*
X178392247Y-102855546D01*
X178524276Y-102784974D01*
X178640001Y-102690001D01*
X178663804Y-102660997D01*
X181090000Y-100234802D01*
X181090000Y-107467721D01*
G36*
X178740001Y-55314803D02*
G01*
X178740000Y-57537332D01*
X178740001Y-57537342D01*
X178740000Y-58742462D01*
X178601939Y-58715000D01*
X178398061Y-58715000D01*
X178198102Y-58754774D01*
X178009744Y-58832795D01*
X177840226Y-58946063D01*
X177696063Y-59090226D01*
X177582795Y-59259744D01*
X177504774Y-59448102D01*
X177465000Y-59648061D01*
X177465000Y-59851939D01*
X177504774Y-60051898D01*
X177582795Y-60240256D01*
X177696063Y-60409774D01*
X177840226Y-60553937D01*
X178009744Y-60667205D01*
X178198102Y-60745226D01*
X178240000Y-60753560D01*
X178240001Y-81185197D01*
X177435199Y-81990000D01*
X174164802Y-81990000D01*
X174138072Y-81963270D01*
X174138072Y-80700000D01*
X174125812Y-80575518D01*
X174089502Y-80455820D01*
X174030537Y-80345506D01*
X173951185Y-80248815D01*
X173854494Y-80169463D01*
X173744180Y-80110498D01*
X173624482Y-80074188D01*
X173500000Y-80061928D01*
X171800000Y-80061928D01*
X171675518Y-80074188D01*
X171555820Y-80110498D01*
X171445506Y-80169463D01*
X171348815Y-80248815D01*
X171269463Y-80345506D01*
X171210498Y-80455820D01*
X171174188Y-80575518D01*
X171161928Y-80700000D01*
X171161928Y-82400000D01*
X171174188Y-82524482D01*
X171210498Y-82644180D01*
X171269463Y-82754494D01*
X171348815Y-82851185D01*
X171445506Y-82930537D01*
X171555820Y-82989502D01*
X171636466Y-83013966D01*
X171552412Y-83089731D01*
X171378359Y-83323080D01*
X171253175Y-83585901D01*
X171208524Y-83733110D01*
X171329845Y-83963000D01*
X172523000Y-83963000D01*
X172523000Y-83943000D01*
X172777000Y-83943000D01*
X172777000Y-83963000D01*
X173970155Y-83963000D01*
X174091476Y-83733110D01*
X174046825Y-83585901D01*
X174010673Y-83510000D01*
X177712678Y-83510000D01*
X177750000Y-83513676D01*
X177787322Y-83510000D01*
X177787333Y-83510000D01*
X177898986Y-83499003D01*
X178042247Y-83455546D01*
X178174276Y-83384974D01*
X178290001Y-83290001D01*
X178313804Y-83260997D01*
X178740001Y-82834801D01*
X178740000Y-87962667D01*
X178740000Y-87962668D01*
X178740001Y-89685197D01*
X177725000Y-90700198D01*
X176841209Y-89816408D01*
X176885000Y-89596260D01*
X176885000Y-89303740D01*
X176827932Y-89016842D01*
X176715990Y-88746589D01*
X176553475Y-88503368D01*
X176346632Y-88296525D01*
X176103411Y-88134010D01*
X175833158Y-88022068D01*
X175546260Y-87965000D01*
X175253740Y-87965000D01*
X174966842Y-88022068D01*
X174696589Y-88134010D01*
X174453368Y-88296525D01*
X174246525Y-88503368D01*
X174084010Y-88746589D01*
X173972068Y-89016842D01*
X173915000Y-89303740D01*
X173915000Y-89596260D01*
X173972068Y-89883158D01*
X174084010Y-90153411D01*
X174246525Y-90396632D01*
X174453368Y-90603475D01*
X174627760Y-90720000D01*
X174453368Y-90836525D01*
X174246525Y-91043368D01*
X174084010Y-91286589D01*
X173972068Y-91556842D01*
X173915000Y-91843740D01*
X173915000Y-92136260D01*
X173972068Y-92423158D01*
X174084010Y-92693411D01*
X174246525Y-92936632D01*
X174453368Y-93143475D01*
X174627760Y-93260000D01*
X174453368Y-93376525D01*
X174246525Y-93583368D01*
X174084010Y-93826589D01*
X173972068Y-94096842D01*
X173915000Y-94383740D01*
X173915000Y-94676260D01*
X173972068Y-94963158D01*
X174084010Y-95233411D01*
X174246525Y-95476632D01*
X174453368Y-95683475D01*
X174635534Y-95805195D01*
X174518645Y-95874822D01*
X174302412Y-96069731D01*
X174128359Y-96303080D01*
X174003175Y-96565901D01*
X173958524Y-96713110D01*
X174079845Y-96943000D01*
X175273000Y-96943000D01*
X175273000Y-96923000D01*
X175527000Y-96923000D01*
X175527000Y-96943000D01*
X176720155Y-96943000D01*
X176841476Y-96713110D01*
X176796825Y-96565901D01*
X176671641Y-96303080D01*
X176497588Y-96069731D01*
X176281355Y-95874822D01*
X176164466Y-95805195D01*
X176346632Y-95683475D01*
X176553475Y-95476632D01*
X176715990Y-95233411D01*
X176827932Y-94963158D01*
X176885000Y-94676260D01*
X176885000Y-94383740D01*
X176841209Y-94163592D01*
X177744802Y-93260000D01*
X178462678Y-93260000D01*
X178500000Y-93263676D01*
X178537322Y-93260000D01*
X178537333Y-93260000D01*
X178648986Y-93249003D01*
X178792247Y-93205546D01*
X178924276Y-93134974D01*
X179040001Y-93040001D01*
X179063803Y-93010998D01*
X179313799Y-92761003D01*
X179313803Y-92760998D01*
X180240000Y-91834801D01*
X180240000Y-98935198D01*
X177785199Y-101390000D01*
X176888072Y-101390000D01*
X176888072Y-101300000D01*
X176875812Y-101175518D01*
X176839502Y-101055820D01*
X176780537Y-100945506D01*
X176701185Y-100848815D01*
X176604494Y-100769463D01*
X176494180Y-100710498D01*
X176421620Y-100688487D01*
X176553475Y-100556632D01*
X176715990Y-100313411D01*
X176827932Y-100043158D01*
X176885000Y-99756260D01*
X176885000Y-99463740D01*
X176827932Y-99176842D01*
X176715990Y-98906589D01*
X176553475Y-98663368D01*
X176346632Y-98456525D01*
X176164466Y-98334805D01*
X176281355Y-98265178D01*
X176497588Y-98070269D01*
X176671641Y-97836920D01*
X176796825Y-97574099D01*
X176841476Y-97426890D01*
X176720155Y-97197000D01*
X175527000Y-97197000D01*
X175527000Y-97217000D01*
X175273000Y-97217000D01*
X175273000Y-97197000D01*
X174079845Y-97197000D01*
X173958524Y-97426890D01*
X174003175Y-97574099D01*
X174128359Y-97836920D01*
X174302412Y-98070269D01*
X174518645Y-98265178D01*
X174635534Y-98334805D01*
X174453368Y-98456525D01*
X174434893Y-98475000D01*
X174253670Y-98475000D01*
X174197918Y-98469509D01*
X174142167Y-98475000D01*
X173975420Y-98491423D01*
X173761472Y-98556324D01*
X173564296Y-98661716D01*
X173391470Y-98803551D01*
X173355928Y-98846859D01*
X170776865Y-101425923D01*
X170733551Y-101461470D01*
X170600986Y-101623000D01*
X129510000Y-101623000D01*
X129510000Y-101287325D01*
X129513676Y-101250000D01*
X129510000Y-101212675D01*
X129510000Y-101212667D01*
X129499003Y-101101014D01*
X129455546Y-100957753D01*
X129384974Y-100825724D01*
X129290001Y-100709999D01*
X129285000Y-100705895D01*
X129285000Y-100648061D01*
X129245226Y-100448102D01*
X129167205Y-100259744D01*
X129053937Y-100090226D01*
X128909774Y-99946063D01*
X128740256Y-99832795D01*
X128551898Y-99754774D01*
X128351939Y-99715000D01*
X128148061Y-99715000D01*
X127948102Y-99754774D01*
X127759744Y-99832795D01*
X127590226Y-99946063D01*
X127446063Y-100090226D01*
X127332795Y-100259744D01*
X127254774Y-100448102D01*
X127215000Y-100648061D01*
X127215000Y-100851939D01*
X127254774Y-101051898D01*
X127332795Y-101240256D01*
X127446063Y-101409774D01*
X127590226Y-101553937D01*
X127759744Y-101667205D01*
X127948102Y-101745226D01*
X127990000Y-101753560D01*
X127990001Y-102935197D01*
X127435199Y-103490000D01*
X123787325Y-103490000D01*
X123750000Y-103486324D01*
X123712675Y-103490000D01*
X123712667Y-103490000D01*
X123601014Y-103500997D01*
X123457753Y-103544454D01*
X123325724Y-103615026D01*
X123260000Y-103668964D01*
X123260000Y-92627000D01*
X130862721Y-92627000D01*
X130732148Y-92871285D01*
X130638657Y-93179484D01*
X130607089Y-93500000D01*
X130638657Y-93820516D01*
X130732148Y-94128715D01*
X130883969Y-94412752D01*
X131088286Y-94661714D01*
X131337248Y-94866031D01*
X131621285Y-95017852D01*
X131929484Y-95111343D01*
X132169678Y-95135000D01*
X149072762Y-95135000D01*
X153787080Y-99849319D01*
X153838286Y-99911714D01*
X154087248Y-100116031D01*
X154371285Y-100267852D01*
X154679484Y-100361343D01*
X154919678Y-100385000D01*
X154919680Y-100385000D01*
X154999999Y-100392911D01*
X155080319Y-100385000D01*
X160169681Y-100385000D01*
X160250000Y-100392911D01*
X160330319Y-100385000D01*
X160330322Y-100385000D01*
X160570516Y-100361343D01*
X160878715Y-100267852D01*
X161162752Y-100116031D01*
X161411714Y-99911714D01*
X161462924Y-99849314D01*
X162349319Y-98962920D01*
X162411714Y-98911714D01*
X162616031Y-98662752D01*
X162767852Y-98378715D01*
X162827504Y-98182068D01*
X162861343Y-98070517D01*
X162892912Y-97750000D01*
X162885000Y-97669670D01*
X162885000Y-92148061D01*
X162965000Y-92148061D01*
X162965000Y-92351939D01*
X163004774Y-92551898D01*
X163082795Y-92740256D01*
X163196063Y-92909774D01*
X163340226Y-93053937D01*
X163509744Y-93167205D01*
X163698102Y-93245226D01*
X163898061Y-93285000D01*
X164101939Y-93285000D01*
X164215000Y-93262511D01*
X164215000Y-93351939D01*
X164254774Y-93551898D01*
X164332795Y-93740256D01*
X164446063Y-93909774D01*
X164590226Y-94053937D01*
X164759744Y-94167205D01*
X164948102Y-94245226D01*
X165148061Y-94285000D01*
X165351939Y-94285000D01*
X165551898Y-94245226D01*
X165740256Y-94167205D01*
X165909774Y-94053937D01*
X166053937Y-93909774D01*
X166167205Y-93740256D01*
X166245226Y-93551898D01*
X166285000Y-93351939D01*
X166285000Y-93148061D01*
X166245226Y-92948102D01*
X166167205Y-92759744D01*
X166053937Y-92590226D01*
X166010000Y-92546289D01*
X166010000Y-92453711D01*
X166053937Y-92409774D01*
X166167205Y-92240256D01*
X166245226Y-92051898D01*
X166285000Y-91851939D01*
X166285000Y-91648061D01*
X166245226Y-91448102D01*
X166167205Y-91259744D01*
X166077172Y-91125000D01*
X166167205Y-90990256D01*
X166245226Y-90801898D01*
X166285000Y-90601939D01*
X166285000Y-90398061D01*
X166245226Y-90198102D01*
X166167205Y-90009744D01*
X166053937Y-89840226D01*
X165909774Y-89696063D01*
X165740256Y-89582795D01*
X165551898Y-89504774D01*
X165351939Y-89465000D01*
X165148061Y-89465000D01*
X164948102Y-89504774D01*
X164759744Y-89582795D01*
X164590226Y-89696063D01*
X164446063Y-89840226D01*
X164332795Y-90009744D01*
X164254774Y-90198102D01*
X164215000Y-90398061D01*
X164215000Y-90460198D01*
X163489003Y-91186196D01*
X163459999Y-91209999D01*
X163415947Y-91263677D01*
X163365026Y-91325724D01*
X163351508Y-91351015D01*
X163294454Y-91457754D01*
X163279614Y-91506675D01*
X163196063Y-91590226D01*
X163082795Y-91759744D01*
X163004774Y-91948102D01*
X162965000Y-92148061D01*
X162885000Y-92148061D01*
X162885000Y-90677238D01*
X165177239Y-88385000D01*
X167919681Y-88385000D01*
X168000000Y-88392911D01*
X168080319Y-88385000D01*
X168080322Y-88385000D01*
X168320516Y-88361343D01*
X168628715Y-88267852D01*
X168912752Y-88116031D01*
X169161714Y-87911714D01*
X169212925Y-87849314D01*
X170578499Y-86483740D01*
X171165000Y-86483740D01*
X171165000Y-86776260D01*
X171222068Y-87063158D01*
X171334010Y-87333411D01*
X171496525Y-87576632D01*
X171703368Y-87783475D01*
X171946589Y-87945990D01*
X172216842Y-88057932D01*
X172503740Y-88115000D01*
X172796260Y-88115000D01*
X173083158Y-88057932D01*
X173353411Y-87945990D01*
X173596632Y-87783475D01*
X173803475Y-87576632D01*
X173965990Y-87333411D01*
X174077932Y-87063158D01*
X174135000Y-86776260D01*
X174135000Y-86483740D01*
X174077932Y-86196842D01*
X173965990Y-85926589D01*
X173803475Y-85683368D01*
X173596632Y-85476525D01*
X173414466Y-85354805D01*
X173531355Y-85285178D01*
X173747588Y-85090269D01*
X173921641Y-84856920D01*
X174046825Y-84594099D01*
X174091476Y-84446890D01*
X173970155Y-84217000D01*
X172777000Y-84217000D01*
X172777000Y-84237000D01*
X172523000Y-84237000D01*
X172523000Y-84217000D01*
X171329845Y-84217000D01*
X171208524Y-84446890D01*
X171253175Y-84594099D01*
X171378359Y-84856920D01*
X171552412Y-85090269D01*
X171768645Y-85285178D01*
X171885534Y-85354805D01*
X171703368Y-85476525D01*
X171496525Y-85683368D01*
X171334010Y-85926589D01*
X171222068Y-86196842D01*
X171165000Y-86483740D01*
X170578499Y-86483740D01*
X170712915Y-86349324D01*
X170866030Y-86162753D01*
X171017851Y-85878716D01*
X171111342Y-85570517D01*
X171142911Y-85250001D01*
X171111342Y-84929484D01*
X171017851Y-84621286D01*
X170866030Y-84337248D01*
X170661713Y-84088287D01*
X170412752Y-83883970D01*
X170128714Y-83732149D01*
X169820516Y-83638658D01*
X169698192Y-83626610D01*
X170511003Y-82813799D01*
X170540001Y-82790001D01*
X170634974Y-82674276D01*
X170705546Y-82542247D01*
X170749003Y-82398986D01*
X170760000Y-82287333D01*
X170760000Y-82287325D01*
X170763676Y-82250000D01*
X170760000Y-82212675D01*
X170760000Y-72177952D01*
X170966589Y-72315990D01*
X171236842Y-72427932D01*
X171523740Y-72485000D01*
X171816260Y-72485000D01*
X172103158Y-72427932D01*
X172373411Y-72315990D01*
X172616632Y-72153475D01*
X172823475Y-71946632D01*
X172845151Y-71914191D01*
X173048287Y-72161714D01*
X173297249Y-72366031D01*
X173581286Y-72517852D01*
X173889485Y-72611343D01*
X174210000Y-72642911D01*
X174530516Y-72611343D01*
X174838715Y-72517852D01*
X175122752Y-72366031D01*
X175371714Y-72161714D01*
X175576031Y-71912752D01*
X175727852Y-71628715D01*
X175821343Y-71320516D01*
X175845000Y-71080322D01*
X175845000Y-68379678D01*
X175821343Y-68139484D01*
X175727852Y-67831285D01*
X175576031Y-67547248D01*
X175371714Y-67298286D01*
X175122751Y-67093969D01*
X174838714Y-66942148D01*
X174530515Y-66848657D01*
X174210000Y-66817089D01*
X173889484Y-66848657D01*
X173581285Y-66942148D01*
X173297248Y-67093969D01*
X173048286Y-67298286D01*
X172845151Y-67545809D01*
X172823475Y-67513368D01*
X172616632Y-67306525D01*
X172373411Y-67144010D01*
X172103158Y-67032068D01*
X171816260Y-66975000D01*
X171523740Y-66975000D01*
X171236842Y-67032068D01*
X170966589Y-67144010D01*
X170760000Y-67282048D01*
X170760000Y-60757538D01*
X170898061Y-60785000D01*
X171101939Y-60785000D01*
X171301898Y-60745226D01*
X171490256Y-60667205D01*
X171659774Y-60553937D01*
X171803937Y-60409774D01*
X171917205Y-60240256D01*
X171995226Y-60051898D01*
X172035000Y-59851939D01*
X172035000Y-59648061D01*
X171995226Y-59448102D01*
X171917205Y-59259744D01*
X171803937Y-59090226D01*
X171659774Y-58946063D01*
X171490256Y-58832795D01*
X171301898Y-58754774D01*
X171101939Y-58715000D01*
X170898061Y-58715000D01*
X170698102Y-58754774D01*
X170614291Y-58789490D01*
X169113794Y-57288993D01*
X169089991Y-57259989D01*
X168974266Y-57165016D01*
X168842237Y-57094444D01*
X168698976Y-57050987D01*
X168587323Y-57039990D01*
X168587312Y-57039990D01*
X168549990Y-57036314D01*
X168512668Y-57039990D01*
X156364792Y-57039990D01*
X156285000Y-56960198D01*
X156285000Y-56898061D01*
X156245226Y-56698102D01*
X156167205Y-56509744D01*
X156053937Y-56340226D01*
X155909774Y-56196063D01*
X155740256Y-56082795D01*
X155551898Y-56004774D01*
X155351939Y-55965000D01*
X155148061Y-55965000D01*
X154948102Y-56004774D01*
X154759744Y-56082795D01*
X154590226Y-56196063D01*
X154446063Y-56340226D01*
X154332795Y-56509744D01*
X154254774Y-56698102D01*
X154215000Y-56898061D01*
X154215000Y-57101939D01*
X154254774Y-57301898D01*
X154332689Y-57490000D01*
X150201213Y-57490000D01*
X149510000Y-56798789D01*
X149510000Y-56703711D01*
X149553937Y-56659774D01*
X149667205Y-56490256D01*
X149745226Y-56301898D01*
X149785000Y-56101939D01*
X149785000Y-55898061D01*
X149745226Y-55698102D01*
X149667205Y-55509744D01*
X149553937Y-55340226D01*
X149409774Y-55196063D01*
X149391170Y-55183632D01*
X150261004Y-54313798D01*
X150290001Y-54290001D01*
X150384974Y-54174276D01*
X150455546Y-54042247D01*
X150499003Y-53898986D01*
X150510000Y-53787333D01*
X150510000Y-53787323D01*
X150513676Y-53750000D01*
X150510000Y-53712677D01*
X150510000Y-53667311D01*
X150698102Y-53745226D01*
X150898061Y-53785000D01*
X150960199Y-53785000D01*
X151686201Y-54511003D01*
X151709999Y-54540001D01*
X151738997Y-54563799D01*
X151825723Y-54634974D01*
X151957753Y-54705546D01*
X152101014Y-54749003D01*
X152212667Y-54760000D01*
X152212677Y-54760000D01*
X152250000Y-54763676D01*
X152287323Y-54760000D01*
X154046289Y-54760000D01*
X154090226Y-54803937D01*
X154259744Y-54917205D01*
X154448102Y-54995226D01*
X154648061Y-55035000D01*
X154851939Y-55035000D01*
X155051898Y-54995226D01*
X155240256Y-54917205D01*
X155409774Y-54803937D01*
X155553937Y-54659774D01*
X155667205Y-54490256D01*
X155745226Y-54301898D01*
X155785000Y-54101939D01*
X155785000Y-53898061D01*
X155745226Y-53698102D01*
X155667205Y-53509744D01*
X155553937Y-53340226D01*
X155409774Y-53196063D01*
X155240256Y-53082795D01*
X155051898Y-53004774D01*
X154851939Y-52965000D01*
X154648061Y-52965000D01*
X154448102Y-53004774D01*
X154259744Y-53082795D01*
X154090226Y-53196063D01*
X154046289Y-53240000D01*
X152564802Y-53240000D01*
X152035000Y-52710199D01*
X152035000Y-52648061D01*
X152007538Y-52510000D01*
X175935199Y-52510000D01*
X178740001Y-55314803D01*
G37*
X178740001Y-55314803D02*
X178740000Y-57537332D01*
X178740001Y-57537342D01*
X178740000Y-58742462D01*
X178601939Y-58715000D01*
X178398061Y-58715000D01*
X178198102Y-58754774D01*
X178009744Y-58832795D01*
X177840226Y-58946063D01*
X177696063Y-59090226D01*
X177582795Y-59259744D01*
X177504774Y-59448102D01*
X177465000Y-59648061D01*
X177465000Y-59851939D01*
X177504774Y-60051898D01*
X177582795Y-60240256D01*
X177696063Y-60409774D01*
X177840226Y-60553937D01*
X178009744Y-60667205D01*
X178198102Y-60745226D01*
X178240000Y-60753560D01*
X178240001Y-81185197D01*
X177435199Y-81990000D01*
X174164802Y-81990000D01*
X174138072Y-81963270D01*
X174138072Y-80700000D01*
X174125812Y-80575518D01*
X174089502Y-80455820D01*
X174030537Y-80345506D01*
X173951185Y-80248815D01*
X173854494Y-80169463D01*
X173744180Y-80110498D01*
X173624482Y-80074188D01*
X173500000Y-80061928D01*
X171800000Y-80061928D01*
X171675518Y-80074188D01*
X171555820Y-80110498D01*
X171445506Y-80169463D01*
X171348815Y-80248815D01*
X171269463Y-80345506D01*
X171210498Y-80455820D01*
X171174188Y-80575518D01*
X171161928Y-80700000D01*
X171161928Y-82400000D01*
X171174188Y-82524482D01*
X171210498Y-82644180D01*
X171269463Y-82754494D01*
X171348815Y-82851185D01*
X171445506Y-82930537D01*
X171555820Y-82989502D01*
X171636466Y-83013966D01*
X171552412Y-83089731D01*
X171378359Y-83323080D01*
X171253175Y-83585901D01*
X171208524Y-83733110D01*
X171329845Y-83963000D01*
X172523000Y-83963000D01*
X172523000Y-83943000D01*
X172777000Y-83943000D01*
X172777000Y-83963000D01*
X173970155Y-83963000D01*
X174091476Y-83733110D01*
X174046825Y-83585901D01*
X174010673Y-83510000D01*
X177712678Y-83510000D01*
X177750000Y-83513676D01*
X177787322Y-83510000D01*
X177787333Y-83510000D01*
X177898986Y-83499003D01*
X178042247Y-83455546D01*
X178174276Y-83384974D01*
X178290001Y-83290001D01*
X178313804Y-83260997D01*
X178740001Y-82834801D01*
X178740000Y-87962667D01*
X178740000Y-87962668D01*
X178740001Y-89685197D01*
X177725000Y-90700198D01*
X176841209Y-89816408D01*
X176885000Y-89596260D01*
X176885000Y-89303740D01*
X176827932Y-89016842D01*
X176715990Y-88746589D01*
X176553475Y-88503368D01*
X176346632Y-88296525D01*
X176103411Y-88134010D01*
X175833158Y-88022068D01*
X175546260Y-87965000D01*
X175253740Y-87965000D01*
X174966842Y-88022068D01*
X174696589Y-88134010D01*
X174453368Y-88296525D01*
X174246525Y-88503368D01*
X174084010Y-88746589D01*
X173972068Y-89016842D01*
X173915000Y-89303740D01*
X173915000Y-89596260D01*
X173972068Y-89883158D01*
X174084010Y-90153411D01*
X174246525Y-90396632D01*
X174453368Y-90603475D01*
X174627760Y-90720000D01*
X174453368Y-90836525D01*
X174246525Y-91043368D01*
X174084010Y-91286589D01*
X173972068Y-91556842D01*
X173915000Y-91843740D01*
X173915000Y-92136260D01*
X173972068Y-92423158D01*
X174084010Y-92693411D01*
X174246525Y-92936632D01*
X174453368Y-93143475D01*
X174627760Y-93260000D01*
X174453368Y-93376525D01*
X174246525Y-93583368D01*
X174084010Y-93826589D01*
X173972068Y-94096842D01*
X173915000Y-94383740D01*
X173915000Y-94676260D01*
X173972068Y-94963158D01*
X174084010Y-95233411D01*
X174246525Y-95476632D01*
X174453368Y-95683475D01*
X174635534Y-95805195D01*
X174518645Y-95874822D01*
X174302412Y-96069731D01*
X174128359Y-96303080D01*
X174003175Y-96565901D01*
X173958524Y-96713110D01*
X174079845Y-96943000D01*
X175273000Y-96943000D01*
X175273000Y-96923000D01*
X175527000Y-96923000D01*
X175527000Y-96943000D01*
X176720155Y-96943000D01*
X176841476Y-96713110D01*
X176796825Y-96565901D01*
X176671641Y-96303080D01*
X176497588Y-96069731D01*
X176281355Y-95874822D01*
X176164466Y-95805195D01*
X176346632Y-95683475D01*
X176553475Y-95476632D01*
X176715990Y-95233411D01*
X176827932Y-94963158D01*
X176885000Y-94676260D01*
X176885000Y-94383740D01*
X176841209Y-94163592D01*
X177744802Y-93260000D01*
X178462678Y-93260000D01*
X178500000Y-93263676D01*
X178537322Y-93260000D01*
X178537333Y-93260000D01*
X178648986Y-93249003D01*
X178792247Y-93205546D01*
X178924276Y-93134974D01*
X179040001Y-93040001D01*
X179063803Y-93010998D01*
X179313799Y-92761003D01*
X179313803Y-92760998D01*
X180240000Y-91834801D01*
X180240000Y-98935198D01*
X177785199Y-101390000D01*
X176888072Y-101390000D01*
X176888072Y-101300000D01*
X176875812Y-101175518D01*
X176839502Y-101055820D01*
X176780537Y-100945506D01*
X176701185Y-100848815D01*
X176604494Y-100769463D01*
X176494180Y-100710498D01*
X176421620Y-100688487D01*
X176553475Y-100556632D01*
X176715990Y-100313411D01*
X176827932Y-100043158D01*
X176885000Y-99756260D01*
X176885000Y-99463740D01*
X176827932Y-99176842D01*
X176715990Y-98906589D01*
X176553475Y-98663368D01*
X176346632Y-98456525D01*
X176164466Y-98334805D01*
X176281355Y-98265178D01*
X176497588Y-98070269D01*
X176671641Y-97836920D01*
X176796825Y-97574099D01*
X176841476Y-97426890D01*
X176720155Y-97197000D01*
X175527000Y-97197000D01*
X175527000Y-97217000D01*
X175273000Y-97217000D01*
X175273000Y-97197000D01*
X174079845Y-97197000D01*
X173958524Y-97426890D01*
X174003175Y-97574099D01*
X174128359Y-97836920D01*
X174302412Y-98070269D01*
X174518645Y-98265178D01*
X174635534Y-98334805D01*
X174453368Y-98456525D01*
X174434893Y-98475000D01*
X174253670Y-98475000D01*
X174197918Y-98469509D01*
X174142167Y-98475000D01*
X173975420Y-98491423D01*
X173761472Y-98556324D01*
X173564296Y-98661716D01*
X173391470Y-98803551D01*
X173355928Y-98846859D01*
X170776865Y-101425923D01*
X170733551Y-101461470D01*
X170600986Y-101623000D01*
X129510000Y-101623000D01*
X129510000Y-101287325D01*
X129513676Y-101250000D01*
X129510000Y-101212675D01*
X129510000Y-101212667D01*
X129499003Y-101101014D01*
X129455546Y-100957753D01*
X129384974Y-100825724D01*
X129290001Y-100709999D01*
X129285000Y-100705895D01*
X129285000Y-100648061D01*
X129245226Y-100448102D01*
X129167205Y-100259744D01*
X129053937Y-100090226D01*
X128909774Y-99946063D01*
X128740256Y-99832795D01*
X128551898Y-99754774D01*
X128351939Y-99715000D01*
X128148061Y-99715000D01*
X127948102Y-99754774D01*
X127759744Y-99832795D01*
X127590226Y-99946063D01*
X127446063Y-100090226D01*
X127332795Y-100259744D01*
X127254774Y-100448102D01*
X127215000Y-100648061D01*
X127215000Y-100851939D01*
X127254774Y-101051898D01*
X127332795Y-101240256D01*
X127446063Y-101409774D01*
X127590226Y-101553937D01*
X127759744Y-101667205D01*
X127948102Y-101745226D01*
X127990000Y-101753560D01*
X127990001Y-102935197D01*
X127435199Y-103490000D01*
X123787325Y-103490000D01*
X123750000Y-103486324D01*
X123712675Y-103490000D01*
X123712667Y-103490000D01*
X123601014Y-103500997D01*
X123457753Y-103544454D01*
X123325724Y-103615026D01*
X123260000Y-103668964D01*
X123260000Y-92627000D01*
X130862721Y-92627000D01*
X130732148Y-92871285D01*
X130638657Y-93179484D01*
X130607089Y-93500000D01*
X130638657Y-93820516D01*
X130732148Y-94128715D01*
X130883969Y-94412752D01*
X131088286Y-94661714D01*
X131337248Y-94866031D01*
X131621285Y-95017852D01*
X131929484Y-95111343D01*
X132169678Y-95135000D01*
X149072762Y-95135000D01*
X153787080Y-99849319D01*
X153838286Y-99911714D01*
X154087248Y-100116031D01*
X154371285Y-100267852D01*
X154679484Y-100361343D01*
X154919678Y-100385000D01*
X154919680Y-100385000D01*
X154999999Y-100392911D01*
X155080319Y-100385000D01*
X160169681Y-100385000D01*
X160250000Y-100392911D01*
X160330319Y-100385000D01*
X160330322Y-100385000D01*
X160570516Y-100361343D01*
X160878715Y-100267852D01*
X161162752Y-100116031D01*
X161411714Y-99911714D01*
X161462924Y-99849314D01*
X162349319Y-98962920D01*
X162411714Y-98911714D01*
X162616031Y-98662752D01*
X162767852Y-98378715D01*
X162827504Y-98182068D01*
X162861343Y-98070517D01*
X162892912Y-97750000D01*
X162885000Y-97669670D01*
X162885000Y-92148061D01*
X162965000Y-92148061D01*
X162965000Y-92351939D01*
X163004774Y-92551898D01*
X163082795Y-92740256D01*
X163196063Y-92909774D01*
X163340226Y-93053937D01*
X163509744Y-93167205D01*
X163698102Y-93245226D01*
X163898061Y-93285000D01*
X164101939Y-93285000D01*
X164215000Y-93262511D01*
X164215000Y-93351939D01*
X164254774Y-93551898D01*
X164332795Y-93740256D01*
X164446063Y-93909774D01*
X164590226Y-94053937D01*
X164759744Y-94167205D01*
X164948102Y-94245226D01*
X165148061Y-94285000D01*
X165351939Y-94285000D01*
X165551898Y-94245226D01*
X165740256Y-94167205D01*
X165909774Y-94053937D01*
X166053937Y-93909774D01*
X166167205Y-93740256D01*
X166245226Y-93551898D01*
X166285000Y-93351939D01*
X166285000Y-93148061D01*
X166245226Y-92948102D01*
X166167205Y-92759744D01*
X166053937Y-92590226D01*
X166010000Y-92546289D01*
X166010000Y-92453711D01*
X166053937Y-92409774D01*
X166167205Y-92240256D01*
X166245226Y-92051898D01*
X166285000Y-91851939D01*
X166285000Y-91648061D01*
X166245226Y-91448102D01*
X166167205Y-91259744D01*
X166077172Y-91125000D01*
X166167205Y-90990256D01*
X166245226Y-90801898D01*
X166285000Y-90601939D01*
X166285000Y-90398061D01*
X166245226Y-90198102D01*
X166167205Y-90009744D01*
X166053937Y-89840226D01*
X165909774Y-89696063D01*
X165740256Y-89582795D01*
X165551898Y-89504774D01*
X165351939Y-89465000D01*
X165148061Y-89465000D01*
X164948102Y-89504774D01*
X164759744Y-89582795D01*
X164590226Y-89696063D01*
X164446063Y-89840226D01*
X164332795Y-90009744D01*
X164254774Y-90198102D01*
X164215000Y-90398061D01*
X164215000Y-90460198D01*
X163489003Y-91186196D01*
X163459999Y-91209999D01*
X163415947Y-91263677D01*
X163365026Y-91325724D01*
X163351508Y-91351015D01*
X163294454Y-91457754D01*
X163279614Y-91506675D01*
X163196063Y-91590226D01*
X163082795Y-91759744D01*
X163004774Y-91948102D01*
X162965000Y-92148061D01*
X162885000Y-92148061D01*
X162885000Y-90677238D01*
X165177239Y-88385000D01*
X167919681Y-88385000D01*
X168000000Y-88392911D01*
X168080319Y-88385000D01*
X168080322Y-88385000D01*
X168320516Y-88361343D01*
X168628715Y-88267852D01*
X168912752Y-88116031D01*
X169161714Y-87911714D01*
X169212925Y-87849314D01*
X170578499Y-86483740D01*
X171165000Y-86483740D01*
X171165000Y-86776260D01*
X171222068Y-87063158D01*
X171334010Y-87333411D01*
X171496525Y-87576632D01*
X171703368Y-87783475D01*
X171946589Y-87945990D01*
X172216842Y-88057932D01*
X172503740Y-88115000D01*
X172796260Y-88115000D01*
X173083158Y-88057932D01*
X173353411Y-87945990D01*
X173596632Y-87783475D01*
X173803475Y-87576632D01*
X173965990Y-87333411D01*
X174077932Y-87063158D01*
X174135000Y-86776260D01*
X174135000Y-86483740D01*
X174077932Y-86196842D01*
X173965990Y-85926589D01*
X173803475Y-85683368D01*
X173596632Y-85476525D01*
X173414466Y-85354805D01*
X173531355Y-85285178D01*
X173747588Y-85090269D01*
X173921641Y-84856920D01*
X174046825Y-84594099D01*
X174091476Y-84446890D01*
X173970155Y-84217000D01*
X172777000Y-84217000D01*
X172777000Y-84237000D01*
X172523000Y-84237000D01*
X172523000Y-84217000D01*
X171329845Y-84217000D01*
X171208524Y-84446890D01*
X171253175Y-84594099D01*
X171378359Y-84856920D01*
X171552412Y-85090269D01*
X171768645Y-85285178D01*
X171885534Y-85354805D01*
X171703368Y-85476525D01*
X171496525Y-85683368D01*
X171334010Y-85926589D01*
X171222068Y-86196842D01*
X171165000Y-86483740D01*
X170578499Y-86483740D01*
X170712915Y-86349324D01*
X170866030Y-86162753D01*
X171017851Y-85878716D01*
X171111342Y-85570517D01*
X171142911Y-85250001D01*
X171111342Y-84929484D01*
X171017851Y-84621286D01*
X170866030Y-84337248D01*
X170661713Y-84088287D01*
X170412752Y-83883970D01*
X170128714Y-83732149D01*
X169820516Y-83638658D01*
X169698192Y-83626610D01*
X170511003Y-82813799D01*
X170540001Y-82790001D01*
X170634974Y-82674276D01*
X170705546Y-82542247D01*
X170749003Y-82398986D01*
X170760000Y-82287333D01*
X170760000Y-82287325D01*
X170763676Y-82250000D01*
X170760000Y-82212675D01*
X170760000Y-72177952D01*
X170966589Y-72315990D01*
X171236842Y-72427932D01*
X171523740Y-72485000D01*
X171816260Y-72485000D01*
X172103158Y-72427932D01*
X172373411Y-72315990D01*
X172616632Y-72153475D01*
X172823475Y-71946632D01*
X172845151Y-71914191D01*
X173048287Y-72161714D01*
X173297249Y-72366031D01*
X173581286Y-72517852D01*
X173889485Y-72611343D01*
X174210000Y-72642911D01*
X174530516Y-72611343D01*
X174838715Y-72517852D01*
X175122752Y-72366031D01*
X175371714Y-72161714D01*
X175576031Y-71912752D01*
X175727852Y-71628715D01*
X175821343Y-71320516D01*
X175845000Y-71080322D01*
X175845000Y-68379678D01*
X175821343Y-68139484D01*
X175727852Y-67831285D01*
X175576031Y-67547248D01*
X175371714Y-67298286D01*
X175122751Y-67093969D01*
X174838714Y-66942148D01*
X174530515Y-66848657D01*
X174210000Y-66817089D01*
X173889484Y-66848657D01*
X173581285Y-66942148D01*
X173297248Y-67093969D01*
X173048286Y-67298286D01*
X172845151Y-67545809D01*
X172823475Y-67513368D01*
X172616632Y-67306525D01*
X172373411Y-67144010D01*
X172103158Y-67032068D01*
X171816260Y-66975000D01*
X171523740Y-66975000D01*
X171236842Y-67032068D01*
X170966589Y-67144010D01*
X170760000Y-67282048D01*
X170760000Y-60757538D01*
X170898061Y-60785000D01*
X171101939Y-60785000D01*
X171301898Y-60745226D01*
X171490256Y-60667205D01*
X171659774Y-60553937D01*
X171803937Y-60409774D01*
X171917205Y-60240256D01*
X171995226Y-60051898D01*
X172035000Y-59851939D01*
X172035000Y-59648061D01*
X171995226Y-59448102D01*
X171917205Y-59259744D01*
X171803937Y-59090226D01*
X171659774Y-58946063D01*
X171490256Y-58832795D01*
X171301898Y-58754774D01*
X171101939Y-58715000D01*
X170898061Y-58715000D01*
X170698102Y-58754774D01*
X170614291Y-58789490D01*
X169113794Y-57288993D01*
X169089991Y-57259989D01*
X168974266Y-57165016D01*
X168842237Y-57094444D01*
X168698976Y-57050987D01*
X168587323Y-57039990D01*
X168587312Y-57039990D01*
X168549990Y-57036314D01*
X168512668Y-57039990D01*
X156364792Y-57039990D01*
X156285000Y-56960198D01*
X156285000Y-56898061D01*
X156245226Y-56698102D01*
X156167205Y-56509744D01*
X156053937Y-56340226D01*
X155909774Y-56196063D01*
X155740256Y-56082795D01*
X155551898Y-56004774D01*
X155351939Y-55965000D01*
X155148061Y-55965000D01*
X154948102Y-56004774D01*
X154759744Y-56082795D01*
X154590226Y-56196063D01*
X154446063Y-56340226D01*
X154332795Y-56509744D01*
X154254774Y-56698102D01*
X154215000Y-56898061D01*
X154215000Y-57101939D01*
X154254774Y-57301898D01*
X154332689Y-57490000D01*
X150201213Y-57490000D01*
X149510000Y-56798789D01*
X149510000Y-56703711D01*
X149553937Y-56659774D01*
X149667205Y-56490256D01*
X149745226Y-56301898D01*
X149785000Y-56101939D01*
X149785000Y-55898061D01*
X149745226Y-55698102D01*
X149667205Y-55509744D01*
X149553937Y-55340226D01*
X149409774Y-55196063D01*
X149391170Y-55183632D01*
X150261004Y-54313798D01*
X150290001Y-54290001D01*
X150384974Y-54174276D01*
X150455546Y-54042247D01*
X150499003Y-53898986D01*
X150510000Y-53787333D01*
X150510000Y-53787323D01*
X150513676Y-53750000D01*
X150510000Y-53712677D01*
X150510000Y-53667311D01*
X150698102Y-53745226D01*
X150898061Y-53785000D01*
X150960199Y-53785000D01*
X151686201Y-54511003D01*
X151709999Y-54540001D01*
X151738997Y-54563799D01*
X151825723Y-54634974D01*
X151957753Y-54705546D01*
X152101014Y-54749003D01*
X152212667Y-54760000D01*
X152212677Y-54760000D01*
X152250000Y-54763676D01*
X152287323Y-54760000D01*
X154046289Y-54760000D01*
X154090226Y-54803937D01*
X154259744Y-54917205D01*
X154448102Y-54995226D01*
X154648061Y-55035000D01*
X154851939Y-55035000D01*
X155051898Y-54995226D01*
X155240256Y-54917205D01*
X155409774Y-54803937D01*
X155553937Y-54659774D01*
X155667205Y-54490256D01*
X155745226Y-54301898D01*
X155785000Y-54101939D01*
X155785000Y-53898061D01*
X155745226Y-53698102D01*
X155667205Y-53509744D01*
X155553937Y-53340226D01*
X155409774Y-53196063D01*
X155240256Y-53082795D01*
X155051898Y-53004774D01*
X154851939Y-52965000D01*
X154648061Y-52965000D01*
X154448102Y-53004774D01*
X154259744Y-53082795D01*
X154090226Y-53196063D01*
X154046289Y-53240000D01*
X152564802Y-53240000D01*
X152035000Y-52710199D01*
X152035000Y-52648061D01*
X152007538Y-52510000D01*
X175935199Y-52510000D01*
X178740001Y-55314803D01*
G36*
X118596525Y-88576632D02*
G01*
X118803368Y-88783475D01*
X119046589Y-88945990D01*
X119316842Y-89057932D01*
X119603740Y-89115000D01*
X119896260Y-89115000D01*
X120183158Y-89057932D01*
X120453411Y-88945990D01*
X120696632Y-88783475D01*
X120740001Y-88740106D01*
X120740001Y-91599894D01*
X120696632Y-91556525D01*
X120453411Y-91394010D01*
X120183158Y-91282068D01*
X119896260Y-91225000D01*
X119603740Y-91225000D01*
X119316842Y-91282068D01*
X119046589Y-91394010D01*
X118803368Y-91556525D01*
X118596525Y-91763368D01*
X118480000Y-91937760D01*
X118363475Y-91763368D01*
X118156632Y-91556525D01*
X117913411Y-91394010D01*
X117643158Y-91282068D01*
X117356260Y-91225000D01*
X117063740Y-91225000D01*
X116843592Y-91268790D01*
X116010000Y-90435199D01*
X116010000Y-88507002D01*
X116056525Y-88576632D01*
X116263368Y-88783475D01*
X116506589Y-88945990D01*
X116776842Y-89057932D01*
X117063740Y-89115000D01*
X117356260Y-89115000D01*
X117643158Y-89057932D01*
X117913411Y-88945990D01*
X118156632Y-88783475D01*
X118363475Y-88576632D01*
X118480000Y-88402240D01*
X118596525Y-88576632D01*
G37*
X118596525Y-88576632D02*
X118803368Y-88783475D01*
X119046589Y-88945990D01*
X119316842Y-89057932D01*
X119603740Y-89115000D01*
X119896260Y-89115000D01*
X120183158Y-89057932D01*
X120453411Y-88945990D01*
X120696632Y-88783475D01*
X120740001Y-88740106D01*
X120740001Y-91599894D01*
X120696632Y-91556525D01*
X120453411Y-91394010D01*
X120183158Y-91282068D01*
X119896260Y-91225000D01*
X119603740Y-91225000D01*
X119316842Y-91282068D01*
X119046589Y-91394010D01*
X118803368Y-91556525D01*
X118596525Y-91763368D01*
X118480000Y-91937760D01*
X118363475Y-91763368D01*
X118156632Y-91556525D01*
X117913411Y-91394010D01*
X117643158Y-91282068D01*
X117356260Y-91225000D01*
X117063740Y-91225000D01*
X116843592Y-91268790D01*
X116010000Y-90435199D01*
X116010000Y-88507002D01*
X116056525Y-88576632D01*
X116263368Y-88783475D01*
X116506589Y-88945990D01*
X116776842Y-89057932D01*
X117063740Y-89115000D01*
X117356260Y-89115000D01*
X117643158Y-89057932D01*
X117913411Y-88945990D01*
X118156632Y-88783475D01*
X118363475Y-88576632D01*
X118480000Y-88402240D01*
X118596525Y-88576632D01*
G36*
X162715000Y-61789802D02*
G01*
X162715000Y-61851939D01*
X162754774Y-62051898D01*
X162832795Y-62240256D01*
X162946063Y-62409774D01*
X163090226Y-62553937D01*
X163259744Y-62667205D01*
X163448102Y-62745226D01*
X163648061Y-62785000D01*
X163851939Y-62785000D01*
X164051898Y-62745226D01*
X164240256Y-62667205D01*
X164409774Y-62553937D01*
X164553937Y-62409774D01*
X164566368Y-62391170D01*
X164686200Y-62511002D01*
X164709999Y-62540001D01*
X164825724Y-62634974D01*
X164957753Y-62705546D01*
X165006675Y-62720386D01*
X165090226Y-62803937D01*
X165259744Y-62917205D01*
X165448102Y-62995226D01*
X165648061Y-63035000D01*
X165851939Y-63035000D01*
X166051898Y-62995226D01*
X166240256Y-62917205D01*
X166409774Y-62803937D01*
X166553937Y-62659774D01*
X166667205Y-62490256D01*
X166739916Y-62314718D01*
X166740001Y-62314803D01*
X166740000Y-65776289D01*
X166659774Y-65696063D01*
X166490256Y-65582795D01*
X166301898Y-65504774D01*
X166101939Y-65465000D01*
X165898061Y-65465000D01*
X165698102Y-65504774D01*
X165509744Y-65582795D01*
X165340226Y-65696063D01*
X165296289Y-65740000D01*
X164703711Y-65740000D01*
X164659774Y-65696063D01*
X164490256Y-65582795D01*
X164301898Y-65504774D01*
X164101939Y-65465000D01*
X163898061Y-65465000D01*
X163698102Y-65504774D01*
X163509744Y-65582795D01*
X163340226Y-65696063D01*
X163305545Y-65730744D01*
X162063804Y-64489003D01*
X162040001Y-64459999D01*
X161924276Y-64365026D01*
X161792247Y-64294454D01*
X161648986Y-64250997D01*
X161537333Y-64240000D01*
X161537322Y-64240000D01*
X161500000Y-64236324D01*
X161462678Y-64240000D01*
X158203711Y-64240000D01*
X158159774Y-64196063D01*
X157990256Y-64082795D01*
X157801898Y-64004774D01*
X157601939Y-63965000D01*
X157398061Y-63965000D01*
X157198102Y-64004774D01*
X157009744Y-64082795D01*
X156840226Y-64196063D01*
X156696063Y-64340226D01*
X156582795Y-64509744D01*
X156504774Y-64698102D01*
X156465000Y-64898061D01*
X156465000Y-65101939D01*
X156504774Y-65301898D01*
X156582795Y-65490256D01*
X156696063Y-65659774D01*
X156840226Y-65803937D01*
X157009744Y-65917205D01*
X157198102Y-65995226D01*
X157398061Y-66035000D01*
X157501413Y-66035000D01*
X157504774Y-66051898D01*
X157582795Y-66240256D01*
X157696063Y-66409774D01*
X157840226Y-66553937D01*
X158009744Y-66667205D01*
X158198102Y-66745226D01*
X158398061Y-66785000D01*
X158601939Y-66785000D01*
X158801898Y-66745226D01*
X158990256Y-66667205D01*
X159159774Y-66553937D01*
X159203711Y-66510000D01*
X161185198Y-66510000D01*
X161238997Y-66563799D01*
X161239002Y-66563803D01*
X161965000Y-67289802D01*
X161965000Y-67351939D01*
X162004774Y-67551898D01*
X162082689Y-67740000D01*
X154314802Y-67740000D01*
X153858497Y-67283696D01*
X154051898Y-67245226D01*
X154240256Y-67167205D01*
X154409774Y-67053937D01*
X154453711Y-67010000D01*
X155046289Y-67010000D01*
X155090226Y-67053937D01*
X155259744Y-67167205D01*
X155448102Y-67245226D01*
X155648061Y-67285000D01*
X155851939Y-67285000D01*
X156051898Y-67245226D01*
X156240256Y-67167205D01*
X156409774Y-67053937D01*
X156553937Y-66909774D01*
X156667205Y-66740256D01*
X156745226Y-66551898D01*
X156785000Y-66351939D01*
X156785000Y-66148061D01*
X156745226Y-65948102D01*
X156667205Y-65759744D01*
X156553937Y-65590226D01*
X156409774Y-65446063D01*
X156240256Y-65332795D01*
X156051898Y-65254774D01*
X155851939Y-65215000D01*
X155648061Y-65215000D01*
X155448102Y-65254774D01*
X155259744Y-65332795D01*
X155090226Y-65446063D01*
X155046289Y-65490000D01*
X154453711Y-65490000D01*
X154409774Y-65446063D01*
X154240256Y-65332795D01*
X154051898Y-65254774D01*
X153851939Y-65215000D01*
X153648061Y-65215000D01*
X153448102Y-65254774D01*
X153259744Y-65332795D01*
X153090226Y-65446063D01*
X152946063Y-65590226D01*
X152832795Y-65759744D01*
X152789035Y-65865388D01*
X152740256Y-65832795D01*
X152551898Y-65754774D01*
X152351939Y-65715000D01*
X152148061Y-65715000D01*
X151948102Y-65754774D01*
X151759744Y-65832795D01*
X151590226Y-65946063D01*
X151446063Y-66090226D01*
X151332795Y-66259744D01*
X151254774Y-66448102D01*
X151251413Y-66465000D01*
X151148061Y-66465000D01*
X150948102Y-66504774D01*
X150759744Y-66582795D01*
X150590226Y-66696063D01*
X150446063Y-66840226D01*
X150332795Y-67009744D01*
X150254774Y-67198102D01*
X150215000Y-67398061D01*
X150215000Y-67601939D01*
X150254774Y-67801898D01*
X150332795Y-67990256D01*
X150446063Y-68159774D01*
X150590226Y-68303937D01*
X150759744Y-68417205D01*
X150948102Y-68495226D01*
X151148061Y-68535000D01*
X151351939Y-68535000D01*
X151551898Y-68495226D01*
X151740256Y-68417205D01*
X151909774Y-68303937D01*
X151944455Y-68269256D01*
X153186201Y-69511003D01*
X153209999Y-69540001D01*
X153325724Y-69634974D01*
X153457753Y-69705546D01*
X153601014Y-69749003D01*
X153712667Y-69760000D01*
X153712676Y-69760000D01*
X153749999Y-69763676D01*
X153787322Y-69760000D01*
X166599088Y-69760000D01*
X166636410Y-69763676D01*
X166673732Y-69760000D01*
X166673743Y-69760000D01*
X166785396Y-69749003D01*
X166928657Y-69705546D01*
X167060686Y-69634974D01*
X167176411Y-69540001D01*
X167200213Y-69510998D01*
X167740000Y-68971211D01*
X167740001Y-81185197D01*
X166935199Y-81990000D01*
X165787333Y-81990000D01*
X165750000Y-81986323D01*
X165712667Y-81990000D01*
X165601014Y-82000997D01*
X165457753Y-82044454D01*
X165325724Y-82115026D01*
X165209999Y-82209999D01*
X165186201Y-82238997D01*
X164710199Y-82715000D01*
X164648061Y-82715000D01*
X164448102Y-82754774D01*
X164259744Y-82832795D01*
X164090226Y-82946063D01*
X163946063Y-83090226D01*
X163833496Y-83258695D01*
X163720000Y-83145199D01*
X163720000Y-82528178D01*
X163906632Y-82403475D01*
X164113475Y-82196632D01*
X164275990Y-81953411D01*
X164387932Y-81683158D01*
X164445000Y-81396260D01*
X164445000Y-81103740D01*
X164387932Y-80816842D01*
X164275990Y-80546589D01*
X164113475Y-80303368D01*
X163906632Y-80096525D01*
X163663411Y-79934010D01*
X163393158Y-79822068D01*
X163106260Y-79765000D01*
X162813740Y-79765000D01*
X162526842Y-79822068D01*
X162256589Y-79934010D01*
X162013368Y-80096525D01*
X161806525Y-80303368D01*
X161690000Y-80477760D01*
X161573475Y-80303368D01*
X161366632Y-80096525D01*
X161123411Y-79934010D01*
X160853158Y-79822068D01*
X160566260Y-79765000D01*
X160273740Y-79765000D01*
X159986842Y-79822068D01*
X159716589Y-79934010D01*
X159473368Y-80096525D01*
X159266525Y-80303368D01*
X159150000Y-80477760D01*
X159033475Y-80303368D01*
X158826632Y-80096525D01*
X158583411Y-79934010D01*
X158313158Y-79822068D01*
X158026260Y-79765000D01*
X157733740Y-79765000D01*
X157446842Y-79822068D01*
X157176589Y-79934010D01*
X156933368Y-80096525D01*
X156726525Y-80303368D01*
X156610000Y-80477760D01*
X156493475Y-80303368D01*
X156286632Y-80096525D01*
X156043411Y-79934010D01*
X155773158Y-79822068D01*
X155486260Y-79765000D01*
X155193740Y-79765000D01*
X154906842Y-79822068D01*
X154636589Y-79934010D01*
X154393368Y-80096525D01*
X154186525Y-80303368D01*
X154070000Y-80477760D01*
X153953475Y-80303368D01*
X153746632Y-80096525D01*
X153503411Y-79934010D01*
X153233158Y-79822068D01*
X152946260Y-79765000D01*
X152653740Y-79765000D01*
X152366842Y-79822068D01*
X152096589Y-79934010D01*
X151853368Y-80096525D01*
X151646525Y-80303368D01*
X151484010Y-80546589D01*
X151372068Y-80816842D01*
X151315000Y-81103740D01*
X151315000Y-81396260D01*
X151372068Y-81683158D01*
X151484010Y-81953411D01*
X151646525Y-82196632D01*
X151853368Y-82403475D01*
X152096589Y-82565990D01*
X152366842Y-82677932D01*
X152576670Y-82719670D01*
X153522569Y-83665569D01*
X153532795Y-83690256D01*
X153646063Y-83859774D01*
X153790226Y-84003937D01*
X153959744Y-84117205D01*
X154148102Y-84195226D01*
X154348061Y-84235000D01*
X154551939Y-84235000D01*
X154751898Y-84195226D01*
X154940256Y-84117205D01*
X155109774Y-84003937D01*
X155253937Y-83859774D01*
X155367205Y-83690256D01*
X155445226Y-83501898D01*
X155485000Y-83301939D01*
X155485000Y-83098061D01*
X155445226Y-82898102D01*
X155377666Y-82735000D01*
X155486260Y-82735000D01*
X155773158Y-82677932D01*
X156043411Y-82565990D01*
X156286632Y-82403475D01*
X156493475Y-82196632D01*
X156610000Y-82022240D01*
X156726525Y-82196632D01*
X156745000Y-82215107D01*
X156745000Y-82574249D01*
X156739509Y-82630000D01*
X156745000Y-82685751D01*
X156745000Y-82685752D01*
X156761423Y-82852499D01*
X156826324Y-83066447D01*
X156931717Y-83263623D01*
X157073552Y-83436449D01*
X157116860Y-83471991D01*
X158269820Y-84624952D01*
X158250000Y-84623000D01*
X155250000Y-84623000D01*
X155225224Y-84625440D01*
X155201399Y-84632667D01*
X155179443Y-84644403D01*
X155160197Y-84660197D01*
X155144403Y-84679443D01*
X155132667Y-84701399D01*
X155125440Y-84725224D01*
X155123000Y-84750000D01*
X155123000Y-87123000D01*
X135627000Y-87123000D01*
X135627000Y-85500000D01*
X135624560Y-85475224D01*
X135617333Y-85451399D01*
X135605597Y-85429443D01*
X135589803Y-85410197D01*
X135570557Y-85394403D01*
X135548601Y-85382667D01*
X135524776Y-85375440D01*
X135500000Y-85373000D01*
X132500000Y-85373000D01*
X132475224Y-85375440D01*
X132451399Y-85382667D01*
X132429443Y-85394403D01*
X132410197Y-85410197D01*
X132394403Y-85429443D01*
X132382667Y-85451399D01*
X132375440Y-85475224D01*
X132373000Y-85500000D01*
X132373000Y-87123000D01*
X128127000Y-87123000D01*
X128127000Y-74377000D01*
X131974224Y-74377000D01*
X131836589Y-74434010D01*
X131593368Y-74596525D01*
X131386525Y-74803368D01*
X131224010Y-75046589D01*
X131112068Y-75316842D01*
X131055000Y-75603740D01*
X131055000Y-75896260D01*
X131112068Y-76183158D01*
X131224010Y-76453411D01*
X131386525Y-76696632D01*
X131593368Y-76903475D01*
X131836589Y-77065990D01*
X132106842Y-77177932D01*
X132393740Y-77235000D01*
X132686260Y-77235000D01*
X132973158Y-77177932D01*
X133243411Y-77065990D01*
X133486632Y-76903475D01*
X133693475Y-76696632D01*
X133810000Y-76522240D01*
X133926525Y-76696632D01*
X134133368Y-76903475D01*
X134376589Y-77065990D01*
X134646842Y-77177932D01*
X134933740Y-77235000D01*
X135226260Y-77235000D01*
X135513158Y-77177932D01*
X135783411Y-77065990D01*
X136026632Y-76903475D01*
X136233475Y-76696632D01*
X136350000Y-76522240D01*
X136466525Y-76696632D01*
X136673368Y-76903475D01*
X136694763Y-76917771D01*
X136659687Y-76928411D01*
X136505941Y-77010589D01*
X136505939Y-77010590D01*
X136505940Y-77010590D01*
X136404953Y-77093468D01*
X136404951Y-77093470D01*
X136371183Y-77121183D01*
X136343470Y-77154951D01*
X134484951Y-79013471D01*
X134451184Y-79041183D01*
X134423471Y-79074951D01*
X134423468Y-79074954D01*
X134340590Y-79175941D01*
X134258412Y-79329687D01*
X134207805Y-79496510D01*
X134190719Y-79670000D01*
X134195001Y-79713479D01*
X134195001Y-80055343D01*
X134133368Y-80096525D01*
X133926525Y-80303368D01*
X133810000Y-80477760D01*
X133693475Y-80303368D01*
X133486632Y-80096525D01*
X133243411Y-79934010D01*
X132973158Y-79822068D01*
X132686260Y-79765000D01*
X132393740Y-79765000D01*
X132106842Y-79822068D01*
X131836589Y-79934010D01*
X131593368Y-80096525D01*
X131386525Y-80303368D01*
X131270000Y-80477760D01*
X131153475Y-80303368D01*
X130946632Y-80096525D01*
X130703411Y-79934010D01*
X130433158Y-79822068D01*
X130146260Y-79765000D01*
X129853740Y-79765000D01*
X129566842Y-79822068D01*
X129296589Y-79934010D01*
X129053368Y-80096525D01*
X128846525Y-80303368D01*
X128684010Y-80546589D01*
X128572068Y-80816842D01*
X128515000Y-81103740D01*
X128515000Y-81396260D01*
X128572068Y-81683158D01*
X128684010Y-81953411D01*
X128846525Y-82196632D01*
X129053368Y-82403475D01*
X129296589Y-82565990D01*
X129566842Y-82677932D01*
X129853740Y-82735000D01*
X129892000Y-82735000D01*
X130822570Y-83665571D01*
X130832795Y-83690256D01*
X130946063Y-83859774D01*
X131090226Y-84003937D01*
X131259744Y-84117205D01*
X131448102Y-84195226D01*
X131648061Y-84235000D01*
X131851939Y-84235000D01*
X132051898Y-84195226D01*
X132240256Y-84117205D01*
X132409774Y-84003937D01*
X132553937Y-83859774D01*
X132667205Y-83690256D01*
X132745226Y-83501898D01*
X132785000Y-83301939D01*
X132785000Y-83098061D01*
X132745226Y-82898102D01*
X132677666Y-82735000D01*
X132686260Y-82735000D01*
X132973158Y-82677932D01*
X133243411Y-82565990D01*
X133486632Y-82403475D01*
X133693475Y-82196632D01*
X133810000Y-82022240D01*
X133926525Y-82196632D01*
X134133368Y-82403475D01*
X134376589Y-82565990D01*
X134646842Y-82677932D01*
X134933740Y-82735000D01*
X135226260Y-82735000D01*
X135513158Y-82677932D01*
X135783411Y-82565990D01*
X136026632Y-82403475D01*
X136233475Y-82196632D01*
X136350000Y-82022240D01*
X136466525Y-82196632D01*
X136673368Y-82403475D01*
X136916589Y-82565990D01*
X137186842Y-82677932D01*
X137473740Y-82735000D01*
X137766260Y-82735000D01*
X138053158Y-82677932D01*
X138323411Y-82565990D01*
X138566632Y-82403475D01*
X138773475Y-82196632D01*
X138890000Y-82022240D01*
X139006525Y-82196632D01*
X139213368Y-82403475D01*
X139456589Y-82565990D01*
X139726842Y-82677932D01*
X140013740Y-82735000D01*
X140306260Y-82735000D01*
X140593158Y-82677932D01*
X140863411Y-82565990D01*
X141106632Y-82403475D01*
X141313475Y-82196632D01*
X141475990Y-81953411D01*
X141587932Y-81683158D01*
X141645000Y-81396260D01*
X141645000Y-81103740D01*
X147555000Y-81103740D01*
X147555000Y-81396260D01*
X147612068Y-81683158D01*
X147724010Y-81953411D01*
X147886525Y-82196632D01*
X148093368Y-82403475D01*
X148336589Y-82565990D01*
X148606842Y-82677932D01*
X148893740Y-82735000D01*
X149186260Y-82735000D01*
X149473158Y-82677932D01*
X149743411Y-82565990D01*
X149986632Y-82403475D01*
X150193475Y-82196632D01*
X150355990Y-81953411D01*
X150467932Y-81683158D01*
X150525000Y-81396260D01*
X150525000Y-81103740D01*
X150467932Y-80816842D01*
X150355990Y-80546589D01*
X150193475Y-80303368D01*
X149986632Y-80096525D01*
X149743411Y-79934010D01*
X149473158Y-79822068D01*
X149352910Y-79798149D01*
X149427490Y-79783314D01*
X149681727Y-79678005D01*
X149910535Y-79525120D01*
X150105120Y-79330535D01*
X150258005Y-79101727D01*
X150290000Y-79024485D01*
X150321995Y-79101727D01*
X150474880Y-79330535D01*
X150669465Y-79525120D01*
X150898273Y-79678005D01*
X151152510Y-79783314D01*
X151422408Y-79837000D01*
X151697592Y-79837000D01*
X151967490Y-79783314D01*
X152221727Y-79678005D01*
X152450535Y-79525120D01*
X152645120Y-79330535D01*
X152798005Y-79101727D01*
X152903314Y-78847490D01*
X152957000Y-78577592D01*
X152957000Y-78302408D01*
X152903314Y-78032510D01*
X152798005Y-77778273D01*
X152645120Y-77549465D01*
X152450535Y-77354880D01*
X152221727Y-77201995D01*
X151967490Y-77096686D01*
X151697592Y-77043000D01*
X151422408Y-77043000D01*
X151152510Y-77096686D01*
X150898273Y-77201995D01*
X150669465Y-77354880D01*
X150474880Y-77549465D01*
X150321995Y-77778273D01*
X150290000Y-77855515D01*
X150258005Y-77778273D01*
X150105120Y-77549465D01*
X149910535Y-77354880D01*
X149681727Y-77201995D01*
X149427490Y-77096686D01*
X149157592Y-77043000D01*
X148882408Y-77043000D01*
X148612510Y-77096686D01*
X148358273Y-77201995D01*
X148129465Y-77354880D01*
X147934880Y-77549465D01*
X147781995Y-77778273D01*
X147676686Y-78032510D01*
X147623000Y-78302408D01*
X147623000Y-78577592D01*
X147676686Y-78847490D01*
X147781995Y-79101727D01*
X147934880Y-79330535D01*
X148129465Y-79525120D01*
X148358273Y-79678005D01*
X148612510Y-79783314D01*
X148707090Y-79802127D01*
X148606842Y-79822068D01*
X148336589Y-79934010D01*
X148093368Y-80096525D01*
X147886525Y-80303368D01*
X147724010Y-80546589D01*
X147612068Y-80816842D01*
X147555000Y-81103740D01*
X141645000Y-81103740D01*
X141587932Y-80816842D01*
X141475990Y-80546589D01*
X141313475Y-80303368D01*
X141106632Y-80096525D01*
X140863411Y-79934010D01*
X140593158Y-79822068D01*
X140306260Y-79765000D01*
X140013740Y-79765000D01*
X139726842Y-79822068D01*
X139456589Y-79934010D01*
X139213368Y-80096525D01*
X139006525Y-80303368D01*
X138890000Y-80477760D01*
X138773475Y-80303368D01*
X138566632Y-80096525D01*
X138323411Y-79934010D01*
X138053158Y-79822068D01*
X137766260Y-79765000D01*
X137473740Y-79765000D01*
X137186842Y-79822068D01*
X136916589Y-79934010D01*
X136673368Y-80096525D01*
X136466525Y-80303368D01*
X136350000Y-80477760D01*
X136233475Y-80303368D01*
X136026632Y-80096525D01*
X135965000Y-80055344D01*
X135965000Y-80036578D01*
X137366579Y-78635000D01*
X139576533Y-78635000D01*
X139619999Y-78639281D01*
X139663465Y-78635000D01*
X142554419Y-78635000D01*
X142596686Y-78847490D01*
X142701995Y-79101727D01*
X142854880Y-79330535D01*
X143049465Y-79525120D01*
X143278273Y-79678005D01*
X143532510Y-79783314D01*
X143802408Y-79837000D01*
X144077592Y-79837000D01*
X144347490Y-79783314D01*
X144601727Y-79678005D01*
X144830535Y-79525120D01*
X145025120Y-79330535D01*
X145178005Y-79101727D01*
X145283314Y-78847490D01*
X145319485Y-78665647D01*
X145513140Y-78471992D01*
X145556449Y-78436449D01*
X145698284Y-78263623D01*
X145803676Y-78066447D01*
X145868577Y-77852499D01*
X145885000Y-77685752D01*
X145890491Y-77630000D01*
X145885000Y-77574249D01*
X145885000Y-75720131D01*
X146470132Y-75135000D01*
X153987389Y-75135000D01*
X153912068Y-75316842D01*
X153855000Y-75603740D01*
X153855000Y-75896260D01*
X153912068Y-76183158D01*
X154024010Y-76453411D01*
X154186525Y-76696632D01*
X154393368Y-76903475D01*
X154636589Y-77065990D01*
X154906842Y-77177932D01*
X155193740Y-77235000D01*
X155486260Y-77235000D01*
X155773158Y-77177932D01*
X156043411Y-77065990D01*
X156286632Y-76903475D01*
X156493475Y-76696632D01*
X156610000Y-76522240D01*
X156726525Y-76696632D01*
X156933368Y-76903475D01*
X157176589Y-77065990D01*
X157446842Y-77177932D01*
X157733740Y-77235000D01*
X158026260Y-77235000D01*
X158313158Y-77177932D01*
X158583411Y-77065990D01*
X158826632Y-76903475D01*
X159033475Y-76696632D01*
X159150000Y-76522240D01*
X159266525Y-76696632D01*
X159473368Y-76903475D01*
X159716589Y-77065990D01*
X159986842Y-77177932D01*
X160273740Y-77235000D01*
X160566260Y-77235000D01*
X160853158Y-77177932D01*
X161123411Y-77065990D01*
X161366632Y-76903475D01*
X161573475Y-76696632D01*
X161690000Y-76522240D01*
X161806525Y-76696632D01*
X162013368Y-76903475D01*
X162256589Y-77065990D01*
X162526842Y-77177932D01*
X162813740Y-77235000D01*
X163106260Y-77235000D01*
X163393158Y-77177932D01*
X163663411Y-77065990D01*
X163906632Y-76903475D01*
X164113475Y-76696632D01*
X164230000Y-76522240D01*
X164346525Y-76696632D01*
X164553368Y-76903475D01*
X164796589Y-77065990D01*
X165066842Y-77177932D01*
X165353740Y-77235000D01*
X165646260Y-77235000D01*
X165933158Y-77177932D01*
X166203411Y-77065990D01*
X166446632Y-76903475D01*
X166653475Y-76696632D01*
X166815990Y-76453411D01*
X166927932Y-76183158D01*
X166985000Y-75896260D01*
X166985000Y-75603740D01*
X166927932Y-75316842D01*
X166815990Y-75046589D01*
X166653475Y-74803368D01*
X166446632Y-74596525D01*
X166203411Y-74434010D01*
X165933158Y-74322068D01*
X165910576Y-74317576D01*
X164877431Y-73284431D01*
X164867205Y-73259744D01*
X164753937Y-73090226D01*
X164609774Y-72946063D01*
X164440256Y-72832795D01*
X164251898Y-72754774D01*
X164051939Y-72715000D01*
X163848061Y-72715000D01*
X163648102Y-72754774D01*
X163459744Y-72832795D01*
X163290226Y-72946063D01*
X163146063Y-73090226D01*
X163127000Y-73118756D01*
X163127000Y-70250000D01*
X163124560Y-70225224D01*
X163117333Y-70201399D01*
X163105597Y-70179443D01*
X163089803Y-70160197D01*
X163070557Y-70144403D01*
X163048601Y-70132667D01*
X163024776Y-70125440D01*
X163000000Y-70123000D01*
X159000000Y-70123000D01*
X158975224Y-70125440D01*
X158951399Y-70132667D01*
X158929443Y-70144403D01*
X158910197Y-70160197D01*
X158894403Y-70179443D01*
X158882667Y-70201399D01*
X158875440Y-70225224D01*
X158873000Y-70250000D01*
X158873000Y-70623000D01*
X141127000Y-70623000D01*
X141127000Y-69250000D01*
X141124560Y-69225224D01*
X141117333Y-69201399D01*
X141105597Y-69179443D01*
X141089803Y-69160197D01*
X141070557Y-69144403D01*
X141048601Y-69132667D01*
X141024776Y-69125440D01*
X141000000Y-69123000D01*
X123000000Y-69123000D01*
X122975224Y-69125440D01*
X122951399Y-69132667D01*
X122929443Y-69144403D01*
X122910197Y-69160197D01*
X122894403Y-69179443D01*
X122882667Y-69201399D01*
X122875440Y-69225224D01*
X122873000Y-69250000D01*
X122873000Y-82048198D01*
X117510000Y-76685199D01*
X117510000Y-71936867D01*
X117516525Y-71946632D01*
X117723368Y-72153475D01*
X117966589Y-72315990D01*
X118236842Y-72427932D01*
X118523740Y-72485000D01*
X118816260Y-72485000D01*
X119103158Y-72427932D01*
X119373411Y-72315990D01*
X119616632Y-72153475D01*
X119823475Y-71946632D01*
X119845151Y-71914191D01*
X120048287Y-72161714D01*
X120297249Y-72366031D01*
X120581286Y-72517852D01*
X120889485Y-72611343D01*
X121210000Y-72642911D01*
X121530516Y-72611343D01*
X121838715Y-72517852D01*
X122122752Y-72366031D01*
X122371714Y-72161714D01*
X122576031Y-71912752D01*
X122727852Y-71628715D01*
X122821343Y-71320516D01*
X122845000Y-71080322D01*
X122845000Y-68379678D01*
X122821343Y-68139484D01*
X122727852Y-67831285D01*
X122576031Y-67547248D01*
X122371714Y-67298286D01*
X122122751Y-67093969D01*
X121838714Y-66942148D01*
X121530515Y-66848657D01*
X121210000Y-66817089D01*
X120889484Y-66848657D01*
X120581285Y-66942148D01*
X120297248Y-67093969D01*
X120048286Y-67298286D01*
X119845151Y-67545809D01*
X119823475Y-67513368D01*
X119616632Y-67306525D01*
X119373411Y-67144010D01*
X119103158Y-67032068D01*
X118816260Y-66975000D01*
X118523740Y-66975000D01*
X118236842Y-67032068D01*
X118010000Y-67126029D01*
X118010000Y-67064801D01*
X120314802Y-64760000D01*
X120319351Y-64760000D01*
X120292795Y-64799744D01*
X120214774Y-64988102D01*
X120175000Y-65188061D01*
X120175000Y-65391939D01*
X120214774Y-65591898D01*
X120292795Y-65780256D01*
X120406063Y-65949774D01*
X120550226Y-66093937D01*
X120719744Y-66207205D01*
X120908102Y-66285226D01*
X121108061Y-66325000D01*
X121311939Y-66325000D01*
X121511898Y-66285226D01*
X121700256Y-66207205D01*
X121869774Y-66093937D01*
X122013937Y-65949774D01*
X122127205Y-65780256D01*
X122205226Y-65591898D01*
X122245000Y-65391939D01*
X122245000Y-65329802D01*
X122314802Y-65260000D01*
X131185199Y-65260000D01*
X132936201Y-67011003D01*
X132959999Y-67040001D01*
X132988997Y-67063799D01*
X133075723Y-67134974D01*
X133190012Y-67196063D01*
X133207753Y-67205546D01*
X133351014Y-67249003D01*
X133462667Y-67260000D01*
X133462676Y-67260000D01*
X133499999Y-67263676D01*
X133537322Y-67260000D01*
X135212678Y-67260000D01*
X135250000Y-67263676D01*
X135287322Y-67260000D01*
X135287333Y-67260000D01*
X135398986Y-67249003D01*
X135542247Y-67205546D01*
X135674276Y-67134974D01*
X135790001Y-67040001D01*
X135813804Y-67010997D01*
X136064801Y-66760000D01*
X136296289Y-66760000D01*
X136340226Y-66803937D01*
X136509744Y-66917205D01*
X136698102Y-66995226D01*
X136898061Y-67035000D01*
X137101939Y-67035000D01*
X137301898Y-66995226D01*
X137490256Y-66917205D01*
X137659774Y-66803937D01*
X137803937Y-66659774D01*
X137917205Y-66490256D01*
X137995226Y-66301898D01*
X138035000Y-66101939D01*
X138035000Y-65898061D01*
X138007538Y-65760000D01*
X139996440Y-65760000D01*
X140004774Y-65801898D01*
X140039292Y-65885231D01*
X140036200Y-65888998D01*
X139488998Y-66436201D01*
X139460000Y-66459999D01*
X139436202Y-66488997D01*
X139436201Y-66488998D01*
X139365026Y-66575724D01*
X139294454Y-66707754D01*
X139281337Y-66750997D01*
X139250998Y-66851014D01*
X139247133Y-66890256D01*
X139236324Y-67000000D01*
X139240001Y-67037332D01*
X139240001Y-67296288D01*
X139196063Y-67340226D01*
X139082795Y-67509744D01*
X139004774Y-67698102D01*
X138965000Y-67898061D01*
X138965000Y-68101939D01*
X139004774Y-68301898D01*
X139082795Y-68490256D01*
X139196063Y-68659774D01*
X139340226Y-68803937D01*
X139509744Y-68917205D01*
X139698102Y-68995226D01*
X139898061Y-69035000D01*
X140101939Y-69035000D01*
X140301898Y-68995226D01*
X140490256Y-68917205D01*
X140659774Y-68803937D01*
X140803937Y-68659774D01*
X140917205Y-68490256D01*
X140989916Y-68314717D01*
X141436201Y-68761003D01*
X141459999Y-68790001D01*
X141488997Y-68813799D01*
X141575724Y-68884974D01*
X141707753Y-68955546D01*
X141851014Y-68999003D01*
X142000000Y-69013677D01*
X142037333Y-69010000D01*
X142796289Y-69010000D01*
X142840226Y-69053937D01*
X143009744Y-69167205D01*
X143198102Y-69245226D01*
X143398061Y-69285000D01*
X143601939Y-69285000D01*
X143801898Y-69245226D01*
X143990256Y-69167205D01*
X144159774Y-69053937D01*
X144250000Y-68963711D01*
X144340226Y-69053937D01*
X144509744Y-69167205D01*
X144698102Y-69245226D01*
X144898061Y-69285000D01*
X145101939Y-69285000D01*
X145301898Y-69245226D01*
X145490256Y-69167205D01*
X145659774Y-69053937D01*
X145803937Y-68909774D01*
X145917205Y-68740256D01*
X145995226Y-68551898D01*
X146035000Y-68351939D01*
X146035000Y-68148061D01*
X145995226Y-67948102D01*
X145917205Y-67759744D01*
X145803937Y-67590226D01*
X145659774Y-67446063D01*
X145490256Y-67332795D01*
X145301898Y-67254774D01*
X145101939Y-67215000D01*
X145039802Y-67215000D01*
X144535000Y-66710199D01*
X144535000Y-66648061D01*
X144495226Y-66448102D01*
X144417205Y-66259744D01*
X144303937Y-66090226D01*
X144159774Y-65946063D01*
X143990256Y-65832795D01*
X143801898Y-65754774D01*
X143601939Y-65715000D01*
X143398061Y-65715000D01*
X143198102Y-65754774D01*
X143009744Y-65832795D01*
X142910222Y-65899293D01*
X142803937Y-65740226D01*
X142659774Y-65596063D01*
X142628251Y-65575000D01*
X142659774Y-65553937D01*
X142803937Y-65409774D01*
X142917205Y-65240256D01*
X142995226Y-65051898D01*
X143035000Y-64851939D01*
X143035000Y-64760000D01*
X146185199Y-64760000D01*
X147436201Y-66011003D01*
X147459999Y-66040001D01*
X147575724Y-66134974D01*
X147707753Y-66205546D01*
X147851014Y-66249003D01*
X147962667Y-66260000D01*
X147962676Y-66260000D01*
X147999999Y-66263676D01*
X148037322Y-66260000D01*
X148962678Y-66260000D01*
X149000000Y-66263676D01*
X149037322Y-66260000D01*
X149037333Y-66260000D01*
X149148986Y-66249003D01*
X149292247Y-66205546D01*
X149424276Y-66134974D01*
X149540001Y-66040001D01*
X149563804Y-66010997D01*
X150010998Y-65563803D01*
X150040001Y-65540001D01*
X150134974Y-65424276D01*
X150205546Y-65292247D01*
X150249003Y-65148986D01*
X150260000Y-65037333D01*
X150260000Y-65037325D01*
X150263676Y-65000000D01*
X150260000Y-64962675D01*
X150260000Y-62285000D01*
X150351939Y-62285000D01*
X150551898Y-62245226D01*
X150740256Y-62167205D01*
X150875000Y-62077172D01*
X151009744Y-62167205D01*
X151198102Y-62245226D01*
X151398061Y-62285000D01*
X151601939Y-62285000D01*
X151801898Y-62245226D01*
X151990256Y-62167205D01*
X152159774Y-62053937D01*
X152303937Y-61909774D01*
X152417205Y-61740256D01*
X152495226Y-61551898D01*
X152503560Y-61510000D01*
X162435199Y-61510000D01*
X162715000Y-61789802D01*
G37*
X162715000Y-61789802D02*
X162715000Y-61851939D01*
X162754774Y-62051898D01*
X162832795Y-62240256D01*
X162946063Y-62409774D01*
X163090226Y-62553937D01*
X163259744Y-62667205D01*
X163448102Y-62745226D01*
X163648061Y-62785000D01*
X163851939Y-62785000D01*
X164051898Y-62745226D01*
X164240256Y-62667205D01*
X164409774Y-62553937D01*
X164553937Y-62409774D01*
X164566368Y-62391170D01*
X164686200Y-62511002D01*
X164709999Y-62540001D01*
X164825724Y-62634974D01*
X164957753Y-62705546D01*
X165006675Y-62720386D01*
X165090226Y-62803937D01*
X165259744Y-62917205D01*
X165448102Y-62995226D01*
X165648061Y-63035000D01*
X165851939Y-63035000D01*
X166051898Y-62995226D01*
X166240256Y-62917205D01*
X166409774Y-62803937D01*
X166553937Y-62659774D01*
X166667205Y-62490256D01*
X166739916Y-62314718D01*
X166740001Y-62314803D01*
X166740000Y-65776289D01*
X166659774Y-65696063D01*
X166490256Y-65582795D01*
X166301898Y-65504774D01*
X166101939Y-65465000D01*
X165898061Y-65465000D01*
X165698102Y-65504774D01*
X165509744Y-65582795D01*
X165340226Y-65696063D01*
X165296289Y-65740000D01*
X164703711Y-65740000D01*
X164659774Y-65696063D01*
X164490256Y-65582795D01*
X164301898Y-65504774D01*
X164101939Y-65465000D01*
X163898061Y-65465000D01*
X163698102Y-65504774D01*
X163509744Y-65582795D01*
X163340226Y-65696063D01*
X163305545Y-65730744D01*
X162063804Y-64489003D01*
X162040001Y-64459999D01*
X161924276Y-64365026D01*
X161792247Y-64294454D01*
X161648986Y-64250997D01*
X161537333Y-64240000D01*
X161537322Y-64240000D01*
X161500000Y-64236324D01*
X161462678Y-64240000D01*
X158203711Y-64240000D01*
X158159774Y-64196063D01*
X157990256Y-64082795D01*
X157801898Y-64004774D01*
X157601939Y-63965000D01*
X157398061Y-63965000D01*
X157198102Y-64004774D01*
X157009744Y-64082795D01*
X156840226Y-64196063D01*
X156696063Y-64340226D01*
X156582795Y-64509744D01*
X156504774Y-64698102D01*
X156465000Y-64898061D01*
X156465000Y-65101939D01*
X156504774Y-65301898D01*
X156582795Y-65490256D01*
X156696063Y-65659774D01*
X156840226Y-65803937D01*
X157009744Y-65917205D01*
X157198102Y-65995226D01*
X157398061Y-66035000D01*
X157501413Y-66035000D01*
X157504774Y-66051898D01*
X157582795Y-66240256D01*
X157696063Y-66409774D01*
X157840226Y-66553937D01*
X158009744Y-66667205D01*
X158198102Y-66745226D01*
X158398061Y-66785000D01*
X158601939Y-66785000D01*
X158801898Y-66745226D01*
X158990256Y-66667205D01*
X159159774Y-66553937D01*
X159203711Y-66510000D01*
X161185198Y-66510000D01*
X161238997Y-66563799D01*
X161239002Y-66563803D01*
X161965000Y-67289802D01*
X161965000Y-67351939D01*
X162004774Y-67551898D01*
X162082689Y-67740000D01*
X154314802Y-67740000D01*
X153858497Y-67283696D01*
X154051898Y-67245226D01*
X154240256Y-67167205D01*
X154409774Y-67053937D01*
X154453711Y-67010000D01*
X155046289Y-67010000D01*
X155090226Y-67053937D01*
X155259744Y-67167205D01*
X155448102Y-67245226D01*
X155648061Y-67285000D01*
X155851939Y-67285000D01*
X156051898Y-67245226D01*
X156240256Y-67167205D01*
X156409774Y-67053937D01*
X156553937Y-66909774D01*
X156667205Y-66740256D01*
X156745226Y-66551898D01*
X156785000Y-66351939D01*
X156785000Y-66148061D01*
X156745226Y-65948102D01*
X156667205Y-65759744D01*
X156553937Y-65590226D01*
X156409774Y-65446063D01*
X156240256Y-65332795D01*
X156051898Y-65254774D01*
X155851939Y-65215000D01*
X155648061Y-65215000D01*
X155448102Y-65254774D01*
X155259744Y-65332795D01*
X155090226Y-65446063D01*
X155046289Y-65490000D01*
X154453711Y-65490000D01*
X154409774Y-65446063D01*
X154240256Y-65332795D01*
X154051898Y-65254774D01*
X153851939Y-65215000D01*
X153648061Y-65215000D01*
X153448102Y-65254774D01*
X153259744Y-65332795D01*
X153090226Y-65446063D01*
X152946063Y-65590226D01*
X152832795Y-65759744D01*
X152789035Y-65865388D01*
X152740256Y-65832795D01*
X152551898Y-65754774D01*
X152351939Y-65715000D01*
X152148061Y-65715000D01*
X151948102Y-65754774D01*
X151759744Y-65832795D01*
X151590226Y-65946063D01*
X151446063Y-66090226D01*
X151332795Y-66259744D01*
X151254774Y-66448102D01*
X151251413Y-66465000D01*
X151148061Y-66465000D01*
X150948102Y-66504774D01*
X150759744Y-66582795D01*
X150590226Y-66696063D01*
X150446063Y-66840226D01*
X150332795Y-67009744D01*
X150254774Y-67198102D01*
X150215000Y-67398061D01*
X150215000Y-67601939D01*
X150254774Y-67801898D01*
X150332795Y-67990256D01*
X150446063Y-68159774D01*
X150590226Y-68303937D01*
X150759744Y-68417205D01*
X150948102Y-68495226D01*
X151148061Y-68535000D01*
X151351939Y-68535000D01*
X151551898Y-68495226D01*
X151740256Y-68417205D01*
X151909774Y-68303937D01*
X151944455Y-68269256D01*
X153186201Y-69511003D01*
X153209999Y-69540001D01*
X153325724Y-69634974D01*
X153457753Y-69705546D01*
X153601014Y-69749003D01*
X153712667Y-69760000D01*
X153712676Y-69760000D01*
X153749999Y-69763676D01*
X153787322Y-69760000D01*
X166599088Y-69760000D01*
X166636410Y-69763676D01*
X166673732Y-69760000D01*
X166673743Y-69760000D01*
X166785396Y-69749003D01*
X166928657Y-69705546D01*
X167060686Y-69634974D01*
X167176411Y-69540001D01*
X167200213Y-69510998D01*
X167740000Y-68971211D01*
X167740001Y-81185197D01*
X166935199Y-81990000D01*
X165787333Y-81990000D01*
X165750000Y-81986323D01*
X165712667Y-81990000D01*
X165601014Y-82000997D01*
X165457753Y-82044454D01*
X165325724Y-82115026D01*
X165209999Y-82209999D01*
X165186201Y-82238997D01*
X164710199Y-82715000D01*
X164648061Y-82715000D01*
X164448102Y-82754774D01*
X164259744Y-82832795D01*
X164090226Y-82946063D01*
X163946063Y-83090226D01*
X163833496Y-83258695D01*
X163720000Y-83145199D01*
X163720000Y-82528178D01*
X163906632Y-82403475D01*
X164113475Y-82196632D01*
X164275990Y-81953411D01*
X164387932Y-81683158D01*
X164445000Y-81396260D01*
X164445000Y-81103740D01*
X164387932Y-80816842D01*
X164275990Y-80546589D01*
X164113475Y-80303368D01*
X163906632Y-80096525D01*
X163663411Y-79934010D01*
X163393158Y-79822068D01*
X163106260Y-79765000D01*
X162813740Y-79765000D01*
X162526842Y-79822068D01*
X162256589Y-79934010D01*
X162013368Y-80096525D01*
X161806525Y-80303368D01*
X161690000Y-80477760D01*
X161573475Y-80303368D01*
X161366632Y-80096525D01*
X161123411Y-79934010D01*
X160853158Y-79822068D01*
X160566260Y-79765000D01*
X160273740Y-79765000D01*
X159986842Y-79822068D01*
X159716589Y-79934010D01*
X159473368Y-80096525D01*
X159266525Y-80303368D01*
X159150000Y-80477760D01*
X159033475Y-80303368D01*
X158826632Y-80096525D01*
X158583411Y-79934010D01*
X158313158Y-79822068D01*
X158026260Y-79765000D01*
X157733740Y-79765000D01*
X157446842Y-79822068D01*
X157176589Y-79934010D01*
X156933368Y-80096525D01*
X156726525Y-80303368D01*
X156610000Y-80477760D01*
X156493475Y-80303368D01*
X156286632Y-80096525D01*
X156043411Y-79934010D01*
X155773158Y-79822068D01*
X155486260Y-79765000D01*
X155193740Y-79765000D01*
X154906842Y-79822068D01*
X154636589Y-79934010D01*
X154393368Y-80096525D01*
X154186525Y-80303368D01*
X154070000Y-80477760D01*
X153953475Y-80303368D01*
X153746632Y-80096525D01*
X153503411Y-79934010D01*
X153233158Y-79822068D01*
X152946260Y-79765000D01*
X152653740Y-79765000D01*
X152366842Y-79822068D01*
X152096589Y-79934010D01*
X151853368Y-80096525D01*
X151646525Y-80303368D01*
X151484010Y-80546589D01*
X151372068Y-80816842D01*
X151315000Y-81103740D01*
X151315000Y-81396260D01*
X151372068Y-81683158D01*
X151484010Y-81953411D01*
X151646525Y-82196632D01*
X151853368Y-82403475D01*
X152096589Y-82565990D01*
X152366842Y-82677932D01*
X152576670Y-82719670D01*
X153522569Y-83665569D01*
X153532795Y-83690256D01*
X153646063Y-83859774D01*
X153790226Y-84003937D01*
X153959744Y-84117205D01*
X154148102Y-84195226D01*
X154348061Y-84235000D01*
X154551939Y-84235000D01*
X154751898Y-84195226D01*
X154940256Y-84117205D01*
X155109774Y-84003937D01*
X155253937Y-83859774D01*
X155367205Y-83690256D01*
X155445226Y-83501898D01*
X155485000Y-83301939D01*
X155485000Y-83098061D01*
X155445226Y-82898102D01*
X155377666Y-82735000D01*
X155486260Y-82735000D01*
X155773158Y-82677932D01*
X156043411Y-82565990D01*
X156286632Y-82403475D01*
X156493475Y-82196632D01*
X156610000Y-82022240D01*
X156726525Y-82196632D01*
X156745000Y-82215107D01*
X156745000Y-82574249D01*
X156739509Y-82630000D01*
X156745000Y-82685751D01*
X156745000Y-82685752D01*
X156761423Y-82852499D01*
X156826324Y-83066447D01*
X156931717Y-83263623D01*
X157073552Y-83436449D01*
X157116860Y-83471991D01*
X158269820Y-84624952D01*
X158250000Y-84623000D01*
X155250000Y-84623000D01*
X155225224Y-84625440D01*
X155201399Y-84632667D01*
X155179443Y-84644403D01*
X155160197Y-84660197D01*
X155144403Y-84679443D01*
X155132667Y-84701399D01*
X155125440Y-84725224D01*
X155123000Y-84750000D01*
X155123000Y-87123000D01*
X135627000Y-87123000D01*
X135627000Y-85500000D01*
X135624560Y-85475224D01*
X135617333Y-85451399D01*
X135605597Y-85429443D01*
X135589803Y-85410197D01*
X135570557Y-85394403D01*
X135548601Y-85382667D01*
X135524776Y-85375440D01*
X135500000Y-85373000D01*
X132500000Y-85373000D01*
X132475224Y-85375440D01*
X132451399Y-85382667D01*
X132429443Y-85394403D01*
X132410197Y-85410197D01*
X132394403Y-85429443D01*
X132382667Y-85451399D01*
X132375440Y-85475224D01*
X132373000Y-85500000D01*
X132373000Y-87123000D01*
X128127000Y-87123000D01*
X128127000Y-74377000D01*
X131974224Y-74377000D01*
X131836589Y-74434010D01*
X131593368Y-74596525D01*
X131386525Y-74803368D01*
X131224010Y-75046589D01*
X131112068Y-75316842D01*
X131055000Y-75603740D01*
X131055000Y-75896260D01*
X131112068Y-76183158D01*
X131224010Y-76453411D01*
X131386525Y-76696632D01*
X131593368Y-76903475D01*
X131836589Y-77065990D01*
X132106842Y-77177932D01*
X132393740Y-77235000D01*
X132686260Y-77235000D01*
X132973158Y-77177932D01*
X133243411Y-77065990D01*
X133486632Y-76903475D01*
X133693475Y-76696632D01*
X133810000Y-76522240D01*
X133926525Y-76696632D01*
X134133368Y-76903475D01*
X134376589Y-77065990D01*
X134646842Y-77177932D01*
X134933740Y-77235000D01*
X135226260Y-77235000D01*
X135513158Y-77177932D01*
X135783411Y-77065990D01*
X136026632Y-76903475D01*
X136233475Y-76696632D01*
X136350000Y-76522240D01*
X136466525Y-76696632D01*
X136673368Y-76903475D01*
X136694763Y-76917771D01*
X136659687Y-76928411D01*
X136505941Y-77010589D01*
X136505939Y-77010590D01*
X136505940Y-77010590D01*
X136404953Y-77093468D01*
X136404951Y-77093470D01*
X136371183Y-77121183D01*
X136343470Y-77154951D01*
X134484951Y-79013471D01*
X134451184Y-79041183D01*
X134423471Y-79074951D01*
X134423468Y-79074954D01*
X134340590Y-79175941D01*
X134258412Y-79329687D01*
X134207805Y-79496510D01*
X134190719Y-79670000D01*
X134195001Y-79713479D01*
X134195001Y-80055343D01*
X134133368Y-80096525D01*
X133926525Y-80303368D01*
X133810000Y-80477760D01*
X133693475Y-80303368D01*
X133486632Y-80096525D01*
X133243411Y-79934010D01*
X132973158Y-79822068D01*
X132686260Y-79765000D01*
X132393740Y-79765000D01*
X132106842Y-79822068D01*
X131836589Y-79934010D01*
X131593368Y-80096525D01*
X131386525Y-80303368D01*
X131270000Y-80477760D01*
X131153475Y-80303368D01*
X130946632Y-80096525D01*
X130703411Y-79934010D01*
X130433158Y-79822068D01*
X130146260Y-79765000D01*
X129853740Y-79765000D01*
X129566842Y-79822068D01*
X129296589Y-79934010D01*
X129053368Y-80096525D01*
X128846525Y-80303368D01*
X128684010Y-80546589D01*
X128572068Y-80816842D01*
X128515000Y-81103740D01*
X128515000Y-81396260D01*
X128572068Y-81683158D01*
X128684010Y-81953411D01*
X128846525Y-82196632D01*
X129053368Y-82403475D01*
X129296589Y-82565990D01*
X129566842Y-82677932D01*
X129853740Y-82735000D01*
X129892000Y-82735000D01*
X130822570Y-83665571D01*
X130832795Y-83690256D01*
X130946063Y-83859774D01*
X131090226Y-84003937D01*
X131259744Y-84117205D01*
X131448102Y-84195226D01*
X131648061Y-84235000D01*
X131851939Y-84235000D01*
X132051898Y-84195226D01*
X132240256Y-84117205D01*
X132409774Y-84003937D01*
X132553937Y-83859774D01*
X132667205Y-83690256D01*
X132745226Y-83501898D01*
X132785000Y-83301939D01*
X132785000Y-83098061D01*
X132745226Y-82898102D01*
X132677666Y-82735000D01*
X132686260Y-82735000D01*
X132973158Y-82677932D01*
X133243411Y-82565990D01*
X133486632Y-82403475D01*
X133693475Y-82196632D01*
X133810000Y-82022240D01*
X133926525Y-82196632D01*
X134133368Y-82403475D01*
X134376589Y-82565990D01*
X134646842Y-82677932D01*
X134933740Y-82735000D01*
X135226260Y-82735000D01*
X135513158Y-82677932D01*
X135783411Y-82565990D01*
X136026632Y-82403475D01*
X136233475Y-82196632D01*
X136350000Y-82022240D01*
X136466525Y-82196632D01*
X136673368Y-82403475D01*
X136916589Y-82565990D01*
X137186842Y-82677932D01*
X137473740Y-82735000D01*
X137766260Y-82735000D01*
X138053158Y-82677932D01*
X138323411Y-82565990D01*
X138566632Y-82403475D01*
X138773475Y-82196632D01*
X138890000Y-82022240D01*
X139006525Y-82196632D01*
X139213368Y-82403475D01*
X139456589Y-82565990D01*
X139726842Y-82677932D01*
X140013740Y-82735000D01*
X140306260Y-82735000D01*
X140593158Y-82677932D01*
X140863411Y-82565990D01*
X141106632Y-82403475D01*
X141313475Y-82196632D01*
X141475990Y-81953411D01*
X141587932Y-81683158D01*
X141645000Y-81396260D01*
X141645000Y-81103740D01*
X147555000Y-81103740D01*
X147555000Y-81396260D01*
X147612068Y-81683158D01*
X147724010Y-81953411D01*
X147886525Y-82196632D01*
X148093368Y-82403475D01*
X148336589Y-82565990D01*
X148606842Y-82677932D01*
X148893740Y-82735000D01*
X149186260Y-82735000D01*
X149473158Y-82677932D01*
X149743411Y-82565990D01*
X149986632Y-82403475D01*
X150193475Y-82196632D01*
X150355990Y-81953411D01*
X150467932Y-81683158D01*
X150525000Y-81396260D01*
X150525000Y-81103740D01*
X150467932Y-80816842D01*
X150355990Y-80546589D01*
X150193475Y-80303368D01*
X149986632Y-80096525D01*
X149743411Y-79934010D01*
X149473158Y-79822068D01*
X149352910Y-79798149D01*
X149427490Y-79783314D01*
X149681727Y-79678005D01*
X149910535Y-79525120D01*
X150105120Y-79330535D01*
X150258005Y-79101727D01*
X150290000Y-79024485D01*
X150321995Y-79101727D01*
X150474880Y-79330535D01*
X150669465Y-79525120D01*
X150898273Y-79678005D01*
X151152510Y-79783314D01*
X151422408Y-79837000D01*
X151697592Y-79837000D01*
X151967490Y-79783314D01*
X152221727Y-79678005D01*
X152450535Y-79525120D01*
X152645120Y-79330535D01*
X152798005Y-79101727D01*
X152903314Y-78847490D01*
X152957000Y-78577592D01*
X152957000Y-78302408D01*
X152903314Y-78032510D01*
X152798005Y-77778273D01*
X152645120Y-77549465D01*
X152450535Y-77354880D01*
X152221727Y-77201995D01*
X151967490Y-77096686D01*
X151697592Y-77043000D01*
X151422408Y-77043000D01*
X151152510Y-77096686D01*
X150898273Y-77201995D01*
X150669465Y-77354880D01*
X150474880Y-77549465D01*
X150321995Y-77778273D01*
X150290000Y-77855515D01*
X150258005Y-77778273D01*
X150105120Y-77549465D01*
X149910535Y-77354880D01*
X149681727Y-77201995D01*
X149427490Y-77096686D01*
X149157592Y-77043000D01*
X148882408Y-77043000D01*
X148612510Y-77096686D01*
X148358273Y-77201995D01*
X148129465Y-77354880D01*
X147934880Y-77549465D01*
X147781995Y-77778273D01*
X147676686Y-78032510D01*
X147623000Y-78302408D01*
X147623000Y-78577592D01*
X147676686Y-78847490D01*
X147781995Y-79101727D01*
X147934880Y-79330535D01*
X148129465Y-79525120D01*
X148358273Y-79678005D01*
X148612510Y-79783314D01*
X148707090Y-79802127D01*
X148606842Y-79822068D01*
X148336589Y-79934010D01*
X148093368Y-80096525D01*
X147886525Y-80303368D01*
X147724010Y-80546589D01*
X147612068Y-80816842D01*
X147555000Y-81103740D01*
X141645000Y-81103740D01*
X141587932Y-80816842D01*
X141475990Y-80546589D01*
X141313475Y-80303368D01*
X141106632Y-80096525D01*
X140863411Y-79934010D01*
X140593158Y-79822068D01*
X140306260Y-79765000D01*
X140013740Y-79765000D01*
X139726842Y-79822068D01*
X139456589Y-79934010D01*
X139213368Y-80096525D01*
X139006525Y-80303368D01*
X138890000Y-80477760D01*
X138773475Y-80303368D01*
X138566632Y-80096525D01*
X138323411Y-79934010D01*
X138053158Y-79822068D01*
X137766260Y-79765000D01*
X137473740Y-79765000D01*
X137186842Y-79822068D01*
X136916589Y-79934010D01*
X136673368Y-80096525D01*
X136466525Y-80303368D01*
X136350000Y-80477760D01*
X136233475Y-80303368D01*
X136026632Y-80096525D01*
X135965000Y-80055344D01*
X135965000Y-80036578D01*
X137366579Y-78635000D01*
X139576533Y-78635000D01*
X139619999Y-78639281D01*
X139663465Y-78635000D01*
X142554419Y-78635000D01*
X142596686Y-78847490D01*
X142701995Y-79101727D01*
X142854880Y-79330535D01*
X143049465Y-79525120D01*
X143278273Y-79678005D01*
X143532510Y-79783314D01*
X143802408Y-79837000D01*
X144077592Y-79837000D01*
X144347490Y-79783314D01*
X144601727Y-79678005D01*
X144830535Y-79525120D01*
X145025120Y-79330535D01*
X145178005Y-79101727D01*
X145283314Y-78847490D01*
X145319485Y-78665647D01*
X145513140Y-78471992D01*
X145556449Y-78436449D01*
X145698284Y-78263623D01*
X145803676Y-78066447D01*
X145868577Y-77852499D01*
X145885000Y-77685752D01*
X145890491Y-77630000D01*
X145885000Y-77574249D01*
X145885000Y-75720131D01*
X146470132Y-75135000D01*
X153987389Y-75135000D01*
X153912068Y-75316842D01*
X153855000Y-75603740D01*
X153855000Y-75896260D01*
X153912068Y-76183158D01*
X154024010Y-76453411D01*
X154186525Y-76696632D01*
X154393368Y-76903475D01*
X154636589Y-77065990D01*
X154906842Y-77177932D01*
X155193740Y-77235000D01*
X155486260Y-77235000D01*
X155773158Y-77177932D01*
X156043411Y-77065990D01*
X156286632Y-76903475D01*
X156493475Y-76696632D01*
X156610000Y-76522240D01*
X156726525Y-76696632D01*
X156933368Y-76903475D01*
X157176589Y-77065990D01*
X157446842Y-77177932D01*
X157733740Y-77235000D01*
X158026260Y-77235000D01*
X158313158Y-77177932D01*
X158583411Y-77065990D01*
X158826632Y-76903475D01*
X159033475Y-76696632D01*
X159150000Y-76522240D01*
X159266525Y-76696632D01*
X159473368Y-76903475D01*
X159716589Y-77065990D01*
X159986842Y-77177932D01*
X160273740Y-77235000D01*
X160566260Y-77235000D01*
X160853158Y-77177932D01*
X161123411Y-77065990D01*
X161366632Y-76903475D01*
X161573475Y-76696632D01*
X161690000Y-76522240D01*
X161806525Y-76696632D01*
X162013368Y-76903475D01*
X162256589Y-77065990D01*
X162526842Y-77177932D01*
X162813740Y-77235000D01*
X163106260Y-77235000D01*
X163393158Y-77177932D01*
X163663411Y-77065990D01*
X163906632Y-76903475D01*
X164113475Y-76696632D01*
X164230000Y-76522240D01*
X164346525Y-76696632D01*
X164553368Y-76903475D01*
X164796589Y-77065990D01*
X165066842Y-77177932D01*
X165353740Y-77235000D01*
X165646260Y-77235000D01*
X165933158Y-77177932D01*
X166203411Y-77065990D01*
X166446632Y-76903475D01*
X166653475Y-76696632D01*
X166815990Y-76453411D01*
X166927932Y-76183158D01*
X166985000Y-75896260D01*
X166985000Y-75603740D01*
X166927932Y-75316842D01*
X166815990Y-75046589D01*
X166653475Y-74803368D01*
X166446632Y-74596525D01*
X166203411Y-74434010D01*
X165933158Y-74322068D01*
X165910576Y-74317576D01*
X164877431Y-73284431D01*
X164867205Y-73259744D01*
X164753937Y-73090226D01*
X164609774Y-72946063D01*
X164440256Y-72832795D01*
X164251898Y-72754774D01*
X164051939Y-72715000D01*
X163848061Y-72715000D01*
X163648102Y-72754774D01*
X163459744Y-72832795D01*
X163290226Y-72946063D01*
X163146063Y-73090226D01*
X163127000Y-73118756D01*
X163127000Y-70250000D01*
X163124560Y-70225224D01*
X163117333Y-70201399D01*
X163105597Y-70179443D01*
X163089803Y-70160197D01*
X163070557Y-70144403D01*
X163048601Y-70132667D01*
X163024776Y-70125440D01*
X163000000Y-70123000D01*
X159000000Y-70123000D01*
X158975224Y-70125440D01*
X158951399Y-70132667D01*
X158929443Y-70144403D01*
X158910197Y-70160197D01*
X158894403Y-70179443D01*
X158882667Y-70201399D01*
X158875440Y-70225224D01*
X158873000Y-70250000D01*
X158873000Y-70623000D01*
X141127000Y-70623000D01*
X141127000Y-69250000D01*
X141124560Y-69225224D01*
X141117333Y-69201399D01*
X141105597Y-69179443D01*
X141089803Y-69160197D01*
X141070557Y-69144403D01*
X141048601Y-69132667D01*
X141024776Y-69125440D01*
X141000000Y-69123000D01*
X123000000Y-69123000D01*
X122975224Y-69125440D01*
X122951399Y-69132667D01*
X122929443Y-69144403D01*
X122910197Y-69160197D01*
X122894403Y-69179443D01*
X122882667Y-69201399D01*
X122875440Y-69225224D01*
X122873000Y-69250000D01*
X122873000Y-82048198D01*
X117510000Y-76685199D01*
X117510000Y-71936867D01*
X117516525Y-71946632D01*
X117723368Y-72153475D01*
X117966589Y-72315990D01*
X118236842Y-72427932D01*
X118523740Y-72485000D01*
X118816260Y-72485000D01*
X119103158Y-72427932D01*
X119373411Y-72315990D01*
X119616632Y-72153475D01*
X119823475Y-71946632D01*
X119845151Y-71914191D01*
X120048287Y-72161714D01*
X120297249Y-72366031D01*
X120581286Y-72517852D01*
X120889485Y-72611343D01*
X121210000Y-72642911D01*
X121530516Y-72611343D01*
X121838715Y-72517852D01*
X122122752Y-72366031D01*
X122371714Y-72161714D01*
X122576031Y-71912752D01*
X122727852Y-71628715D01*
X122821343Y-71320516D01*
X122845000Y-71080322D01*
X122845000Y-68379678D01*
X122821343Y-68139484D01*
X122727852Y-67831285D01*
X122576031Y-67547248D01*
X122371714Y-67298286D01*
X122122751Y-67093969D01*
X121838714Y-66942148D01*
X121530515Y-66848657D01*
X121210000Y-66817089D01*
X120889484Y-66848657D01*
X120581285Y-66942148D01*
X120297248Y-67093969D01*
X120048286Y-67298286D01*
X119845151Y-67545809D01*
X119823475Y-67513368D01*
X119616632Y-67306525D01*
X119373411Y-67144010D01*
X119103158Y-67032068D01*
X118816260Y-66975000D01*
X118523740Y-66975000D01*
X118236842Y-67032068D01*
X118010000Y-67126029D01*
X118010000Y-67064801D01*
X120314802Y-64760000D01*
X120319351Y-64760000D01*
X120292795Y-64799744D01*
X120214774Y-64988102D01*
X120175000Y-65188061D01*
X120175000Y-65391939D01*
X120214774Y-65591898D01*
X120292795Y-65780256D01*
X120406063Y-65949774D01*
X120550226Y-66093937D01*
X120719744Y-66207205D01*
X120908102Y-66285226D01*
X121108061Y-66325000D01*
X121311939Y-66325000D01*
X121511898Y-66285226D01*
X121700256Y-66207205D01*
X121869774Y-66093937D01*
X122013937Y-65949774D01*
X122127205Y-65780256D01*
X122205226Y-65591898D01*
X122245000Y-65391939D01*
X122245000Y-65329802D01*
X122314802Y-65260000D01*
X131185199Y-65260000D01*
X132936201Y-67011003D01*
X132959999Y-67040001D01*
X132988997Y-67063799D01*
X133075723Y-67134974D01*
X133190012Y-67196063D01*
X133207753Y-67205546D01*
X133351014Y-67249003D01*
X133462667Y-67260000D01*
X133462676Y-67260000D01*
X133499999Y-67263676D01*
X133537322Y-67260000D01*
X135212678Y-67260000D01*
X135250000Y-67263676D01*
X135287322Y-67260000D01*
X135287333Y-67260000D01*
X135398986Y-67249003D01*
X135542247Y-67205546D01*
X135674276Y-67134974D01*
X135790001Y-67040001D01*
X135813804Y-67010997D01*
X136064801Y-66760000D01*
X136296289Y-66760000D01*
X136340226Y-66803937D01*
X136509744Y-66917205D01*
X136698102Y-66995226D01*
X136898061Y-67035000D01*
X137101939Y-67035000D01*
X137301898Y-66995226D01*
X137490256Y-66917205D01*
X137659774Y-66803937D01*
X137803937Y-66659774D01*
X137917205Y-66490256D01*
X137995226Y-66301898D01*
X138035000Y-66101939D01*
X138035000Y-65898061D01*
X138007538Y-65760000D01*
X139996440Y-65760000D01*
X140004774Y-65801898D01*
X140039292Y-65885231D01*
X140036200Y-65888998D01*
X139488998Y-66436201D01*
X139460000Y-66459999D01*
X139436202Y-66488997D01*
X139436201Y-66488998D01*
X139365026Y-66575724D01*
X139294454Y-66707754D01*
X139281337Y-66750997D01*
X139250998Y-66851014D01*
X139247133Y-66890256D01*
X139236324Y-67000000D01*
X139240001Y-67037332D01*
X139240001Y-67296288D01*
X139196063Y-67340226D01*
X139082795Y-67509744D01*
X139004774Y-67698102D01*
X138965000Y-67898061D01*
X138965000Y-68101939D01*
X139004774Y-68301898D01*
X139082795Y-68490256D01*
X139196063Y-68659774D01*
X139340226Y-68803937D01*
X139509744Y-68917205D01*
X139698102Y-68995226D01*
X139898061Y-69035000D01*
X140101939Y-69035000D01*
X140301898Y-68995226D01*
X140490256Y-68917205D01*
X140659774Y-68803937D01*
X140803937Y-68659774D01*
X140917205Y-68490256D01*
X140989916Y-68314717D01*
X141436201Y-68761003D01*
X141459999Y-68790001D01*
X141488997Y-68813799D01*
X141575724Y-68884974D01*
X141707753Y-68955546D01*
X141851014Y-68999003D01*
X142000000Y-69013677D01*
X142037333Y-69010000D01*
X142796289Y-69010000D01*
X142840226Y-69053937D01*
X143009744Y-69167205D01*
X143198102Y-69245226D01*
X143398061Y-69285000D01*
X143601939Y-69285000D01*
X143801898Y-69245226D01*
X143990256Y-69167205D01*
X144159774Y-69053937D01*
X144250000Y-68963711D01*
X144340226Y-69053937D01*
X144509744Y-69167205D01*
X144698102Y-69245226D01*
X144898061Y-69285000D01*
X145101939Y-69285000D01*
X145301898Y-69245226D01*
X145490256Y-69167205D01*
X145659774Y-69053937D01*
X145803937Y-68909774D01*
X145917205Y-68740256D01*
X145995226Y-68551898D01*
X146035000Y-68351939D01*
X146035000Y-68148061D01*
X145995226Y-67948102D01*
X145917205Y-67759744D01*
X145803937Y-67590226D01*
X145659774Y-67446063D01*
X145490256Y-67332795D01*
X145301898Y-67254774D01*
X145101939Y-67215000D01*
X145039802Y-67215000D01*
X144535000Y-66710199D01*
X144535000Y-66648061D01*
X144495226Y-66448102D01*
X144417205Y-66259744D01*
X144303937Y-66090226D01*
X144159774Y-65946063D01*
X143990256Y-65832795D01*
X143801898Y-65754774D01*
X143601939Y-65715000D01*
X143398061Y-65715000D01*
X143198102Y-65754774D01*
X143009744Y-65832795D01*
X142910222Y-65899293D01*
X142803937Y-65740226D01*
X142659774Y-65596063D01*
X142628251Y-65575000D01*
X142659774Y-65553937D01*
X142803937Y-65409774D01*
X142917205Y-65240256D01*
X142995226Y-65051898D01*
X143035000Y-64851939D01*
X143035000Y-64760000D01*
X146185199Y-64760000D01*
X147436201Y-66011003D01*
X147459999Y-66040001D01*
X147575724Y-66134974D01*
X147707753Y-66205546D01*
X147851014Y-66249003D01*
X147962667Y-66260000D01*
X147962676Y-66260000D01*
X147999999Y-66263676D01*
X148037322Y-66260000D01*
X148962678Y-66260000D01*
X149000000Y-66263676D01*
X149037322Y-66260000D01*
X149037333Y-66260000D01*
X149148986Y-66249003D01*
X149292247Y-66205546D01*
X149424276Y-66134974D01*
X149540001Y-66040001D01*
X149563804Y-66010997D01*
X150010998Y-65563803D01*
X150040001Y-65540001D01*
X150134974Y-65424276D01*
X150205546Y-65292247D01*
X150249003Y-65148986D01*
X150260000Y-65037333D01*
X150260000Y-65037325D01*
X150263676Y-65000000D01*
X150260000Y-64962675D01*
X150260000Y-62285000D01*
X150351939Y-62285000D01*
X150551898Y-62245226D01*
X150740256Y-62167205D01*
X150875000Y-62077172D01*
X151009744Y-62167205D01*
X151198102Y-62245226D01*
X151398061Y-62285000D01*
X151601939Y-62285000D01*
X151801898Y-62245226D01*
X151990256Y-62167205D01*
X152159774Y-62053937D01*
X152303937Y-61909774D01*
X152417205Y-61740256D01*
X152495226Y-61551898D01*
X152503560Y-61510000D01*
X162435199Y-61510000D01*
X162715000Y-61789802D01*
G36*
X120740001Y-83564803D02*
G01*
X120740001Y-83979894D01*
X120696632Y-83936525D01*
X120453411Y-83774010D01*
X120183158Y-83662068D01*
X119896260Y-83605000D01*
X119603740Y-83605000D01*
X119316842Y-83662068D01*
X119046589Y-83774010D01*
X118803368Y-83936525D01*
X118596525Y-84143368D01*
X118480000Y-84317760D01*
X118363475Y-84143368D01*
X118156632Y-83936525D01*
X117913411Y-83774010D01*
X117643158Y-83662068D01*
X117356260Y-83605000D01*
X117063740Y-83605000D01*
X116776842Y-83662068D01*
X116506589Y-83774010D01*
X116263368Y-83936525D01*
X116056525Y-84143368D01*
X116010000Y-84212998D01*
X116010000Y-78834801D01*
X120740001Y-83564803D01*
G37*
X120740001Y-83564803D02*
X120740001Y-83979894D01*
X120696632Y-83936525D01*
X120453411Y-83774010D01*
X120183158Y-83662068D01*
X119896260Y-83605000D01*
X119603740Y-83605000D01*
X119316842Y-83662068D01*
X119046589Y-83774010D01*
X118803368Y-83936525D01*
X118596525Y-84143368D01*
X118480000Y-84317760D01*
X118363475Y-84143368D01*
X118156632Y-83936525D01*
X117913411Y-83774010D01*
X117643158Y-83662068D01*
X117356260Y-83605000D01*
X117063740Y-83605000D01*
X116776842Y-83662068D01*
X116506589Y-83774010D01*
X116263368Y-83936525D01*
X116056525Y-84143368D01*
X116010000Y-84212998D01*
X116010000Y-78834801D01*
X120740001Y-83564803D01*
G36*
X144274188Y-42275518D02*
G01*
X144261928Y-42400000D01*
X144265000Y-42964250D01*
X144423750Y-43123000D01*
X145623000Y-43123000D01*
X145623000Y-43103000D01*
X145877000Y-43103000D01*
X145877000Y-43123000D01*
X147076250Y-43123000D01*
X147235000Y-42964250D01*
X147238072Y-42400000D01*
X147225812Y-42275518D01*
X147190770Y-42160000D01*
X148309230Y-42160000D01*
X148274188Y-42275518D01*
X148261928Y-42400000D01*
X148265000Y-42964250D01*
X148423750Y-43123000D01*
X149623000Y-43123000D01*
X149623000Y-43103000D01*
X149877000Y-43103000D01*
X149877000Y-43123000D01*
X151076250Y-43123000D01*
X151235000Y-42964250D01*
X151238072Y-42400000D01*
X151225812Y-42275518D01*
X151190770Y-42160000D01*
X152059230Y-42160000D01*
X152024188Y-42275518D01*
X152011928Y-42400000D01*
X152015000Y-42964250D01*
X152173750Y-43123000D01*
X153373000Y-43123000D01*
X153373000Y-43103000D01*
X153627000Y-43103000D01*
X153627000Y-43123000D01*
X153647000Y-43123000D01*
X153647000Y-43377000D01*
X153627000Y-43377000D01*
X153627000Y-43397000D01*
X153373000Y-43397000D01*
X153373000Y-43377000D01*
X152173750Y-43377000D01*
X152015000Y-43535750D01*
X152011928Y-44100000D01*
X152024188Y-44224482D01*
X152060498Y-44344180D01*
X152119463Y-44454494D01*
X152198815Y-44551185D01*
X152295506Y-44630537D01*
X152405820Y-44689502D01*
X152478380Y-44711513D01*
X152346525Y-44843368D01*
X152184010Y-45086589D01*
X152072068Y-45356842D01*
X152015000Y-45643740D01*
X152015000Y-45936260D01*
X152072068Y-46223158D01*
X152184010Y-46493411D01*
X152346525Y-46736632D01*
X152553368Y-46943475D01*
X152727760Y-47060000D01*
X152553368Y-47176525D01*
X152346525Y-47383368D01*
X152184010Y-47626589D01*
X152072068Y-47896842D01*
X152015000Y-48183740D01*
X152015000Y-48476260D01*
X152072068Y-48763158D01*
X152184010Y-49033411D01*
X152346525Y-49276632D01*
X152553368Y-49483475D01*
X152563133Y-49490000D01*
X150686867Y-49490000D01*
X150696632Y-49483475D01*
X150903475Y-49276632D01*
X151065990Y-49033411D01*
X151177932Y-48763158D01*
X151235000Y-48476260D01*
X151235000Y-48183740D01*
X151177932Y-47896842D01*
X151065990Y-47626589D01*
X150903475Y-47383368D01*
X150696632Y-47176525D01*
X150522240Y-47060000D01*
X150696632Y-46943475D01*
X150903475Y-46736632D01*
X151065990Y-46493411D01*
X151177932Y-46223158D01*
X151235000Y-45936260D01*
X151235000Y-45643740D01*
X151177932Y-45356842D01*
X151065990Y-45086589D01*
X150903475Y-44843368D01*
X150771620Y-44711513D01*
X150844180Y-44689502D01*
X150954494Y-44630537D01*
X151051185Y-44551185D01*
X151130537Y-44454494D01*
X151189502Y-44344180D01*
X151225812Y-44224482D01*
X151238072Y-44100000D01*
X151235000Y-43535750D01*
X151076250Y-43377000D01*
X149877000Y-43377000D01*
X149877000Y-43397000D01*
X149623000Y-43397000D01*
X149623000Y-43377000D01*
X148423750Y-43377000D01*
X148265000Y-43535750D01*
X148261928Y-44100000D01*
X148274188Y-44224482D01*
X148310498Y-44344180D01*
X148369463Y-44454494D01*
X148448815Y-44551185D01*
X148545506Y-44630537D01*
X148591272Y-44655000D01*
X148515752Y-44655000D01*
X148460000Y-44649509D01*
X148404248Y-44655000D01*
X148237501Y-44671423D01*
X148023553Y-44736324D01*
X147826377Y-44841716D01*
X147653551Y-44983551D01*
X147618008Y-45026860D01*
X147196198Y-45448671D01*
X147177932Y-45356842D01*
X147065990Y-45086589D01*
X146903475Y-44843368D01*
X146771620Y-44711513D01*
X146844180Y-44689502D01*
X146954494Y-44630537D01*
X147051185Y-44551185D01*
X147130537Y-44454494D01*
X147189502Y-44344180D01*
X147225812Y-44224482D01*
X147238072Y-44100000D01*
X147235000Y-43535750D01*
X147076250Y-43377000D01*
X145877000Y-43377000D01*
X145877000Y-43397000D01*
X145623000Y-43397000D01*
X145623000Y-43377000D01*
X144423750Y-43377000D01*
X144265000Y-43535750D01*
X144261928Y-44100000D01*
X144274188Y-44224482D01*
X144310498Y-44344180D01*
X144369463Y-44454494D01*
X144448815Y-44551185D01*
X144545506Y-44630537D01*
X144655820Y-44689502D01*
X144728380Y-44711513D01*
X144596525Y-44843368D01*
X144434010Y-45086589D01*
X144322068Y-45356842D01*
X144265000Y-45643740D01*
X144265000Y-45936260D01*
X144322068Y-46223158D01*
X144434010Y-46493411D01*
X144596525Y-46736632D01*
X144803368Y-46943475D01*
X144977760Y-47060000D01*
X144803368Y-47176525D01*
X144596525Y-47383368D01*
X144434010Y-47626589D01*
X144322068Y-47896842D01*
X144265000Y-48183740D01*
X144265000Y-48476260D01*
X144322068Y-48763158D01*
X144434010Y-49033411D01*
X144596525Y-49276632D01*
X144803368Y-49483475D01*
X145046589Y-49645990D01*
X145316842Y-49757932D01*
X145603740Y-49815000D01*
X145896260Y-49815000D01*
X146183158Y-49757932D01*
X146453411Y-49645990D01*
X146590434Y-49554434D01*
X144986860Y-51158009D01*
X144943552Y-51193551D01*
X144801717Y-51366377D01*
X144696324Y-51563553D01*
X144636428Y-51761002D01*
X144631423Y-51777502D01*
X144609509Y-52000000D01*
X144615000Y-52055751D01*
X144615000Y-52365000D01*
X140616579Y-52365000D01*
X140006535Y-51754957D01*
X139995226Y-51698102D01*
X139917205Y-51509744D01*
X139803937Y-51340226D01*
X139659774Y-51196063D01*
X139490256Y-51082795D01*
X139301898Y-51004774D01*
X139101939Y-50965000D01*
X138898061Y-50965000D01*
X138698102Y-51004774D01*
X138509744Y-51082795D01*
X138340226Y-51196063D01*
X138196063Y-51340226D01*
X138082795Y-51509744D01*
X138004774Y-51698102D01*
X137965000Y-51898061D01*
X137965000Y-52101939D01*
X138004774Y-52301898D01*
X138082795Y-52490256D01*
X138196063Y-52659774D01*
X138340226Y-52803937D01*
X138509744Y-52917205D01*
X138698102Y-52995226D01*
X138754957Y-53006535D01*
X139593470Y-53845049D01*
X139621183Y-53878817D01*
X139654951Y-53906530D01*
X139654953Y-53906532D01*
X139676573Y-53924275D01*
X139755941Y-53989411D01*
X139909687Y-54071589D01*
X140006687Y-54101014D01*
X140076509Y-54122195D01*
X140091306Y-54123652D01*
X140206523Y-54135000D01*
X140206531Y-54135000D01*
X140250000Y-54139281D01*
X140293469Y-54135000D01*
X143259868Y-54135000D01*
X139029869Y-58365000D01*
X136220132Y-58365000D01*
X135591995Y-57736864D01*
X135556449Y-57693551D01*
X135383623Y-57551716D01*
X135186447Y-57446324D01*
X134972499Y-57381423D01*
X134805752Y-57365000D01*
X134805751Y-57365000D01*
X134750000Y-57359509D01*
X134694249Y-57365000D01*
X132805752Y-57365000D01*
X132750000Y-57359509D01*
X132527501Y-57381423D01*
X132313553Y-57446324D01*
X132116377Y-57551716D01*
X131986856Y-57658011D01*
X131986855Y-57658012D01*
X131943551Y-57693551D01*
X131908013Y-57736855D01*
X131279868Y-58365000D01*
X122845000Y-58365000D01*
X122845000Y-58095752D01*
X122850491Y-58040000D01*
X122828577Y-57817501D01*
X122763676Y-57603553D01*
X122658284Y-57406377D01*
X122516449Y-57233551D01*
X122343623Y-57091716D01*
X122146447Y-56986324D01*
X121932499Y-56921423D01*
X121765752Y-56905000D01*
X121710000Y-56899509D01*
X121654249Y-56905000D01*
X120765751Y-56905000D01*
X120710000Y-56899509D01*
X120654248Y-56905000D01*
X120487501Y-56921423D01*
X120273553Y-56986324D01*
X120076377Y-57091716D01*
X119903551Y-57233551D01*
X119761716Y-57406377D01*
X119656324Y-57603553D01*
X119591423Y-57817501D01*
X119569509Y-58040000D01*
X119575000Y-58095752D01*
X119575000Y-58984248D01*
X119572152Y-59013164D01*
X119551898Y-59004774D01*
X119351939Y-58965000D01*
X119148061Y-58965000D01*
X118948102Y-59004774D01*
X118759744Y-59082795D01*
X118590226Y-59196063D01*
X118446063Y-59340226D01*
X118332795Y-59509744D01*
X118254774Y-59698102D01*
X118215000Y-59898061D01*
X118215000Y-60101939D01*
X118250702Y-60281426D01*
X118207753Y-60294454D01*
X118075724Y-60365026D01*
X117959999Y-60459999D01*
X117936201Y-60488997D01*
X114410000Y-64015199D01*
X114410000Y-54500000D01*
X123736324Y-54500000D01*
X123740001Y-54537332D01*
X123740000Y-56212677D01*
X123736324Y-56250000D01*
X123740000Y-56287322D01*
X123740000Y-56287332D01*
X123750997Y-56398985D01*
X123785788Y-56513677D01*
X123794454Y-56542246D01*
X123865026Y-56674276D01*
X123904871Y-56722826D01*
X123959999Y-56790001D01*
X123965000Y-56794105D01*
X123965000Y-56851939D01*
X124004774Y-57051898D01*
X124082795Y-57240256D01*
X124196063Y-57409774D01*
X124340226Y-57553937D01*
X124509744Y-57667205D01*
X124698102Y-57745226D01*
X124898061Y-57785000D01*
X125101939Y-57785000D01*
X125301898Y-57745226D01*
X125490256Y-57667205D01*
X125659774Y-57553937D01*
X125803937Y-57409774D01*
X125917205Y-57240256D01*
X125995226Y-57051898D01*
X126035000Y-56851939D01*
X126035000Y-56648061D01*
X125995226Y-56448102D01*
X125917205Y-56259744D01*
X125881489Y-56206291D01*
X125936200Y-56261002D01*
X125959999Y-56290001D01*
X125988997Y-56313799D01*
X126075724Y-56384974D01*
X126207753Y-56455546D01*
X126351014Y-56499003D01*
X126500000Y-56513677D01*
X126537333Y-56510000D01*
X126796289Y-56510000D01*
X126840226Y-56553937D01*
X127009744Y-56667205D01*
X127198102Y-56745226D01*
X127398061Y-56785000D01*
X127601939Y-56785000D01*
X127801898Y-56745226D01*
X127990256Y-56667205D01*
X128159774Y-56553937D01*
X128203711Y-56510000D01*
X132496440Y-56510000D01*
X132504774Y-56551898D01*
X132582795Y-56740256D01*
X132696063Y-56909774D01*
X132840226Y-57053937D01*
X133009744Y-57167205D01*
X133198102Y-57245226D01*
X133398061Y-57285000D01*
X133601939Y-57285000D01*
X133801898Y-57245226D01*
X133990256Y-57167205D01*
X134159774Y-57053937D01*
X134303937Y-56909774D01*
X134417205Y-56740256D01*
X134495226Y-56551898D01*
X134535000Y-56351939D01*
X134535000Y-56148061D01*
X134495226Y-55948102D01*
X134417205Y-55759744D01*
X134303937Y-55590226D01*
X134213711Y-55500000D01*
X134303937Y-55409774D01*
X134417205Y-55240256D01*
X134495226Y-55051898D01*
X134535000Y-54851939D01*
X134535000Y-54648061D01*
X134495226Y-54448102D01*
X134417205Y-54259744D01*
X134303937Y-54090226D01*
X134159774Y-53946063D01*
X133990256Y-53832795D01*
X133801898Y-53754774D01*
X133601939Y-53715000D01*
X133398061Y-53715000D01*
X133198102Y-53754774D01*
X133009744Y-53832795D01*
X132840226Y-53946063D01*
X132696063Y-54090226D01*
X132582795Y-54259744D01*
X132504774Y-54448102D01*
X132496440Y-54490000D01*
X128814801Y-54490000D01*
X128563804Y-54239003D01*
X128540001Y-54209999D01*
X128424276Y-54115026D01*
X128292247Y-54044454D01*
X128148986Y-54000997D01*
X128037333Y-53990000D01*
X128037322Y-53990000D01*
X128000000Y-53986324D01*
X127962678Y-53990000D01*
X127703711Y-53990000D01*
X127659774Y-53946063D01*
X127490256Y-53832795D01*
X127301898Y-53754774D01*
X127101939Y-53715000D01*
X127039802Y-53715000D01*
X126563804Y-53239002D01*
X126540001Y-53209999D01*
X126424276Y-53115026D01*
X126292247Y-53044454D01*
X126148986Y-53000997D01*
X126037333Y-52990000D01*
X126037322Y-52990000D01*
X126000000Y-52986324D01*
X125962678Y-52990000D01*
X125287322Y-52990000D01*
X125249999Y-52986324D01*
X125212676Y-52990000D01*
X125212667Y-52990000D01*
X125101014Y-53000997D01*
X124957753Y-53044454D01*
X124825724Y-53115026D01*
X124709999Y-53209999D01*
X124686201Y-53238998D01*
X123988998Y-53936201D01*
X123960000Y-53959999D01*
X123936202Y-53988997D01*
X123936201Y-53988998D01*
X123865026Y-54075724D01*
X123794454Y-54207754D01*
X123750998Y-54351015D01*
X123736324Y-54500000D01*
X114410000Y-54500000D01*
X114410000Y-49532279D01*
X114419580Y-49434576D01*
X114438580Y-49371644D01*
X114469445Y-49313595D01*
X114510989Y-49262657D01*
X114561644Y-49220752D01*
X114619471Y-49189485D01*
X114682272Y-49170044D01*
X114777835Y-49160000D01*
X139282419Y-49160000D01*
X139310674Y-49157217D01*
X139316801Y-49157260D01*
X139325972Y-49156360D01*
X139520069Y-49135959D01*
X139578658Y-49123932D01*
X139637423Y-49112723D01*
X139646245Y-49110059D01*
X139832683Y-49052347D01*
X139887838Y-49029162D01*
X139943291Y-49006758D01*
X139951427Y-49002432D01*
X140123104Y-48909607D01*
X140172699Y-48876154D01*
X140222753Y-48843400D01*
X140229894Y-48837576D01*
X140380272Y-48713172D01*
X140422411Y-48670737D01*
X140465161Y-48628874D01*
X140471034Y-48621773D01*
X140529649Y-48549904D01*
X140572068Y-48763158D01*
X140684010Y-49033411D01*
X140846525Y-49276632D01*
X141053368Y-49483475D01*
X141296589Y-49645990D01*
X141566842Y-49757932D01*
X141853740Y-49815000D01*
X142146260Y-49815000D01*
X142433158Y-49757932D01*
X142703411Y-49645990D01*
X142946632Y-49483475D01*
X143153475Y-49276632D01*
X143315990Y-49033411D01*
X143427932Y-48763158D01*
X143485000Y-48476260D01*
X143485000Y-48183740D01*
X143427932Y-47896842D01*
X143315990Y-47626589D01*
X143153475Y-47383368D01*
X142946632Y-47176525D01*
X142772240Y-47060000D01*
X142946632Y-46943475D01*
X143153475Y-46736632D01*
X143315990Y-46493411D01*
X143427932Y-46223158D01*
X143485000Y-45936260D01*
X143485000Y-45643740D01*
X143427932Y-45356842D01*
X143315990Y-45086589D01*
X143153475Y-44843368D01*
X143021620Y-44711513D01*
X143094180Y-44689502D01*
X143204494Y-44630537D01*
X143301185Y-44551185D01*
X143380537Y-44454494D01*
X143439502Y-44344180D01*
X143475812Y-44224482D01*
X143488072Y-44100000D01*
X143485000Y-43535750D01*
X143326250Y-43377000D01*
X142127000Y-43377000D01*
X142127000Y-43397000D01*
X141873000Y-43397000D01*
X141873000Y-43377000D01*
X141853000Y-43377000D01*
X141853000Y-43123000D01*
X141873000Y-43123000D01*
X141873000Y-43103000D01*
X142127000Y-43103000D01*
X142127000Y-43123000D01*
X143326250Y-43123000D01*
X143485000Y-42964250D01*
X143488072Y-42400000D01*
X143475812Y-42275518D01*
X143440770Y-42160000D01*
X144309230Y-42160000D01*
X144274188Y-42275518D01*
G37*
X144274188Y-42275518D02*
X144261928Y-42400000D01*
X144265000Y-42964250D01*
X144423750Y-43123000D01*
X145623000Y-43123000D01*
X145623000Y-43103000D01*
X145877000Y-43103000D01*
X145877000Y-43123000D01*
X147076250Y-43123000D01*
X147235000Y-42964250D01*
X147238072Y-42400000D01*
X147225812Y-42275518D01*
X147190770Y-42160000D01*
X148309230Y-42160000D01*
X148274188Y-42275518D01*
X148261928Y-42400000D01*
X148265000Y-42964250D01*
X148423750Y-43123000D01*
X149623000Y-43123000D01*
X149623000Y-43103000D01*
X149877000Y-43103000D01*
X149877000Y-43123000D01*
X151076250Y-43123000D01*
X151235000Y-42964250D01*
X151238072Y-42400000D01*
X151225812Y-42275518D01*
X151190770Y-42160000D01*
X152059230Y-42160000D01*
X152024188Y-42275518D01*
X152011928Y-42400000D01*
X152015000Y-42964250D01*
X152173750Y-43123000D01*
X153373000Y-43123000D01*
X153373000Y-43103000D01*
X153627000Y-43103000D01*
X153627000Y-43123000D01*
X153647000Y-43123000D01*
X153647000Y-43377000D01*
X153627000Y-43377000D01*
X153627000Y-43397000D01*
X153373000Y-43397000D01*
X153373000Y-43377000D01*
X152173750Y-43377000D01*
X152015000Y-43535750D01*
X152011928Y-44100000D01*
X152024188Y-44224482D01*
X152060498Y-44344180D01*
X152119463Y-44454494D01*
X152198815Y-44551185D01*
X152295506Y-44630537D01*
X152405820Y-44689502D01*
X152478380Y-44711513D01*
X152346525Y-44843368D01*
X152184010Y-45086589D01*
X152072068Y-45356842D01*
X152015000Y-45643740D01*
X152015000Y-45936260D01*
X152072068Y-46223158D01*
X152184010Y-46493411D01*
X152346525Y-46736632D01*
X152553368Y-46943475D01*
X152727760Y-47060000D01*
X152553368Y-47176525D01*
X152346525Y-47383368D01*
X152184010Y-47626589D01*
X152072068Y-47896842D01*
X152015000Y-48183740D01*
X152015000Y-48476260D01*
X152072068Y-48763158D01*
X152184010Y-49033411D01*
X152346525Y-49276632D01*
X152553368Y-49483475D01*
X152563133Y-49490000D01*
X150686867Y-49490000D01*
X150696632Y-49483475D01*
X150903475Y-49276632D01*
X151065990Y-49033411D01*
X151177932Y-48763158D01*
X151235000Y-48476260D01*
X151235000Y-48183740D01*
X151177932Y-47896842D01*
X151065990Y-47626589D01*
X150903475Y-47383368D01*
X150696632Y-47176525D01*
X150522240Y-47060000D01*
X150696632Y-46943475D01*
X150903475Y-46736632D01*
X151065990Y-46493411D01*
X151177932Y-46223158D01*
X151235000Y-45936260D01*
X151235000Y-45643740D01*
X151177932Y-45356842D01*
X151065990Y-45086589D01*
X150903475Y-44843368D01*
X150771620Y-44711513D01*
X150844180Y-44689502D01*
X150954494Y-44630537D01*
X151051185Y-44551185D01*
X151130537Y-44454494D01*
X151189502Y-44344180D01*
X151225812Y-44224482D01*
X151238072Y-44100000D01*
X151235000Y-43535750D01*
X151076250Y-43377000D01*
X149877000Y-43377000D01*
X149877000Y-43397000D01*
X149623000Y-43397000D01*
X149623000Y-43377000D01*
X148423750Y-43377000D01*
X148265000Y-43535750D01*
X148261928Y-44100000D01*
X148274188Y-44224482D01*
X148310498Y-44344180D01*
X148369463Y-44454494D01*
X148448815Y-44551185D01*
X148545506Y-44630537D01*
X148591272Y-44655000D01*
X148515752Y-44655000D01*
X148460000Y-44649509D01*
X148404248Y-44655000D01*
X148237501Y-44671423D01*
X148023553Y-44736324D01*
X147826377Y-44841716D01*
X147653551Y-44983551D01*
X147618008Y-45026860D01*
X147196198Y-45448671D01*
X147177932Y-45356842D01*
X147065990Y-45086589D01*
X146903475Y-44843368D01*
X146771620Y-44711513D01*
X146844180Y-44689502D01*
X146954494Y-44630537D01*
X147051185Y-44551185D01*
X147130537Y-44454494D01*
X147189502Y-44344180D01*
X147225812Y-44224482D01*
X147238072Y-44100000D01*
X147235000Y-43535750D01*
X147076250Y-43377000D01*
X145877000Y-43377000D01*
X145877000Y-43397000D01*
X145623000Y-43397000D01*
X145623000Y-43377000D01*
X144423750Y-43377000D01*
X144265000Y-43535750D01*
X144261928Y-44100000D01*
X144274188Y-44224482D01*
X144310498Y-44344180D01*
X144369463Y-44454494D01*
X144448815Y-44551185D01*
X144545506Y-44630537D01*
X144655820Y-44689502D01*
X144728380Y-44711513D01*
X144596525Y-44843368D01*
X144434010Y-45086589D01*
X144322068Y-45356842D01*
X144265000Y-45643740D01*
X144265000Y-45936260D01*
X144322068Y-46223158D01*
X144434010Y-46493411D01*
X144596525Y-46736632D01*
X144803368Y-46943475D01*
X144977760Y-47060000D01*
X144803368Y-47176525D01*
X144596525Y-47383368D01*
X144434010Y-47626589D01*
X144322068Y-47896842D01*
X144265000Y-48183740D01*
X144265000Y-48476260D01*
X144322068Y-48763158D01*
X144434010Y-49033411D01*
X144596525Y-49276632D01*
X144803368Y-49483475D01*
X145046589Y-49645990D01*
X145316842Y-49757932D01*
X145603740Y-49815000D01*
X145896260Y-49815000D01*
X146183158Y-49757932D01*
X146453411Y-49645990D01*
X146590434Y-49554434D01*
X144986860Y-51158009D01*
X144943552Y-51193551D01*
X144801717Y-51366377D01*
X144696324Y-51563553D01*
X144636428Y-51761002D01*
X144631423Y-51777502D01*
X144609509Y-52000000D01*
X144615000Y-52055751D01*
X144615000Y-52365000D01*
X140616579Y-52365000D01*
X140006535Y-51754957D01*
X139995226Y-51698102D01*
X139917205Y-51509744D01*
X139803937Y-51340226D01*
X139659774Y-51196063D01*
X139490256Y-51082795D01*
X139301898Y-51004774D01*
X139101939Y-50965000D01*
X138898061Y-50965000D01*
X138698102Y-51004774D01*
X138509744Y-51082795D01*
X138340226Y-51196063D01*
X138196063Y-51340226D01*
X138082795Y-51509744D01*
X138004774Y-51698102D01*
X137965000Y-51898061D01*
X137965000Y-52101939D01*
X138004774Y-52301898D01*
X138082795Y-52490256D01*
X138196063Y-52659774D01*
X138340226Y-52803937D01*
X138509744Y-52917205D01*
X138698102Y-52995226D01*
X138754957Y-53006535D01*
X139593470Y-53845049D01*
X139621183Y-53878817D01*
X139654951Y-53906530D01*
X139654953Y-53906532D01*
X139676573Y-53924275D01*
X139755941Y-53989411D01*
X139909687Y-54071589D01*
X140006687Y-54101014D01*
X140076509Y-54122195D01*
X140091306Y-54123652D01*
X140206523Y-54135000D01*
X140206531Y-54135000D01*
X140250000Y-54139281D01*
X140293469Y-54135000D01*
X143259868Y-54135000D01*
X139029869Y-58365000D01*
X136220132Y-58365000D01*
X135591995Y-57736864D01*
X135556449Y-57693551D01*
X135383623Y-57551716D01*
X135186447Y-57446324D01*
X134972499Y-57381423D01*
X134805752Y-57365000D01*
X134805751Y-57365000D01*
X134750000Y-57359509D01*
X134694249Y-57365000D01*
X132805752Y-57365000D01*
X132750000Y-57359509D01*
X132527501Y-57381423D01*
X132313553Y-57446324D01*
X132116377Y-57551716D01*
X131986856Y-57658011D01*
X131986855Y-57658012D01*
X131943551Y-57693551D01*
X131908013Y-57736855D01*
X131279868Y-58365000D01*
X122845000Y-58365000D01*
X122845000Y-58095752D01*
X122850491Y-58040000D01*
X122828577Y-57817501D01*
X122763676Y-57603553D01*
X122658284Y-57406377D01*
X122516449Y-57233551D01*
X122343623Y-57091716D01*
X122146447Y-56986324D01*
X121932499Y-56921423D01*
X121765752Y-56905000D01*
X121710000Y-56899509D01*
X121654249Y-56905000D01*
X120765751Y-56905000D01*
X120710000Y-56899509D01*
X120654248Y-56905000D01*
X120487501Y-56921423D01*
X120273553Y-56986324D01*
X120076377Y-57091716D01*
X119903551Y-57233551D01*
X119761716Y-57406377D01*
X119656324Y-57603553D01*
X119591423Y-57817501D01*
X119569509Y-58040000D01*
X119575000Y-58095752D01*
X119575000Y-58984248D01*
X119572152Y-59013164D01*
X119551898Y-59004774D01*
X119351939Y-58965000D01*
X119148061Y-58965000D01*
X118948102Y-59004774D01*
X118759744Y-59082795D01*
X118590226Y-59196063D01*
X118446063Y-59340226D01*
X118332795Y-59509744D01*
X118254774Y-59698102D01*
X118215000Y-59898061D01*
X118215000Y-60101939D01*
X118250702Y-60281426D01*
X118207753Y-60294454D01*
X118075724Y-60365026D01*
X117959999Y-60459999D01*
X117936201Y-60488997D01*
X114410000Y-64015199D01*
X114410000Y-54500000D01*
X123736324Y-54500000D01*
X123740001Y-54537332D01*
X123740000Y-56212677D01*
X123736324Y-56250000D01*
X123740000Y-56287322D01*
X123740000Y-56287332D01*
X123750997Y-56398985D01*
X123785788Y-56513677D01*
X123794454Y-56542246D01*
X123865026Y-56674276D01*
X123904871Y-56722826D01*
X123959999Y-56790001D01*
X123965000Y-56794105D01*
X123965000Y-56851939D01*
X124004774Y-57051898D01*
X124082795Y-57240256D01*
X124196063Y-57409774D01*
X124340226Y-57553937D01*
X124509744Y-57667205D01*
X124698102Y-57745226D01*
X124898061Y-57785000D01*
X125101939Y-57785000D01*
X125301898Y-57745226D01*
X125490256Y-57667205D01*
X125659774Y-57553937D01*
X125803937Y-57409774D01*
X125917205Y-57240256D01*
X125995226Y-57051898D01*
X126035000Y-56851939D01*
X126035000Y-56648061D01*
X125995226Y-56448102D01*
X125917205Y-56259744D01*
X125881489Y-56206291D01*
X125936200Y-56261002D01*
X125959999Y-56290001D01*
X125988997Y-56313799D01*
X126075724Y-56384974D01*
X126207753Y-56455546D01*
X126351014Y-56499003D01*
X126500000Y-56513677D01*
X126537333Y-56510000D01*
X126796289Y-56510000D01*
X126840226Y-56553937D01*
X127009744Y-56667205D01*
X127198102Y-56745226D01*
X127398061Y-56785000D01*
X127601939Y-56785000D01*
X127801898Y-56745226D01*
X127990256Y-56667205D01*
X128159774Y-56553937D01*
X128203711Y-56510000D01*
X132496440Y-56510000D01*
X132504774Y-56551898D01*
X132582795Y-56740256D01*
X132696063Y-56909774D01*
X132840226Y-57053937D01*
X133009744Y-57167205D01*
X133198102Y-57245226D01*
X133398061Y-57285000D01*
X133601939Y-57285000D01*
X133801898Y-57245226D01*
X133990256Y-57167205D01*
X134159774Y-57053937D01*
X134303937Y-56909774D01*
X134417205Y-56740256D01*
X134495226Y-56551898D01*
X134535000Y-56351939D01*
X134535000Y-56148061D01*
X134495226Y-55948102D01*
X134417205Y-55759744D01*
X134303937Y-55590226D01*
X134213711Y-55500000D01*
X134303937Y-55409774D01*
X134417205Y-55240256D01*
X134495226Y-55051898D01*
X134535000Y-54851939D01*
X134535000Y-54648061D01*
X134495226Y-54448102D01*
X134417205Y-54259744D01*
X134303937Y-54090226D01*
X134159774Y-53946063D01*
X133990256Y-53832795D01*
X133801898Y-53754774D01*
X133601939Y-53715000D01*
X133398061Y-53715000D01*
X133198102Y-53754774D01*
X133009744Y-53832795D01*
X132840226Y-53946063D01*
X132696063Y-54090226D01*
X132582795Y-54259744D01*
X132504774Y-54448102D01*
X132496440Y-54490000D01*
X128814801Y-54490000D01*
X128563804Y-54239003D01*
X128540001Y-54209999D01*
X128424276Y-54115026D01*
X128292247Y-54044454D01*
X128148986Y-54000997D01*
X128037333Y-53990000D01*
X128037322Y-53990000D01*
X128000000Y-53986324D01*
X127962678Y-53990000D01*
X127703711Y-53990000D01*
X127659774Y-53946063D01*
X127490256Y-53832795D01*
X127301898Y-53754774D01*
X127101939Y-53715000D01*
X127039802Y-53715000D01*
X126563804Y-53239002D01*
X126540001Y-53209999D01*
X126424276Y-53115026D01*
X126292247Y-53044454D01*
X126148986Y-53000997D01*
X126037333Y-52990000D01*
X126037322Y-52990000D01*
X126000000Y-52986324D01*
X125962678Y-52990000D01*
X125287322Y-52990000D01*
X125249999Y-52986324D01*
X125212676Y-52990000D01*
X125212667Y-52990000D01*
X125101014Y-53000997D01*
X124957753Y-53044454D01*
X124825724Y-53115026D01*
X124709999Y-53209999D01*
X124686201Y-53238998D01*
X123988998Y-53936201D01*
X123960000Y-53959999D01*
X123936202Y-53988997D01*
X123936201Y-53988998D01*
X123865026Y-54075724D01*
X123794454Y-54207754D01*
X123750998Y-54351015D01*
X123736324Y-54500000D01*
X114410000Y-54500000D01*
X114410000Y-49532279D01*
X114419580Y-49434576D01*
X114438580Y-49371644D01*
X114469445Y-49313595D01*
X114510989Y-49262657D01*
X114561644Y-49220752D01*
X114619471Y-49189485D01*
X114682272Y-49170044D01*
X114777835Y-49160000D01*
X139282419Y-49160000D01*
X139310674Y-49157217D01*
X139316801Y-49157260D01*
X139325972Y-49156360D01*
X139520069Y-49135959D01*
X139578658Y-49123932D01*
X139637423Y-49112723D01*
X139646245Y-49110059D01*
X139832683Y-49052347D01*
X139887838Y-49029162D01*
X139943291Y-49006758D01*
X139951427Y-49002432D01*
X140123104Y-48909607D01*
X140172699Y-48876154D01*
X140222753Y-48843400D01*
X140229894Y-48837576D01*
X140380272Y-48713172D01*
X140422411Y-48670737D01*
X140465161Y-48628874D01*
X140471034Y-48621773D01*
X140529649Y-48549904D01*
X140572068Y-48763158D01*
X140684010Y-49033411D01*
X140846525Y-49276632D01*
X141053368Y-49483475D01*
X141296589Y-49645990D01*
X141566842Y-49757932D01*
X141853740Y-49815000D01*
X142146260Y-49815000D01*
X142433158Y-49757932D01*
X142703411Y-49645990D01*
X142946632Y-49483475D01*
X143153475Y-49276632D01*
X143315990Y-49033411D01*
X143427932Y-48763158D01*
X143485000Y-48476260D01*
X143485000Y-48183740D01*
X143427932Y-47896842D01*
X143315990Y-47626589D01*
X143153475Y-47383368D01*
X142946632Y-47176525D01*
X142772240Y-47060000D01*
X142946632Y-46943475D01*
X143153475Y-46736632D01*
X143315990Y-46493411D01*
X143427932Y-46223158D01*
X143485000Y-45936260D01*
X143485000Y-45643740D01*
X143427932Y-45356842D01*
X143315990Y-45086589D01*
X143153475Y-44843368D01*
X143021620Y-44711513D01*
X143094180Y-44689502D01*
X143204494Y-44630537D01*
X143301185Y-44551185D01*
X143380537Y-44454494D01*
X143439502Y-44344180D01*
X143475812Y-44224482D01*
X143488072Y-44100000D01*
X143485000Y-43535750D01*
X143326250Y-43377000D01*
X142127000Y-43377000D01*
X142127000Y-43397000D01*
X141873000Y-43397000D01*
X141873000Y-43377000D01*
X141853000Y-43377000D01*
X141853000Y-43123000D01*
X141873000Y-43123000D01*
X141873000Y-43103000D01*
X142127000Y-43103000D01*
X142127000Y-43123000D01*
X143326250Y-43123000D01*
X143485000Y-42964250D01*
X143488072Y-42400000D01*
X143475812Y-42275518D01*
X143440770Y-42160000D01*
X144309230Y-42160000D01*
X144274188Y-42275518D01*
%TD*%
M02*
