%TF.GenerationSoftware,KiCad,Pcbnew,(5.1.6)-1*%
%TF.CreationDate,2021-08-15T13:32:02+02:00*%
%TF.ProjectId,sneak100_main_board,736e6561-6b31-4303-905f-6d61696e5f62,rev?*%
%TF.SameCoordinates,Original*%
%TF.FileFunction,Legend,Top*%
%TF.FilePolarity,Positive*%
%FSLAX46Y46*%
G04 Gerber Fmt 4.6, Leading zero omitted, Abs format (unit mm)*
G04 Created by KiCad (PCBNEW (5.1.6)-1) date 2021-08-15 13:32:02*
%MOMM*%
%LPD*%
G01*
G04 APERTURE LIST*
%ADD10C,0.150000*%
%ADD11C,0.120000*%
G04 APERTURE END LIST*
D10*
X150904761Y-76212023D02*
X150952380Y-76069166D01*
X150952380Y-75831071D01*
X150904761Y-75735833D01*
X150857142Y-75688214D01*
X150761904Y-75640595D01*
X150666666Y-75640595D01*
X150571428Y-75688214D01*
X150523809Y-75735833D01*
X150476190Y-75831071D01*
X150428571Y-76021547D01*
X150380952Y-76116785D01*
X150333333Y-76164404D01*
X150238095Y-76212023D01*
X150142857Y-76212023D01*
X150047619Y-76164404D01*
X150000000Y-76116785D01*
X149952380Y-76021547D01*
X149952380Y-75783452D01*
X150000000Y-75640595D01*
X150952380Y-75212023D02*
X149952380Y-75212023D01*
X149952380Y-74973928D01*
X150000000Y-74831071D01*
X150095238Y-74735833D01*
X150190476Y-74688214D01*
X150380952Y-74640595D01*
X150523809Y-74640595D01*
X150714285Y-74688214D01*
X150809523Y-74735833D01*
X150904761Y-74831071D01*
X150952380Y-74973928D01*
X150952380Y-75212023D01*
X150666666Y-74259642D02*
X150666666Y-73783452D01*
X150952380Y-74354880D02*
X149952380Y-74021547D01*
X150952380Y-73688214D01*
X149154761Y-76212023D02*
X149202380Y-76069166D01*
X149202380Y-75831071D01*
X149154761Y-75735833D01*
X149107142Y-75688214D01*
X149011904Y-75640595D01*
X148916666Y-75640595D01*
X148821428Y-75688214D01*
X148773809Y-75735833D01*
X148726190Y-75831071D01*
X148678571Y-76021547D01*
X148630952Y-76116785D01*
X148583333Y-76164404D01*
X148488095Y-76212023D01*
X148392857Y-76212023D01*
X148297619Y-76164404D01*
X148250000Y-76116785D01*
X148202380Y-76021547D01*
X148202380Y-75783452D01*
X148250000Y-75640595D01*
X149107142Y-74640595D02*
X149154761Y-74688214D01*
X149202380Y-74831071D01*
X149202380Y-74926309D01*
X149154761Y-75069166D01*
X149059523Y-75164404D01*
X148964285Y-75212023D01*
X148773809Y-75259642D01*
X148630952Y-75259642D01*
X148440476Y-75212023D01*
X148345238Y-75164404D01*
X148250000Y-75069166D01*
X148202380Y-74926309D01*
X148202380Y-74831071D01*
X148250000Y-74688214D01*
X148297619Y-74640595D01*
X149202380Y-73735833D02*
X149202380Y-74212023D01*
X148202380Y-74212023D01*
X146250000Y-75640595D02*
X146202380Y-75735833D01*
X146202380Y-75878690D01*
X146250000Y-76021547D01*
X146345238Y-76116785D01*
X146440476Y-76164404D01*
X146630952Y-76212023D01*
X146773809Y-76212023D01*
X146964285Y-76164404D01*
X147059523Y-76116785D01*
X147154761Y-76021547D01*
X147202380Y-75878690D01*
X147202380Y-75783452D01*
X147154761Y-75640595D01*
X147107142Y-75592976D01*
X146773809Y-75592976D01*
X146773809Y-75783452D01*
X147202380Y-75164404D02*
X146202380Y-75164404D01*
X147202380Y-74592976D01*
X146202380Y-74592976D01*
X147202380Y-74116785D02*
X146202380Y-74116785D01*
X146202380Y-73878690D01*
X146250000Y-73735833D01*
X146345238Y-73640595D01*
X146440476Y-73592976D01*
X146630952Y-73545357D01*
X146773809Y-73545357D01*
X146964285Y-73592976D01*
X147059523Y-73640595D01*
X147154761Y-73735833D01*
X147202380Y-73878690D01*
X147202380Y-74116785D01*
X144202380Y-76259642D02*
X144202380Y-75640595D01*
X144583333Y-75973928D01*
X144583333Y-75831071D01*
X144630952Y-75735833D01*
X144678571Y-75688214D01*
X144773809Y-75640595D01*
X145011904Y-75640595D01*
X145107142Y-75688214D01*
X145154761Y-75735833D01*
X145202380Y-75831071D01*
X145202380Y-76116785D01*
X145154761Y-76212023D01*
X145107142Y-76259642D01*
X145107142Y-75212023D02*
X145154761Y-75164404D01*
X145202380Y-75212023D01*
X145154761Y-75259642D01*
X145107142Y-75212023D01*
X145202380Y-75212023D01*
X144202380Y-74831071D02*
X144202380Y-74212023D01*
X144583333Y-74545357D01*
X144583333Y-74402500D01*
X144630952Y-74307261D01*
X144678571Y-74259642D01*
X144773809Y-74212023D01*
X145011904Y-74212023D01*
X145107142Y-74259642D01*
X145154761Y-74307261D01*
X145202380Y-74402500D01*
X145202380Y-74688214D01*
X145154761Y-74783452D01*
X145107142Y-74831071D01*
X144202380Y-73926309D02*
X145202380Y-73592976D01*
X144202380Y-73259642D01*
X114761904Y-105904761D02*
X114904761Y-105952380D01*
X115142857Y-105952380D01*
X115238095Y-105904761D01*
X115285714Y-105857142D01*
X115333333Y-105761904D01*
X115333333Y-105666666D01*
X115285714Y-105571428D01*
X115238095Y-105523809D01*
X115142857Y-105476190D01*
X114952380Y-105428571D01*
X114857142Y-105380952D01*
X114809523Y-105333333D01*
X114761904Y-105238095D01*
X114761904Y-105142857D01*
X114809523Y-105047619D01*
X114857142Y-105000000D01*
X114952380Y-104952380D01*
X115190476Y-104952380D01*
X115333333Y-105000000D01*
X115619047Y-104952380D02*
X116190476Y-104952380D01*
X115904761Y-105952380D02*
X115904761Y-104952380D01*
X116523809Y-105571428D02*
X117285714Y-105571428D01*
X118238095Y-105952380D02*
X117761904Y-105952380D01*
X117761904Y-104952380D01*
X118571428Y-105952380D02*
X118571428Y-104952380D01*
X119047619Y-105952380D02*
X119047619Y-104952380D01*
X119619047Y-105952380D01*
X119619047Y-104952380D01*
X120095238Y-105952380D02*
X120095238Y-104952380D01*
X120666666Y-105952380D02*
X120238095Y-105380952D01*
X120666666Y-104952380D02*
X120095238Y-105523809D01*
X122333333Y-104952380D02*
X121857142Y-104952380D01*
X121809523Y-105428571D01*
X121857142Y-105380952D01*
X121952380Y-105333333D01*
X122190476Y-105333333D01*
X122285714Y-105380952D01*
X122333333Y-105428571D01*
X122380952Y-105523809D01*
X122380952Y-105761904D01*
X122333333Y-105857142D01*
X122285714Y-105904761D01*
X122190476Y-105952380D01*
X121952380Y-105952380D01*
X121857142Y-105904761D01*
X121809523Y-105857142D01*
X122666666Y-104952380D02*
X123000000Y-105952380D01*
X123333333Y-104952380D01*
X170952380Y-103688214D02*
X170952380Y-104164404D01*
X171428571Y-104212023D01*
X171380952Y-104164404D01*
X171333333Y-104069166D01*
X171333333Y-103831071D01*
X171380952Y-103735833D01*
X171428571Y-103688214D01*
X171523809Y-103640595D01*
X171761904Y-103640595D01*
X171857142Y-103688214D01*
X171904761Y-103735833D01*
X171952380Y-103831071D01*
X171952380Y-104069166D01*
X171904761Y-104164404D01*
X171857142Y-104212023D01*
X170952380Y-103354880D02*
X171952380Y-103021547D01*
X170952380Y-102688214D01*
X168500000Y-103640595D02*
X168452380Y-103735833D01*
X168452380Y-103878690D01*
X168500000Y-104021547D01*
X168595238Y-104116785D01*
X168690476Y-104164404D01*
X168880952Y-104212023D01*
X169023809Y-104212023D01*
X169214285Y-104164404D01*
X169309523Y-104116785D01*
X169404761Y-104021547D01*
X169452380Y-103878690D01*
X169452380Y-103783452D01*
X169404761Y-103640595D01*
X169357142Y-103592976D01*
X169023809Y-103592976D01*
X169023809Y-103783452D01*
X169452380Y-103164404D02*
X168452380Y-103164404D01*
X169452380Y-102592976D01*
X168452380Y-102592976D01*
X169452380Y-102116785D02*
X168452380Y-102116785D01*
X168452380Y-101878690D01*
X168500000Y-101735833D01*
X168595238Y-101640595D01*
X168690476Y-101592976D01*
X168880952Y-101545357D01*
X169023809Y-101545357D01*
X169214285Y-101592976D01*
X169309523Y-101640595D01*
X169404761Y-101735833D01*
X169452380Y-101878690D01*
X169452380Y-102116785D01*
X165952380Y-104307261D02*
X166952380Y-103973928D01*
X165952380Y-103640595D01*
X166952380Y-103307261D02*
X165952380Y-103307261D01*
X166952380Y-102831071D02*
X165952380Y-102831071D01*
X166952380Y-102259642D01*
X165952380Y-102259642D01*
X168192738Y-86202380D02*
X168526071Y-87202380D01*
X168859404Y-86202380D01*
X169145119Y-87154761D02*
X169287976Y-87202380D01*
X169526071Y-87202380D01*
X169621309Y-87154761D01*
X169668928Y-87107142D01*
X169716547Y-87011904D01*
X169716547Y-86916666D01*
X169668928Y-86821428D01*
X169621309Y-86773809D01*
X169526071Y-86726190D01*
X169335595Y-86678571D01*
X169240357Y-86630952D01*
X169192738Y-86583333D01*
X169145119Y-86488095D01*
X169145119Y-86392857D01*
X169192738Y-86297619D01*
X169240357Y-86250000D01*
X169335595Y-86202380D01*
X169573690Y-86202380D01*
X169716547Y-86250000D01*
X168859404Y-83750000D02*
X168764166Y-83702380D01*
X168621309Y-83702380D01*
X168478452Y-83750000D01*
X168383214Y-83845238D01*
X168335595Y-83940476D01*
X168287976Y-84130952D01*
X168287976Y-84273809D01*
X168335595Y-84464285D01*
X168383214Y-84559523D01*
X168478452Y-84654761D01*
X168621309Y-84702380D01*
X168716547Y-84702380D01*
X168859404Y-84654761D01*
X168907023Y-84607142D01*
X168907023Y-84273809D01*
X168716547Y-84273809D01*
X169335595Y-84702380D02*
X169335595Y-83702380D01*
X169907023Y-84702380D01*
X169907023Y-83702380D01*
X170383214Y-84702380D02*
X170383214Y-83702380D01*
X170621309Y-83702380D01*
X170764166Y-83750000D01*
X170859404Y-83845238D01*
X170907023Y-83940476D01*
X170954642Y-84130952D01*
X170954642Y-84273809D01*
X170907023Y-84464285D01*
X170859404Y-84559523D01*
X170764166Y-84654761D01*
X170621309Y-84702380D01*
X170383214Y-84702380D01*
X168526071Y-81202380D02*
X168716547Y-81202380D01*
X168811785Y-81250000D01*
X168907023Y-81345238D01*
X168954642Y-81535714D01*
X168954642Y-81869047D01*
X168907023Y-82059523D01*
X168811785Y-82154761D01*
X168716547Y-82202380D01*
X168526071Y-82202380D01*
X168430833Y-82154761D01*
X168335595Y-82059523D01*
X168287976Y-81869047D01*
X168287976Y-81535714D01*
X168335595Y-81345238D01*
X168430833Y-81250000D01*
X168526071Y-81202380D01*
X169383214Y-81202380D02*
X169383214Y-82011904D01*
X169430833Y-82107142D01*
X169478452Y-82154761D01*
X169573690Y-82202380D01*
X169764166Y-82202380D01*
X169859404Y-82154761D01*
X169907023Y-82107142D01*
X169954642Y-82011904D01*
X169954642Y-81202380D01*
X170287976Y-81202380D02*
X170859404Y-81202380D01*
X170573690Y-82202380D02*
X170573690Y-81202380D01*
X140787976Y-54404761D02*
X140930833Y-54452380D01*
X141168928Y-54452380D01*
X141264166Y-54404761D01*
X141311785Y-54357142D01*
X141359404Y-54261904D01*
X141359404Y-54166666D01*
X141311785Y-54071428D01*
X141264166Y-54023809D01*
X141168928Y-53976190D01*
X140978452Y-53928571D01*
X140883214Y-53880952D01*
X140835595Y-53833333D01*
X140787976Y-53738095D01*
X140787976Y-53642857D01*
X140835595Y-53547619D01*
X140883214Y-53500000D01*
X140978452Y-53452380D01*
X141216547Y-53452380D01*
X141359404Y-53500000D01*
X140740357Y-51952380D02*
X141359404Y-51952380D01*
X141026071Y-52333333D01*
X141168928Y-52333333D01*
X141264166Y-52380952D01*
X141311785Y-52428571D01*
X141359404Y-52523809D01*
X141359404Y-52761904D01*
X141311785Y-52857142D01*
X141264166Y-52904761D01*
X141168928Y-52952380D01*
X140883214Y-52952380D01*
X140787976Y-52904761D01*
X140740357Y-52857142D01*
X141787976Y-52857142D02*
X141835595Y-52904761D01*
X141787976Y-52952380D01*
X141740357Y-52904761D01*
X141787976Y-52857142D01*
X141787976Y-52952380D01*
X142168928Y-51952380D02*
X142787976Y-51952380D01*
X142454642Y-52333333D01*
X142597500Y-52333333D01*
X142692738Y-52380952D01*
X142740357Y-52428571D01*
X142787976Y-52523809D01*
X142787976Y-52761904D01*
X142740357Y-52857142D01*
X142692738Y-52904761D01*
X142597500Y-52952380D01*
X142311785Y-52952380D01*
X142216547Y-52904761D01*
X142168928Y-52857142D01*
X143073690Y-51952380D02*
X143407023Y-52952380D01*
X143740357Y-51952380D01*
X141359404Y-50500000D02*
X141264166Y-50452380D01*
X141121309Y-50452380D01*
X140978452Y-50500000D01*
X140883214Y-50595238D01*
X140835595Y-50690476D01*
X140787976Y-50880952D01*
X140787976Y-51023809D01*
X140835595Y-51214285D01*
X140883214Y-51309523D01*
X140978452Y-51404761D01*
X141121309Y-51452380D01*
X141216547Y-51452380D01*
X141359404Y-51404761D01*
X141407023Y-51357142D01*
X141407023Y-51023809D01*
X141216547Y-51023809D01*
X141835595Y-51452380D02*
X141835595Y-50452380D01*
X142407023Y-51452380D01*
X142407023Y-50452380D01*
X142883214Y-51452380D02*
X142883214Y-50452380D01*
X143121309Y-50452380D01*
X143264166Y-50500000D01*
X143359404Y-50595238D01*
X143407023Y-50690476D01*
X143454642Y-50880952D01*
X143454642Y-51023809D01*
X143407023Y-51214285D01*
X143359404Y-51309523D01*
X143264166Y-51404761D01*
X143121309Y-51452380D01*
X142883214Y-51452380D01*
X118095238Y-73037976D02*
X118047619Y-73180833D01*
X118047619Y-73418928D01*
X118095238Y-73514166D01*
X118142857Y-73561785D01*
X118238095Y-73609404D01*
X118333333Y-73609404D01*
X118428571Y-73561785D01*
X118476190Y-73514166D01*
X118523809Y-73418928D01*
X118571428Y-73228452D01*
X118619047Y-73133214D01*
X118666666Y-73085595D01*
X118761904Y-73037976D01*
X118857142Y-73037976D01*
X118952380Y-73085595D01*
X119000000Y-73133214D01*
X119047619Y-73228452D01*
X119047619Y-73466547D01*
X119000000Y-73609404D01*
X121797619Y-72990357D02*
X121797619Y-73609404D01*
X121416666Y-73276071D01*
X121416666Y-73418928D01*
X121369047Y-73514166D01*
X121321428Y-73561785D01*
X121226190Y-73609404D01*
X120988095Y-73609404D01*
X120892857Y-73561785D01*
X120845238Y-73514166D01*
X120797619Y-73418928D01*
X120797619Y-73133214D01*
X120845238Y-73037976D01*
X120892857Y-72990357D01*
X120892857Y-74037976D02*
X120845238Y-74085595D01*
X120797619Y-74037976D01*
X120845238Y-73990357D01*
X120892857Y-74037976D01*
X120797619Y-74037976D01*
X121797619Y-74418928D02*
X121797619Y-75037976D01*
X121416666Y-74704642D01*
X121416666Y-74847500D01*
X121369047Y-74942738D01*
X121321428Y-74990357D01*
X121226190Y-75037976D01*
X120988095Y-75037976D01*
X120892857Y-74990357D01*
X120845238Y-74942738D01*
X120797619Y-74847500D01*
X120797619Y-74561785D01*
X120845238Y-74466547D01*
X120892857Y-74418928D01*
X121797619Y-75323690D02*
X120797619Y-75657023D01*
X121797619Y-75990357D01*
X124250000Y-73609404D02*
X124297619Y-73514166D01*
X124297619Y-73371309D01*
X124250000Y-73228452D01*
X124154761Y-73133214D01*
X124059523Y-73085595D01*
X123869047Y-73037976D01*
X123726190Y-73037976D01*
X123535714Y-73085595D01*
X123440476Y-73133214D01*
X123345238Y-73228452D01*
X123297619Y-73371309D01*
X123297619Y-73466547D01*
X123345238Y-73609404D01*
X123392857Y-73657023D01*
X123726190Y-73657023D01*
X123726190Y-73466547D01*
X123297619Y-74085595D02*
X124297619Y-74085595D01*
X123297619Y-74657023D01*
X124297619Y-74657023D01*
X123297619Y-75133214D02*
X124297619Y-75133214D01*
X124297619Y-75371309D01*
X124250000Y-75514166D01*
X124154761Y-75609404D01*
X124059523Y-75657023D01*
X123869047Y-75704642D01*
X123726190Y-75704642D01*
X123535714Y-75657023D01*
X123440476Y-75609404D01*
X123345238Y-75514166D01*
X123297619Y-75371309D01*
X123297619Y-75133214D01*
X143130952Y-59702380D02*
X143130952Y-60416666D01*
X143083333Y-60559523D01*
X142988095Y-60654761D01*
X142845238Y-60702380D01*
X142750000Y-60702380D01*
X144083333Y-60702380D02*
X143607142Y-60702380D01*
X143607142Y-59702380D01*
X144988095Y-60607142D02*
X144940476Y-60654761D01*
X144797619Y-60702380D01*
X144702380Y-60702380D01*
X144559523Y-60654761D01*
X144464285Y-60559523D01*
X144416666Y-60464285D01*
X144369047Y-60273809D01*
X144369047Y-60130952D01*
X144416666Y-59940476D01*
X144464285Y-59845238D01*
X144559523Y-59750000D01*
X144702380Y-59702380D01*
X144797619Y-59702380D01*
X144940476Y-59750000D01*
X144988095Y-59797619D01*
X145702380Y-59702380D02*
X145702380Y-60416666D01*
X145654761Y-60559523D01*
X145559523Y-60654761D01*
X145416666Y-60702380D01*
X145321428Y-60702380D01*
X146654761Y-60702380D02*
X146178571Y-60702380D01*
X146178571Y-59702380D01*
X147559523Y-60607142D02*
X147511904Y-60654761D01*
X147369047Y-60702380D01*
X147273809Y-60702380D01*
X147130952Y-60654761D01*
X147035714Y-60559523D01*
X146988095Y-60464285D01*
X146940476Y-60273809D01*
X146940476Y-60130952D01*
X146988095Y-59940476D01*
X147035714Y-59845238D01*
X147130952Y-59750000D01*
X147273809Y-59702380D01*
X147369047Y-59702380D01*
X147511904Y-59750000D01*
X147559523Y-59797619D01*
X148273809Y-59702380D02*
X148273809Y-60416666D01*
X148226190Y-60559523D01*
X148130952Y-60654761D01*
X147988095Y-60702380D01*
X147892857Y-60702380D01*
X149226190Y-60702380D02*
X148750000Y-60702380D01*
X148750000Y-59702380D01*
X150130952Y-60607142D02*
X150083333Y-60654761D01*
X149940476Y-60702380D01*
X149845238Y-60702380D01*
X149702380Y-60654761D01*
X149607142Y-60559523D01*
X149559523Y-60464285D01*
X149511904Y-60273809D01*
X149511904Y-60130952D01*
X149559523Y-59940476D01*
X149607142Y-59845238D01*
X149702380Y-59750000D01*
X149845238Y-59702380D01*
X149940476Y-59702380D01*
X150083333Y-59750000D01*
X150130952Y-59797619D01*
X150845238Y-59702380D02*
X150845238Y-60416666D01*
X150797619Y-60559523D01*
X150702380Y-60654761D01*
X150559523Y-60702380D01*
X150464285Y-60702380D01*
X151797619Y-60702380D02*
X151321428Y-60702380D01*
X151321428Y-59702380D01*
X152702380Y-60607142D02*
X152654761Y-60654761D01*
X152511904Y-60702380D01*
X152416666Y-60702380D01*
X152273809Y-60654761D01*
X152178571Y-60559523D01*
X152130952Y-60464285D01*
X152083333Y-60273809D01*
X152083333Y-60130952D01*
X152130952Y-59940476D01*
X152178571Y-59845238D01*
X152273809Y-59750000D01*
X152416666Y-59702380D01*
X152511904Y-59702380D01*
X152654761Y-59750000D01*
X152702380Y-59797619D01*
X114835595Y-50227380D02*
X114835595Y-49227380D01*
X115168928Y-49941666D01*
X115502261Y-49227380D01*
X115502261Y-50227380D01*
X115978452Y-50227380D02*
X115978452Y-49560714D01*
X115978452Y-49227380D02*
X115930833Y-49275000D01*
X115978452Y-49322619D01*
X116026071Y-49275000D01*
X115978452Y-49227380D01*
X115978452Y-49322619D01*
X116454642Y-49560714D02*
X116454642Y-50227380D01*
X116454642Y-49655952D02*
X116502261Y-49608333D01*
X116597500Y-49560714D01*
X116740357Y-49560714D01*
X116835595Y-49608333D01*
X116883214Y-49703571D01*
X116883214Y-50227380D01*
X117359404Y-50227380D02*
X117359404Y-49560714D01*
X117359404Y-49227380D02*
X117311785Y-49275000D01*
X117359404Y-49322619D01*
X117407023Y-49275000D01*
X117359404Y-49227380D01*
X117359404Y-49322619D01*
X117787976Y-50179761D02*
X117883214Y-50227380D01*
X118073690Y-50227380D01*
X118168928Y-50179761D01*
X118216547Y-50084523D01*
X118216547Y-50036904D01*
X118168928Y-49941666D01*
X118073690Y-49894047D01*
X117930833Y-49894047D01*
X117835595Y-49846428D01*
X117787976Y-49751190D01*
X117787976Y-49703571D01*
X117835595Y-49608333D01*
X117930833Y-49560714D01*
X118073690Y-49560714D01*
X118168928Y-49608333D01*
X119073690Y-49560714D02*
X119073690Y-50227380D01*
X118645119Y-49560714D02*
X118645119Y-50084523D01*
X118692738Y-50179761D01*
X118787976Y-50227380D01*
X118930833Y-50227380D01*
X119026071Y-50179761D01*
X119073690Y-50132142D01*
X119549880Y-50227380D02*
X119549880Y-49560714D01*
X119549880Y-49655952D02*
X119597500Y-49608333D01*
X119692738Y-49560714D01*
X119835595Y-49560714D01*
X119930833Y-49608333D01*
X119978452Y-49703571D01*
X119978452Y-50227380D01*
X119978452Y-49703571D02*
X120026071Y-49608333D01*
X120121309Y-49560714D01*
X120264166Y-49560714D01*
X120359404Y-49608333D01*
X120407023Y-49703571D01*
X120407023Y-50227380D01*
X121026071Y-50227380D02*
X120930833Y-50179761D01*
X120883214Y-50132142D01*
X120835595Y-50036904D01*
X120835595Y-49751190D01*
X120883214Y-49655952D01*
X120930833Y-49608333D01*
X121026071Y-49560714D01*
X121168928Y-49560714D01*
X121264166Y-49608333D01*
X121311785Y-49655952D01*
X121359404Y-49751190D01*
X121359404Y-50036904D01*
X121311785Y-50132142D01*
X121264166Y-50179761D01*
X121168928Y-50227380D01*
X121026071Y-50227380D01*
X122502261Y-50179761D02*
X122645119Y-50227380D01*
X122883214Y-50227380D01*
X122978452Y-50179761D01*
X123026071Y-50132142D01*
X123073690Y-50036904D01*
X123073690Y-49941666D01*
X123026071Y-49846428D01*
X122978452Y-49798809D01*
X122883214Y-49751190D01*
X122692738Y-49703571D01*
X122597500Y-49655952D01*
X122549880Y-49608333D01*
X122502261Y-49513095D01*
X122502261Y-49417857D01*
X122549880Y-49322619D01*
X122597500Y-49275000D01*
X122692738Y-49227380D01*
X122930833Y-49227380D01*
X123073690Y-49275000D01*
X123502261Y-49560714D02*
X123502261Y-50227380D01*
X123502261Y-49655952D02*
X123549880Y-49608333D01*
X123645119Y-49560714D01*
X123787976Y-49560714D01*
X123883214Y-49608333D01*
X123930833Y-49703571D01*
X123930833Y-50227380D01*
X124787976Y-50179761D02*
X124692738Y-50227380D01*
X124502261Y-50227380D01*
X124407023Y-50179761D01*
X124359404Y-50084523D01*
X124359404Y-49703571D01*
X124407023Y-49608333D01*
X124502261Y-49560714D01*
X124692738Y-49560714D01*
X124787976Y-49608333D01*
X124835595Y-49703571D01*
X124835595Y-49798809D01*
X124359404Y-49894047D01*
X125692738Y-50227380D02*
X125692738Y-49703571D01*
X125645119Y-49608333D01*
X125549880Y-49560714D01*
X125359404Y-49560714D01*
X125264166Y-49608333D01*
X125692738Y-50179761D02*
X125597500Y-50227380D01*
X125359404Y-50227380D01*
X125264166Y-50179761D01*
X125216547Y-50084523D01*
X125216547Y-49989285D01*
X125264166Y-49894047D01*
X125359404Y-49846428D01*
X125597500Y-49846428D01*
X125692738Y-49798809D01*
X126168928Y-50227380D02*
X126168928Y-49227380D01*
X126264166Y-49846428D02*
X126549880Y-50227380D01*
X126549880Y-49560714D02*
X126168928Y-49941666D01*
X127502261Y-50227380D02*
X126930833Y-50227380D01*
X127216547Y-50227380D02*
X127216547Y-49227380D01*
X127121309Y-49370238D01*
X127026071Y-49465476D01*
X126930833Y-49513095D01*
X128121309Y-49227380D02*
X128216547Y-49227380D01*
X128311785Y-49275000D01*
X128359404Y-49322619D01*
X128407023Y-49417857D01*
X128454642Y-49608333D01*
X128454642Y-49846428D01*
X128407023Y-50036904D01*
X128359404Y-50132142D01*
X128311785Y-50179761D01*
X128216547Y-50227380D01*
X128121309Y-50227380D01*
X128026071Y-50179761D01*
X127978452Y-50132142D01*
X127930833Y-50036904D01*
X127883214Y-49846428D01*
X127883214Y-49608333D01*
X127930833Y-49417857D01*
X127978452Y-49322619D01*
X128026071Y-49275000D01*
X128121309Y-49227380D01*
X129073690Y-49227380D02*
X129168928Y-49227380D01*
X129264166Y-49275000D01*
X129311785Y-49322619D01*
X129359404Y-49417857D01*
X129407023Y-49608333D01*
X129407023Y-49846428D01*
X129359404Y-50036904D01*
X129311785Y-50132142D01*
X129264166Y-50179761D01*
X129168928Y-50227380D01*
X129073690Y-50227380D01*
X128978452Y-50179761D01*
X128930833Y-50132142D01*
X128883214Y-50036904D01*
X128835595Y-49846428D01*
X128835595Y-49608333D01*
X128883214Y-49417857D01*
X128930833Y-49322619D01*
X128978452Y-49275000D01*
X129073690Y-49227380D01*
X114835595Y-51877380D02*
X114835595Y-50877380D01*
X115168928Y-51591666D01*
X115502261Y-50877380D01*
X115502261Y-51877380D01*
X116407023Y-51877380D02*
X116407023Y-51353571D01*
X116359404Y-51258333D01*
X116264166Y-51210714D01*
X116073690Y-51210714D01*
X115978452Y-51258333D01*
X116407023Y-51829761D02*
X116311785Y-51877380D01*
X116073690Y-51877380D01*
X115978452Y-51829761D01*
X115930833Y-51734523D01*
X115930833Y-51639285D01*
X115978452Y-51544047D01*
X116073690Y-51496428D01*
X116311785Y-51496428D01*
X116407023Y-51448809D01*
X116883214Y-51877380D02*
X116883214Y-51210714D01*
X116883214Y-50877380D02*
X116835595Y-50925000D01*
X116883214Y-50972619D01*
X116930833Y-50925000D01*
X116883214Y-50877380D01*
X116883214Y-50972619D01*
X117359404Y-51210714D02*
X117359404Y-51877380D01*
X117359404Y-51305952D02*
X117407023Y-51258333D01*
X117502261Y-51210714D01*
X117645119Y-51210714D01*
X117740357Y-51258333D01*
X117787976Y-51353571D01*
X117787976Y-51877380D01*
X119359404Y-51353571D02*
X119502261Y-51401190D01*
X119549880Y-51448809D01*
X119597500Y-51544047D01*
X119597500Y-51686904D01*
X119549880Y-51782142D01*
X119502261Y-51829761D01*
X119407023Y-51877380D01*
X119026071Y-51877380D01*
X119026071Y-50877380D01*
X119359404Y-50877380D01*
X119454642Y-50925000D01*
X119502261Y-50972619D01*
X119549880Y-51067857D01*
X119549880Y-51163095D01*
X119502261Y-51258333D01*
X119454642Y-51305952D01*
X119359404Y-51353571D01*
X119026071Y-51353571D01*
X120168928Y-51877380D02*
X120073690Y-51829761D01*
X120026071Y-51782142D01*
X119978452Y-51686904D01*
X119978452Y-51401190D01*
X120026071Y-51305952D01*
X120073690Y-51258333D01*
X120168928Y-51210714D01*
X120311785Y-51210714D01*
X120407023Y-51258333D01*
X120454642Y-51305952D01*
X120502261Y-51401190D01*
X120502261Y-51686904D01*
X120454642Y-51782142D01*
X120407023Y-51829761D01*
X120311785Y-51877380D01*
X120168928Y-51877380D01*
X121359404Y-51877380D02*
X121359404Y-51353571D01*
X121311785Y-51258333D01*
X121216547Y-51210714D01*
X121026071Y-51210714D01*
X120930833Y-51258333D01*
X121359404Y-51829761D02*
X121264166Y-51877380D01*
X121026071Y-51877380D01*
X120930833Y-51829761D01*
X120883214Y-51734523D01*
X120883214Y-51639285D01*
X120930833Y-51544047D01*
X121026071Y-51496428D01*
X121264166Y-51496428D01*
X121359404Y-51448809D01*
X121835595Y-51877380D02*
X121835595Y-51210714D01*
X121835595Y-51401190D02*
X121883214Y-51305952D01*
X121930833Y-51258333D01*
X122026071Y-51210714D01*
X122121309Y-51210714D01*
X122883214Y-51877380D02*
X122883214Y-50877380D01*
X122883214Y-51829761D02*
X122787976Y-51877380D01*
X122597500Y-51877380D01*
X122502261Y-51829761D01*
X122454642Y-51782142D01*
X122407023Y-51686904D01*
X122407023Y-51401190D01*
X122454642Y-51305952D01*
X122502261Y-51258333D01*
X122597500Y-51210714D01*
X122787976Y-51210714D01*
X122883214Y-51258333D01*
X123978452Y-50877380D02*
X124311785Y-51877380D01*
X124645119Y-50877380D01*
X125502261Y-51877380D02*
X124930833Y-51877380D01*
X125216547Y-51877380D02*
X125216547Y-50877380D01*
X125121309Y-51020238D01*
X125026071Y-51115476D01*
X124930833Y-51163095D01*
X125930833Y-51782142D02*
X125978452Y-51829761D01*
X125930833Y-51877380D01*
X125883214Y-51829761D01*
X125930833Y-51782142D01*
X125930833Y-51877380D01*
X126597500Y-50877380D02*
X126692738Y-50877380D01*
X126787976Y-50925000D01*
X126835595Y-50972619D01*
X126883214Y-51067857D01*
X126930833Y-51258333D01*
X126930833Y-51496428D01*
X126883214Y-51686904D01*
X126835595Y-51782142D01*
X126787976Y-51829761D01*
X126692738Y-51877380D01*
X126597500Y-51877380D01*
X126502261Y-51829761D01*
X126454642Y-51782142D01*
X126407023Y-51686904D01*
X126359404Y-51496428D01*
X126359404Y-51258333D01*
X126407023Y-51067857D01*
X126454642Y-50972619D01*
X126502261Y-50925000D01*
X126597500Y-50877380D01*
X114835595Y-53527380D02*
X114835595Y-52527380D01*
X114835595Y-52908333D02*
X114930833Y-52860714D01*
X115121309Y-52860714D01*
X115216547Y-52908333D01*
X115264166Y-52955952D01*
X115311785Y-53051190D01*
X115311785Y-53336904D01*
X115264166Y-53432142D01*
X115216547Y-53479761D01*
X115121309Y-53527380D01*
X114930833Y-53527380D01*
X114835595Y-53479761D01*
X115645119Y-52860714D02*
X115883214Y-53527380D01*
X116121309Y-52860714D02*
X115883214Y-53527380D01*
X115787976Y-53765476D01*
X115740357Y-53813095D01*
X115645119Y-53860714D01*
X117264166Y-53003571D02*
X117597500Y-53003571D01*
X117740357Y-53527380D02*
X117264166Y-53527380D01*
X117264166Y-52527380D01*
X117740357Y-52527380D01*
X118168928Y-53527380D02*
X118168928Y-52860714D01*
X118168928Y-53051190D02*
X118216547Y-52955952D01*
X118264166Y-52908333D01*
X118359404Y-52860714D01*
X118454642Y-52860714D01*
X118692738Y-52860714D02*
X118930833Y-53527380D01*
X119168928Y-52860714D02*
X118930833Y-53527380D01*
X118835595Y-53765476D01*
X118787976Y-53813095D01*
X118692738Y-53860714D01*
X119549880Y-53527380D02*
X119549880Y-52527380D01*
X119645119Y-53146428D02*
X119930833Y-53527380D01*
X119930833Y-52860714D02*
X119549880Y-53241666D01*
X121121309Y-53527380D02*
X121121309Y-52527380D01*
X121454642Y-53241666D01*
X121787976Y-52527380D01*
X121787976Y-53527380D01*
X122407023Y-53527380D02*
X122311785Y-53479761D01*
X122264166Y-53432142D01*
X122216547Y-53336904D01*
X122216547Y-53051190D01*
X122264166Y-52955952D01*
X122311785Y-52908333D01*
X122407023Y-52860714D01*
X122549880Y-52860714D01*
X122645119Y-52908333D01*
X122692738Y-52955952D01*
X122740357Y-53051190D01*
X122740357Y-53336904D01*
X122692738Y-53432142D01*
X122645119Y-53479761D01*
X122549880Y-53527380D01*
X122407023Y-53527380D01*
X123073690Y-52860714D02*
X123597500Y-52860714D01*
X123073690Y-53527380D01*
X123597500Y-53527380D01*
X123359404Y-52527380D02*
X123311785Y-52575000D01*
X123359404Y-52622619D01*
X123407023Y-52575000D01*
X123359404Y-52527380D01*
X123359404Y-52622619D01*
X124407023Y-53527380D02*
X124407023Y-52527380D01*
X124407023Y-53479761D02*
X124311785Y-53527380D01*
X124121309Y-53527380D01*
X124026071Y-53479761D01*
X123978452Y-53432142D01*
X123930833Y-53336904D01*
X123930833Y-53051190D01*
X123978452Y-52955952D01*
X124026071Y-52908333D01*
X124121309Y-52860714D01*
X124311785Y-52860714D01*
X124407023Y-52908333D01*
X124787976Y-52860714D02*
X125311785Y-52860714D01*
X124787976Y-53527380D01*
X125311785Y-53527380D01*
X125073690Y-52527380D02*
X125026071Y-52575000D01*
X125073690Y-52622619D01*
X125121309Y-52575000D01*
X125073690Y-52527380D01*
X125073690Y-52622619D01*
X126073690Y-53479761D02*
X125978452Y-53527380D01*
X125787976Y-53527380D01*
X125692738Y-53479761D01*
X125645119Y-53384523D01*
X125645119Y-53003571D01*
X125692738Y-52908333D01*
X125787976Y-52860714D01*
X125978452Y-52860714D01*
X126073690Y-52908333D01*
X126121309Y-53003571D01*
X126121309Y-53098809D01*
X125645119Y-53194047D01*
X126549880Y-52860714D02*
X126549880Y-53527380D01*
X126549880Y-52955952D02*
X126597500Y-52908333D01*
X126692738Y-52860714D01*
X126835595Y-52860714D01*
X126930833Y-52908333D01*
X126978452Y-53003571D01*
X126978452Y-53527380D01*
X126835595Y-52479761D02*
X126692738Y-52622619D01*
X114787976Y-54891666D02*
X115264166Y-54891666D01*
X114692738Y-55177380D02*
X115026071Y-54177380D01*
X115359404Y-55177380D01*
X116121309Y-54510714D02*
X116121309Y-55177380D01*
X115692738Y-54510714D02*
X115692738Y-55034523D01*
X115740357Y-55129761D01*
X115835595Y-55177380D01*
X115978452Y-55177380D01*
X116073690Y-55129761D01*
X116121309Y-55082142D01*
X117026071Y-54510714D02*
X117026071Y-55320238D01*
X116978452Y-55415476D01*
X116930833Y-55463095D01*
X116835595Y-55510714D01*
X116692738Y-55510714D01*
X116597500Y-55463095D01*
X117026071Y-55129761D02*
X116930833Y-55177380D01*
X116740357Y-55177380D01*
X116645119Y-55129761D01*
X116597500Y-55082142D01*
X116549880Y-54986904D01*
X116549880Y-54701190D01*
X116597500Y-54605952D01*
X116645119Y-54558333D01*
X116740357Y-54510714D01*
X116930833Y-54510714D01*
X117026071Y-54558333D01*
X117930833Y-54510714D02*
X117930833Y-55177380D01*
X117502261Y-54510714D02*
X117502261Y-55034523D01*
X117549880Y-55129761D01*
X117645119Y-55177380D01*
X117787976Y-55177380D01*
X117883214Y-55129761D01*
X117930833Y-55082142D01*
X118359404Y-55129761D02*
X118454642Y-55177380D01*
X118645119Y-55177380D01*
X118740357Y-55129761D01*
X118787976Y-55034523D01*
X118787976Y-54986904D01*
X118740357Y-54891666D01*
X118645119Y-54844047D01*
X118502261Y-54844047D01*
X118407023Y-54796428D01*
X118359404Y-54701190D01*
X118359404Y-54653571D01*
X118407023Y-54558333D01*
X118502261Y-54510714D01*
X118645119Y-54510714D01*
X118740357Y-54558333D01*
X119073690Y-54510714D02*
X119454642Y-54510714D01*
X119216547Y-54177380D02*
X119216547Y-55034523D01*
X119264166Y-55129761D01*
X119359404Y-55177380D01*
X119454642Y-55177380D01*
X120502261Y-54272619D02*
X120549880Y-54225000D01*
X120645119Y-54177380D01*
X120883214Y-54177380D01*
X120978452Y-54225000D01*
X121026071Y-54272619D01*
X121073690Y-54367857D01*
X121073690Y-54463095D01*
X121026071Y-54605952D01*
X120454642Y-55177380D01*
X121073690Y-55177380D01*
X121692738Y-54177380D02*
X121787976Y-54177380D01*
X121883214Y-54225000D01*
X121930833Y-54272619D01*
X121978452Y-54367857D01*
X122026071Y-54558333D01*
X122026071Y-54796428D01*
X121978452Y-54986904D01*
X121930833Y-55082142D01*
X121883214Y-55129761D01*
X121787976Y-55177380D01*
X121692738Y-55177380D01*
X121597500Y-55129761D01*
X121549880Y-55082142D01*
X121502261Y-54986904D01*
X121454642Y-54796428D01*
X121454642Y-54558333D01*
X121502261Y-54367857D01*
X121549880Y-54272619D01*
X121597500Y-54225000D01*
X121692738Y-54177380D01*
X122407023Y-54272619D02*
X122454642Y-54225000D01*
X122549880Y-54177380D01*
X122787976Y-54177380D01*
X122883214Y-54225000D01*
X122930833Y-54272619D01*
X122978452Y-54367857D01*
X122978452Y-54463095D01*
X122930833Y-54605952D01*
X122359404Y-55177380D01*
X122978452Y-55177380D01*
X123930833Y-55177380D02*
X123359404Y-55177380D01*
X123645119Y-55177380D02*
X123645119Y-54177380D01*
X123549880Y-54320238D01*
X123454642Y-54415476D01*
X123359404Y-54463095D01*
X177537976Y-89904761D02*
X177680833Y-89952380D01*
X177918928Y-89952380D01*
X178014166Y-89904761D01*
X178061785Y-89857142D01*
X178109404Y-89761904D01*
X178109404Y-89666666D01*
X178061785Y-89571428D01*
X178014166Y-89523809D01*
X177918928Y-89476190D01*
X177728452Y-89428571D01*
X177633214Y-89380952D01*
X177585595Y-89333333D01*
X177537976Y-89238095D01*
X177537976Y-89142857D01*
X177585595Y-89047619D01*
X177633214Y-89000000D01*
X177728452Y-88952380D01*
X177966547Y-88952380D01*
X178109404Y-89000000D01*
X178395119Y-88952380D02*
X178966547Y-88952380D01*
X178680833Y-89952380D02*
X178680833Y-88952380D01*
X179252261Y-89666666D02*
X179728452Y-89666666D01*
X179157023Y-89952380D02*
X179490357Y-88952380D01*
X179823690Y-89952380D01*
X177585595Y-102178571D02*
X177918928Y-102178571D01*
X178061785Y-102702380D02*
X177585595Y-102702380D01*
X177585595Y-101702380D01*
X178061785Y-101702380D01*
X178490357Y-102702380D02*
X178490357Y-101702380D01*
X179061785Y-102702380D01*
X179061785Y-101702380D01*
X176557261Y-49202380D02*
X176081071Y-49202380D01*
X176033452Y-49678571D01*
X176081071Y-49630952D01*
X176176309Y-49583333D01*
X176414404Y-49583333D01*
X176509642Y-49630952D01*
X176557261Y-49678571D01*
X176604880Y-49773809D01*
X176604880Y-50011904D01*
X176557261Y-50107142D01*
X176509642Y-50154761D01*
X176414404Y-50202380D01*
X176176309Y-50202380D01*
X176081071Y-50154761D01*
X176033452Y-50107142D01*
X176890595Y-49202380D02*
X177223928Y-50202380D01*
X177557261Y-49202380D01*
X178811785Y-49202380D02*
X178335595Y-49202380D01*
X178287976Y-49678571D01*
X178335595Y-49630952D01*
X178430833Y-49583333D01*
X178668928Y-49583333D01*
X178764166Y-49630952D01*
X178811785Y-49678571D01*
X178859404Y-49773809D01*
X178859404Y-50011904D01*
X178811785Y-50107142D01*
X178764166Y-50154761D01*
X178668928Y-50202380D01*
X178430833Y-50202380D01*
X178335595Y-50154761D01*
X178287976Y-50107142D01*
X179145119Y-49202380D02*
X179478452Y-50202380D01*
X179811785Y-49202380D01*
X178335595Y-51702380D02*
X178335595Y-50702380D01*
X178907023Y-51702380D01*
X178907023Y-50702380D01*
X179954642Y-51607142D02*
X179907023Y-51654761D01*
X179764166Y-51702380D01*
X179668928Y-51702380D01*
X179526071Y-51654761D01*
X179430833Y-51559523D01*
X179383214Y-51464285D01*
X179335595Y-51273809D01*
X179335595Y-51130952D01*
X179383214Y-50940476D01*
X179430833Y-50845238D01*
X179526071Y-50750000D01*
X179668928Y-50702380D01*
X179764166Y-50702380D01*
X179907023Y-50750000D01*
X179954642Y-50797619D01*
X175842976Y-51702380D02*
X175842976Y-50702380D01*
X176414404Y-51702380D01*
X176414404Y-50702380D01*
X177462023Y-51607142D02*
X177414404Y-51654761D01*
X177271547Y-51702380D01*
X177176309Y-51702380D01*
X177033452Y-51654761D01*
X176938214Y-51559523D01*
X176890595Y-51464285D01*
X176842976Y-51273809D01*
X176842976Y-51130952D01*
X176890595Y-50940476D01*
X176938214Y-50845238D01*
X177033452Y-50750000D01*
X177176309Y-50702380D01*
X177271547Y-50702380D01*
X177414404Y-50750000D01*
X177462023Y-50797619D01*
X172938214Y-56154761D02*
X173081071Y-56202380D01*
X173319166Y-56202380D01*
X173414404Y-56154761D01*
X173462023Y-56107142D01*
X173509642Y-56011904D01*
X173509642Y-55916666D01*
X173462023Y-55821428D01*
X173414404Y-55773809D01*
X173319166Y-55726190D01*
X173128690Y-55678571D01*
X173033452Y-55630952D01*
X172985833Y-55583333D01*
X172938214Y-55488095D01*
X172938214Y-55392857D01*
X172985833Y-55297619D01*
X173033452Y-55250000D01*
X173128690Y-55202380D01*
X173366785Y-55202380D01*
X173509642Y-55250000D01*
X173842976Y-55202380D02*
X174081071Y-56202380D01*
X174271547Y-55488095D01*
X174462023Y-56202380D01*
X174700119Y-55202380D01*
X175652500Y-56107142D02*
X175604880Y-56154761D01*
X175462023Y-56202380D01*
X175366785Y-56202380D01*
X175223928Y-56154761D01*
X175128690Y-56059523D01*
X175081071Y-55964285D01*
X175033452Y-55773809D01*
X175033452Y-55630952D01*
X175081071Y-55440476D01*
X175128690Y-55345238D01*
X175223928Y-55250000D01*
X175366785Y-55202380D01*
X175462023Y-55202380D01*
X175604880Y-55250000D01*
X175652500Y-55297619D01*
X176557261Y-56202380D02*
X176081071Y-56202380D01*
X176081071Y-55202380D01*
X176890595Y-56202380D02*
X176890595Y-55202380D01*
X177462023Y-56202380D02*
X177033452Y-55630952D01*
X177462023Y-55202380D02*
X176890595Y-55773809D01*
X178335595Y-54702380D02*
X178335595Y-53702380D01*
X178907023Y-54702380D01*
X178907023Y-53702380D01*
X179954642Y-54607142D02*
X179907023Y-54654761D01*
X179764166Y-54702380D01*
X179668928Y-54702380D01*
X179526071Y-54654761D01*
X179430833Y-54559523D01*
X179383214Y-54464285D01*
X179335595Y-54273809D01*
X179335595Y-54130952D01*
X179383214Y-53940476D01*
X179430833Y-53845238D01*
X179526071Y-53750000D01*
X179668928Y-53702380D01*
X179764166Y-53702380D01*
X179907023Y-53750000D01*
X179954642Y-53797619D01*
X178859404Y-52250000D02*
X178764166Y-52202380D01*
X178621309Y-52202380D01*
X178478452Y-52250000D01*
X178383214Y-52345238D01*
X178335595Y-52440476D01*
X178287976Y-52630952D01*
X178287976Y-52773809D01*
X178335595Y-52964285D01*
X178383214Y-53059523D01*
X178478452Y-53154761D01*
X178621309Y-53202380D01*
X178716547Y-53202380D01*
X178859404Y-53154761D01*
X178907023Y-53107142D01*
X178907023Y-52773809D01*
X178716547Y-52773809D01*
X179335595Y-53202380D02*
X179335595Y-52202380D01*
X179907023Y-53202380D01*
X179907023Y-52202380D01*
X180383214Y-53202380D02*
X180383214Y-52202380D01*
X180621309Y-52202380D01*
X180764166Y-52250000D01*
X180859404Y-52345238D01*
X180907023Y-52440476D01*
X180954642Y-52630952D01*
X180954642Y-52773809D01*
X180907023Y-52964285D01*
X180859404Y-53059523D01*
X180764166Y-53154761D01*
X180621309Y-53202380D01*
X180383214Y-53202380D01*
X175366785Y-52250000D02*
X175271547Y-52202380D01*
X175128690Y-52202380D01*
X174985833Y-52250000D01*
X174890595Y-52345238D01*
X174842976Y-52440476D01*
X174795357Y-52630952D01*
X174795357Y-52773809D01*
X174842976Y-52964285D01*
X174890595Y-53059523D01*
X174985833Y-53154761D01*
X175128690Y-53202380D01*
X175223928Y-53202380D01*
X175366785Y-53154761D01*
X175414404Y-53107142D01*
X175414404Y-52773809D01*
X175223928Y-52773809D01*
X175842976Y-53202380D02*
X175842976Y-52202380D01*
X176414404Y-53202380D01*
X176414404Y-52202380D01*
X176890595Y-53202380D02*
X176890595Y-52202380D01*
X177128690Y-52202380D01*
X177271547Y-52250000D01*
X177366785Y-52345238D01*
X177414404Y-52440476D01*
X177462023Y-52630952D01*
X177462023Y-52773809D01*
X177414404Y-52964285D01*
X177366785Y-53059523D01*
X177271547Y-53154761D01*
X177128690Y-53202380D01*
X176890595Y-53202380D01*
X173223928Y-54654761D02*
X173366785Y-54702380D01*
X173604880Y-54702380D01*
X173700119Y-54654761D01*
X173747738Y-54607142D01*
X173795357Y-54511904D01*
X173795357Y-54416666D01*
X173747738Y-54321428D01*
X173700119Y-54273809D01*
X173604880Y-54226190D01*
X173414404Y-54178571D01*
X173319166Y-54130952D01*
X173271547Y-54083333D01*
X173223928Y-53988095D01*
X173223928Y-53892857D01*
X173271547Y-53797619D01*
X173319166Y-53750000D01*
X173414404Y-53702380D01*
X173652500Y-53702380D01*
X173795357Y-53750000D01*
X174128690Y-53702380D02*
X174366785Y-54702380D01*
X174557261Y-53988095D01*
X174747738Y-54702380D01*
X174985833Y-53702380D01*
X175366785Y-54702380D02*
X175366785Y-53702380D01*
X175604880Y-53702380D01*
X175747738Y-53750000D01*
X175842976Y-53845238D01*
X175890595Y-53940476D01*
X175938214Y-54130952D01*
X175938214Y-54273809D01*
X175890595Y-54464285D01*
X175842976Y-54559523D01*
X175747738Y-54654761D01*
X175604880Y-54702380D01*
X175366785Y-54702380D01*
X176366785Y-54702380D02*
X176366785Y-53702380D01*
X177033452Y-53702380D02*
X177223928Y-53702380D01*
X177319166Y-53750000D01*
X177414404Y-53845238D01*
X177462023Y-54035714D01*
X177462023Y-54369047D01*
X177414404Y-54559523D01*
X177319166Y-54654761D01*
X177223928Y-54702380D01*
X177033452Y-54702380D01*
X176938214Y-54654761D01*
X176842976Y-54559523D01*
X176795357Y-54369047D01*
X176795357Y-54035714D01*
X176842976Y-53845238D01*
X176938214Y-53750000D01*
X177033452Y-53702380D01*
X178907023Y-56202380D02*
X178573690Y-55726190D01*
X178335595Y-56202380D02*
X178335595Y-55202380D01*
X178716547Y-55202380D01*
X178811785Y-55250000D01*
X178859404Y-55297619D01*
X178907023Y-55392857D01*
X178907023Y-55535714D01*
X178859404Y-55630952D01*
X178811785Y-55678571D01*
X178716547Y-55726190D01*
X178335595Y-55726190D01*
X179287976Y-56154761D02*
X179430833Y-56202380D01*
X179668928Y-56202380D01*
X179764166Y-56154761D01*
X179811785Y-56107142D01*
X179859404Y-56011904D01*
X179859404Y-55916666D01*
X179811785Y-55821428D01*
X179764166Y-55773809D01*
X179668928Y-55726190D01*
X179478452Y-55678571D01*
X179383214Y-55630952D01*
X179335595Y-55583333D01*
X179287976Y-55488095D01*
X179287976Y-55392857D01*
X179335595Y-55297619D01*
X179383214Y-55250000D01*
X179478452Y-55202380D01*
X179716547Y-55202380D01*
X179859404Y-55250000D01*
X180145119Y-55202380D02*
X180716547Y-55202380D01*
X180430833Y-56202380D02*
X180430833Y-55202380D01*
X177442738Y-91452380D02*
X178014166Y-91452380D01*
X177728452Y-92452380D02*
X177728452Y-91452380D01*
X178252261Y-91452380D02*
X178918928Y-92452380D01*
X178918928Y-91452380D02*
X178252261Y-92452380D01*
X178157023Y-94952380D02*
X177823690Y-94476190D01*
X177585595Y-94952380D02*
X177585595Y-93952380D01*
X177966547Y-93952380D01*
X178061785Y-94000000D01*
X178109404Y-94047619D01*
X178157023Y-94142857D01*
X178157023Y-94285714D01*
X178109404Y-94380952D01*
X178061785Y-94428571D01*
X177966547Y-94476190D01*
X177585595Y-94476190D01*
X178490357Y-93952380D02*
X179157023Y-94952380D01*
X179157023Y-93952380D02*
X178490357Y-94952380D01*
X178109404Y-96500000D02*
X178014166Y-96452380D01*
X177871309Y-96452380D01*
X177728452Y-96500000D01*
X177633214Y-96595238D01*
X177585595Y-96690476D01*
X177537976Y-96880952D01*
X177537976Y-97023809D01*
X177585595Y-97214285D01*
X177633214Y-97309523D01*
X177728452Y-97404761D01*
X177871309Y-97452380D01*
X177966547Y-97452380D01*
X178109404Y-97404761D01*
X178157023Y-97357142D01*
X178157023Y-97023809D01*
X177966547Y-97023809D01*
X178585595Y-97452380D02*
X178585595Y-96452380D01*
X179157023Y-97452380D01*
X179157023Y-96452380D01*
X179633214Y-97452380D02*
X179633214Y-96452380D01*
X179871309Y-96452380D01*
X180014166Y-96500000D01*
X180109404Y-96595238D01*
X180157023Y-96690476D01*
X180204642Y-96880952D01*
X180204642Y-97023809D01*
X180157023Y-97214285D01*
X180109404Y-97309523D01*
X180014166Y-97404761D01*
X179871309Y-97452380D01*
X179633214Y-97452380D01*
X178061785Y-99202380D02*
X177585595Y-99202380D01*
X177537976Y-99678571D01*
X177585595Y-99630952D01*
X177680833Y-99583333D01*
X177918928Y-99583333D01*
X178014166Y-99630952D01*
X178061785Y-99678571D01*
X178109404Y-99773809D01*
X178109404Y-100011904D01*
X178061785Y-100107142D01*
X178014166Y-100154761D01*
X177918928Y-100202380D01*
X177680833Y-100202380D01*
X177585595Y-100154761D01*
X177537976Y-100107142D01*
X178395119Y-99202380D02*
X178728452Y-100202380D01*
X179061785Y-99202380D01*
D11*
%TO.C,U4*%
X151880000Y-87200000D02*
X151880000Y-86200000D01*
X155120000Y-85450000D02*
X155120000Y-87820000D01*
X155500000Y-85000000D02*
X155500000Y-86200000D01*
X154975000Y-85000000D02*
X155500000Y-85000000D01*
%TO.C,U3*%
X129130000Y-87150000D02*
X129130000Y-86150000D01*
X132370000Y-85400000D02*
X132370000Y-87770000D01*
X132750000Y-84950000D02*
X132750000Y-86150000D01*
X132225000Y-84950000D02*
X132750000Y-84950000D01*
%TO.C,U2*%
X166370000Y-70100000D02*
X166370000Y-71100000D01*
X163130000Y-71850000D02*
X163130000Y-69480000D01*
X162750000Y-72300000D02*
X162750000Y-71100000D01*
X163275000Y-72300000D02*
X162750000Y-72300000D01*
%TO.C,U1*%
X143570000Y-70100000D02*
X143570000Y-71100000D01*
X140330000Y-71850000D02*
X140330000Y-69480000D01*
X139950000Y-72300000D02*
X139950000Y-71100000D01*
X140475000Y-72300000D02*
X139950000Y-72300000D01*
%TO.C,J13*%
X124430000Y-94750000D02*
X123430000Y-95250000D01*
X124430000Y-95750000D02*
X124430000Y-94750000D01*
X123430000Y-95250000D02*
X124430000Y-95750000D01*
X121730000Y-88120000D02*
X123040000Y-88120000D01*
X121730000Y-88120000D02*
X121730000Y-88120000D01*
X121730000Y-81180000D02*
X121730000Y-88120000D01*
X115230000Y-81180000D02*
X121730000Y-81180000D01*
X115230000Y-99160000D02*
X115230000Y-81180000D01*
X121730000Y-99160000D02*
X115230000Y-99160000D01*
X121730000Y-92220000D02*
X121730000Y-99160000D01*
X123040000Y-92220000D02*
X121730000Y-92220000D01*
X123040000Y-79880000D02*
X123040000Y-100460000D01*
X113920000Y-79880000D02*
X123040000Y-79880000D01*
X113920000Y-100460000D02*
X113920000Y-79880000D01*
X123040000Y-100460000D02*
X113920000Y-100460000D01*
%TO.C,J12*%
X177960000Y-58370000D02*
X177960000Y-67000000D01*
X177841905Y-58370000D02*
X177841905Y-67000000D01*
X177723810Y-58370000D02*
X177723810Y-67000000D01*
X177605715Y-58370000D02*
X177605715Y-67000000D01*
X177487620Y-58370000D02*
X177487620Y-67000000D01*
X177369525Y-58370000D02*
X177369525Y-67000000D01*
X177251430Y-58370000D02*
X177251430Y-67000000D01*
X177133335Y-58370000D02*
X177133335Y-67000000D01*
X177015240Y-58370000D02*
X177015240Y-67000000D01*
X176897145Y-58370000D02*
X176897145Y-67000000D01*
X176779050Y-58370000D02*
X176779050Y-67000000D01*
X176660955Y-58370000D02*
X176660955Y-67000000D01*
X176542860Y-58370000D02*
X176542860Y-67000000D01*
X176424765Y-58370000D02*
X176424765Y-67000000D01*
X176306670Y-58370000D02*
X176306670Y-67000000D01*
X176188575Y-58370000D02*
X176188575Y-67000000D01*
X176070480Y-58370000D02*
X176070480Y-67000000D01*
X175952385Y-58370000D02*
X175952385Y-67000000D01*
X175834290Y-58370000D02*
X175834290Y-67000000D01*
X175716195Y-58370000D02*
X175716195Y-67000000D01*
X175598100Y-58370000D02*
X175598100Y-67000000D01*
X177110000Y-67000000D02*
X177110000Y-67410000D01*
X177110000Y-69510000D02*
X177110000Y-69890000D01*
X176390000Y-67000000D02*
X176390000Y-67410000D01*
X176390000Y-69510000D02*
X176390000Y-69890000D01*
X174570000Y-67000000D02*
X174570000Y-67410000D01*
X174570000Y-69510000D02*
X174570000Y-69950000D01*
X173850000Y-67000000D02*
X173850000Y-67410000D01*
X173850000Y-69510000D02*
X173850000Y-69950000D01*
X172030000Y-67000000D02*
X172030000Y-67410000D01*
X172030000Y-69510000D02*
X172030000Y-69950000D01*
X171310000Y-67000000D02*
X171310000Y-67410000D01*
X171310000Y-69510000D02*
X171310000Y-69950000D01*
X175480000Y-58370000D02*
X175480000Y-67000000D01*
X172940000Y-58370000D02*
X172940000Y-67000000D01*
X178080000Y-58370000D02*
X178080000Y-67000000D01*
X178080000Y-67000000D02*
X170340000Y-67000000D01*
X170340000Y-58370000D02*
X170340000Y-67000000D01*
X178080000Y-58370000D02*
X170340000Y-58370000D01*
X178080000Y-72110000D02*
X176750000Y-72110000D01*
X178080000Y-71000000D02*
X178080000Y-72110000D01*
%TO.C,J11*%
X124960000Y-58370000D02*
X124960000Y-67000000D01*
X124841905Y-58370000D02*
X124841905Y-67000000D01*
X124723810Y-58370000D02*
X124723810Y-67000000D01*
X124605715Y-58370000D02*
X124605715Y-67000000D01*
X124487620Y-58370000D02*
X124487620Y-67000000D01*
X124369525Y-58370000D02*
X124369525Y-67000000D01*
X124251430Y-58370000D02*
X124251430Y-67000000D01*
X124133335Y-58370000D02*
X124133335Y-67000000D01*
X124015240Y-58370000D02*
X124015240Y-67000000D01*
X123897145Y-58370000D02*
X123897145Y-67000000D01*
X123779050Y-58370000D02*
X123779050Y-67000000D01*
X123660955Y-58370000D02*
X123660955Y-67000000D01*
X123542860Y-58370000D02*
X123542860Y-67000000D01*
X123424765Y-58370000D02*
X123424765Y-67000000D01*
X123306670Y-58370000D02*
X123306670Y-67000000D01*
X123188575Y-58370000D02*
X123188575Y-67000000D01*
X123070480Y-58370000D02*
X123070480Y-67000000D01*
X122952385Y-58370000D02*
X122952385Y-67000000D01*
X122834290Y-58370000D02*
X122834290Y-67000000D01*
X122716195Y-58370000D02*
X122716195Y-67000000D01*
X122598100Y-58370000D02*
X122598100Y-67000000D01*
X124110000Y-67000000D02*
X124110000Y-67410000D01*
X124110000Y-69510000D02*
X124110000Y-69890000D01*
X123390000Y-67000000D02*
X123390000Y-67410000D01*
X123390000Y-69510000D02*
X123390000Y-69890000D01*
X121570000Y-67000000D02*
X121570000Y-67410000D01*
X121570000Y-69510000D02*
X121570000Y-69950000D01*
X120850000Y-67000000D02*
X120850000Y-67410000D01*
X120850000Y-69510000D02*
X120850000Y-69950000D01*
X119030000Y-67000000D02*
X119030000Y-67410000D01*
X119030000Y-69510000D02*
X119030000Y-69950000D01*
X118310000Y-67000000D02*
X118310000Y-67410000D01*
X118310000Y-69510000D02*
X118310000Y-69950000D01*
X122480000Y-58370000D02*
X122480000Y-67000000D01*
X119940000Y-58370000D02*
X119940000Y-67000000D01*
X125080000Y-58370000D02*
X125080000Y-67000000D01*
X125080000Y-67000000D02*
X117340000Y-67000000D01*
X117340000Y-58370000D02*
X117340000Y-67000000D01*
X125080000Y-58370000D02*
X117340000Y-58370000D01*
X125080000Y-72110000D02*
X123750000Y-72110000D01*
X125080000Y-71000000D02*
X125080000Y-72110000D01*
%TO.C,C21*%
X175190000Y-87185000D02*
X179100000Y-87185000D01*
X175190000Y-85315000D02*
X175190000Y-87185000D01*
X179100000Y-85315000D02*
X175190000Y-85315000D01*
%TO.C,C12*%
X157940000Y-85435000D02*
X161850000Y-85435000D01*
X157940000Y-83565000D02*
X157940000Y-85435000D01*
X161850000Y-83565000D02*
X157940000Y-83565000D01*
%TO.C,C9*%
X134940000Y-85435000D02*
X138850000Y-85435000D01*
X134940000Y-83565000D02*
X134940000Y-85435000D01*
X138850000Y-83565000D02*
X134940000Y-83565000D01*
%TO.C,C6*%
X159910000Y-71565000D02*
X156000000Y-71565000D01*
X159910000Y-73435000D02*
X159910000Y-71565000D01*
X156000000Y-73435000D02*
X159910000Y-73435000D01*
%TO.C,C3*%
X137410000Y-71915000D02*
X133500000Y-71915000D01*
X137410000Y-73785000D02*
X137410000Y-71915000D01*
X133500000Y-73785000D02*
X137410000Y-73785000D01*
%TO.C,JP1*%
X115920000Y-101420000D02*
X117250000Y-101420000D01*
X115920000Y-102750000D02*
X115920000Y-101420000D01*
X118520000Y-101420000D02*
X121120000Y-101420000D01*
X118520000Y-104020000D02*
X118520000Y-101420000D01*
X115920000Y-104020000D02*
X118520000Y-104020000D01*
X121120000Y-101420000D02*
X121120000Y-104080000D01*
X115920000Y-104020000D02*
X115920000Y-104080000D01*
X115920000Y-104080000D02*
X121120000Y-104080000D01*
%TO.C,C16*%
X128310000Y-92565000D02*
X124400000Y-92565000D01*
X128310000Y-94435000D02*
X128310000Y-92565000D01*
X124400000Y-94435000D02*
X128310000Y-94435000D01*
%TO.C,C15*%
X127315000Y-104940000D02*
X127315000Y-108850000D01*
X129185000Y-104940000D02*
X127315000Y-104940000D01*
X129185000Y-108850000D02*
X129185000Y-104940000D01*
%TO.C,C13*%
X163258578Y-105040000D02*
X162741422Y-105040000D01*
X163258578Y-106460000D02*
X162741422Y-106460000D01*
%TO.C,Q2*%
X152250000Y-97810000D02*
X155700000Y-97810000D01*
X152250000Y-97810000D02*
X150300000Y-97810000D01*
X152250000Y-92690000D02*
X154200000Y-92690000D01*
X152250000Y-92690000D02*
X150300000Y-92690000D01*
%TO.C,Q1*%
X143250000Y-92690000D02*
X139800000Y-92690000D01*
X143250000Y-92690000D02*
X145200000Y-92690000D01*
X143250000Y-97810000D02*
X141300000Y-97810000D01*
X143250000Y-97810000D02*
X145200000Y-97810000D01*
%TO.C,SW1*%
X161750000Y-116000000D02*
X171750000Y-116000000D01*
X171750000Y-117500000D02*
X171750000Y-111500000D01*
X161750000Y-117500000D02*
X171750000Y-117500000D01*
X161750000Y-111500000D02*
X161750000Y-117500000D01*
X161750000Y-111500000D02*
X171750000Y-111500000D01*
%TO.C,U7*%
X162000000Y-104250000D02*
X162000000Y-76750000D01*
X133500000Y-104250000D02*
X162000000Y-104250000D01*
X133500000Y-76750000D02*
X133500000Y-104250000D01*
X162000000Y-76750000D02*
X133500000Y-76750000D01*
%TO.C,U6*%
X172810000Y-107020000D02*
X165190000Y-107020000D01*
X165190000Y-107020000D02*
X165190000Y-95590000D01*
X165190000Y-95590000D02*
X172810000Y-95590000D01*
X172810000Y-95590000D02*
X172810000Y-107020000D01*
%TO.C,U5*%
X124840000Y-103850000D02*
X124840000Y-97840000D01*
X131660000Y-101600000D02*
X131660000Y-97840000D01*
X124840000Y-97840000D02*
X126100000Y-97840000D01*
X131660000Y-97840000D02*
X130400000Y-97840000D01*
%TO.C,U8*%
X171320000Y-80220000D02*
X172650000Y-80220000D01*
X171320000Y-81550000D02*
X171320000Y-80220000D01*
X171320000Y-82820000D02*
X173980000Y-82820000D01*
X173980000Y-82820000D02*
X173980000Y-87960000D01*
X171320000Y-82820000D02*
X171320000Y-87960000D01*
X171320000Y-87960000D02*
X173980000Y-87960000D01*
%TO.C,U9*%
X154304880Y-59328249D02*
X155252403Y-58380725D01*
X154976631Y-60000000D02*
X154304880Y-59328249D01*
X154304880Y-60671751D02*
X154976631Y-60000000D01*
X147750000Y-67226631D02*
X147078249Y-66554880D01*
X148421751Y-66554880D02*
X147750000Y-67226631D01*
X147750000Y-52773369D02*
X148421751Y-53445120D01*
X147078249Y-53445120D02*
X147750000Y-52773369D01*
X140523369Y-60000000D02*
X141195120Y-60671751D01*
X141195120Y-59328249D02*
X140523369Y-60000000D01*
%TO.C,SW4*%
X151520000Y-106270000D02*
X151520000Y-112730000D01*
X156050000Y-106270000D02*
X153450000Y-106270000D01*
X157980000Y-106270000D02*
X157980000Y-112730000D01*
X156050000Y-112730000D02*
X153450000Y-112730000D01*
X157950000Y-106270000D02*
X157980000Y-106270000D01*
X151520000Y-106270000D02*
X151550000Y-106270000D01*
X151520000Y-112730000D02*
X151550000Y-112730000D01*
X157980000Y-112730000D02*
X157950000Y-112730000D01*
%TO.C,SW3*%
X144520000Y-106270000D02*
X144520000Y-112730000D01*
X149050000Y-106270000D02*
X146450000Y-106270000D01*
X150980000Y-106270000D02*
X150980000Y-112730000D01*
X149050000Y-112730000D02*
X146450000Y-112730000D01*
X150950000Y-106270000D02*
X150980000Y-106270000D01*
X144520000Y-106270000D02*
X144550000Y-106270000D01*
X144520000Y-112730000D02*
X144550000Y-112730000D01*
X150980000Y-112730000D02*
X150950000Y-112730000D01*
%TO.C,SW2*%
X137520000Y-106270000D02*
X137520000Y-112730000D01*
X142050000Y-106270000D02*
X139450000Y-106270000D01*
X143980000Y-106270000D02*
X143980000Y-112730000D01*
X142050000Y-112730000D02*
X139450000Y-112730000D01*
X143950000Y-106270000D02*
X143980000Y-106270000D01*
X137520000Y-106270000D02*
X137550000Y-106270000D01*
X137520000Y-112730000D02*
X137550000Y-112730000D01*
X143980000Y-112730000D02*
X143950000Y-112730000D01*
%TO.C,R11*%
X178490000Y-79087221D02*
X178490000Y-79412779D01*
X179510000Y-79087221D02*
X179510000Y-79412779D01*
%TO.C,D3*%
X178265000Y-74265000D02*
X178265000Y-76550000D01*
X179735000Y-74265000D02*
X178265000Y-74265000D01*
X179735000Y-76550000D02*
X179735000Y-74265000D01*
%TO.C,R10*%
X135760000Y-113162779D02*
X135760000Y-112837221D01*
X134740000Y-113162779D02*
X134740000Y-112837221D01*
%TO.C,R9*%
X134740000Y-109337221D02*
X134740000Y-109662779D01*
X135760000Y-109337221D02*
X135760000Y-109662779D01*
%TO.C,C20*%
X132740000Y-112837221D02*
X132740000Y-113162779D01*
X133760000Y-112837221D02*
X133760000Y-113162779D01*
%TO.C,C19*%
X133760000Y-109662779D02*
X133760000Y-109337221D01*
X132740000Y-109662779D02*
X132740000Y-109337221D01*
%TO.C,R12*%
X177162779Y-83490000D02*
X176837221Y-83490000D01*
X177162779Y-84510000D02*
X176837221Y-84510000D01*
%TO.C,R8*%
X135760000Y-106162779D02*
X135760000Y-105837221D01*
X134740000Y-106162779D02*
X134740000Y-105837221D01*
%TO.C,R7*%
X176490000Y-79087221D02*
X176490000Y-79412779D01*
X177510000Y-79087221D02*
X177510000Y-79412779D01*
%TO.C,R13*%
X132837221Y-59760000D02*
X133162779Y-59760000D01*
X132837221Y-58740000D02*
X133162779Y-58740000D01*
%TO.C,R6*%
X129587221Y-62510000D02*
X129912779Y-62510000D01*
X129587221Y-61490000D02*
X129912779Y-61490000D01*
%TO.C,R5*%
X175510000Y-79412779D02*
X175510000Y-79087221D01*
X174490000Y-79412779D02*
X174490000Y-79087221D01*
%TO.C,R4*%
X129587221Y-64510000D02*
X129912779Y-64510000D01*
X129587221Y-63490000D02*
X129912779Y-63490000D01*
%TO.C,R3*%
X151662779Y-101990000D02*
X151337221Y-101990000D01*
X151662779Y-103010000D02*
X151337221Y-103010000D01*
%TO.C,R2*%
X137450279Y-96490000D02*
X137124721Y-96490000D01*
X137450279Y-97510000D02*
X137124721Y-97510000D01*
%TO.C,R1*%
X151337221Y-101010000D02*
X151662779Y-101010000D01*
X151337221Y-99990000D02*
X151662779Y-99990000D01*
%TO.C,D1*%
X174265000Y-74265000D02*
X174265000Y-76550000D01*
X175735000Y-74265000D02*
X174265000Y-74265000D01*
X175735000Y-76550000D02*
X175735000Y-74265000D01*
%TO.C,D2*%
X176265000Y-74265000D02*
X176265000Y-76550000D01*
X177735000Y-74265000D02*
X176265000Y-74265000D01*
X177735000Y-76550000D02*
X177735000Y-74265000D01*
%TO.C,C31*%
X159587221Y-63010000D02*
X159912779Y-63010000D01*
X159587221Y-61990000D02*
X159912779Y-61990000D01*
%TO.C,C30*%
X147587221Y-69510000D02*
X147912779Y-69510000D01*
X147587221Y-68490000D02*
X147912779Y-68490000D01*
%TO.C,C29*%
X137662779Y-58740000D02*
X137337221Y-58740000D01*
X137662779Y-59760000D02*
X137337221Y-59760000D01*
%TO.C,C28*%
X138412779Y-50240000D02*
X138087221Y-50240000D01*
X138412779Y-51260000D02*
X138087221Y-51260000D01*
%TO.C,C25*%
X164990000Y-52337221D02*
X164990000Y-52662779D01*
X166010000Y-52337221D02*
X166010000Y-52662779D01*
%TO.C,C24*%
X166010000Y-56162779D02*
X166010000Y-55837221D01*
X164990000Y-56162779D02*
X164990000Y-55837221D01*
%TO.C,C27*%
X157837221Y-52510000D02*
X158162779Y-52510000D01*
X157837221Y-51490000D02*
X158162779Y-51490000D01*
%TO.C,C26*%
X157837221Y-54510000D02*
X158162779Y-54510000D01*
X157837221Y-53490000D02*
X158162779Y-53490000D01*
%TO.C,C23*%
X147587221Y-72760000D02*
X147912779Y-72760000D01*
X147587221Y-71740000D02*
X147912779Y-71740000D01*
%TO.C,C22*%
X137662779Y-56740000D02*
X137337221Y-56740000D01*
X137662779Y-57760000D02*
X137337221Y-57760000D01*
%TO.C,C17*%
X125662779Y-90740000D02*
X125337221Y-90740000D01*
X125662779Y-91760000D02*
X125337221Y-91760000D01*
%TO.C,C14*%
X129990000Y-107087221D02*
X129990000Y-107412779D01*
X131010000Y-107087221D02*
X131010000Y-107412779D01*
%TO.C,C11*%
X159837221Y-87510000D02*
X160162779Y-87510000D01*
X159837221Y-86490000D02*
X160162779Y-86490000D01*
%TO.C,C10*%
X159837221Y-89510000D02*
X160162779Y-89510000D01*
X159837221Y-88490000D02*
X160162779Y-88490000D01*
%TO.C,C8*%
X136837221Y-87510000D02*
X137162779Y-87510000D01*
X136837221Y-86490000D02*
X137162779Y-86490000D01*
%TO.C,C7*%
X132587221Y-91760000D02*
X132912779Y-91760000D01*
X132587221Y-90740000D02*
X132912779Y-90740000D01*
%TO.C,C5*%
X158450279Y-69790000D02*
X158124721Y-69790000D01*
X158450279Y-70810000D02*
X158124721Y-70810000D01*
%TO.C,C4*%
X158450279Y-67790000D02*
X158124721Y-67790000D01*
X158450279Y-68810000D02*
X158124721Y-68810000D01*
%TO.C,C2*%
X136075279Y-69940000D02*
X135749721Y-69940000D01*
X136075279Y-70960000D02*
X135749721Y-70960000D01*
%TO.C,C1*%
X136075279Y-67940000D02*
X135749721Y-67940000D01*
X136075279Y-68960000D02*
X135749721Y-68960000D01*
%TO.C,C18*%
X132740000Y-105837221D02*
X132740000Y-106162779D01*
X133760000Y-105837221D02*
X133760000Y-106162779D01*
%TO.C,J10*%
X175400000Y-103480000D02*
X174070000Y-103480000D01*
X174070000Y-103480000D02*
X174070000Y-102150000D01*
X174070000Y-100880000D02*
X174070000Y-88120000D01*
X176730000Y-88120000D02*
X174070000Y-88120000D01*
X176730000Y-100880000D02*
X176730000Y-88120000D01*
X176730000Y-100880000D02*
X174070000Y-100880000D01*
%TO.C,C32*%
X159741422Y-60960000D02*
X160258578Y-60960000D01*
X159741422Y-59540000D02*
X160258578Y-59540000D01*
%TO.C,Y1*%
X164050000Y-57300000D02*
X164050000Y-51550000D01*
X160450000Y-57300000D02*
X164050000Y-57300000D01*
X160450000Y-51550000D02*
X160450000Y-57300000D01*
%TO.C,L1*%
X157741422Y-50460000D02*
X158258578Y-50460000D01*
X157741422Y-49040000D02*
X158258578Y-49040000D01*
%TO.C,U4*%
D10*
X149988095Y-86952380D02*
X149988095Y-87761904D01*
X150035714Y-87857142D01*
X150083333Y-87904761D01*
X150178571Y-87952380D01*
X150369047Y-87952380D01*
X150464285Y-87904761D01*
X150511904Y-87857142D01*
X150559523Y-87761904D01*
X150559523Y-86952380D01*
X151464285Y-87285714D02*
X151464285Y-87952380D01*
X151226190Y-86904761D02*
X150988095Y-87619047D01*
X151607142Y-87619047D01*
%TO.C,U3*%
X127138095Y-86952380D02*
X127138095Y-87761904D01*
X127185714Y-87857142D01*
X127233333Y-87904761D01*
X127328571Y-87952380D01*
X127519047Y-87952380D01*
X127614285Y-87904761D01*
X127661904Y-87857142D01*
X127709523Y-87761904D01*
X127709523Y-86952380D01*
X128090476Y-86952380D02*
X128709523Y-86952380D01*
X128376190Y-87333333D01*
X128519047Y-87333333D01*
X128614285Y-87380952D01*
X128661904Y-87428571D01*
X128709523Y-87523809D01*
X128709523Y-87761904D01*
X128661904Y-87857142D01*
X128614285Y-87904761D01*
X128519047Y-87952380D01*
X128233333Y-87952380D01*
X128138095Y-87904761D01*
X128090476Y-87857142D01*
%TO.C,U2*%
X166738095Y-69202380D02*
X166738095Y-70011904D01*
X166785714Y-70107142D01*
X166833333Y-70154761D01*
X166928571Y-70202380D01*
X167119047Y-70202380D01*
X167214285Y-70154761D01*
X167261904Y-70107142D01*
X167309523Y-70011904D01*
X167309523Y-69202380D01*
X167738095Y-69297619D02*
X167785714Y-69250000D01*
X167880952Y-69202380D01*
X168119047Y-69202380D01*
X168214285Y-69250000D01*
X168261904Y-69297619D01*
X168309523Y-69392857D01*
X168309523Y-69488095D01*
X168261904Y-69630952D01*
X167690476Y-70202380D01*
X168309523Y-70202380D01*
%TO.C,U1*%
X143988095Y-69202380D02*
X143988095Y-70011904D01*
X144035714Y-70107142D01*
X144083333Y-70154761D01*
X144178571Y-70202380D01*
X144369047Y-70202380D01*
X144464285Y-70154761D01*
X144511904Y-70107142D01*
X144559523Y-70011904D01*
X144559523Y-69202380D01*
X145559523Y-70202380D02*
X144988095Y-70202380D01*
X145273809Y-70202380D02*
X145273809Y-69202380D01*
X145178571Y-69345238D01*
X145083333Y-69440476D01*
X144988095Y-69488095D01*
%TO.C,C21*%
X179607142Y-84857142D02*
X179559523Y-84904761D01*
X179416666Y-84952380D01*
X179321428Y-84952380D01*
X179178571Y-84904761D01*
X179083333Y-84809523D01*
X179035714Y-84714285D01*
X178988095Y-84523809D01*
X178988095Y-84380952D01*
X179035714Y-84190476D01*
X179083333Y-84095238D01*
X179178571Y-84000000D01*
X179321428Y-83952380D01*
X179416666Y-83952380D01*
X179559523Y-84000000D01*
X179607142Y-84047619D01*
X179988095Y-84047619D02*
X180035714Y-84000000D01*
X180130952Y-83952380D01*
X180369047Y-83952380D01*
X180464285Y-84000000D01*
X180511904Y-84047619D01*
X180559523Y-84142857D01*
X180559523Y-84238095D01*
X180511904Y-84380952D01*
X179940476Y-84952380D01*
X180559523Y-84952380D01*
X181511904Y-84952380D02*
X180940476Y-84952380D01*
X181226190Y-84952380D02*
X181226190Y-83952380D01*
X181130952Y-84095238D01*
X181035714Y-84190476D01*
X180940476Y-84238095D01*
%TO.C,C12*%
X163607142Y-84857142D02*
X163559523Y-84904761D01*
X163416666Y-84952380D01*
X163321428Y-84952380D01*
X163178571Y-84904761D01*
X163083333Y-84809523D01*
X163035714Y-84714285D01*
X162988095Y-84523809D01*
X162988095Y-84380952D01*
X163035714Y-84190476D01*
X163083333Y-84095238D01*
X163178571Y-84000000D01*
X163321428Y-83952380D01*
X163416666Y-83952380D01*
X163559523Y-84000000D01*
X163607142Y-84047619D01*
X164559523Y-84952380D02*
X163988095Y-84952380D01*
X164273809Y-84952380D02*
X164273809Y-83952380D01*
X164178571Y-84095238D01*
X164083333Y-84190476D01*
X163988095Y-84238095D01*
X164940476Y-84047619D02*
X164988095Y-84000000D01*
X165083333Y-83952380D01*
X165321428Y-83952380D01*
X165416666Y-84000000D01*
X165464285Y-84047619D01*
X165511904Y-84142857D01*
X165511904Y-84238095D01*
X165464285Y-84380952D01*
X164892857Y-84952380D01*
X165511904Y-84952380D01*
%TO.C,C9*%
X140583333Y-84857142D02*
X140535714Y-84904761D01*
X140392857Y-84952380D01*
X140297619Y-84952380D01*
X140154761Y-84904761D01*
X140059523Y-84809523D01*
X140011904Y-84714285D01*
X139964285Y-84523809D01*
X139964285Y-84380952D01*
X140011904Y-84190476D01*
X140059523Y-84095238D01*
X140154761Y-84000000D01*
X140297619Y-83952380D01*
X140392857Y-83952380D01*
X140535714Y-84000000D01*
X140583333Y-84047619D01*
X141059523Y-84952380D02*
X141250000Y-84952380D01*
X141345238Y-84904761D01*
X141392857Y-84857142D01*
X141488095Y-84714285D01*
X141535714Y-84523809D01*
X141535714Y-84142857D01*
X141488095Y-84047619D01*
X141440476Y-84000000D01*
X141345238Y-83952380D01*
X141154761Y-83952380D01*
X141059523Y-84000000D01*
X141011904Y-84047619D01*
X140964285Y-84142857D01*
X140964285Y-84380952D01*
X141011904Y-84476190D01*
X141059523Y-84523809D01*
X141154761Y-84571428D01*
X141345238Y-84571428D01*
X141440476Y-84523809D01*
X141488095Y-84476190D01*
X141535714Y-84380952D01*
%TO.C,C6*%
X153933333Y-72857142D02*
X153885714Y-72904761D01*
X153742857Y-72952380D01*
X153647619Y-72952380D01*
X153504761Y-72904761D01*
X153409523Y-72809523D01*
X153361904Y-72714285D01*
X153314285Y-72523809D01*
X153314285Y-72380952D01*
X153361904Y-72190476D01*
X153409523Y-72095238D01*
X153504761Y-72000000D01*
X153647619Y-71952380D01*
X153742857Y-71952380D01*
X153885714Y-72000000D01*
X153933333Y-72047619D01*
X154790476Y-71952380D02*
X154600000Y-71952380D01*
X154504761Y-72000000D01*
X154457142Y-72047619D01*
X154361904Y-72190476D01*
X154314285Y-72380952D01*
X154314285Y-72761904D01*
X154361904Y-72857142D01*
X154409523Y-72904761D01*
X154504761Y-72952380D01*
X154695238Y-72952380D01*
X154790476Y-72904761D01*
X154838095Y-72857142D01*
X154885714Y-72761904D01*
X154885714Y-72523809D01*
X154838095Y-72428571D01*
X154790476Y-72380952D01*
X154695238Y-72333333D01*
X154504761Y-72333333D01*
X154409523Y-72380952D01*
X154361904Y-72428571D01*
X154314285Y-72523809D01*
%TO.C,C3*%
X131433333Y-73207142D02*
X131385714Y-73254761D01*
X131242857Y-73302380D01*
X131147619Y-73302380D01*
X131004761Y-73254761D01*
X130909523Y-73159523D01*
X130861904Y-73064285D01*
X130814285Y-72873809D01*
X130814285Y-72730952D01*
X130861904Y-72540476D01*
X130909523Y-72445238D01*
X131004761Y-72350000D01*
X131147619Y-72302380D01*
X131242857Y-72302380D01*
X131385714Y-72350000D01*
X131433333Y-72397619D01*
X131766666Y-72302380D02*
X132385714Y-72302380D01*
X132052380Y-72683333D01*
X132195238Y-72683333D01*
X132290476Y-72730952D01*
X132338095Y-72778571D01*
X132385714Y-72873809D01*
X132385714Y-73111904D01*
X132338095Y-73207142D01*
X132290476Y-73254761D01*
X132195238Y-73302380D01*
X131909523Y-73302380D01*
X131814285Y-73254761D01*
X131766666Y-73207142D01*
%TO.C,C16*%
X129357142Y-93857142D02*
X129309523Y-93904761D01*
X129166666Y-93952380D01*
X129071428Y-93952380D01*
X128928571Y-93904761D01*
X128833333Y-93809523D01*
X128785714Y-93714285D01*
X128738095Y-93523809D01*
X128738095Y-93380952D01*
X128785714Y-93190476D01*
X128833333Y-93095238D01*
X128928571Y-93000000D01*
X129071428Y-92952380D01*
X129166666Y-92952380D01*
X129309523Y-93000000D01*
X129357142Y-93047619D01*
X130309523Y-93952380D02*
X129738095Y-93952380D01*
X130023809Y-93952380D02*
X130023809Y-92952380D01*
X129928571Y-93095238D01*
X129833333Y-93190476D01*
X129738095Y-93238095D01*
X131166666Y-92952380D02*
X130976190Y-92952380D01*
X130880952Y-93000000D01*
X130833333Y-93047619D01*
X130738095Y-93190476D01*
X130690476Y-93380952D01*
X130690476Y-93761904D01*
X130738095Y-93857142D01*
X130785714Y-93904761D01*
X130880952Y-93952380D01*
X131071428Y-93952380D01*
X131166666Y-93904761D01*
X131214285Y-93857142D01*
X131261904Y-93761904D01*
X131261904Y-93523809D01*
X131214285Y-93428571D01*
X131166666Y-93380952D01*
X131071428Y-93333333D01*
X130880952Y-93333333D01*
X130785714Y-93380952D01*
X130738095Y-93428571D01*
X130690476Y-93523809D01*
%TO.C,C15*%
X124857142Y-109107142D02*
X124809523Y-109154761D01*
X124666666Y-109202380D01*
X124571428Y-109202380D01*
X124428571Y-109154761D01*
X124333333Y-109059523D01*
X124285714Y-108964285D01*
X124238095Y-108773809D01*
X124238095Y-108630952D01*
X124285714Y-108440476D01*
X124333333Y-108345238D01*
X124428571Y-108250000D01*
X124571428Y-108202380D01*
X124666666Y-108202380D01*
X124809523Y-108250000D01*
X124857142Y-108297619D01*
X125809523Y-109202380D02*
X125238095Y-109202380D01*
X125523809Y-109202380D02*
X125523809Y-108202380D01*
X125428571Y-108345238D01*
X125333333Y-108440476D01*
X125238095Y-108488095D01*
X126714285Y-108202380D02*
X126238095Y-108202380D01*
X126190476Y-108678571D01*
X126238095Y-108630952D01*
X126333333Y-108583333D01*
X126571428Y-108583333D01*
X126666666Y-108630952D01*
X126714285Y-108678571D01*
X126761904Y-108773809D01*
X126761904Y-109011904D01*
X126714285Y-109107142D01*
X126666666Y-109154761D01*
X126571428Y-109202380D01*
X126333333Y-109202380D01*
X126238095Y-109154761D01*
X126190476Y-109107142D01*
%TO.C,C13*%
X159607142Y-106107142D02*
X159559523Y-106154761D01*
X159416666Y-106202380D01*
X159321428Y-106202380D01*
X159178571Y-106154761D01*
X159083333Y-106059523D01*
X159035714Y-105964285D01*
X158988095Y-105773809D01*
X158988095Y-105630952D01*
X159035714Y-105440476D01*
X159083333Y-105345238D01*
X159178571Y-105250000D01*
X159321428Y-105202380D01*
X159416666Y-105202380D01*
X159559523Y-105250000D01*
X159607142Y-105297619D01*
X160559523Y-106202380D02*
X159988095Y-106202380D01*
X160273809Y-106202380D02*
X160273809Y-105202380D01*
X160178571Y-105345238D01*
X160083333Y-105440476D01*
X159988095Y-105488095D01*
X160892857Y-105202380D02*
X161511904Y-105202380D01*
X161178571Y-105583333D01*
X161321428Y-105583333D01*
X161416666Y-105630952D01*
X161464285Y-105678571D01*
X161511904Y-105773809D01*
X161511904Y-106011904D01*
X161464285Y-106107142D01*
X161416666Y-106154761D01*
X161321428Y-106202380D01*
X161035714Y-106202380D01*
X160940476Y-106154761D01*
X160892857Y-106107142D01*
%TO.C,Q2*%
X152154761Y-99297619D02*
X152059523Y-99250000D01*
X151964285Y-99154761D01*
X151821428Y-99011904D01*
X151726190Y-98964285D01*
X151630952Y-98964285D01*
X151678571Y-99202380D02*
X151583333Y-99154761D01*
X151488095Y-99059523D01*
X151440476Y-98869047D01*
X151440476Y-98535714D01*
X151488095Y-98345238D01*
X151583333Y-98250000D01*
X151678571Y-98202380D01*
X151869047Y-98202380D01*
X151964285Y-98250000D01*
X152059523Y-98345238D01*
X152107142Y-98535714D01*
X152107142Y-98869047D01*
X152059523Y-99059523D01*
X151964285Y-99154761D01*
X151869047Y-99202380D01*
X151678571Y-99202380D01*
X152488095Y-98297619D02*
X152535714Y-98250000D01*
X152630952Y-98202380D01*
X152869047Y-98202380D01*
X152964285Y-98250000D01*
X153011904Y-98297619D01*
X153059523Y-98392857D01*
X153059523Y-98488095D01*
X153011904Y-98630952D01*
X152440476Y-99202380D01*
X153059523Y-99202380D01*
%TO.C,Q1*%
X143154761Y-92347619D02*
X143059523Y-92300000D01*
X142964285Y-92204761D01*
X142821428Y-92061904D01*
X142726190Y-92014285D01*
X142630952Y-92014285D01*
X142678571Y-92252380D02*
X142583333Y-92204761D01*
X142488095Y-92109523D01*
X142440476Y-91919047D01*
X142440476Y-91585714D01*
X142488095Y-91395238D01*
X142583333Y-91300000D01*
X142678571Y-91252380D01*
X142869047Y-91252380D01*
X142964285Y-91300000D01*
X143059523Y-91395238D01*
X143107142Y-91585714D01*
X143107142Y-91919047D01*
X143059523Y-92109523D01*
X142964285Y-92204761D01*
X142869047Y-92252380D01*
X142678571Y-92252380D01*
X144059523Y-92252380D02*
X143488095Y-92252380D01*
X143773809Y-92252380D02*
X143773809Y-91252380D01*
X143678571Y-91395238D01*
X143583333Y-91490476D01*
X143488095Y-91538095D01*
%TO.C,SW1*%
X165466666Y-114004761D02*
X165609523Y-114052380D01*
X165847619Y-114052380D01*
X165942857Y-114004761D01*
X165990476Y-113957142D01*
X166038095Y-113861904D01*
X166038095Y-113766666D01*
X165990476Y-113671428D01*
X165942857Y-113623809D01*
X165847619Y-113576190D01*
X165657142Y-113528571D01*
X165561904Y-113480952D01*
X165514285Y-113433333D01*
X165466666Y-113338095D01*
X165466666Y-113242857D01*
X165514285Y-113147619D01*
X165561904Y-113100000D01*
X165657142Y-113052380D01*
X165895238Y-113052380D01*
X166038095Y-113100000D01*
X166371428Y-113052380D02*
X166609523Y-114052380D01*
X166800000Y-113338095D01*
X166990476Y-114052380D01*
X167228571Y-113052380D01*
X168133333Y-114052380D02*
X167561904Y-114052380D01*
X167847619Y-114052380D02*
X167847619Y-113052380D01*
X167752380Y-113195238D01*
X167657142Y-113290476D01*
X167561904Y-113338095D01*
%TO.C,U6*%
X168238095Y-96952380D02*
X168238095Y-97761904D01*
X168285714Y-97857142D01*
X168333333Y-97904761D01*
X168428571Y-97952380D01*
X168619047Y-97952380D01*
X168714285Y-97904761D01*
X168761904Y-97857142D01*
X168809523Y-97761904D01*
X168809523Y-96952380D01*
X169714285Y-96952380D02*
X169523809Y-96952380D01*
X169428571Y-97000000D01*
X169380952Y-97047619D01*
X169285714Y-97190476D01*
X169238095Y-97380952D01*
X169238095Y-97761904D01*
X169285714Y-97857142D01*
X169333333Y-97904761D01*
X169428571Y-97952380D01*
X169619047Y-97952380D01*
X169714285Y-97904761D01*
X169761904Y-97857142D01*
X169809523Y-97761904D01*
X169809523Y-97523809D01*
X169761904Y-97428571D01*
X169714285Y-97380952D01*
X169619047Y-97333333D01*
X169428571Y-97333333D01*
X169333333Y-97380952D01*
X169285714Y-97428571D01*
X169238095Y-97523809D01*
%TO.C,U5*%
X127488095Y-99452380D02*
X127488095Y-100261904D01*
X127535714Y-100357142D01*
X127583333Y-100404761D01*
X127678571Y-100452380D01*
X127869047Y-100452380D01*
X127964285Y-100404761D01*
X128011904Y-100357142D01*
X128059523Y-100261904D01*
X128059523Y-99452380D01*
X129011904Y-99452380D02*
X128535714Y-99452380D01*
X128488095Y-99928571D01*
X128535714Y-99880952D01*
X128630952Y-99833333D01*
X128869047Y-99833333D01*
X128964285Y-99880952D01*
X129011904Y-99928571D01*
X129059523Y-100023809D01*
X129059523Y-100261904D01*
X129011904Y-100357142D01*
X128964285Y-100404761D01*
X128869047Y-100452380D01*
X128630952Y-100452380D01*
X128535714Y-100404761D01*
X128488095Y-100357142D01*
%TO.C,U8*%
X171888095Y-78672380D02*
X171888095Y-79481904D01*
X171935714Y-79577142D01*
X171983333Y-79624761D01*
X172078571Y-79672380D01*
X172269047Y-79672380D01*
X172364285Y-79624761D01*
X172411904Y-79577142D01*
X172459523Y-79481904D01*
X172459523Y-78672380D01*
X173078571Y-79100952D02*
X172983333Y-79053333D01*
X172935714Y-79005714D01*
X172888095Y-78910476D01*
X172888095Y-78862857D01*
X172935714Y-78767619D01*
X172983333Y-78720000D01*
X173078571Y-78672380D01*
X173269047Y-78672380D01*
X173364285Y-78720000D01*
X173411904Y-78767619D01*
X173459523Y-78862857D01*
X173459523Y-78910476D01*
X173411904Y-79005714D01*
X173364285Y-79053333D01*
X173269047Y-79100952D01*
X173078571Y-79100952D01*
X172983333Y-79148571D01*
X172935714Y-79196190D01*
X172888095Y-79291428D01*
X172888095Y-79481904D01*
X172935714Y-79577142D01*
X172983333Y-79624761D01*
X173078571Y-79672380D01*
X173269047Y-79672380D01*
X173364285Y-79624761D01*
X173411904Y-79577142D01*
X173459523Y-79481904D01*
X173459523Y-79291428D01*
X173411904Y-79196190D01*
X173364285Y-79148571D01*
X173269047Y-79100952D01*
%TO.C,SW4*%
X153416666Y-109904761D02*
X153559523Y-109952380D01*
X153797619Y-109952380D01*
X153892857Y-109904761D01*
X153940476Y-109857142D01*
X153988095Y-109761904D01*
X153988095Y-109666666D01*
X153940476Y-109571428D01*
X153892857Y-109523809D01*
X153797619Y-109476190D01*
X153607142Y-109428571D01*
X153511904Y-109380952D01*
X153464285Y-109333333D01*
X153416666Y-109238095D01*
X153416666Y-109142857D01*
X153464285Y-109047619D01*
X153511904Y-109000000D01*
X153607142Y-108952380D01*
X153845238Y-108952380D01*
X153988095Y-109000000D01*
X154321428Y-108952380D02*
X154559523Y-109952380D01*
X154750000Y-109238095D01*
X154940476Y-109952380D01*
X155178571Y-108952380D01*
X155988095Y-109285714D02*
X155988095Y-109952380D01*
X155750000Y-108904761D02*
X155511904Y-109619047D01*
X156130952Y-109619047D01*
%TO.C,SW3*%
X146416666Y-109904761D02*
X146559523Y-109952380D01*
X146797619Y-109952380D01*
X146892857Y-109904761D01*
X146940476Y-109857142D01*
X146988095Y-109761904D01*
X146988095Y-109666666D01*
X146940476Y-109571428D01*
X146892857Y-109523809D01*
X146797619Y-109476190D01*
X146607142Y-109428571D01*
X146511904Y-109380952D01*
X146464285Y-109333333D01*
X146416666Y-109238095D01*
X146416666Y-109142857D01*
X146464285Y-109047619D01*
X146511904Y-109000000D01*
X146607142Y-108952380D01*
X146845238Y-108952380D01*
X146988095Y-109000000D01*
X147321428Y-108952380D02*
X147559523Y-109952380D01*
X147750000Y-109238095D01*
X147940476Y-109952380D01*
X148178571Y-108952380D01*
X148464285Y-108952380D02*
X149083333Y-108952380D01*
X148750000Y-109333333D01*
X148892857Y-109333333D01*
X148988095Y-109380952D01*
X149035714Y-109428571D01*
X149083333Y-109523809D01*
X149083333Y-109761904D01*
X149035714Y-109857142D01*
X148988095Y-109904761D01*
X148892857Y-109952380D01*
X148607142Y-109952380D01*
X148511904Y-109904761D01*
X148464285Y-109857142D01*
%TO.C,SW2*%
X139416666Y-109904761D02*
X139559523Y-109952380D01*
X139797619Y-109952380D01*
X139892857Y-109904761D01*
X139940476Y-109857142D01*
X139988095Y-109761904D01*
X139988095Y-109666666D01*
X139940476Y-109571428D01*
X139892857Y-109523809D01*
X139797619Y-109476190D01*
X139607142Y-109428571D01*
X139511904Y-109380952D01*
X139464285Y-109333333D01*
X139416666Y-109238095D01*
X139416666Y-109142857D01*
X139464285Y-109047619D01*
X139511904Y-109000000D01*
X139607142Y-108952380D01*
X139845238Y-108952380D01*
X139988095Y-109000000D01*
X140321428Y-108952380D02*
X140559523Y-109952380D01*
X140750000Y-109238095D01*
X140940476Y-109952380D01*
X141178571Y-108952380D01*
X141511904Y-109047619D02*
X141559523Y-109000000D01*
X141654761Y-108952380D01*
X141892857Y-108952380D01*
X141988095Y-109000000D01*
X142035714Y-109047619D01*
X142083333Y-109142857D01*
X142083333Y-109238095D01*
X142035714Y-109380952D01*
X141464285Y-109952380D01*
X142083333Y-109952380D01*
%TO.C,R11*%
X179607142Y-81952380D02*
X179273809Y-81476190D01*
X179035714Y-81952380D02*
X179035714Y-80952380D01*
X179416666Y-80952380D01*
X179511904Y-81000000D01*
X179559523Y-81047619D01*
X179607142Y-81142857D01*
X179607142Y-81285714D01*
X179559523Y-81380952D01*
X179511904Y-81428571D01*
X179416666Y-81476190D01*
X179035714Y-81476190D01*
X180559523Y-81952380D02*
X179988095Y-81952380D01*
X180273809Y-81952380D02*
X180273809Y-80952380D01*
X180178571Y-81095238D01*
X180083333Y-81190476D01*
X179988095Y-81238095D01*
X181511904Y-81952380D02*
X180940476Y-81952380D01*
X181226190Y-81952380D02*
X181226190Y-80952380D01*
X181130952Y-81095238D01*
X181035714Y-81190476D01*
X180940476Y-81238095D01*
%TO.C,D3*%
X178261904Y-73952380D02*
X178261904Y-72952380D01*
X178500000Y-72952380D01*
X178642857Y-73000000D01*
X178738095Y-73095238D01*
X178785714Y-73190476D01*
X178833333Y-73380952D01*
X178833333Y-73523809D01*
X178785714Y-73714285D01*
X178738095Y-73809523D01*
X178642857Y-73904761D01*
X178500000Y-73952380D01*
X178261904Y-73952380D01*
X179166666Y-72952380D02*
X179785714Y-72952380D01*
X179452380Y-73333333D01*
X179595238Y-73333333D01*
X179690476Y-73380952D01*
X179738095Y-73428571D01*
X179785714Y-73523809D01*
X179785714Y-73761904D01*
X179738095Y-73857142D01*
X179690476Y-73904761D01*
X179595238Y-73952380D01*
X179309523Y-73952380D01*
X179214285Y-73904761D01*
X179166666Y-73857142D01*
%TO.C,R10*%
X137202380Y-113642857D02*
X136726190Y-113976190D01*
X137202380Y-114214285D02*
X136202380Y-114214285D01*
X136202380Y-113833333D01*
X136250000Y-113738095D01*
X136297619Y-113690476D01*
X136392857Y-113642857D01*
X136535714Y-113642857D01*
X136630952Y-113690476D01*
X136678571Y-113738095D01*
X136726190Y-113833333D01*
X136726190Y-114214285D01*
X137202380Y-112690476D02*
X137202380Y-113261904D01*
X137202380Y-112976190D02*
X136202380Y-112976190D01*
X136345238Y-113071428D01*
X136440476Y-113166666D01*
X136488095Y-113261904D01*
X136202380Y-112071428D02*
X136202380Y-111976190D01*
X136250000Y-111880952D01*
X136297619Y-111833333D01*
X136392857Y-111785714D01*
X136583333Y-111738095D01*
X136821428Y-111738095D01*
X137011904Y-111785714D01*
X137107142Y-111833333D01*
X137154761Y-111880952D01*
X137202380Y-111976190D01*
X137202380Y-112071428D01*
X137154761Y-112166666D01*
X137107142Y-112214285D01*
X137011904Y-112261904D01*
X136821428Y-112309523D01*
X136583333Y-112309523D01*
X136392857Y-112261904D01*
X136297619Y-112214285D01*
X136250000Y-112166666D01*
X136202380Y-112071428D01*
%TO.C,R9*%
X137202380Y-109666666D02*
X136726190Y-110000000D01*
X137202380Y-110238095D02*
X136202380Y-110238095D01*
X136202380Y-109857142D01*
X136250000Y-109761904D01*
X136297619Y-109714285D01*
X136392857Y-109666666D01*
X136535714Y-109666666D01*
X136630952Y-109714285D01*
X136678571Y-109761904D01*
X136726190Y-109857142D01*
X136726190Y-110238095D01*
X137202380Y-109190476D02*
X137202380Y-109000000D01*
X137154761Y-108904761D01*
X137107142Y-108857142D01*
X136964285Y-108761904D01*
X136773809Y-108714285D01*
X136392857Y-108714285D01*
X136297619Y-108761904D01*
X136250000Y-108809523D01*
X136202380Y-108904761D01*
X136202380Y-109095238D01*
X136250000Y-109190476D01*
X136297619Y-109238095D01*
X136392857Y-109285714D01*
X136630952Y-109285714D01*
X136726190Y-109238095D01*
X136773809Y-109190476D01*
X136821428Y-109095238D01*
X136821428Y-108904761D01*
X136773809Y-108809523D01*
X136726190Y-108761904D01*
X136630952Y-108714285D01*
%TO.C,C20*%
X132107142Y-113642857D02*
X132154761Y-113690476D01*
X132202380Y-113833333D01*
X132202380Y-113928571D01*
X132154761Y-114071428D01*
X132059523Y-114166666D01*
X131964285Y-114214285D01*
X131773809Y-114261904D01*
X131630952Y-114261904D01*
X131440476Y-114214285D01*
X131345238Y-114166666D01*
X131250000Y-114071428D01*
X131202380Y-113928571D01*
X131202380Y-113833333D01*
X131250000Y-113690476D01*
X131297619Y-113642857D01*
X131297619Y-113261904D02*
X131250000Y-113214285D01*
X131202380Y-113119047D01*
X131202380Y-112880952D01*
X131250000Y-112785714D01*
X131297619Y-112738095D01*
X131392857Y-112690476D01*
X131488095Y-112690476D01*
X131630952Y-112738095D01*
X132202380Y-113309523D01*
X132202380Y-112690476D01*
X131202380Y-112071428D02*
X131202380Y-111976190D01*
X131250000Y-111880952D01*
X131297619Y-111833333D01*
X131392857Y-111785714D01*
X131583333Y-111738095D01*
X131821428Y-111738095D01*
X132011904Y-111785714D01*
X132107142Y-111833333D01*
X132154761Y-111880952D01*
X132202380Y-111976190D01*
X132202380Y-112071428D01*
X132154761Y-112166666D01*
X132107142Y-112214285D01*
X132011904Y-112261904D01*
X131821428Y-112309523D01*
X131583333Y-112309523D01*
X131392857Y-112261904D01*
X131297619Y-112214285D01*
X131250000Y-112166666D01*
X131202380Y-112071428D01*
%TO.C,C19*%
X132107142Y-110142857D02*
X132154761Y-110190476D01*
X132202380Y-110333333D01*
X132202380Y-110428571D01*
X132154761Y-110571428D01*
X132059523Y-110666666D01*
X131964285Y-110714285D01*
X131773809Y-110761904D01*
X131630952Y-110761904D01*
X131440476Y-110714285D01*
X131345238Y-110666666D01*
X131250000Y-110571428D01*
X131202380Y-110428571D01*
X131202380Y-110333333D01*
X131250000Y-110190476D01*
X131297619Y-110142857D01*
X132202380Y-109190476D02*
X132202380Y-109761904D01*
X132202380Y-109476190D02*
X131202380Y-109476190D01*
X131345238Y-109571428D01*
X131440476Y-109666666D01*
X131488095Y-109761904D01*
X132202380Y-108714285D02*
X132202380Y-108523809D01*
X132154761Y-108428571D01*
X132107142Y-108380952D01*
X131964285Y-108285714D01*
X131773809Y-108238095D01*
X131392857Y-108238095D01*
X131297619Y-108285714D01*
X131250000Y-108333333D01*
X131202380Y-108428571D01*
X131202380Y-108619047D01*
X131250000Y-108714285D01*
X131297619Y-108761904D01*
X131392857Y-108809523D01*
X131630952Y-108809523D01*
X131726190Y-108761904D01*
X131773809Y-108714285D01*
X131821428Y-108619047D01*
X131821428Y-108428571D01*
X131773809Y-108333333D01*
X131726190Y-108285714D01*
X131630952Y-108238095D01*
%TO.C,R12*%
X179607142Y-83452380D02*
X179273809Y-82976190D01*
X179035714Y-83452380D02*
X179035714Y-82452380D01*
X179416666Y-82452380D01*
X179511904Y-82500000D01*
X179559523Y-82547619D01*
X179607142Y-82642857D01*
X179607142Y-82785714D01*
X179559523Y-82880952D01*
X179511904Y-82928571D01*
X179416666Y-82976190D01*
X179035714Y-82976190D01*
X180559523Y-83452380D02*
X179988095Y-83452380D01*
X180273809Y-83452380D02*
X180273809Y-82452380D01*
X180178571Y-82595238D01*
X180083333Y-82690476D01*
X179988095Y-82738095D01*
X180940476Y-82547619D02*
X180988095Y-82500000D01*
X181083333Y-82452380D01*
X181321428Y-82452380D01*
X181416666Y-82500000D01*
X181464285Y-82547619D01*
X181511904Y-82642857D01*
X181511904Y-82738095D01*
X181464285Y-82880952D01*
X180892857Y-83452380D01*
X181511904Y-83452380D01*
%TO.C,R8*%
X137202380Y-106166666D02*
X136726190Y-106500000D01*
X137202380Y-106738095D02*
X136202380Y-106738095D01*
X136202380Y-106357142D01*
X136250000Y-106261904D01*
X136297619Y-106214285D01*
X136392857Y-106166666D01*
X136535714Y-106166666D01*
X136630952Y-106214285D01*
X136678571Y-106261904D01*
X136726190Y-106357142D01*
X136726190Y-106738095D01*
X136630952Y-105595238D02*
X136583333Y-105690476D01*
X136535714Y-105738095D01*
X136440476Y-105785714D01*
X136392857Y-105785714D01*
X136297619Y-105738095D01*
X136250000Y-105690476D01*
X136202380Y-105595238D01*
X136202380Y-105404761D01*
X136250000Y-105309523D01*
X136297619Y-105261904D01*
X136392857Y-105214285D01*
X136440476Y-105214285D01*
X136535714Y-105261904D01*
X136583333Y-105309523D01*
X136630952Y-105404761D01*
X136630952Y-105595238D01*
X136678571Y-105690476D01*
X136726190Y-105738095D01*
X136821428Y-105785714D01*
X137011904Y-105785714D01*
X137107142Y-105738095D01*
X137154761Y-105690476D01*
X137202380Y-105595238D01*
X137202380Y-105404761D01*
X137154761Y-105309523D01*
X137107142Y-105261904D01*
X137011904Y-105214285D01*
X136821428Y-105214285D01*
X136726190Y-105261904D01*
X136678571Y-105309523D01*
X136630952Y-105404761D01*
%TO.C,R7*%
X177452380Y-81916666D02*
X176976190Y-82250000D01*
X177452380Y-82488095D02*
X176452380Y-82488095D01*
X176452380Y-82107142D01*
X176500000Y-82011904D01*
X176547619Y-81964285D01*
X176642857Y-81916666D01*
X176785714Y-81916666D01*
X176880952Y-81964285D01*
X176928571Y-82011904D01*
X176976190Y-82107142D01*
X176976190Y-82488095D01*
X176452380Y-81583333D02*
X176452380Y-80916666D01*
X177452380Y-81345238D01*
%TO.C,R13*%
X132357142Y-58202380D02*
X132023809Y-57726190D01*
X131785714Y-58202380D02*
X131785714Y-57202380D01*
X132166666Y-57202380D01*
X132261904Y-57250000D01*
X132309523Y-57297619D01*
X132357142Y-57392857D01*
X132357142Y-57535714D01*
X132309523Y-57630952D01*
X132261904Y-57678571D01*
X132166666Y-57726190D01*
X131785714Y-57726190D01*
X133309523Y-58202380D02*
X132738095Y-58202380D01*
X133023809Y-58202380D02*
X133023809Y-57202380D01*
X132928571Y-57345238D01*
X132833333Y-57440476D01*
X132738095Y-57488095D01*
X133642857Y-57202380D02*
X134261904Y-57202380D01*
X133928571Y-57583333D01*
X134071428Y-57583333D01*
X134166666Y-57630952D01*
X134214285Y-57678571D01*
X134261904Y-57773809D01*
X134261904Y-58011904D01*
X134214285Y-58107142D01*
X134166666Y-58154761D01*
X134071428Y-58202380D01*
X133785714Y-58202380D01*
X133690476Y-58154761D01*
X133642857Y-58107142D01*
%TO.C,R6*%
X127083333Y-62452380D02*
X126750000Y-61976190D01*
X126511904Y-62452380D02*
X126511904Y-61452380D01*
X126892857Y-61452380D01*
X126988095Y-61500000D01*
X127035714Y-61547619D01*
X127083333Y-61642857D01*
X127083333Y-61785714D01*
X127035714Y-61880952D01*
X126988095Y-61928571D01*
X126892857Y-61976190D01*
X126511904Y-61976190D01*
X127940476Y-61452380D02*
X127750000Y-61452380D01*
X127654761Y-61500000D01*
X127607142Y-61547619D01*
X127511904Y-61690476D01*
X127464285Y-61880952D01*
X127464285Y-62261904D01*
X127511904Y-62357142D01*
X127559523Y-62404761D01*
X127654761Y-62452380D01*
X127845238Y-62452380D01*
X127940476Y-62404761D01*
X127988095Y-62357142D01*
X128035714Y-62261904D01*
X128035714Y-62023809D01*
X127988095Y-61928571D01*
X127940476Y-61880952D01*
X127845238Y-61833333D01*
X127654761Y-61833333D01*
X127559523Y-61880952D01*
X127511904Y-61928571D01*
X127464285Y-62023809D01*
%TO.C,R5*%
X175452380Y-81916666D02*
X174976190Y-82250000D01*
X175452380Y-82488095D02*
X174452380Y-82488095D01*
X174452380Y-82107142D01*
X174500000Y-82011904D01*
X174547619Y-81964285D01*
X174642857Y-81916666D01*
X174785714Y-81916666D01*
X174880952Y-81964285D01*
X174928571Y-82011904D01*
X174976190Y-82107142D01*
X174976190Y-82488095D01*
X174452380Y-81011904D02*
X174452380Y-81488095D01*
X174928571Y-81535714D01*
X174880952Y-81488095D01*
X174833333Y-81392857D01*
X174833333Y-81154761D01*
X174880952Y-81059523D01*
X174928571Y-81011904D01*
X175023809Y-80964285D01*
X175261904Y-80964285D01*
X175357142Y-81011904D01*
X175404761Y-81059523D01*
X175452380Y-81154761D01*
X175452380Y-81392857D01*
X175404761Y-81488095D01*
X175357142Y-81535714D01*
%TO.C,R4*%
X127083333Y-64452380D02*
X126750000Y-63976190D01*
X126511904Y-64452380D02*
X126511904Y-63452380D01*
X126892857Y-63452380D01*
X126988095Y-63500000D01*
X127035714Y-63547619D01*
X127083333Y-63642857D01*
X127083333Y-63785714D01*
X127035714Y-63880952D01*
X126988095Y-63928571D01*
X126892857Y-63976190D01*
X126511904Y-63976190D01*
X127940476Y-63785714D02*
X127940476Y-64452380D01*
X127702380Y-63404761D02*
X127464285Y-64119047D01*
X128083333Y-64119047D01*
%TO.C,R3*%
X148833333Y-102952380D02*
X148500000Y-102476190D01*
X148261904Y-102952380D02*
X148261904Y-101952380D01*
X148642857Y-101952380D01*
X148738095Y-102000000D01*
X148785714Y-102047619D01*
X148833333Y-102142857D01*
X148833333Y-102285714D01*
X148785714Y-102380952D01*
X148738095Y-102428571D01*
X148642857Y-102476190D01*
X148261904Y-102476190D01*
X149166666Y-101952380D02*
X149785714Y-101952380D01*
X149452380Y-102333333D01*
X149595238Y-102333333D01*
X149690476Y-102380952D01*
X149738095Y-102428571D01*
X149785714Y-102523809D01*
X149785714Y-102761904D01*
X149738095Y-102857142D01*
X149690476Y-102904761D01*
X149595238Y-102952380D01*
X149309523Y-102952380D01*
X149214285Y-102904761D01*
X149166666Y-102857142D01*
%TO.C,R2*%
X137083333Y-95952380D02*
X136750000Y-95476190D01*
X136511904Y-95952380D02*
X136511904Y-94952380D01*
X136892857Y-94952380D01*
X136988095Y-95000000D01*
X137035714Y-95047619D01*
X137083333Y-95142857D01*
X137083333Y-95285714D01*
X137035714Y-95380952D01*
X136988095Y-95428571D01*
X136892857Y-95476190D01*
X136511904Y-95476190D01*
X137464285Y-95047619D02*
X137511904Y-95000000D01*
X137607142Y-94952380D01*
X137845238Y-94952380D01*
X137940476Y-95000000D01*
X137988095Y-95047619D01*
X138035714Y-95142857D01*
X138035714Y-95238095D01*
X137988095Y-95380952D01*
X137416666Y-95952380D01*
X138035714Y-95952380D01*
%TO.C,R1*%
X148795833Y-100952380D02*
X148462500Y-100476190D01*
X148224404Y-100952380D02*
X148224404Y-99952380D01*
X148605357Y-99952380D01*
X148700595Y-100000000D01*
X148748214Y-100047619D01*
X148795833Y-100142857D01*
X148795833Y-100285714D01*
X148748214Y-100380952D01*
X148700595Y-100428571D01*
X148605357Y-100476190D01*
X148224404Y-100476190D01*
X149748214Y-100952380D02*
X149176785Y-100952380D01*
X149462500Y-100952380D02*
X149462500Y-99952380D01*
X149367261Y-100095238D01*
X149272023Y-100190476D01*
X149176785Y-100238095D01*
%TO.C,D1*%
X174261904Y-73952380D02*
X174261904Y-72952380D01*
X174500000Y-72952380D01*
X174642857Y-73000000D01*
X174738095Y-73095238D01*
X174785714Y-73190476D01*
X174833333Y-73380952D01*
X174833333Y-73523809D01*
X174785714Y-73714285D01*
X174738095Y-73809523D01*
X174642857Y-73904761D01*
X174500000Y-73952380D01*
X174261904Y-73952380D01*
X175785714Y-73952380D02*
X175214285Y-73952380D01*
X175500000Y-73952380D02*
X175500000Y-72952380D01*
X175404761Y-73095238D01*
X175309523Y-73190476D01*
X175214285Y-73238095D01*
%TO.C,D2*%
X176261904Y-73952380D02*
X176261904Y-72952380D01*
X176500000Y-72952380D01*
X176642857Y-73000000D01*
X176738095Y-73095238D01*
X176785714Y-73190476D01*
X176833333Y-73380952D01*
X176833333Y-73523809D01*
X176785714Y-73714285D01*
X176738095Y-73809523D01*
X176642857Y-73904761D01*
X176500000Y-73952380D01*
X176261904Y-73952380D01*
X177214285Y-73047619D02*
X177261904Y-73000000D01*
X177357142Y-72952380D01*
X177595238Y-72952380D01*
X177690476Y-73000000D01*
X177738095Y-73047619D01*
X177785714Y-73142857D01*
X177785714Y-73238095D01*
X177738095Y-73380952D01*
X177166666Y-73952380D01*
X177785714Y-73952380D01*
%TO.C,C31*%
X159107142Y-64357142D02*
X159059523Y-64404761D01*
X158916666Y-64452380D01*
X158821428Y-64452380D01*
X158678571Y-64404761D01*
X158583333Y-64309523D01*
X158535714Y-64214285D01*
X158488095Y-64023809D01*
X158488095Y-63880952D01*
X158535714Y-63690476D01*
X158583333Y-63595238D01*
X158678571Y-63500000D01*
X158821428Y-63452380D01*
X158916666Y-63452380D01*
X159059523Y-63500000D01*
X159107142Y-63547619D01*
X159440476Y-63452380D02*
X160059523Y-63452380D01*
X159726190Y-63833333D01*
X159869047Y-63833333D01*
X159964285Y-63880952D01*
X160011904Y-63928571D01*
X160059523Y-64023809D01*
X160059523Y-64261904D01*
X160011904Y-64357142D01*
X159964285Y-64404761D01*
X159869047Y-64452380D01*
X159583333Y-64452380D01*
X159488095Y-64404761D01*
X159440476Y-64357142D01*
X161011904Y-64452380D02*
X160440476Y-64452380D01*
X160726190Y-64452380D02*
X160726190Y-63452380D01*
X160630952Y-63595238D01*
X160535714Y-63690476D01*
X160440476Y-63738095D01*
%TO.C,C30*%
X150107142Y-69357142D02*
X150059523Y-69404761D01*
X149916666Y-69452380D01*
X149821428Y-69452380D01*
X149678571Y-69404761D01*
X149583333Y-69309523D01*
X149535714Y-69214285D01*
X149488095Y-69023809D01*
X149488095Y-68880952D01*
X149535714Y-68690476D01*
X149583333Y-68595238D01*
X149678571Y-68500000D01*
X149821428Y-68452380D01*
X149916666Y-68452380D01*
X150059523Y-68500000D01*
X150107142Y-68547619D01*
X150440476Y-68452380D02*
X151059523Y-68452380D01*
X150726190Y-68833333D01*
X150869047Y-68833333D01*
X150964285Y-68880952D01*
X151011904Y-68928571D01*
X151059523Y-69023809D01*
X151059523Y-69261904D01*
X151011904Y-69357142D01*
X150964285Y-69404761D01*
X150869047Y-69452380D01*
X150583333Y-69452380D01*
X150488095Y-69404761D01*
X150440476Y-69357142D01*
X151678571Y-68452380D02*
X151773809Y-68452380D01*
X151869047Y-68500000D01*
X151916666Y-68547619D01*
X151964285Y-68642857D01*
X152011904Y-68833333D01*
X152011904Y-69071428D01*
X151964285Y-69261904D01*
X151916666Y-69357142D01*
X151869047Y-69404761D01*
X151773809Y-69452380D01*
X151678571Y-69452380D01*
X151583333Y-69404761D01*
X151535714Y-69357142D01*
X151488095Y-69261904D01*
X151440476Y-69071428D01*
X151440476Y-68833333D01*
X151488095Y-68642857D01*
X151535714Y-68547619D01*
X151583333Y-68500000D01*
X151678571Y-68452380D01*
%TO.C,C29*%
X136857142Y-61107142D02*
X136809523Y-61154761D01*
X136666666Y-61202380D01*
X136571428Y-61202380D01*
X136428571Y-61154761D01*
X136333333Y-61059523D01*
X136285714Y-60964285D01*
X136238095Y-60773809D01*
X136238095Y-60630952D01*
X136285714Y-60440476D01*
X136333333Y-60345238D01*
X136428571Y-60250000D01*
X136571428Y-60202380D01*
X136666666Y-60202380D01*
X136809523Y-60250000D01*
X136857142Y-60297619D01*
X137238095Y-60297619D02*
X137285714Y-60250000D01*
X137380952Y-60202380D01*
X137619047Y-60202380D01*
X137714285Y-60250000D01*
X137761904Y-60297619D01*
X137809523Y-60392857D01*
X137809523Y-60488095D01*
X137761904Y-60630952D01*
X137190476Y-61202380D01*
X137809523Y-61202380D01*
X138285714Y-61202380D02*
X138476190Y-61202380D01*
X138571428Y-61154761D01*
X138619047Y-61107142D01*
X138714285Y-60964285D01*
X138761904Y-60773809D01*
X138761904Y-60392857D01*
X138714285Y-60297619D01*
X138666666Y-60250000D01*
X138571428Y-60202380D01*
X138380952Y-60202380D01*
X138285714Y-60250000D01*
X138238095Y-60297619D01*
X138190476Y-60392857D01*
X138190476Y-60630952D01*
X138238095Y-60726190D01*
X138285714Y-60773809D01*
X138380952Y-60821428D01*
X138571428Y-60821428D01*
X138666666Y-60773809D01*
X138714285Y-60726190D01*
X138761904Y-60630952D01*
%TO.C,C28*%
X134357142Y-52107142D02*
X134309523Y-52154761D01*
X134166666Y-52202380D01*
X134071428Y-52202380D01*
X133928571Y-52154761D01*
X133833333Y-52059523D01*
X133785714Y-51964285D01*
X133738095Y-51773809D01*
X133738095Y-51630952D01*
X133785714Y-51440476D01*
X133833333Y-51345238D01*
X133928571Y-51250000D01*
X134071428Y-51202380D01*
X134166666Y-51202380D01*
X134309523Y-51250000D01*
X134357142Y-51297619D01*
X134738095Y-51297619D02*
X134785714Y-51250000D01*
X134880952Y-51202380D01*
X135119047Y-51202380D01*
X135214285Y-51250000D01*
X135261904Y-51297619D01*
X135309523Y-51392857D01*
X135309523Y-51488095D01*
X135261904Y-51630952D01*
X134690476Y-52202380D01*
X135309523Y-52202380D01*
X135880952Y-51630952D02*
X135785714Y-51583333D01*
X135738095Y-51535714D01*
X135690476Y-51440476D01*
X135690476Y-51392857D01*
X135738095Y-51297619D01*
X135785714Y-51250000D01*
X135880952Y-51202380D01*
X136071428Y-51202380D01*
X136166666Y-51250000D01*
X136214285Y-51297619D01*
X136261904Y-51392857D01*
X136261904Y-51440476D01*
X136214285Y-51535714D01*
X136166666Y-51583333D01*
X136071428Y-51630952D01*
X135880952Y-51630952D01*
X135785714Y-51678571D01*
X135738095Y-51726190D01*
X135690476Y-51821428D01*
X135690476Y-52011904D01*
X135738095Y-52107142D01*
X135785714Y-52154761D01*
X135880952Y-52202380D01*
X136071428Y-52202380D01*
X136166666Y-52154761D01*
X136214285Y-52107142D01*
X136261904Y-52011904D01*
X136261904Y-51821428D01*
X136214285Y-51726190D01*
X136166666Y-51678571D01*
X136071428Y-51630952D01*
%TO.C,C25*%
X164857142Y-50607142D02*
X164809523Y-50654761D01*
X164666666Y-50702380D01*
X164571428Y-50702380D01*
X164428571Y-50654761D01*
X164333333Y-50559523D01*
X164285714Y-50464285D01*
X164238095Y-50273809D01*
X164238095Y-50130952D01*
X164285714Y-49940476D01*
X164333333Y-49845238D01*
X164428571Y-49750000D01*
X164571428Y-49702380D01*
X164666666Y-49702380D01*
X164809523Y-49750000D01*
X164857142Y-49797619D01*
X165238095Y-49797619D02*
X165285714Y-49750000D01*
X165380952Y-49702380D01*
X165619047Y-49702380D01*
X165714285Y-49750000D01*
X165761904Y-49797619D01*
X165809523Y-49892857D01*
X165809523Y-49988095D01*
X165761904Y-50130952D01*
X165190476Y-50702380D01*
X165809523Y-50702380D01*
X166714285Y-49702380D02*
X166238095Y-49702380D01*
X166190476Y-50178571D01*
X166238095Y-50130952D01*
X166333333Y-50083333D01*
X166571428Y-50083333D01*
X166666666Y-50130952D01*
X166714285Y-50178571D01*
X166761904Y-50273809D01*
X166761904Y-50511904D01*
X166714285Y-50607142D01*
X166666666Y-50654761D01*
X166571428Y-50702380D01*
X166333333Y-50702380D01*
X166238095Y-50654761D01*
X166190476Y-50607142D01*
%TO.C,C24*%
X164857142Y-58607142D02*
X164809523Y-58654761D01*
X164666666Y-58702380D01*
X164571428Y-58702380D01*
X164428571Y-58654761D01*
X164333333Y-58559523D01*
X164285714Y-58464285D01*
X164238095Y-58273809D01*
X164238095Y-58130952D01*
X164285714Y-57940476D01*
X164333333Y-57845238D01*
X164428571Y-57750000D01*
X164571428Y-57702380D01*
X164666666Y-57702380D01*
X164809523Y-57750000D01*
X164857142Y-57797619D01*
X165238095Y-57797619D02*
X165285714Y-57750000D01*
X165380952Y-57702380D01*
X165619047Y-57702380D01*
X165714285Y-57750000D01*
X165761904Y-57797619D01*
X165809523Y-57892857D01*
X165809523Y-57988095D01*
X165761904Y-58130952D01*
X165190476Y-58702380D01*
X165809523Y-58702380D01*
X166666666Y-58035714D02*
X166666666Y-58702380D01*
X166428571Y-57654761D02*
X166190476Y-58369047D01*
X166809523Y-58369047D01*
%TO.C,C27*%
X154357142Y-52357142D02*
X154309523Y-52404761D01*
X154166666Y-52452380D01*
X154071428Y-52452380D01*
X153928571Y-52404761D01*
X153833333Y-52309523D01*
X153785714Y-52214285D01*
X153738095Y-52023809D01*
X153738095Y-51880952D01*
X153785714Y-51690476D01*
X153833333Y-51595238D01*
X153928571Y-51500000D01*
X154071428Y-51452380D01*
X154166666Y-51452380D01*
X154309523Y-51500000D01*
X154357142Y-51547619D01*
X154738095Y-51547619D02*
X154785714Y-51500000D01*
X154880952Y-51452380D01*
X155119047Y-51452380D01*
X155214285Y-51500000D01*
X155261904Y-51547619D01*
X155309523Y-51642857D01*
X155309523Y-51738095D01*
X155261904Y-51880952D01*
X154690476Y-52452380D01*
X155309523Y-52452380D01*
X155642857Y-51452380D02*
X156309523Y-51452380D01*
X155880952Y-52452380D01*
%TO.C,C26*%
X154357142Y-54357142D02*
X154309523Y-54404761D01*
X154166666Y-54452380D01*
X154071428Y-54452380D01*
X153928571Y-54404761D01*
X153833333Y-54309523D01*
X153785714Y-54214285D01*
X153738095Y-54023809D01*
X153738095Y-53880952D01*
X153785714Y-53690476D01*
X153833333Y-53595238D01*
X153928571Y-53500000D01*
X154071428Y-53452380D01*
X154166666Y-53452380D01*
X154309523Y-53500000D01*
X154357142Y-53547619D01*
X154738095Y-53547619D02*
X154785714Y-53500000D01*
X154880952Y-53452380D01*
X155119047Y-53452380D01*
X155214285Y-53500000D01*
X155261904Y-53547619D01*
X155309523Y-53642857D01*
X155309523Y-53738095D01*
X155261904Y-53880952D01*
X154690476Y-54452380D01*
X155309523Y-54452380D01*
X156166666Y-53452380D02*
X155976190Y-53452380D01*
X155880952Y-53500000D01*
X155833333Y-53547619D01*
X155738095Y-53690476D01*
X155690476Y-53880952D01*
X155690476Y-54261904D01*
X155738095Y-54357142D01*
X155785714Y-54404761D01*
X155880952Y-54452380D01*
X156071428Y-54452380D01*
X156166666Y-54404761D01*
X156214285Y-54357142D01*
X156261904Y-54261904D01*
X156261904Y-54023809D01*
X156214285Y-53928571D01*
X156166666Y-53880952D01*
X156071428Y-53833333D01*
X155880952Y-53833333D01*
X155785714Y-53880952D01*
X155738095Y-53928571D01*
X155690476Y-54023809D01*
%TO.C,C23*%
X150107142Y-72607142D02*
X150059523Y-72654761D01*
X149916666Y-72702380D01*
X149821428Y-72702380D01*
X149678571Y-72654761D01*
X149583333Y-72559523D01*
X149535714Y-72464285D01*
X149488095Y-72273809D01*
X149488095Y-72130952D01*
X149535714Y-71940476D01*
X149583333Y-71845238D01*
X149678571Y-71750000D01*
X149821428Y-71702380D01*
X149916666Y-71702380D01*
X150059523Y-71750000D01*
X150107142Y-71797619D01*
X150488095Y-71797619D02*
X150535714Y-71750000D01*
X150630952Y-71702380D01*
X150869047Y-71702380D01*
X150964285Y-71750000D01*
X151011904Y-71797619D01*
X151059523Y-71892857D01*
X151059523Y-71988095D01*
X151011904Y-72130952D01*
X150440476Y-72702380D01*
X151059523Y-72702380D01*
X151392857Y-71702380D02*
X152011904Y-71702380D01*
X151678571Y-72083333D01*
X151821428Y-72083333D01*
X151916666Y-72130952D01*
X151964285Y-72178571D01*
X152011904Y-72273809D01*
X152011904Y-72511904D01*
X151964285Y-72607142D01*
X151916666Y-72654761D01*
X151821428Y-72702380D01*
X151535714Y-72702380D01*
X151440476Y-72654761D01*
X151392857Y-72607142D01*
%TO.C,C22*%
X136857142Y-56107142D02*
X136809523Y-56154761D01*
X136666666Y-56202380D01*
X136571428Y-56202380D01*
X136428571Y-56154761D01*
X136333333Y-56059523D01*
X136285714Y-55964285D01*
X136238095Y-55773809D01*
X136238095Y-55630952D01*
X136285714Y-55440476D01*
X136333333Y-55345238D01*
X136428571Y-55250000D01*
X136571428Y-55202380D01*
X136666666Y-55202380D01*
X136809523Y-55250000D01*
X136857142Y-55297619D01*
X137238095Y-55297619D02*
X137285714Y-55250000D01*
X137380952Y-55202380D01*
X137619047Y-55202380D01*
X137714285Y-55250000D01*
X137761904Y-55297619D01*
X137809523Y-55392857D01*
X137809523Y-55488095D01*
X137761904Y-55630952D01*
X137190476Y-56202380D01*
X137809523Y-56202380D01*
X138190476Y-55297619D02*
X138238095Y-55250000D01*
X138333333Y-55202380D01*
X138571428Y-55202380D01*
X138666666Y-55250000D01*
X138714285Y-55297619D01*
X138761904Y-55392857D01*
X138761904Y-55488095D01*
X138714285Y-55630952D01*
X138142857Y-56202380D01*
X138761904Y-56202380D01*
%TO.C,C17*%
X124857142Y-90107142D02*
X124809523Y-90154761D01*
X124666666Y-90202380D01*
X124571428Y-90202380D01*
X124428571Y-90154761D01*
X124333333Y-90059523D01*
X124285714Y-89964285D01*
X124238095Y-89773809D01*
X124238095Y-89630952D01*
X124285714Y-89440476D01*
X124333333Y-89345238D01*
X124428571Y-89250000D01*
X124571428Y-89202380D01*
X124666666Y-89202380D01*
X124809523Y-89250000D01*
X124857142Y-89297619D01*
X125809523Y-90202380D02*
X125238095Y-90202380D01*
X125523809Y-90202380D02*
X125523809Y-89202380D01*
X125428571Y-89345238D01*
X125333333Y-89440476D01*
X125238095Y-89488095D01*
X126142857Y-89202380D02*
X126809523Y-89202380D01*
X126380952Y-90202380D01*
%TO.C,C14*%
X128607142Y-110857142D02*
X128559523Y-110904761D01*
X128416666Y-110952380D01*
X128321428Y-110952380D01*
X128178571Y-110904761D01*
X128083333Y-110809523D01*
X128035714Y-110714285D01*
X127988095Y-110523809D01*
X127988095Y-110380952D01*
X128035714Y-110190476D01*
X128083333Y-110095238D01*
X128178571Y-110000000D01*
X128321428Y-109952380D01*
X128416666Y-109952380D01*
X128559523Y-110000000D01*
X128607142Y-110047619D01*
X129559523Y-110952380D02*
X128988095Y-110952380D01*
X129273809Y-110952380D02*
X129273809Y-109952380D01*
X129178571Y-110095238D01*
X129083333Y-110190476D01*
X128988095Y-110238095D01*
X130416666Y-110285714D02*
X130416666Y-110952380D01*
X130178571Y-109904761D02*
X129940476Y-110619047D01*
X130559523Y-110619047D01*
%TO.C,C11*%
X162357142Y-87357142D02*
X162309523Y-87404761D01*
X162166666Y-87452380D01*
X162071428Y-87452380D01*
X161928571Y-87404761D01*
X161833333Y-87309523D01*
X161785714Y-87214285D01*
X161738095Y-87023809D01*
X161738095Y-86880952D01*
X161785714Y-86690476D01*
X161833333Y-86595238D01*
X161928571Y-86500000D01*
X162071428Y-86452380D01*
X162166666Y-86452380D01*
X162309523Y-86500000D01*
X162357142Y-86547619D01*
X163309523Y-87452380D02*
X162738095Y-87452380D01*
X163023809Y-87452380D02*
X163023809Y-86452380D01*
X162928571Y-86595238D01*
X162833333Y-86690476D01*
X162738095Y-86738095D01*
X164261904Y-87452380D02*
X163690476Y-87452380D01*
X163976190Y-87452380D02*
X163976190Y-86452380D01*
X163880952Y-86595238D01*
X163785714Y-86690476D01*
X163690476Y-86738095D01*
%TO.C,C10*%
X162357142Y-89357142D02*
X162309523Y-89404761D01*
X162166666Y-89452380D01*
X162071428Y-89452380D01*
X161928571Y-89404761D01*
X161833333Y-89309523D01*
X161785714Y-89214285D01*
X161738095Y-89023809D01*
X161738095Y-88880952D01*
X161785714Y-88690476D01*
X161833333Y-88595238D01*
X161928571Y-88500000D01*
X162071428Y-88452380D01*
X162166666Y-88452380D01*
X162309523Y-88500000D01*
X162357142Y-88547619D01*
X163309523Y-89452380D02*
X162738095Y-89452380D01*
X163023809Y-89452380D02*
X163023809Y-88452380D01*
X162928571Y-88595238D01*
X162833333Y-88690476D01*
X162738095Y-88738095D01*
X163928571Y-88452380D02*
X164023809Y-88452380D01*
X164119047Y-88500000D01*
X164166666Y-88547619D01*
X164214285Y-88642857D01*
X164261904Y-88833333D01*
X164261904Y-89071428D01*
X164214285Y-89261904D01*
X164166666Y-89357142D01*
X164119047Y-89404761D01*
X164023809Y-89452380D01*
X163928571Y-89452380D01*
X163833333Y-89404761D01*
X163785714Y-89357142D01*
X163738095Y-89261904D01*
X163690476Y-89071428D01*
X163690476Y-88833333D01*
X163738095Y-88642857D01*
X163785714Y-88547619D01*
X163833333Y-88500000D01*
X163928571Y-88452380D01*
%TO.C,C8*%
X139333333Y-87357142D02*
X139285714Y-87404761D01*
X139142857Y-87452380D01*
X139047619Y-87452380D01*
X138904761Y-87404761D01*
X138809523Y-87309523D01*
X138761904Y-87214285D01*
X138714285Y-87023809D01*
X138714285Y-86880952D01*
X138761904Y-86690476D01*
X138809523Y-86595238D01*
X138904761Y-86500000D01*
X139047619Y-86452380D01*
X139142857Y-86452380D01*
X139285714Y-86500000D01*
X139333333Y-86547619D01*
X139904761Y-86880952D02*
X139809523Y-86833333D01*
X139761904Y-86785714D01*
X139714285Y-86690476D01*
X139714285Y-86642857D01*
X139761904Y-86547619D01*
X139809523Y-86500000D01*
X139904761Y-86452380D01*
X140095238Y-86452380D01*
X140190476Y-86500000D01*
X140238095Y-86547619D01*
X140285714Y-86642857D01*
X140285714Y-86690476D01*
X140238095Y-86785714D01*
X140190476Y-86833333D01*
X140095238Y-86880952D01*
X139904761Y-86880952D01*
X139809523Y-86928571D01*
X139761904Y-86976190D01*
X139714285Y-87071428D01*
X139714285Y-87261904D01*
X139761904Y-87357142D01*
X139809523Y-87404761D01*
X139904761Y-87452380D01*
X140095238Y-87452380D01*
X140190476Y-87404761D01*
X140238095Y-87357142D01*
X140285714Y-87261904D01*
X140285714Y-87071428D01*
X140238095Y-86976190D01*
X140190476Y-86928571D01*
X140095238Y-86880952D01*
%TO.C,C7*%
X135083333Y-91607142D02*
X135035714Y-91654761D01*
X134892857Y-91702380D01*
X134797619Y-91702380D01*
X134654761Y-91654761D01*
X134559523Y-91559523D01*
X134511904Y-91464285D01*
X134464285Y-91273809D01*
X134464285Y-91130952D01*
X134511904Y-90940476D01*
X134559523Y-90845238D01*
X134654761Y-90750000D01*
X134797619Y-90702380D01*
X134892857Y-90702380D01*
X135035714Y-90750000D01*
X135083333Y-90797619D01*
X135416666Y-90702380D02*
X136083333Y-90702380D01*
X135654761Y-91702380D01*
%TO.C,C5*%
X155658333Y-70657142D02*
X155610714Y-70704761D01*
X155467857Y-70752380D01*
X155372619Y-70752380D01*
X155229761Y-70704761D01*
X155134523Y-70609523D01*
X155086904Y-70514285D01*
X155039285Y-70323809D01*
X155039285Y-70180952D01*
X155086904Y-69990476D01*
X155134523Y-69895238D01*
X155229761Y-69800000D01*
X155372619Y-69752380D01*
X155467857Y-69752380D01*
X155610714Y-69800000D01*
X155658333Y-69847619D01*
X156563095Y-69752380D02*
X156086904Y-69752380D01*
X156039285Y-70228571D01*
X156086904Y-70180952D01*
X156182142Y-70133333D01*
X156420238Y-70133333D01*
X156515476Y-70180952D01*
X156563095Y-70228571D01*
X156610714Y-70323809D01*
X156610714Y-70561904D01*
X156563095Y-70657142D01*
X156515476Y-70704761D01*
X156420238Y-70752380D01*
X156182142Y-70752380D01*
X156086904Y-70704761D01*
X156039285Y-70657142D01*
%TO.C,C4*%
X155658333Y-68657142D02*
X155610714Y-68704761D01*
X155467857Y-68752380D01*
X155372619Y-68752380D01*
X155229761Y-68704761D01*
X155134523Y-68609523D01*
X155086904Y-68514285D01*
X155039285Y-68323809D01*
X155039285Y-68180952D01*
X155086904Y-67990476D01*
X155134523Y-67895238D01*
X155229761Y-67800000D01*
X155372619Y-67752380D01*
X155467857Y-67752380D01*
X155610714Y-67800000D01*
X155658333Y-67847619D01*
X156515476Y-68085714D02*
X156515476Y-68752380D01*
X156277380Y-67704761D02*
X156039285Y-68419047D01*
X156658333Y-68419047D01*
%TO.C,C2*%
X133283333Y-70807142D02*
X133235714Y-70854761D01*
X133092857Y-70902380D01*
X132997619Y-70902380D01*
X132854761Y-70854761D01*
X132759523Y-70759523D01*
X132711904Y-70664285D01*
X132664285Y-70473809D01*
X132664285Y-70330952D01*
X132711904Y-70140476D01*
X132759523Y-70045238D01*
X132854761Y-69950000D01*
X132997619Y-69902380D01*
X133092857Y-69902380D01*
X133235714Y-69950000D01*
X133283333Y-69997619D01*
X133664285Y-69997619D02*
X133711904Y-69950000D01*
X133807142Y-69902380D01*
X134045238Y-69902380D01*
X134140476Y-69950000D01*
X134188095Y-69997619D01*
X134235714Y-70092857D01*
X134235714Y-70188095D01*
X134188095Y-70330952D01*
X133616666Y-70902380D01*
X134235714Y-70902380D01*
%TO.C,C1*%
X133283333Y-68807142D02*
X133235714Y-68854761D01*
X133092857Y-68902380D01*
X132997619Y-68902380D01*
X132854761Y-68854761D01*
X132759523Y-68759523D01*
X132711904Y-68664285D01*
X132664285Y-68473809D01*
X132664285Y-68330952D01*
X132711904Y-68140476D01*
X132759523Y-68045238D01*
X132854761Y-67950000D01*
X132997619Y-67902380D01*
X133092857Y-67902380D01*
X133235714Y-67950000D01*
X133283333Y-67997619D01*
X134235714Y-68902380D02*
X133664285Y-68902380D01*
X133950000Y-68902380D02*
X133950000Y-67902380D01*
X133854761Y-68045238D01*
X133759523Y-68140476D01*
X133664285Y-68188095D01*
%TO.C,C18*%
X132107142Y-106642857D02*
X132154761Y-106690476D01*
X132202380Y-106833333D01*
X132202380Y-106928571D01*
X132154761Y-107071428D01*
X132059523Y-107166666D01*
X131964285Y-107214285D01*
X131773809Y-107261904D01*
X131630952Y-107261904D01*
X131440476Y-107214285D01*
X131345238Y-107166666D01*
X131250000Y-107071428D01*
X131202380Y-106928571D01*
X131202380Y-106833333D01*
X131250000Y-106690476D01*
X131297619Y-106642857D01*
X132202380Y-105690476D02*
X132202380Y-106261904D01*
X132202380Y-105976190D02*
X131202380Y-105976190D01*
X131345238Y-106071428D01*
X131440476Y-106166666D01*
X131488095Y-106261904D01*
X131630952Y-105119047D02*
X131583333Y-105214285D01*
X131535714Y-105261904D01*
X131440476Y-105309523D01*
X131392857Y-105309523D01*
X131297619Y-105261904D01*
X131250000Y-105214285D01*
X131202380Y-105119047D01*
X131202380Y-104928571D01*
X131250000Y-104833333D01*
X131297619Y-104785714D01*
X131392857Y-104738095D01*
X131440476Y-104738095D01*
X131535714Y-104785714D01*
X131583333Y-104833333D01*
X131630952Y-104928571D01*
X131630952Y-105119047D01*
X131678571Y-105214285D01*
X131726190Y-105261904D01*
X131821428Y-105309523D01*
X132011904Y-105309523D01*
X132107142Y-105261904D01*
X132154761Y-105214285D01*
X132202380Y-105119047D01*
X132202380Y-104928571D01*
X132154761Y-104833333D01*
X132107142Y-104785714D01*
X132011904Y-104738095D01*
X131821428Y-104738095D01*
X131726190Y-104785714D01*
X131678571Y-104833333D01*
X131630952Y-104928571D01*
%TO.C,J10*%
X174590476Y-104372380D02*
X174590476Y-105086666D01*
X174542857Y-105229523D01*
X174447619Y-105324761D01*
X174304761Y-105372380D01*
X174209523Y-105372380D01*
X175590476Y-105372380D02*
X175019047Y-105372380D01*
X175304761Y-105372380D02*
X175304761Y-104372380D01*
X175209523Y-104515238D01*
X175114285Y-104610476D01*
X175019047Y-104658095D01*
X176209523Y-104372380D02*
X176304761Y-104372380D01*
X176400000Y-104420000D01*
X176447619Y-104467619D01*
X176495238Y-104562857D01*
X176542857Y-104753333D01*
X176542857Y-104991428D01*
X176495238Y-105181904D01*
X176447619Y-105277142D01*
X176400000Y-105324761D01*
X176304761Y-105372380D01*
X176209523Y-105372380D01*
X176114285Y-105324761D01*
X176066666Y-105277142D01*
X176019047Y-105181904D01*
X175971428Y-104991428D01*
X175971428Y-104753333D01*
X176019047Y-104562857D01*
X176066666Y-104467619D01*
X176114285Y-104420000D01*
X176209523Y-104372380D01*
%TO.C,C32*%
X162857142Y-60607142D02*
X162809523Y-60654761D01*
X162666666Y-60702380D01*
X162571428Y-60702380D01*
X162428571Y-60654761D01*
X162333333Y-60559523D01*
X162285714Y-60464285D01*
X162238095Y-60273809D01*
X162238095Y-60130952D01*
X162285714Y-59940476D01*
X162333333Y-59845238D01*
X162428571Y-59750000D01*
X162571428Y-59702380D01*
X162666666Y-59702380D01*
X162809523Y-59750000D01*
X162857142Y-59797619D01*
X163190476Y-59702380D02*
X163809523Y-59702380D01*
X163476190Y-60083333D01*
X163619047Y-60083333D01*
X163714285Y-60130952D01*
X163761904Y-60178571D01*
X163809523Y-60273809D01*
X163809523Y-60511904D01*
X163761904Y-60607142D01*
X163714285Y-60654761D01*
X163619047Y-60702380D01*
X163333333Y-60702380D01*
X163238095Y-60654761D01*
X163190476Y-60607142D01*
X164190476Y-59797619D02*
X164238095Y-59750000D01*
X164333333Y-59702380D01*
X164571428Y-59702380D01*
X164666666Y-59750000D01*
X164714285Y-59797619D01*
X164761904Y-59892857D01*
X164761904Y-59988095D01*
X164714285Y-60130952D01*
X164142857Y-60702380D01*
X164761904Y-60702380D01*
%TO.C,Y1*%
X161773809Y-50476190D02*
X161773809Y-50952380D01*
X161440476Y-49952380D02*
X161773809Y-50476190D01*
X162107142Y-49952380D01*
X162964285Y-50952380D02*
X162392857Y-50952380D01*
X162678571Y-50952380D02*
X162678571Y-49952380D01*
X162583333Y-50095238D01*
X162488095Y-50190476D01*
X162392857Y-50238095D01*
%TO.C,L1*%
X155333333Y-50202380D02*
X154857142Y-50202380D01*
X154857142Y-49202380D01*
X156190476Y-50202380D02*
X155619047Y-50202380D01*
X155904761Y-50202380D02*
X155904761Y-49202380D01*
X155809523Y-49345238D01*
X155714285Y-49440476D01*
X155619047Y-49488095D01*
%TD*%
M02*
