%TF.GenerationSoftware,KiCad,Pcbnew,(5.1.6)-1*%
%TF.CreationDate,2021-11-17T22:19:31+01:00*%
%TF.ProjectId,sneak100_main_board,736e6561-6b31-4303-905f-6d61696e5f62,rev?*%
%TF.SameCoordinates,Original*%
%TF.FileFunction,Paste,Bot*%
%TF.FilePolarity,Positive*%
%FSLAX46Y46*%
G04 Gerber Fmt 4.6, Leading zero omitted, Abs format (unit mm)*
G04 Created by KiCad (PCBNEW (5.1.6)-1) date 2021-11-17 22:19:31*
%MOMM*%
%LPD*%
G01*
G04 APERTURE LIST*
G04 APERTURE END LIST*
%TO.C,U10*%
G36*
G01*
X145645000Y-73700000D02*
X145945000Y-73700000D01*
G75*
G02*
X146095000Y-73850000I0J-150000D01*
G01*
X146095000Y-75500000D01*
G75*
G02*
X145945000Y-75650000I-150000J0D01*
G01*
X145645000Y-75650000D01*
G75*
G02*
X145495000Y-75500000I0J150000D01*
G01*
X145495000Y-73850000D01*
G75*
G02*
X145645000Y-73700000I150000J0D01*
G01*
G37*
G36*
G01*
X146915000Y-73700000D02*
X147215000Y-73700000D01*
G75*
G02*
X147365000Y-73850000I0J-150000D01*
G01*
X147365000Y-75500000D01*
G75*
G02*
X147215000Y-75650000I-150000J0D01*
G01*
X146915000Y-75650000D01*
G75*
G02*
X146765000Y-75500000I0J150000D01*
G01*
X146765000Y-73850000D01*
G75*
G02*
X146915000Y-73700000I150000J0D01*
G01*
G37*
G36*
G01*
X148185000Y-73700000D02*
X148485000Y-73700000D01*
G75*
G02*
X148635000Y-73850000I0J-150000D01*
G01*
X148635000Y-75500000D01*
G75*
G02*
X148485000Y-75650000I-150000J0D01*
G01*
X148185000Y-75650000D01*
G75*
G02*
X148035000Y-75500000I0J150000D01*
G01*
X148035000Y-73850000D01*
G75*
G02*
X148185000Y-73700000I150000J0D01*
G01*
G37*
G36*
G01*
X149455000Y-73700000D02*
X149755000Y-73700000D01*
G75*
G02*
X149905000Y-73850000I0J-150000D01*
G01*
X149905000Y-75500000D01*
G75*
G02*
X149755000Y-75650000I-150000J0D01*
G01*
X149455000Y-75650000D01*
G75*
G02*
X149305000Y-75500000I0J150000D01*
G01*
X149305000Y-73850000D01*
G75*
G02*
X149455000Y-73700000I150000J0D01*
G01*
G37*
G36*
G01*
X149455000Y-68750000D02*
X149755000Y-68750000D01*
G75*
G02*
X149905000Y-68900000I0J-150000D01*
G01*
X149905000Y-70550000D01*
G75*
G02*
X149755000Y-70700000I-150000J0D01*
G01*
X149455000Y-70700000D01*
G75*
G02*
X149305000Y-70550000I0J150000D01*
G01*
X149305000Y-68900000D01*
G75*
G02*
X149455000Y-68750000I150000J0D01*
G01*
G37*
G36*
G01*
X148185000Y-68750000D02*
X148485000Y-68750000D01*
G75*
G02*
X148635000Y-68900000I0J-150000D01*
G01*
X148635000Y-70550000D01*
G75*
G02*
X148485000Y-70700000I-150000J0D01*
G01*
X148185000Y-70700000D01*
G75*
G02*
X148035000Y-70550000I0J150000D01*
G01*
X148035000Y-68900000D01*
G75*
G02*
X148185000Y-68750000I150000J0D01*
G01*
G37*
G36*
G01*
X146915000Y-68750000D02*
X147215000Y-68750000D01*
G75*
G02*
X147365000Y-68900000I0J-150000D01*
G01*
X147365000Y-70550000D01*
G75*
G02*
X147215000Y-70700000I-150000J0D01*
G01*
X146915000Y-70700000D01*
G75*
G02*
X146765000Y-70550000I0J150000D01*
G01*
X146765000Y-68900000D01*
G75*
G02*
X146915000Y-68750000I150000J0D01*
G01*
G37*
G36*
G01*
X145645000Y-68750000D02*
X145945000Y-68750000D01*
G75*
G02*
X146095000Y-68900000I0J-150000D01*
G01*
X146095000Y-70550000D01*
G75*
G02*
X145945000Y-70700000I-150000J0D01*
G01*
X145645000Y-70700000D01*
G75*
G02*
X145495000Y-70550000I0J150000D01*
G01*
X145495000Y-68900000D01*
G75*
G02*
X145645000Y-68750000I150000J0D01*
G01*
G37*
%TD*%
M02*
