M48
; DRILL file {KiCad (5.1.6)-1} date 11/15/21 16:19:18
; FORMAT={3:3/ absolute / metric / suppress leading zeros}
; #@! TF.CreationDate,2021-11-15T16:19:18+01:00
; #@! TF.GenerationSoftware,Kicad,Pcbnew,(5.1.6)-1
FMAT,2
METRIC,TZ
T1C0.300
T2C0.400
T3C0.762
T4C1.000
T5C2.100
%
G90
G05
T1
X152500Y-86700
X129750Y-86650
X131750Y-86650
X163750Y-70600
X140950Y-70600
X141950Y-70600
X142950Y-70600
X153500Y-86700
X154500Y-86700
X130750Y-86650
X164750Y-70600
X165750Y-70600
T2
X114750Y-80000
X115000Y-50000
X115000Y-52000
X117000Y-81000
X117000Y-83000
X117800Y-56600
X118500Y-55500
X118500Y-73000
X118500Y-74250
X118500Y-75750
X119000Y-83000
X120710Y-58040
X121710Y-58040
X122500Y-75250
X122500Y-76500
X122500Y-78250
X124000Y-115000
X124250Y-64500
X124750Y-105500
X124750Y-106500
X125000Y-63500
X125750Y-105500
X125750Y-106500
X125750Y-114750
X126250Y-64000
X126750Y-105500
X126750Y-106500
X127750Y-110750
X128250Y-100750
X128500Y-61500
X128500Y-82750
X128500Y-84000
X129000Y-69500
X129500Y-62000
X129750Y-77750
X130250Y-66250
X130250Y-68250
X130250Y-111500
X130250Y-112750
X130750Y-58500
X131200Y-54200
X131500Y-77750
X131750Y-83200
X132000Y-52000
X132000Y-96500
X132000Y-99500
X132250Y-93000
X132250Y-94000
X132500Y-65000
X133250Y-77750
X133250Y-93000
X133250Y-94000
X133500Y-86500
X133500Y-87500
X133500Y-88500
X133500Y-89500
X133500Y-110000
X133750Y-65500
X133750Y-68750
X134000Y-50000
X134000Y-52000
X134250Y-93000
X134250Y-94000
X134500Y-86500
X134500Y-87500
X134500Y-88500
X134500Y-89500
X135000Y-77750
X135250Y-58750
X135500Y-110000
X136000Y-50000
X136000Y-52000
X137800Y-54200
X138000Y-50000
X138250Y-70250
X138250Y-71250
X138250Y-72250
X138250Y-73250
X138500Y-108000
X138600Y-55200
X138750Y-83250
X138750Y-84750
X138750Y-86250
X138800Y-53200
X139250Y-70250
X139250Y-71250
X139250Y-72250
X139250Y-73250
X139400Y-56400
X139600Y-52200
X139750Y-113500
X140000Y-64250
X140000Y-83250
X140000Y-84750
X140000Y-86250
X140500Y-79000
X141000Y-63750
X141000Y-73750
X141750Y-67000
X142000Y-60000
X142000Y-79000
X142000Y-99500
X142000Y-101000
X142500Y-53000
X142500Y-108500
X143250Y-59750
X143500Y-68250
X143500Y-99500
X143500Y-101000
X143750Y-50000
X143750Y-52500
X143750Y-53750
X144500Y-59750
X144500Y-61000
X144500Y-81250
X144500Y-83500
X144500Y-85000
X145000Y-99500
X145000Y-101000
X145500Y-109000
X145750Y-61250
X146000Y-83500
X146250Y-56750
X146389Y-52361
X146500Y-99500
X146500Y-101000
X146750Y-61750
X146750Y-113500
X146800Y-75500
X147000Y-108500
X147250Y-57250
X147750Y-52750
X148200Y-75500
X148250Y-65000
X148750Y-63750
X148800Y-74000
X149000Y-55500
X149111Y-52361
X149250Y-62750
X149500Y-86500
X149600Y-75500
X149750Y-56500
X150000Y-69000
X150000Y-108500
X150250Y-62250
X150750Y-57250
X151000Y-52500
X151000Y-82000
X151000Y-83500
X151000Y-85000
X151000Y-86500
X151250Y-61750
X151250Y-67250
X152250Y-52500
X152250Y-66500
X152400Y-67800
X152500Y-109000
X153000Y-70000
X153400Y-68800
X153500Y-77500
X153500Y-79000
X153750Y-113500
X153800Y-66400
X154450Y-83200
X154500Y-101000
X154500Y-103000
X154500Y-108500
X154500Y-111500
X155000Y-77500
X155000Y-79000
X155600Y-66400
X155800Y-64800
X156000Y-54000
X156000Y-63600
X156000Y-70250
X156250Y-57250
X156250Y-84000
X156250Y-85000
X156250Y-86000
X156250Y-87000
X156500Y-77500
X156500Y-79000
X156500Y-101000
X156500Y-103000
X156900Y-93400
X156900Y-94500
X156900Y-95600
X156900Y-96700
X157250Y-84000
X157250Y-85000
X157250Y-86000
X157250Y-87000
X157500Y-56750
X157500Y-108500
X157500Y-111500
X158000Y-93400
X158000Y-94500
X158000Y-95600
X158000Y-96700
X158250Y-65500
X159000Y-56750
X159100Y-93400
X159100Y-94500
X159100Y-95600
X159100Y-96700
X159500Y-65750
X160500Y-111500
X160500Y-114500
X161000Y-70250
X161000Y-71250
X161000Y-72250
X161000Y-73250
X162000Y-70250
X162000Y-71250
X162000Y-72250
X162000Y-73250
X162500Y-77500
X162500Y-79000
X163000Y-67250
X163000Y-100250
X163000Y-103250
X163250Y-89750
X163500Y-114500
X163950Y-73750
X164000Y-65000
X164000Y-66500
X164000Y-77500
X164000Y-79000
X164000Y-92250
X164250Y-93750
X165000Y-67250
X165250Y-90500
X165250Y-91750
X165500Y-77500
X165500Y-79000
X166000Y-65000
X166000Y-66250
X166500Y-114500
X166750Y-87500
X166750Y-88750
X166750Y-90000
X167000Y-77500
X167000Y-98000
X167000Y-101000
X167250Y-70500
X167250Y-72000
X167250Y-73500
X167500Y-80750
X167500Y-82000
X168000Y-53000
X168000Y-55000
X168250Y-59750
X168750Y-61000
X169500Y-86500
X169500Y-87500
X169500Y-88500
X169500Y-114500
X170000Y-53000
X170000Y-55000
X170000Y-92000
X170000Y-95000
X170000Y-98000
X170000Y-101000
X170500Y-86500
X170500Y-87500
X170500Y-88500
X171000Y-59750
X171000Y-62250
X171500Y-63250
X172000Y-53000
X172000Y-55000
X172000Y-57000
X172000Y-65000
X173000Y-76500
X173000Y-78000
X173000Y-89000
X173000Y-92000
X173000Y-95000
X173000Y-98000
X174000Y-53000
X174000Y-57000
X174000Y-59000
X174000Y-63000
X174000Y-65000
X174250Y-105000
X174500Y-76500
X174500Y-78000
X176000Y-57000
X176000Y-59000
X176000Y-63000
X176000Y-65000
X178000Y-60000
X179250Y-103500
X179500Y-106250
T3
X164210Y-110750
X166750Y-110750
X169290Y-110750
X164960Y-107750
X167500Y-107750
X170040Y-107750
X143940Y-78440
X146480Y-78440
X149020Y-78440
X151560Y-78440
T4
X130000Y-75750
X132540Y-75750
X135080Y-75750
X137620Y-75750
X140160Y-75750
X142700Y-75750
X142000Y-43250
X142000Y-45790
X142000Y-48330
X117210Y-85090
X117210Y-87630
X117210Y-90170
X117210Y-92710
X117210Y-95250
X119750Y-85090
X119750Y-87630
X119750Y-90170
X119750Y-92710
X119750Y-95250
X152800Y-75750
X155340Y-75750
X157880Y-75750
X160420Y-75750
X162960Y-75750
X165500Y-75750
X149750Y-43250
X149750Y-45790
X149750Y-48330
X175400Y-89450
X175400Y-91990
X175400Y-94530
X175400Y-97070
X175400Y-99610
X175400Y-102150
X145750Y-43250
X145750Y-45790
X145750Y-48330
X130000Y-81250
X132540Y-81250
X135080Y-81250
X137620Y-81250
X140160Y-81250
X142700Y-81250
X118670Y-68460
X118670Y-71000
X121210Y-68460
X121210Y-71000
X123750Y-68460
X123750Y-71000
X116000Y-102750
X118540Y-102750
X121080Y-102750
X152800Y-81250
X155340Y-81250
X157880Y-81250
X160420Y-81250
X162960Y-81250
X165500Y-81250
X172650Y-81550
X172650Y-84090
X172650Y-86630
X146500Y-81250
X149040Y-81250
X171670Y-68460
X171670Y-71000
X174210Y-68460
X174210Y-71000
X176750Y-68460
X176750Y-71000
X153500Y-43250
X153500Y-45790
X153500Y-48330
X115250Y-55670
X115250Y-58210
X115250Y-60750
T5
X136000Y-102250
X159500Y-102250
T0
M30
